<svg xmlns="http://www.w3.org/2000/svg" viewBox="0 0 193.77 242.21"><defs><style>.cls-1{fill:#fff;}.cls-2{fill:#91c044;}</style></defs><title>Risorsa 1</title><g id="Livello_2" data-name="Livello 2"><g id="Layer_1" data-name="Layer 1"><path class="cls-1" d="M15.32,93.34H3.55a3.55,3.55,0,1,0,0,7.1H15.32a3.55,3.55,0,1,0,0-7.1Z"/><path class="cls-1" d="M190.23,93.34H178.46a3.55,3.55,0,0,0,0,7.1h11.77a3.55,3.55,0,0,0,0-7.1Z"/><path class="cls-1" d="M36.7,152.06l-8.32,8.32a3.55,3.55,0,0,0,5,5l8.32-8.33a3.55,3.55,0,0,0-5-5Z"/><path class="cls-1" d="M96.89,18.87a3.55,3.55,0,0,0,3.55-3.55V3.55a3.55,3.55,0,1,0-7.1,0V15.32A3.55,3.55,0,0,0,96.89,18.87Z"/><path class="cls-1" d="M157.07,152.06a3.54,3.54,0,0,0-5,5l8.32,8.33a3.55,3.55,0,0,0,5-5Z"/><path class="cls-1" d="M36.7,41.72a3.55,3.55,0,0,0,5-5L33.4,28.38a3.55,3.55,0,0,0-5,5Z"/><path class="cls-2" d="M181.37,61.36A8.68,8.68,0,0,0,190,52.69V31.17a8.68,8.68,0,0,0-8.67-8.67h-20.5a8.67,8.67,0,0,0,0,17.34h.06L150.88,50.06A71.68,71.68,0,0,0,105.6,25.83a3.55,3.55,0,1,0-.86,7,64.54,64.54,0,0,1,41.15,22.26l-37,37.67L97.51,84.74A8.67,8.67,0,0,0,86,86.05l-29.44,33.1a8.67,8.67,0,1,0,12.95,11.52l24.28-27.3,11,7.84a8.63,8.63,0,0,0,11.19-1l39.37-40a63.14,63.14,0,0,1,5,17,3.55,3.55,0,1,0,7-1,70.59,70.59,0,0,0-6.71-21.4l12-12.21v.11A8.67,8.67,0,0,0,181.37,61.36ZM111,105.24a1.55,1.55,0,0,1-2,.18L95.32,95.74a3.55,3.55,0,0,0-4.7.54L64.22,126a1.57,1.57,0,0,1-2.35-2.08l29.45-33.1a1.58,1.58,0,0,1,2.08-.24l13.81,9.81a3.56,3.56,0,0,0,4.58-.41l60.13-61.15a3.55,3.55,0,0,0-2.53-6h-8.52a1.57,1.57,0,0,1,0-3.14h20.5a1.57,1.57,0,0,1,1.57,1.57V52.69a1.57,1.57,0,0,1-3.14,0V43.91a3.55,3.55,0,0,0-6.08-2.49Z"/><path class="cls-1" d="M164.64,99.73a3.55,3.55,0,0,0-3.88,3.19A64.59,64.59,0,0,1,131,151a23.88,23.88,0,0,0-11.27,20.3v14.61H74.09V171a23.37,23.37,0,0,0-10.93-19.76A64.19,64.19,0,0,1,89,32.88a3.55,3.55,0,1,0-.87-7A71.27,71.27,0,0,0,59.42,157.22,16.22,16.22,0,0,1,67,171v15.44a9.25,9.25,0,0,0-6.21,8.71v5.06a9.18,9.18,0,0,0,2,5.68,9.13,9.13,0,0,0-2,5.67v5.06A9.24,9.24,0,0,0,70,225.8H81.16v8a8.41,8.41,0,0,0,8.4,8.39h14.66a8.4,8.4,0,0,0,8.39-8.39v-8h11.15a9.24,9.24,0,0,0,9.23-9.23v-5.06a9.13,9.13,0,0,0-2-5.67,9.18,9.18,0,0,0,2-5.68V195.1a9.24,9.24,0,0,0-6.21-8.71V171.27a16.82,16.82,0,0,1,8-14.29,71.25,71.25,0,0,0,33.08-53.37A3.55,3.55,0,0,0,164.64,99.73ZM123.76,193a2.16,2.16,0,0,1,2.13,2.13v5.06a2.16,2.16,0,0,1-2.13,2.13H70a2.16,2.16,0,0,1-2.13-2.13V195.1A2.16,2.16,0,0,1,70,193Zm-18.25,40.85a1.31,1.31,0,0,1-1.29,1.29H89.56a1.31,1.31,0,0,1-1.3-1.29v-8h17.25v8Zm20.38-17.25a2.16,2.16,0,0,1-2.13,2.13H70a2.16,2.16,0,0,1-2.13-2.13v-5.06A2.16,2.16,0,0,1,70,209.38h53.75a2.16,2.16,0,0,1,2.13,2.13Z"/></g></g></svg>