<svg xmlns="http://www.w3.org/2000/svg" viewBox="0 0 281.67 171.8"><defs><style>.cls-1{fill:#fff;}.cls-2{fill:#91c044;}</style></defs><title>Risorsa 2</title><g id="Livello_2" data-name="Livello 2"><g id="Layer_1" data-name="Layer 1"><path class="cls-1" d="M62.17,116.89v34.42A10.74,10.74,0,0,0,71.75,162a11.56,11.56,0,0,0,10.8,7.49h29A11.56,11.56,0,0,0,122.32,162a10.75,10.75,0,0,0,10.17-10.7V137.55l41.85,12.86a4.13,4.13,0,1,0,2.43-7.89L70.42,109.85V62L208.68,19.48V152.32l-13.5-4.14a4.12,4.12,0,1,0-2.43,7.88l16,4.91a11.55,11.55,0,0,0,23.07-.72V105.07a19.61,19.61,0,0,0,0-38.34V50.18a4.13,4.13,0,0,0-8.26,0V160.25a3.3,3.3,0,0,1-6.6,0V11.55a3.3,3.3,0,0,1,6.6,0V30.93a4.13,4.13,0,0,0,8.26,0V11.55a11.55,11.55,0,0,0-23.07-.72l-143.11,44L22.16,56.31A11.55,11.55,0,0,0,0,60.89v50a11.55,11.55,0,0,0,22.16,4.57l40,1.4m-47.32-6a3.3,3.3,0,1,1-6.6,0v-50a3.3,3.3,0,0,1,6.6,0Zm47.32-2.28-39.06-1.36V99.33l39.06.5Zm0-36.66-10,.13a4.13,4.13,0,0,0,.11,8.25l9.85-.13V91.58l-39.06-.5V80.72l10-.13a4.13,4.13,0,1,0-.1-8.25l-9.85.13V64.53l39.06-1.36Zm49.36,89.24h-29a3.3,3.3,0,0,1,0-6.6h29a3.3,3.3,0,1,1,0,6.6ZM124.24,135v16.29a2.52,2.52,0,0,1-1.94,2.41,11.62,11.62,0,0,0-10.77-7.37c-30.51,0-30.46-.33-33.38.88a11.68,11.68,0,0,0-6.29,6.31,2.5,2.5,0,0,1-1.44-2.23V118.49ZM231.79,96.48V75.32A11.37,11.37,0,0,1,231.79,96.48Z"/><path class="cls-2" d="M277.55,81.77H258.09a4.13,4.13,0,1,0,0,8.26h19.46a4.13,4.13,0,0,0,0-8.26Z"/><path class="cls-2" d="M251.36,50.73l13.86-13.86A4.13,4.13,0,0,0,259.38,31L245.53,44.89a4.13,4.13,0,1,0,5.83,5.84Z"/><path class="cls-2" d="M257.62,68.7l18.72-5.79A4.12,4.12,0,1,0,273.9,55l-18.72,5.78C250,62.41,252.34,70.33,257.62,68.7Z"/><path class="cls-2" d="M276.34,108.82,257.62,103a4.12,4.12,0,0,0-2.44,7.88l18.72,5.79a4.13,4.13,0,0,0,2.44-7.89Z"/><path class="cls-2" d="M251.36,121.07a4.13,4.13,0,1,0-5.83,5.84l13.85,13.86a4.13,4.13,0,1,0,5.84-5.84Z"/></g></g></svg>