<svg xmlns="http://www.w3.org/2000/svg" viewBox="0 0 464.76 464.76"><defs><style>.cls-1{fill:#fff;}</style></defs><title>Risorsa 4</title><g id="Livello_2" data-name="Livello 2"><g id="Layer_1" data-name="Layer 1"><path class="cls-1" d="M441.52,464.76H23.24A23.27,23.27,0,0,1,0,441.52V247.87a23.27,23.27,0,0,1,23.24-23.24H441.52a23.27,23.27,0,0,1,23.24,23.24V441.52a23.27,23.27,0,0,1-23.24,23.24ZM23.24,240.13a7.75,7.75,0,0,0-7.75,7.74V441.52a7.76,7.76,0,0,0,7.75,7.75H441.52a7.76,7.76,0,0,0,7.75-7.75V247.87a7.75,7.75,0,0,0-7.75-7.74Z"/><path class="cls-1" d="M441.52,240.13H23.24a7.75,7.75,0,0,1-7.75-7.75V54.22A23.27,23.27,0,0,1,38.73,31H426a23.27,23.27,0,0,1,23.24,23.24V232.38a7.75,7.75,0,0,1-7.75,7.75ZM31,224.63H433.77V54.22A7.75,7.75,0,0,0,426,46.48H38.73A7.75,7.75,0,0,0,31,54.22Z"/><path class="cls-1" d="M271.11,46.48H193.65a7.75,7.75,0,0,1-7.75-7.75V23.24A23.27,23.27,0,0,1,209.14,0h46.48a23.27,23.27,0,0,1,23.24,23.24V38.73a7.75,7.75,0,0,1-7.75,7.75ZM201.4,31h62V23.24a7.75,7.75,0,0,0-7.74-7.75H209.14a7.75,7.75,0,0,0-7.74,7.75Z"/><path class="cls-1" d="M100.7,46.48H54.22a7.73,7.73,0,0,1-7.74-7.75V23.24A23.26,23.26,0,0,1,69.71,0h15.5a23.26,23.26,0,0,1,23.23,23.24V38.73a7.73,7.73,0,0,1-7.74,7.75ZM62,31H93V23.24a7.75,7.75,0,0,0-7.74-7.75H69.71A7.75,7.75,0,0,0,62,23.24Z"/><path class="cls-1" d="M410.54,46.48H364.06a7.75,7.75,0,0,1-7.75-7.75V23.24A23.27,23.27,0,0,1,379.55,0H395a23.26,23.26,0,0,1,23.24,23.24V38.73a7.75,7.75,0,0,1-7.74,7.75ZM371.81,31h31V23.24A7.76,7.76,0,0,0,395,15.49H379.55a7.75,7.75,0,0,0-7.74,7.75Z"/><path class="cls-1" d="M85.21,379.55H69.71a23.26,23.26,0,0,1-23.23-23.24V232.38a7.73,7.73,0,0,1,7.74-7.75H100.7a7.73,7.73,0,0,1,7.74,7.75V356.31A23.26,23.26,0,0,1,85.21,379.55ZM62,240.13V356.31a7.75,7.75,0,0,0,7.74,7.75h15.5A7.75,7.75,0,0,0,93,356.31V240.13Z"/><path class="cls-1" d="M395,379.55H379.55a23.27,23.27,0,0,1-23.24-23.24V232.38a7.75,7.75,0,0,1,7.75-7.75h46.48a7.75,7.75,0,0,1,7.74,7.75V356.31A23.26,23.26,0,0,1,395,379.55ZM371.81,240.13V356.31a7.75,7.75,0,0,0,7.74,7.75H395a7.75,7.75,0,0,0,7.75-7.75V240.13Z"/><path class="cls-1" d="M255.62,325.33H209.14a23.27,23.27,0,0,1-23.24-23.24V232.38a7.75,7.75,0,0,1,7.75-7.75h77.46a7.75,7.75,0,0,1,7.75,7.75v69.71A23.27,23.27,0,0,1,255.62,325.33Zm-54.22-85.2v62a7.75,7.75,0,0,0,7.74,7.75h46.48a7.75,7.75,0,0,0,7.74-7.75v-62Z"/><path class="cls-1" d="M338.33,202.72a55.11,55.11,0,0,1-22.06-4.64,7.75,7.75,0,1,1,6.19-14.2,39.43,39.43,0,0,0,52.68-22.55l-17.7,10.19a21.26,21.26,0,0,1-29-7.83l-7.78-13.51a21.37,21.37,0,0,1,7.78-29l20-11.44a39.34,39.34,0,0,0-48.21,48.18,7.75,7.75,0,0,1-15,4.05,54.78,54.78,0,0,1,84.24-59.17,7.75,7.75,0,0,1-.59,13.06l-32.69,18.73a5.81,5.81,0,0,0-2.11,7.86l7.78,13.5a5.72,5.72,0,0,0,3.49,2.69,5.78,5.78,0,0,0,4.38-.57l31.62-18.2a7.74,7.74,0,0,1,11.6,6.45,54.9,54.9,0,0,1-54.62,56.38Z"/><path class="cls-1" d="M231.68,240.13a7.75,7.75,0,0,1-5.92-12.74l61-72.43a7.75,7.75,0,1,1,11.84,10l-61,72.42a7.77,7.77,0,0,1-5.93,2.76Z"/><path class="cls-1" d="M284.51,240.13a7.74,7.74,0,0,1-5.92-12.74L313.44,186a7.75,7.75,0,1,1,11.85,10l-34.86,41.36a7.74,7.74,0,0,1-5.92,2.76Z"/><path class="cls-1" d="M123.25,240.13a7.77,7.77,0,0,1-6.58-3.64L83.36,183.2A38.72,38.72,0,1,1,149,142.12l53.84,86.15a7.75,7.75,0,1,1-13.14,8.22l-53.83-86.14a23.63,23.63,0,0,0-32-7.36,23.24,23.24,0,0,0-7.36,32l33.31,53.29a7.75,7.75,0,0,1-6.56,11.86Z"/><path class="cls-1" d="M159.81,240.13a7.77,7.77,0,0,1-6.58-3.64l-33.92-54.23a7.74,7.74,0,1,1,13.13-8.21l33.92,54.22a7.75,7.75,0,0,1-6.55,11.86Z"/></g></g></svg>