<svg xmlns="http://www.w3.org/2000/svg" viewBox="0 0 528.55 508.35"><defs><style>.cls-1{fill:#127ae2;}.cls-2{fill:#fff;}</style></defs><title>Risorsa 1</title><g id="Livello_2" data-name="Livello 2"><g id="Layer_1" data-name="Layer 1"><path class="cls-1" d="M459.39,308.85a7.84,7.84,0,0,0,3.46.82A7.74,7.74,0,0,0,466.32,295c-18-9-51.71-9.1-53.13-9.1a7.75,7.75,0,1,0,0,15.49C421.89,301.39,447.15,302.73,459.39,308.85Z"/><path class="cls-1" d="M487.69,443.19a7.75,7.75,0,0,0-7.74,7.74V500.6a7.74,7.74,0,1,0,15.48,0V450.93A7.74,7.74,0,0,0,487.69,443.19Z"/><path class="cls-1" d="M40.86,453.43a7.74,7.74,0,0,0-7.75,7.74V500.6a7.75,7.75,0,1,0,15.49,0V461.17A7.74,7.74,0,0,0,40.86,453.43Z"/><path class="cls-1" d="M214.16,209.58a.51.51,0,0,1,.41-.52c10-1.51,29.78-3.83,50.3-2.46,24.14,1.61,41.63,7.67,52,18a7.74,7.74,0,1,0,10.94-10.94c-29.28-29.29-90.55-23.69-115.53-19.92a15.88,15.88,0,0,0-13.58,15.83v17.84a7.74,7.74,0,0,0,15.48,0V209.58Z"/><path class="cls-1" d="M173.31,459.75a7.73,7.73,0,0,0-7.74,7.74V500.6a7.74,7.74,0,1,0,15.48,0V467.49A7.73,7.73,0,0,0,173.31,459.75Z"/><path class="cls-1" d="M355.43,459.75a7.74,7.74,0,0,0-7.74,7.74V500.6a7.75,7.75,0,1,0,15.49,0V467.49A7.74,7.74,0,0,0,355.43,459.75Z"/><path class="cls-1" d="M504.92,405.23l-32-9.14A3.24,3.24,0,0,1,470.6,393V382.31a58.2,58.2,0,0,0,7.4-6.07A57,57,0,0,0,495.43,335V320.31l3.1-6.18a49.46,49.46,0,0,0,5.18-22v-39.9a7.74,7.74,0,0,0-7.74-7.74H421.46a49.19,49.19,0,0,0-49.13,49.13v.47a41.13,41.13,0,0,0,4.31,18.27l4,7.93V333a60.42,60.42,0,0,0,24.83,48.85V393c0,1.73,0,2.44-6.4,4.27l-15.6,4.46L338.32,385.3a7.76,7.76,0,0,0-2.11-5.93l-14.43-15.15V338.78c1.53-1.26,3-2.55,4.49-3.91a90.9,90.9,0,0,0,28.63-66.06V248.49a89.51,89.51,0,0,0,8.28-37.63V128.08a7.74,7.74,0,0,0-7.75-7.74H239.54a74,74,0,0,0-74,74v16.56a89.44,89.44,0,0,0,8.28,37.64V266A94.58,94.58,0,0,0,207,338.18v26l-14.42,15.15a7.68,7.68,0,0,0-2.11,5.93l-47.64,17.32a40.36,40.36,0,0,0-9.57,5l-7.48-3.74c22.27-9.69,29.32-23.32,29.66-24a7.73,7.73,0,0,0,0-6.92c-5.58-11.17-6.26-31.63-6.8-48.07-.18-5.47-.35-10.64-.68-15.25-2.64-37.13-30.87-65.14-65.67-65.14s-63,28-65.67,65.14c-.33,4.61-.5,9.78-.68,15.25-.55,16.44-1.22,36.9-6.8,48.07a7.73,7.73,0,0,0,0,6.92c.33.68,7.37,14.28,29.69,24L18,414.26A32.41,32.41,0,0,0,0,443.4v57.2a7.74,7.74,0,1,0,15.48,0V443.4a17,17,0,0,1,9.45-15.29l25.88-12.93,9,8.55a32.55,32.55,0,0,0,44.88,0l9-8.55,8.43,4.22A40.77,40.77,0,0,0,115.9,441v59.6a7.74,7.74,0,0,0,15.48,0V441a25.45,25.45,0,0,1,16.7-23.84l50.23-18.26,20.9,31.36A16,16,0,0,0,231,437.33c.54.05,1.07.08,1.6.08a16,16,0,0,0,11.31-4.7L256.63,420v80.65a7.74,7.74,0,0,0,15.48,0V420l12.76,12.75a16,16,0,0,0,11.31,4.7c.53,0,1.06,0,1.6-.08a16,16,0,0,0,11.75-7.06l20.91-31.36,50.22,18.26A25.46,25.46,0,0,1,397.36,441v59.59a7.74,7.74,0,0,0,15.48,0V441a40.91,40.91,0,0,0-11.45-28.33l1.92-.55a41.82,41.82,0,0,0,7.2-2.6l19.77,19.77v71.3a7.74,7.74,0,0,0,15.48,0v-71.3l19.63-19.63a18.6,18.6,0,0,0,3.3,1.31l32,9.13a17.18,17.18,0,0,1,12.39,16.44v64.05a7.75,7.75,0,0,0,15.49,0V436.56A32.72,32.72,0,0,0,504.92,405.23Zm-390.1-13.65v-9.23a57.4,57.4,0,0,0,20.45-25.24,84.74,84.74,0,0,0,4.4,18.49C136.59,379.36,129.29,386.37,114.82,391.58ZM32,310.75a57.48,57.48,0,0,1,15.66-36.1,48.11,48.11,0,0,1,69.14,0,57.48,57.48,0,0,1,15.66,36.1c.3,4.31.47,9.34.64,14.66,0,.46,0,.92,0,1.38-8.42-13-21.43-22.54-38.24-27.94a97.4,97.4,0,0,0-29.45-4.67,7.76,7.76,0,0,0-5.36,2.37L46.15,311A7.74,7.74,0,0,0,57.3,321.78l11.62-12c10,.49,42.22,4.24,54.74,31.82A41.92,41.92,0,0,1,40.32,335a7.74,7.74,0,0,0-7.74-7.75,7.59,7.59,0,0,0-1.27.12c0-.67,0-1.33.07-2C31.55,320.09,31.72,315.06,32,310.75Zm-7.2,64.85a85.19,85.19,0,0,0,4.42-18.54,57.64,57.64,0,0,0,20.43,25.21v9.28C35.19,386.34,27.92,379.4,24.82,375.6Zm45.65,36.91-7.2-6.85a15.93,15.93,0,0,0,1.89-7.56v-8.25a57.57,57.57,0,0,0,34.18,0v8.24a16.11,16.11,0,0,0,1.88,7.57L94,412.51A17.09,17.09,0,0,1,70.47,412.51ZM189.33,266V246.76a7.69,7.69,0,0,0-.77-3.36,74.33,74.33,0,0,1-7.51-32.54V194.3a58.56,58.56,0,0,1,58.49-58.48H347.69v75a74.19,74.19,0,0,1-7.51,32.54,7.83,7.83,0,0,0-.77,3.36v22.05a75.17,75.17,0,0,1-29.68,59.79l-.13.1a74.42,74.42,0,0,1-50.24,15C220.09,341.15,189.33,307,189.33,266Zm69,93.17q3.06.19,6.09.2a89.66,89.66,0,0,0,41.85-10.26v14.14l-41.93,28.66-41.93-28.66V348.77A87.18,87.18,0,0,0,258.36,359.14Zm-25.44,62.62a.47.47,0,0,1-.43.16.51.51,0,0,1-.39-.24L208,385.56l7.75-8.14,36.53,25Zm63.72-.08a.51.51,0,0,1-.39.24.46.46,0,0,1-.43-.16l-19.37-19.37,36.52-25,7.75,8.14ZM396.09,333V318.48a7.82,7.82,0,0,0-.81-3.46l-4.79-9.57a25.48,25.48,0,0,1-2.67-11.34v-.47A33.68,33.68,0,0,1,421.46,260h66.77v32.15a33.87,33.87,0,0,1-3.55,15.05L480.77,315a7.69,7.69,0,0,0-.82,3.46V335a41.92,41.92,0,0,1-43.22,41.9C414.32,376.27,396.09,356.54,396.09,333Zm40.17,59.47,1.78,0a57.57,57.57,0,0,0,17.07-2.58V393a18.84,18.84,0,0,0,.56,4.52L438,415.15l-17.57-17.57a21.1,21.1,0,0,0,.48-4.6v-3.27A54.26,54.26,0,0,0,436.26,392.42Z"/><path class="cls-2" d="M418.28,179.62h7.08a10.32,10.32,0,0,0,0-20.64h-7.08a10.32,10.32,0,1,0,0,20.64Z"/><path class="cls-2" d="M468.37,179.62h7.08a10.32,10.32,0,0,0,0-20.64h-7.08a10.32,10.32,0,1,0,0,20.64Z"/><path class="cls-2" d="M446.86,208.21a10.32,10.32,0,0,0,10.33-10.32V190.8a10.33,10.33,0,0,0-20.65,0v7.09A10.32,10.32,0,0,0,446.86,208.21Z"/><path class="cls-2" d="M446.86,158.12a10.32,10.32,0,0,0,10.33-10.32v-7.08a10.33,10.33,0,1,0-20.65,0v7.08A10.32,10.32,0,0,0,446.86,158.12Z"/><path class="cls-2" d="M55.75,179.62h7.08a10.32,10.32,0,1,0,0-20.64H55.75a10.32,10.32,0,1,0,0,20.64Z"/><path class="cls-2" d="M105.84,179.62h7.08a10.32,10.32,0,1,0,0-20.64h-7.08a10.32,10.32,0,0,0,0,20.64Z"/><path class="cls-2" d="M84.34,208.21a10.32,10.32,0,0,0,10.32-10.32V190.8a10.32,10.32,0,1,0-20.64,0v7.09A10.32,10.32,0,0,0,84.34,208.21Z"/><path class="cls-2" d="M84.34,158.12A10.32,10.32,0,0,0,94.66,147.8v-7.08a10.32,10.32,0,1,0-20.64,0v7.08A10.32,10.32,0,0,0,84.34,158.12Z"/><path class="cls-2" d="M271.05,87.12A10.32,10.32,0,0,0,281.37,76.8V49.64a10.32,10.32,0,0,0-20.64,0V76.8A10.32,10.32,0,0,0,271.05,87.12Z"/><path class="cls-2" d="M271.05,20.65a10.33,10.33,0,0,0,10.32-10.33,10.32,10.32,0,1,0-10.32,10.33Z"/><path class="cls-2" d="M220.27,56a10.32,10.32,0,0,0,14.6-14.6l-15.1-15.11a10.33,10.33,0,0,0-14.61,14.6Z"/><path class="cls-2" d="M314,59a10.29,10.29,0,0,0,7.3-3l15.61-15.61a10.32,10.32,0,1,0-14.6-14.6L306.72,41.35A10.33,10.33,0,0,0,314,59Z"/></g></g></svg>