<svg id="Layer_1" xmlns="http://www.w3.org/2000/svg" xmlns:xlink="http://www.w3.org/1999/xlink" viewBox="0 0 1920 5398.3" width="1920" height="5398"><style>.st0{clip-path:url(#SVGID_2_)}.st1{opacity:.5}.st2{fill:none;stroke:#6f6f6e;stroke-width:5.91;stroke-linecap:round;stroke-miterlimit:10;stroke-dasharray:25.33,25.33}.st3{fill:#6f6f6e}.st4{stroke-width:5.99;stroke-dasharray:25.67,25.67}.st4,.st5,.st6,.st7,.st8,.st9{fill:none;stroke:#6f6f6e;stroke-linecap:round;stroke-miterlimit:10}.st5{stroke-width:7.53;stroke-dasharray:32.26,32.26}.st6{stroke-width:6;stroke-dasharray:46.53,46.53}.st7{stroke-width:7;stroke-dasharray:30,30}.st8{stroke-width:6.13;stroke-dasharray:26.26,26.26}.st9{stroke-width:4.22;stroke-dasharray:18.1,18.1}</style><title>freccine-01</title><g id="Sfondo"><defs><path id="SVGID_1_" d="M-1.3-2.7h1920.6v5975H-1.3z"/></defs><clipPath id="SVGID_2_"><use xlink:href="#SVGID_1_" overflow="visible"/></clipPath><g class="st0"><g id="Sfondo-2"><g class="st1"><path class="st2" d="M892.4 5247.7c-440.8-93.4-564.8-197.9-587.1-281.8-23.4-88 68.6-140.3 46.7-245.2-28-134.6-218.1-235.4-386.1-302.2"/><path class="st3" d="M859.1 5211.2c-1.1 1.2-1.1 3 0 4.2l32 32-42.5 15.5c-1.6.3-2.7 1.8-2.5 3.4.3 1.6 1.8 2.7 3.4 2.5.4-.1.7-.2 1-.4l46.8-17c1.5-.6 2.3-2.3 1.7-3.9-.1-.4-.4-.7-.6-1l-35.3-35.2c-.4-.4-.9-.7-1.5-.8-.7-.3-1.7 0-2.5.7z"/></g><g class="st1"><path class="st4" d="M1056.8 4246.4c544.7-305.3 768.2-365.1 866.8-354.2 103.2 11.4 54.4 98.7 171.3 116.9 149.9 23.4 438.3-87.8 673.3-193.4"/><path class="st3" d="M1106.5 4251.7c.1-1.7-1.2-3.1-2.8-3.2l-45.7-2.8 21.9-40.2c.9-1.4.4-3.3-1-4.1-1.4-.9-3.3-.4-4.1 1-.1.1-.1.2-.1.3l-24.1 44.4c-.8 1.5-.2 3.3 1.2 4.1.4.2.8.3 1.2.4l50.4 3.1c.6 0 1.1-.1 1.6-.4.9-.6 1.5-1.6 1.5-2.6z"/></g><g class="st1"><path class="st5" d="M1152 4593.5c315.7 491.7 497.9 598.2 608.3 590.8 115.8-7.8 135.6-139.6 271-156.1 173.6-21.2 381.8 166.1 539.4 340.8"/><path class="st3" d="M1150 4656.3c2.1 0 3.7-1.7 3.7-3.8l-.7-57.6 52.5 23.7c1.9.9 4.1 0 5-1.9.9-1.9 0-4.1-1.9-5l-57.9-26.1c-1.9-.9-4.1 0-5 1.9-.2.5-.3 1.1-.3 1.6l.8 63.5c0 .7.2 1.4.6 2 .7 1.1 1.9 1.7 3.2 1.7z"/></g><g class="st1"><path class="st6" d="M1096.9 3787.8C394.1 3746.3 213 3902.4 194.2 4070c-19.7 175.4 141.3 337.5 127.7 550-17.5 272.6-306.5 384.4-566.7 435.6"/><path class="st3" d="M1057.5 3756.9c-1 1.3-.6 3.2.7 4.2l37.3 26.7-40 22.6c-1.4.8-1.9 2.7-1.1 4.1.8 1.4 2.7 1.9 4.1 1.1l44.1-24.9c1.4-.8 2-2.6 1.1-4.1-.2-.4-.5-.7-.9-1l-41.2-29.4c-.5-.3-1-.5-1.6-.6-.9 0-1.9.5-2.5 1.3z"/></g><g class="st1"><path class="st7" d="M185.3 1348.4c263-429.2 260.1-608.1 195.5-688.7-67.8-84.5-193.4-48.3-279.1-144.1-110-122.9-56-353.1 13.7-540"/><path class="st3" d="M238.6 1324.6c-.9-1.7-3-2.4-4.7-1.6l-47.9 24-1.5-53.5c-.1-1.9-1.7-3.5-3.6-3.4s-3.5 1.7-3.4 3.6l1.6 59c.1 1.9 1.7 3.4 3.6 3.4.5 0 1-.1 1.4-.4l52.8-26.4c.6-.3 1.1-.8 1.4-1.3.8-1.1.9-2.4.3-3.4z"/></g><g class="st1"><path class="st7" d="M1125 3347.5c-324-385.2-494.7-439-591.5-403.2-101.6 37.6-106.9 168.2-224.9 219.2-151.4 65.5-352.7-58.5-508-183.7"/><path class="st3" d="M1119.3 3289.4c-1.9.3-3.3 2-3 3.9v.1l7.6 53-51.2-15.5c-1.8-.6-3.8.5-4.4 2.3-.6 1.9.5 3.8 2.3 4.4l56.5 17.1c1.8.6 3.8-.5 4.4-2.3.2-.5.2-1 .1-1.5l-8.4-58.4c-.1-.7-.4-1.3-.8-1.8-.8-1-1.9-1.5-3.1-1.3z"/></g><g class="st1"><path class="st8" d="M783.5 958.5C187.6 886.5-16.3 799.3-83.1 728c-70-74.7 20.7-121-55.2-210.2-97.4-114.3-381.7-197-622.8-251.1"/><path class="st3" d="M745.7 924.1c-1.1 1.3-.9 3.2.4 4.3l36 30-42.4 20c-1.5.7-2.2 2.4-1.5 4 0 0 0 .1.1.1.7 1.5 2.5 2.2 4.1 1.5l46.7-22.1c1.5-.7 2.2-2.6 1.5-4.1-.2-.4-.5-.8-.8-1l-39.8-33c-1.3-1.1-3.3-1-4.3.3z"/></g><g class="st1"><path class="st4" d="M527.3 2097.6c544.7-305.3 768.2-365.1 866.8-354.2 103.2 11.4 54.4 98.7 171.3 116.9 149.9 23.4 438.3-87.7 673.3-193.3"/><path class="st3" d="M577.1 2102.9c.1-1.7-1.2-3.1-2.8-3.2l-45.7-2.8 21.9-40.3c.9-1.4.5-3.3-.9-4.1-1.4-.9-3.3-.5-4.1.9-.1.1-.1.2-.2.3l-24.2 44.4c-.8 1.5-.2 3.3 1.2 4.1.4.2.8.3 1.2.4l50.4 3.1c1.6.1 3.1-1.1 3.2-2.8z"/></g><g class="st1"><path class="st9" d="M704.1 2449.2c-321.2 23-427-24.2-458.9-77.4-33.4-55.8 19.4-109.9-16.4-177.6-45.8-87-196.3-118.6-324.9-131.2"/><path class="st3" d="M674 2430.8c-.6 1-.2 2.3.8 2.9l28.3 15.6-26.1 19c-1 .6-1.3 1.9-.7 2.9.6 1 1.9 1.3 2.9.7.1-.1.2-.1.2-.2l28.8-21c.9-.7 1.1-2 .4-3-.2-.2-.4-.4-.7-.6l-31.2-17.2c-.8-.6-2.1-.2-2.7.9z"/></g><g class="st1"><path class="st5" d="M1256.8 2071.8c127 570.4 261.3 733.1 367.6 764.2 111.4 32.6 175.4-84.3 308.2-53.2 170.2 39.9 301.2 287.5 389 505.8"/><path class="st3" d="M1233.3 2130.1c2 .7 4.1-.3 4.8-2.3l19.2-54.3 41.1 40.3c1.4 1.5 3.8 1.6 5.3.2s1.6-3.8.2-5.3l-.3-.3-45.3-44.4c-1.5-1.5-3.9-1.4-5.3.1-.4.4-.7.9-.9 1.4l-21.1 59.8c-.2.7-.3 1.4-.1 2.1.3 1.2 1.2 2.2 2.4 2.7z"/></g><g class="st1"><path class="st6" d="M862.8 169.7c702.9-41.4 884 114.6 902.8 282.2 19.7 175.4-141.3 337.5-127.7 550 17.4 272.6 306.5 384.4 566.7 435.6"/><path class="st3" d="M905.2 196.3c.8-1.4.3-3.3-1.1-4.1l-40-22.6 37.4-26.6c1.4-1 1.7-2.8.7-4.2-1-1.4-2.8-1.7-4.2-.7l-41.2 29.4c-1.4 1-1.7 2.8-.7 4.2.3.4.6.7 1 .9l44.1 24.9c1.4.7 3.2.2 4-1.2z"/></g></g></g></g></svg>