<svg id="Layer_1" data-name="Layer 1" xmlns="http://www.w3.org/2000/svg" viewBox="0 0 1920 5398.33"><defs><style>.cls-1,.cls-10,.cls-11,.cls-4,.cls-6,.cls-7,.cls-8,.cls-9{fill:none}.cls-2{clip-path:url(#clip-path)}.cls-3{opacity:.5}.cls-10,.cls-11,.cls-4,.cls-6,.cls-7,.cls-8,.cls-9{stroke:#6f6f6e;stroke-linecap:round;stroke-miterlimit:10}.cls-4{stroke-width:5.91px;stroke-dasharray:25.33 25.33}.cls-5{fill:#6f6f6e}.cls-6{stroke-width:5.99px;stroke-dasharray:25.67 25.67}.cls-7{stroke-width:7.53px;stroke-dasharray:32.26 32.26}.cls-8{stroke-width:6px;stroke-dasharray:46.53 46.53}.cls-9{stroke-width:7px;stroke-dasharray:30 30}.cls-10{stroke-width:6.13px;stroke-dasharray:26.26 26.26}.cls-11{stroke-width:4.22px;stroke-dasharray:18.1 18.1}.cls-12,.cls-14{font-size:60px;font-family:TitilliumWeb-SemiBold,Titillium Web}.cls-12,.cls-14,.cls-16,.cls-26,.cls-27,.cls-28,.cls-34,.cls-42,.cls-43,.cls-47{fill:#fff}.cls-12,.cls-14,.cls-27,.cls-42,.cls-47{font-weight:700}.cls-12{letter-spacing:-.01em}.cls-13{letter-spacing:0}.cls-15{letter-spacing:-.01em}.cls-16{font-size:28px}.cls-16,.cls-28,.cls-34,.cls-43{font-family:TitilliumWeb-Light,Titillium Web}.cls-17,.cls-18{letter-spacing:-.01em}.cls-19{letter-spacing:.53em}.cls-20,.cls-21{letter-spacing:0}.cls-22,.cls-23{letter-spacing:.19em}.cls-24,.cls-25{letter-spacing:-.01em}.cls-27{font-size:67.68px}.cls-27,.cls-42,.cls-47{font-family:TitilliumWeb-Bold,Titillium Web}.cls-28{font-size:35.14px}.cls-29{letter-spacing:-.02em}.cls-30{letter-spacing:-.01em}.cls-31{letter-spacing:0}.cls-32,.cls-33{letter-spacing:-.01em}.cls-34{font-size:32.51px}.cls-35{letter-spacing:-.01em}.cls-36{letter-spacing:0}.cls-37{letter-spacing:-.02em}.cls-38{letter-spacing:-.01em}.cls-39{letter-spacing:-.02em}.cls-40{letter-spacing:-.03em}.cls-41{letter-spacing:-.01em}.cls-42{font-size:62.62px}.cls-43{font-size:34.78px}.cls-44{letter-spacing:-.01em}.cls-45{letter-spacing:-.02em}.cls-46{letter-spacing:-.01em}.cls-47{font-size:66.99px}</style><clipPath id="clip-path"><path class="cls-1" d="M-1.27-2.67h1920.55v5974.96H-1.27z"/></clipPath></defs><title>freccine-01</title><g class="cls-2" id="Sfondo"><g id="Sfondo-2" data-name="Sfondo"><g class="cls-3"><path class="cls-4" d="M892.43 5247.7c-440.79-93.41-564.82-197.91-587.1-281.81-23.37-88 68.56-140.3 46.73-245.25-28-134.64-218.06-235.37-386.12-302.16"/><path class="cls-5" d="M859.14 5211.21a3 3 0 0 0 0 4.18l32 31.95-42.47 15.47a3 3 0 1 0 2 5.55l46.83-17a3 3 0 0 0 1.08-4.87l-35.26-35.23a2.89 2.89 0 0 0-1.45-.79 3 3 0 0 0-2.73.74z"/></g><g class="cls-3"><path class="cls-6" d="M1056.78 4246.35c544.73-305.26 768.17-365.08 866.78-354.18 103.25 11.42 54.38 98.67 171.26 116.89 149.9 23.35 438.34-87.75 673.33-193.35"/><path class="cls-5" d="M1106.54 4251.71a3 3 0 0 0-2.81-3.17l-45.74-2.82 21.89-40.25a3 3 0 1 0-5.26-2.87l-24.13 44.4a3 3 0 0 0 2.44 4.42l50.43 3.11a3.1 3.1 0 0 0 1.64-.37 3 3 0 0 0 1.54-2.45z"/></g><g class="cls-3"><path class="cls-7" d="M1152 4593.55c315.7 491.74 497.86 598.21 608.29 590.79 115.78-7.78 135.63-139.58 271-156.12 173.56-21.21 381.84 166.14 539.36 340.84"/><path class="cls-5" d="M1150 4656.33a3.76 3.76 0 0 0 3.71-3.82l-.71-57.57 52.47 23.7a3.76 3.76 0 1 0 3.1-6.86l-57.86-26.13a3.76 3.76 0 0 0-5.31 3.48l.78 63.48a3.7 3.7 0 0 0 .62 2 3.75 3.75 0 0 0 3.2 1.72z"/></g><g class="cls-3"><path class="cls-8" d="M1096.93 3787.78C394.06 3746.33 213 3902.43 194.18 4070c-19.67 175.39 141.33 337.45 127.73 550-17.45 272.58-306.5 384.4-566.68 435.58"/><path class="cls-5" d="M1057.51 3756.9a3 3 0 0 0 .7 4.18l37.35 26.68-40 22.57a3 3 0 1 0 3 5.22l44.07-24.88a3 3 0 0 0 .26-5.06l-41.18-29.41a3 3 0 0 0-1.58-.55 3 3 0 0 0-2.62 1.25z"/></g><g class="cls-3"><path class="cls-9" d="M185.31 1348.39c263-429.23 260.09-608.13 195.47-688.66-67.78-84.47-193.39-48.25-279.13-144.08C-8.3 392.74 45.7 162.57 115.36-24.34"/><path class="cls-5" d="M238.64 1324.56a3.5 3.5 0 0 0-4.7-1.55l-47.89 24-1.46-53.53a3.5 3.5 0 1 0-7 .19l1.62 59a3.5 3.5 0 0 0 5.06 3l52.81-26.42a3.61 3.61 0 0 0 1.43-1.33 3.49 3.49 0 0 0 .13-3.36z"/></g><g class="cls-3"><path class="cls-9" d="M1125 3347.48c-324-385.25-494.7-439-591.53-403.17-101.56 37.59-106.92 168.21-224.94 219.25C157.2 3229-44.1 3105-199.39 2979.82"/><path class="cls-5" d="M1119.29 3289.35a3.51 3.51 0 0 0-3 4l7.59 53-51.24-15.53a3.49 3.49 0 0 0-4.37 2.32 3.53 3.53 0 0 0 2.33 4.38l56.51 17.12a3.49 3.49 0 0 0 4.48-3.85l-8.37-58.44a3.44 3.44 0 0 0-.81-1.78 3.52 3.52 0 0 0-3.12-1.22z"/></g><g class="cls-3"><path class="cls-10" d="M783.55 958.55C187.6 886.48-16.28 799.34-83.1 728c-70-74.68 20.7-120.95-55.24-210.15-97.39-114.35-381.73-197.03-622.76-251.1"/><path class="cls-5" d="M745.7 924.06a3.08 3.08 0 0 0 .41 4.32l36 30-42.38 20a3 3 0 0 0-1.47 4.07 3.08 3.08 0 0 0 4.08 1.47l46.74-22.06a3.07 3.07 0 0 0 .65-5.13l-39.76-33a3.08 3.08 0 0 0-4.32.4z"/></g><g class="cls-3"><path class="cls-6" d="M527.3 2097.55c544.74-305.26 768.18-365.07 866.79-354.17 103.24 11.41 54.38 98.67 171.26 116.88 149.89 23.36 438.33-87.74 673.32-193.34"/><path class="cls-5" d="M577.07 2102.91a3 3 0 0 0-2.82-3.17l-45.73-2.81 21.89-40.26a3 3 0 1 0-5.26-2.86L521 2098.2a3 3 0 0 0 2.45 4.42l50.43 3.1a3 3 0 0 0 3.18-2.81z"/></g><g class="cls-3"><path class="cls-11" d="M704.12 2449.22c-321.17 23-427-24.23-458.89-77.44-33.44-55.79 19.35-109.9-16.4-177.65C183 2107.23 32.54 2075.62-96.06 2063"/><path class="cls-5" d="M674 2430.75a2.12 2.12 0 0 0 .84 2.87l28.27 15.61-26.11 19a2.12 2.12 0 1 0 2.49 3.42l28.79-21a2.12 2.12 0 0 0-.23-3.56l-31.17-17.22a2.12 2.12 0 0 0-2.88.83z"/></g><g class="cls-3"><path class="cls-7" d="M1256.79 2071.81c127 570.39 261.35 733.08 367.58 764.16 111.37 32.58 175.4-84.33 308.15-53.24 170.25 39.86 301.25 287.49 389 505.76"/><path class="cls-5" d="M1233.3 2130.07a3.76 3.76 0 0 0 4.8-2.31l19.16-54.29 41.1 40.32a3.77 3.77 0 1 0 5.28-5.37l-45.32-44.42a3.77 3.77 0 0 0-6.19 1.43l-21.13 59.83a3.88 3.88 0 0 0-.12 2.1 3.79 3.79 0 0 0 2.42 2.71z"/></g><g class="cls-3"><path class="cls-8" d="M862.75 169.66c702.87-41.45 884 114.64 902.75 282.22 19.67 175.39-141.33 337.45-127.73 550 17.45 272.59 306.5 384.4 566.68 435.58"/><path class="cls-5" d="M905.23 196.29a3 3 0 0 0-1.15-4.09l-40-22.57L901.47 143a3 3 0 0 0-3.49-4.89l-41.18 29.37a3 3 0 0 0 .26 5.06l44.07 24.89a3 3 0 0 0 4.1-1.14z"/></g></g></g><text class="cls-12" transform="translate(766.17 1662.38)">C<tspan class="cls-13" x="32.1" y="0">omunicazione</tspan></text><text class="cls-14" transform="translate(1337.4 1662.38)"><tspan class="cls-15">S</tspan><tspan x="32.16" y="0">torytelling</tspan></text><text class="cls-16" transform="translate(767 1739.69)"><tspan class="cls-17">L</tspan><tspan x="13.24" y="0">o</tspan><tspan class="cls-18" x="28" y="0">r</tspan><tspan x="37.13" y="0">em</tspan><tspan class="cls-19" x="74.62" y="0"> </tspan><tspan x="95.72" y="0">ipsum</tspan><tspan class="cls-19" x="167.28" y="0"> </tspan><tspan x="188.38" y="0">dolor</tspan><tspan class="cls-19" x="248.22" y="0"> </tspan><tspan x="269.31" y="0">sit</tspan><tspan class="cls-19" x="297.87" y="0"> </tspan><tspan x="318.97" y="0">am</tspan><tspan class="cls-20" x="356.32" y="0">e</tspan><tspan x="370.32" y="0">t, </tspan><tspan class="cls-17" x="0" y="33.6">c</tspan><tspan x="11.93" y="33.6">onsect</tspan><tspan class="cls-21" x="90.55" y="33.6">e</tspan><tspan x="104.55" y="33.6">tuer</tspan><tspan class="cls-22" x="152.57" y="33.6"> </tspan><tspan x="164.15" y="33.6">adipiscing</tspan><tspan class="cls-23" x="279.26" y="33.6"> </tspan><tspan x="290.84" y="33.6">elit,</tspan><tspan class="cls-22" x="332.67" y="33.6"> </tspan><tspan x="344.25" y="33.6">sed </tspan><tspan x="16.95" y="67.2">diam nonum</tspan><tspan class="cls-24" x="163.64" y="67.2">m</tspan><tspan x="186.85" y="67.2">y nibh euismod.</tspan></text><text class="cls-16" transform="translate(1293.22 1739.69)"><tspan class="cls-17">L</tspan><tspan x="13.24" y="0">o</tspan><tspan class="cls-18" x="28" y="0">r</tspan><tspan x="37.13" y="0">em</tspan><tspan class="cls-19" x="74.62" y="0"> </tspan><tspan x="95.72" y="0">ipsum</tspan><tspan class="cls-19" x="167.28" y="0"> </tspan><tspan x="188.38" y="0">dolor</tspan><tspan class="cls-19" x="248.22" y="0"> </tspan><tspan x="269.31" y="0">sit</tspan><tspan class="cls-19" x="297.87" y="0"> </tspan><tspan x="318.97" y="0">am</tspan><tspan class="cls-20" x="356.32" y="0">e</tspan><tspan x="370.32" y="0">t, </tspan><tspan class="cls-17" x="0" y="33.6">c</tspan><tspan x="11.93" y="33.6">onsect</tspan><tspan class="cls-21" x="90.55" y="33.6">e</tspan><tspan x="104.55" y="33.6">tuer</tspan><tspan class="cls-22" x="152.57" y="33.6"> </tspan><tspan x="164.15" y="33.6">adipiscing</tspan><tspan class="cls-23" x="279.26" y="33.6"> </tspan><tspan x="290.84" y="33.6">elit,</tspan><tspan class="cls-22" x="332.67" y="33.6"> </tspan><tspan x="344.25" y="33.6">sed </tspan><tspan x="16.95" y="67.2">diam nonum</tspan><tspan class="cls-24" x="163.64" y="67.2">m</tspan><tspan x="186.85" y="67.2">y nibh euismod.</tspan></text><text class="cls-14" transform="translate(304.48 1662.38)">Mar<tspan class="cls-25" x="103.08" y="0">k</tspan><tspan x="132.36" y="0">eting</tspan></text><text class="cls-16" transform="translate(243 1739.69)"><tspan class="cls-17">L</tspan><tspan x="13.24" y="0">o</tspan><tspan class="cls-18" x="28" y="0">r</tspan><tspan x="37.13" y="0">em</tspan><tspan class="cls-19" x="74.62" y="0"> </tspan><tspan x="95.72" y="0">ipsum</tspan><tspan class="cls-19" x="167.28" y="0"> </tspan><tspan x="188.38" y="0">dolor</tspan><tspan class="cls-19" x="248.22" y="0"> </tspan><tspan x="269.31" y="0">sit</tspan><tspan class="cls-19" x="297.87" y="0"> </tspan><tspan x="318.97" y="0">am</tspan><tspan class="cls-20" x="356.32" y="0">e</tspan><tspan x="370.32" y="0">t, </tspan><tspan class="cls-17" x="0" y="33.6">c</tspan><tspan x="11.93" y="33.6">onsect</tspan><tspan class="cls-21" x="90.55" y="33.6">e</tspan><tspan x="104.55" y="33.6">tuer</tspan><tspan class="cls-22" x="152.57" y="33.6"> </tspan><tspan x="164.15" y="33.6">adipiscing</tspan><tspan class="cls-23" x="279.26" y="33.6"> </tspan><tspan x="290.84" y="33.6">elit,</tspan><tspan class="cls-22" x="332.67" y="33.6"> </tspan><tspan x="344.25" y="33.6">sed </tspan><tspan x="16.95" y="67.2">diam nonum</tspan><tspan class="cls-24" x="163.64" y="67.2">m</tspan><tspan x="186.85" y="67.2">y nibh euismod.</tspan></text><path class="cls-26" d="M1167.38 2989.81H749.1a23.27 23.27 0 0 1-23.24-23.24v-193.65a23.27 23.27 0 0 1 23.24-23.24h418.28a23.27 23.27 0 0 1 23.24 23.24v193.65a23.26 23.26 0 0 1-23.24 23.24zM749.1 2765.18a7.75 7.75 0 0 0-7.75 7.74v193.65a7.76 7.76 0 0 0 7.75 7.75h418.28a7.76 7.76 0 0 0 7.75-7.75v-193.65a7.75 7.75 0 0 0-7.75-7.74z"/><path class="cls-26" d="M1167.38 2765.18H749.1a7.75 7.75 0 0 1-7.75-7.75v-178.16a23.27 23.27 0 0 1 23.24-23.27h387.3a23.27 23.27 0 0 1 23.24 23.24v178.16a7.75 7.75 0 0 1-7.75 7.75zm-410.53-15.5h402.79v-170.41a7.75 7.75 0 0 0-7.75-7.74h-387.3a7.75 7.75 0 0 0-7.74 7.74z"/><path class="cls-26" d="M997 2571.53h-77.49a7.73 7.73 0 0 1-7.74-7.75v-15.49a23.26 23.26 0 0 1 23.23-23.24h46.48a23.27 23.27 0 0 1 23.24 23.24v15.49a7.75 7.75 0 0 1-7.75 7.75zM927.26 2556h62v-7.74a7.76 7.76 0 0 0-7.75-7.75H935a7.75 7.75 0 0 0-7.74 7.75zm-100.7 15.53h-46.48a7.75 7.75 0 0 1-7.74-7.75v-15.49a23.26 23.26 0 0 1 23.24-23.24h15.49a23.27 23.27 0 0 1 23.24 23.24v15.49a7.75 7.75 0 0 1-7.75 7.75zM787.83 2556h31v-7.74a7.75 7.75 0 0 0-7.74-7.75h-15.51a7.76 7.76 0 0 0-7.75 7.75zm348.57 15.53h-46.48a7.75 7.75 0 0 1-7.74-7.75v-15.49a23.26 23.26 0 0 1 23.23-23.24h15.5a23.25 23.25 0 0 1 23.23 23.24v15.49a7.73 7.73 0 0 1-7.74 7.75zm-38.73-15.5h31v-7.74a7.75 7.75 0 0 0-7.74-7.75h-15.5a7.75 7.75 0 0 0-7.74 7.75zm-286.6 348.57h-15.49a23.26 23.26 0 0 1-23.24-23.23v-123.94a7.75 7.75 0 0 1 7.74-7.75h46.48a7.75 7.75 0 0 1 7.75 7.75v123.94a23.26 23.26 0 0 1-23.24 23.23zm-23.24-139.42v116.19a7.75 7.75 0 0 0 7.75 7.74h15.49a7.75 7.75 0 0 0 7.74-7.74v-116.19zm333.08 139.42h-15.5a23.26 23.26 0 0 1-23.23-23.23v-123.94a7.75 7.75 0 0 1 7.74-7.75h46.48a7.73 7.73 0 0 1 7.74 7.75v123.94a23.25 23.25 0 0 1-23.23 23.23zm-23.24-139.42v116.19a7.75 7.75 0 0 0 7.74 7.74h15.5a7.75 7.75 0 0 0 7.74-7.74v-116.19zm-116.19 85.2H935a23.26 23.26 0 0 1-23.23-23.24v-69.71a7.73 7.73 0 0 1 7.74-7.75H997a7.75 7.75 0 0 1 7.75 7.75v69.71a23.27 23.27 0 0 1-23.27 23.24zm-54.22-85.2v62a7.75 7.75 0 0 0 7.74 7.75h46.48a7.76 7.76 0 0 0 7.75-7.75v-62zm136.93-37.41a55.14 55.14 0 0 1-22.06-4.64 7.75 7.75 0 1 1 6.2-14.2 39.4 39.4 0 0 0 52.67-22.55l-17.7 10.19a21.25 21.25 0 0 1-29-7.83l-7.78-13.51a21.35 21.35 0 0 1 7.78-29l20-11.45a39.34 39.34 0 0 0-48.21 48.18 7.75 7.75 0 0 1-15 4.05 54.78 54.78 0 0 1 84.24-59.17 7.74 7.74 0 0 1-.59 13.06l-32.69 18.73a5.81 5.81 0 0 0-2.1 7.86l7.78 13.5a5.66 5.66 0 0 0 3.49 2.69 5.75 5.75 0 0 0 4.37-.57l31.62-18.2a7.75 7.75 0 0 1 11.61 6.45 54.9 54.9 0 0 1-54.63 56.38z"/><path class="cls-26" d="M957.54 2765.18a7.75 7.75 0 0 1-5.92-12.74l61-72.42a7.75 7.75 0 1 1 11.85 10l-61 72.42a7.74 7.74 0 0 1-5.93 2.76zm52.83 0a7.75 7.75 0 0 1-5.92-12.74l34.86-41.37a7.75 7.75 0 1 1 11.84 10l-34.86 41.36a7.74 7.74 0 0 1-5.92 2.76zm-161.26 0a7.76 7.76 0 0 1-6.58-3.64l-33.31-53.29a38.72 38.72 0 1 1 65.65-41.08l53.84 86.15a7.75 7.75 0 1 1-13.14 8.22l-53.83-86.14a23.63 23.63 0 0 0-32-7.36 23.25 23.25 0 0 0-7.36 32l33.31 53.29a7.75 7.75 0 0 1-6.56 11.86z"/><path class="cls-26" d="M885.67 2765.18a7.78 7.78 0 0 1-6.58-3.64l-33.92-54.22a7.75 7.75 0 1 1 13.13-8.22l33.93 54.22a7.75 7.75 0 0 1-6.56 11.86z"/><text class="cls-27" transform="translate(1312.23 3812.9)">24 maggio 2018</text><text class="cls-28" transform="translate(1248.38 3872.19)">pubblicazione <tspan class="cls-29" x="207.33" y="0">L</tspan><tspan x="223.39" y="0">G Mar</tspan><tspan class="cls-30" x="311.6" y="0">k</tspan><tspan class="cls-31" x="327.62" y="0">e</tspan><tspan x="345.19" y="0">ting e </tspan><tspan class="cls-32" x="434.52" y="0">S</tspan><tspan x="453.18" y="0">torytelling</tspan><tspan x="117.84" y="42.17">e online </tspan><tspan class="cls-33" x="239.82" y="42.17">c</tspan><tspan x="254.79" y="42.17">omunica italia.it</tspan></text><text class="cls-34" transform="translate(380.05 3594.09)">p<tspan class="cls-35" x="17" y="0">r</tspan><tspan x="27.6" y="0">ese</tspan><tspan class="cls-36" x="75.46" y="0">n</tspan><tspan x="92.66" y="0">tazione delle </tspan><tspan class="cls-37" x="271.05" y="0">L</tspan><tspan x="285.9" y="0">G </tspan><tspan class="cls-38" x="313.12" y="0">C</tspan><tspan x="330.45" y="0">omunicazione</tspan><tspan x="14.84" y="39.01">al </tspan><tspan class="cls-39" x="45.4" y="39.01">F</tspan><tspan x="61.89" y="39.01">orum</tspan><tspan class="cls-40" x="134.26" y="39.01">P</tspan><tspan x="152.43" y="39.01">A e apertura </tspan><tspan class="cls-41" x="325.81" y="39.01">c</tspan><tspan x="339.66" y="39.01">onsultazioni</tspan></text><text class="cls-42" transform="translate(427.62 3534.28)">26 giugno 2018</text><text class="cls-43" transform="translate(707.08 4131.18)">chiusura <tspan class="cls-44" x="130.32" y="0">c</tspan><tspan x="145.14" y="0">onsultazioni</tspan><tspan class="cls-45" x="27.93" y="41.74">L</tspan><tspan x="43.82" y="41.74">G </tspan><tspan class="cls-46" x="72.93" y="41.74">C</tspan><tspan x="91.47" y="41.74">omunicazione</tspan></text><text class="cls-47" transform="translate(640.9 4067.19)">23 giugno 2018</text></svg>