<svg id="Livello_1" data-name="Livello 1" xmlns="http://www.w3.org/2000/svg" viewBox="0 0 1920 429.25"><defs><style>.cls-1{fill:none}.cls-2{fill:#cccbcb;opacity:.15}.cls-10,.cls-11,.cls-12,.cls-13,.cls-2,.cls-6,.cls-8,.cls-9{isolation:isolate}.cls-10,.cls-11,.cls-12,.cls-13,.cls-3,.cls-8,.cls-9{fill:#f1f1f1}.cls-4{fill:#127ae2}.cls-5{fill:#91c044}.cls-6{fill:#4e4d4d;opacity:.16}.cls-7{clip-path:url(#clip-path)}.cls-8{opacity:.25}.cls-9{opacity:.29}.cls-10{opacity:.32}.cls-11{opacity:.37}.cls-12{opacity:.41}.cls-13{opacity:.47}.cls-14{fill:#2575d5}.cls-15{fill:#093d68}.cls-16{clip-path:url(#clip-path-2)}</style><clipPath id="clip-path"><path class="cls-1" d="M1815.95 203.21l-1816.32.05-.03-62.48 1333.24-66.82 483.11 129.25z"/></clipPath><clipPath id="clip-path-2"><path class="cls-1" d="M103.84 204.17l1816.32-.1.03 97.55-1333.24 48.94-483.11-146.39z"/></clipPath></defs><title>colori</title><g id="Layer_1" data-name="Layer 1"><path class="cls-2" d="M1920.16 203.21l-1920.53.05-.03-28.39V12.45l1920.56 190.76z"/><path class="cls-2" d="M1920.16 203.22l-1920.53.04-.03-22.54L1920.16 0v203.22z"/><path class="cls-3" d="M1920.16 203.21l-1920.53.05-.03-28.39L379.67 61.35l1540.49 141.86z"/><path class="cls-4" d="M1920.16 203.21l-1920.53.05-.03-62.48 1920.56-30.99v93.42z"/><path class="cls-5" d="M1920.16 203.22l-1920.53.04-.03-58.72V43.25l1920.56 159.97z"/><path class="cls-4" d="M1815.95 203.21l-1816.32.05-.03-62.48 1333.24-66.82 483.11 129.25z"/><path class="cls-6" d="M1520.63 203.21H-.4V99.39l380.07-8.04 1140.96 111.86z"/><g class="cls-7"><path class="cls-8" d="M1389.28-100.52L-195.51 120.96l-10.27-6.21 1584.79-221.48 10.27 6.21z"/><path class="cls-9" d="M1411.63-87.03L-173.16 134.45l-10.28-6.2 1584.8-221.48 10.27 6.2z"/><path class="cls-10" d="M1433.98-73.54L-150.81 147.94l-10.27-6.2L1423.71-79.74l10.27 6.2z"/><path class="cls-11" d="M1456.33-60.04L-128.46 161.44l-10.28-6.21 1584.8-221.48 10.27 6.21z"/><path class="cls-12" d="M1478.68-46.55L-106.11 174.93l-10.28-6.2 1584.8-221.48 10.27 6.2z"/><path class="cls-13" d="M1501.03-33.06L-83.76 188.42l-10.27-6.2L1490.76-39.26l10.27 6.2z"/><path class="cls-14" d="M1523.38-19.56L-61.41 201.92l-10.28-6.21 1584.8-221.48 10.27 6.21zm22.35 13.49L-39.06 215.41l-10.28-6.2 1584.8-221.48 10.27 6.2zm44.7 26.99L5.64 242.4l-10.27-6.21L1580.16 14.71l10.27 6.21zm44.7 26.98L50.34 269.38l-10.28-6.2L1624.86 41.7l10.27 6.2zm44.7 26.99L95.04 296.37l-10.28-6.2 1584.8-221.48 10.27 6.2zm44.7 26.99L139.74 323.36l-10.27-6.21L1714.26 95.67l10.27 6.21z"/><path class="cls-3" d="M1769.23 128.86L184.44 350.34l-10.28-6.2 1584.8-221.48 10.27 6.2zm44.7 26.99L229.14 377.33l-10.28-6.2 1584.8-221.48 10.27 6.2zm-22.35-13.49L206.79 363.84l-10.28-6.21 1584.8-221.48 10.27 6.21z"/><path class="cls-14" d="M1746.88 115.37L162.09 336.85l-10.28-6.2 1584.8-221.48 10.27 6.2zm-44.7-26.99L117.39 309.86l-10.28-6.2 1584.8-221.48 10.27 6.2zm-44.7-26.98L72.69 282.88l-10.28-6.21 1584.8-221.48 10.27 6.21zm-44.7-26.99L27.99 255.89l-10.28-6.2 1584.8-221.48 10.27 6.2zm-44.7-26.99L-16.71 228.9l-10.27-6.2L1557.81 1.22l10.27 6.2z"/></g><path class="cls-15" d="M1920.19 204.63H615.83l1304.33-85.93.03 85.93z"/><path class="cls-15" d="M1323.36 204.65H-.4V100.83l380.07 1.96 943.69 101.86z"/><path class="cls-3" d="M-.37 204.17l1920.53-.1.03 67.53-380.07 61.37L-.37 204.17z"/><path class="cls-4" d="M-.37 214.17l1920.53-.1.03 8.61L-.37 376.39V214.17z"/><path class="cls-5" d="M-.37 204.17l1920.53-.1.03 139.67v80.93L-.37 204.17z"/><path class="cls-4" d="M103.84 204.17l1816.32-.1.03 98.61-1333.24 48.94-483.11-147.45z"/><g class="cls-16"><path class="cls-8" d="M530.51 921.5L2115.3 398.44l10.28 14.64-1584.8 523.06-10.27-14.64z"/><path class="cls-9" d="M508.16 889.63l1584.79-523.06 10.28 14.65-1584.8 523.06-10.27-14.65z"/><path class="cls-10" d="M485.81 857.76L2070.6 334.7l10.28 14.65-1584.8 523.06-10.27-14.65z"/><path class="cls-11" d="M463.46 825.89l1584.79-523.05 10.28 14.65-1584.8 523.05-10.27-14.65z"/><path class="cls-12" d="M441.11 794.03L2025.9 270.97l10.28 14.65-1584.8 523.06-10.27-14.65z"/><path class="cls-14" d="M418.76 762.16L2003.55 239.1l10.28 14.65-1584.8 523.06-10.27-14.65zm-22.35-31.87L1981.2 207.24l10.28 14.65-1584.8 523.05-10.27-14.65zm-22.35-31.86l1584.79-523.06 10.28 14.65-1584.8 523.06-10.27-14.65zm-44.7-63.73l1584.79-523.06 10.28 14.65-1584.8 523.05-10.27-14.64zm-44.7-63.74L1869.45 47.91l10.28 14.64-1584.8 523.06-10.27-14.65zm-44.7-63.73L1824.75-15.83l10.28 14.65-1584.8 523.06-10.27-14.65zm-44.7-63.73L1780.05-79.56l10.28 14.65-1584.8 523.06-10.27-14.65z"/><path class="cls-3" d="M150.56 379.76l1584.79-523.05 10.28 14.64-1584.8 523.06-10.27-14.65zm-44.7-63.73l1584.79-523.06 10.28 14.65-1584.8 523.06-10.27-14.65zm22.35 31.87L1713-175.16l10.28 14.65-1584.8 523.06-10.27-14.65z"/><path class="cls-14" d="M172.91 411.63L1757.7-111.43l10.28 14.65-1584.8 523.06-10.27-14.65zm44.7 63.73L1802.4-47.69l10.28 14.64-1584.8 523.06-10.27-14.65zm44.7 63.74L1847.1 16.04l10.28 14.65-1584.8 523.06-10.27-14.65zm44.7 63.73L1891.8 79.77l10.28 14.65-1584.8 523.06-10.27-14.65zm44.7 63.73L1936.5 143.5l10.28 14.65-1584.8 523.06-10.27-14.65z"/></g><path class="cls-15" d="M-.4 200.8h1304.36L-.37 375.2-.4 200.8z"/><path class="cls-15" d="M596.43 200.75h1323.76v46.95l-680.07 71.85-643.69-118.8z"/></g></svg>