<svg xmlns="http://www.w3.org/2000/svg" viewBox="0 0 1214.38 334.25"><defs><style>.cls-1{isolation:isolate}.cls-2{fill:#91c044;opacity:.8}.cls-3{fill:#127ae2;mix-blend-mode:multiply}</style></defs><title>Risorsa 6</title><g class="cls-1"><g id="Livello_2" data-name="Livello 2"><g id="Layer_1" data-name="Layer 1"><path class="cls-2" d="M1184.74 196.25H60V137h1124.74a29.64 29.64 0 0 1 29.64 29.62 29.64 29.64 0 0 1-29.64 29.63z"/><path class="cls-3" d="M1114.87 138.64l48.94 48.94a29.63 29.63 0 0 0 41.89 0 29.62 29.62 0 0 0 0-41.89l-48.94-48.94a29.62 29.62 0 0 0-41.89 0 29.62 29.62 0 0 0 0 41.89z"/><path class="cls-3" d="M1114.87 194.63l48.94-48.94a29.62 29.62 0 0 1 41.89 0 29.62 29.62 0 0 1 0 41.89l-48.94 48.94a29.62 29.62 0 0 1-41.89 0 29.62 29.62 0 0 1 0-41.89z"/><path class="cls-2" d="M0 136.37v58h764.16a78.34 78.34 0 0 1 78.35 78.34v30.51a29 29 0 0 0 29 29 29 29 0 0 0 29-29v-30.47a136.38 136.38 0 0 0-136.35-136.38z"/><path class="cls-3" d="M842.89 236.41L891 284.54a29.12 29.12 0 0 1 0 41.18 29.12 29.12 0 0 1-41.19 0l-48.1-48.12a29.12 29.12 0 0 1 0-41.19 29.12 29.12 0 0 1 41.18 0z"/><path class="cls-3" d="M898 236.41l-48.12 48.13a29.12 29.12 0 0 0 0 41.18 29.12 29.12 0 0 0 41.19 0l48.12-48.12a29.13 29.13 0 0 0 0-41.19 29.13 29.13 0 0 0-41.19 0z"/><path class="cls-2" d="M2 195.91v-58h533.35a78.34 78.34 0 0 0 78.35-78.38V29a29 29 0 0 1 29-29 29 29 0 0 1 29 29v30.53a136.38 136.38 0 0 1-136.35 136.38z"/><path class="cls-3" d="M615.09 97.84l48.12-48.12a29.12 29.12 0 0 0 0-41.19 29.13 29.13 0 0 0-41.19 0L573.9 56.65a29.13 29.13 0 0 0 0 41.19 29.13 29.13 0 0 0 41.19 0z"/><path class="cls-3" d="M670.15 97.84L622 49.72a29.13 29.13 0 0 1 0-41.19 29.13 29.13 0 0 1 41.19 0l48.13 48.12a29.13 29.13 0 0 1 0 41.19 29.13 29.13 0 0 1-41.17 0z"/></g></g></g></svg>