<svg version="1" xmlns="http://www.w3.org/2000/svg" width="266.667" height="266.667" viewBox="0 0 200.000000 200.000000"><path d="M56.2 94.9c.1 14.5.5 28.1 1 30.2.6 2 2.1 4.8 3.5 6.1 2.2 2 3.4 2.3 11.3 2.3 4.9 0 9.2-.3 9.6-.7.7-.8.7-9.8 0-10.5-.2-.3-2.3-.4-4.7-.5-2.4 0-5-.5-5.6-1-.9-.7-1.3-4.8-1.3-13.9V94l4.3.1c8.5.2 8.2.5 8-5.3-.1-2.9-.2-5.6-.2-5.9-.1-.3-2.7-.6-5.8-.5l-5.8.1-.5-7-.5-7h-6.7l-6.7-.1.1 26.5zM2.5 83.5C-2.9 88.8.9 98 8.5 98c4.9 0 8.5-3.6 8.5-8.5S13.4 81 8.5 81c-2.5 0-4.4.8-6 2.5zM29.2 107.9l.3 25.5 3.3-.1c1.7-.1 4.8-.2 6.7-.2l3.5-.1V82.4H29l.2 25.5zM99.3 83.3c-2.6 1.1-3.9 5.9-2.9 11.1.9 4.9 2.9 6 9.4 5.7 3.8-.2 2.7-3.1-1.3-3.1-3.8 0-5-2-4.3-7.6.3-2.6.8-2.9 4.1-3.2 2.4-.2 3.7-.8 3.7-1.8 0-.8-.6-1.5-1.2-1.5-.7-.1-2.2-.3-3.3-.4-1.1-.1-3 .2-4.2.8zM171.7 82.6c-1.1 1.1.5 3.4 2.3 3.4 1.3 0 1.7-.5 1.3-2-.5-1.9-2.3-2.6-3.6-1.4z"/><path d="M110.6 89.2c-3.2 4.5-1.4 10 3.6 11 5.5 1 9.4-7.5 5.2-11.6-2.3-2.4-7-2-8.8.6zm6.2 4.7c.3 2.7 0 3.2-1.5 2.9-1.9-.3-2.8-3-1.9-5.4 1-2.6 3.1-1 3.4 2.5zM123 93.7c0 5.6.2 6.3 2 6.3 1.7 0 2-.7 2-5 0-3.8.4-5 1.5-5 1.5 0 1.7.4 1.9 6.2.1 2.3.6 3.4 1.9 3.6.9.2 1.7 0 1.8-.5 0-.4.1-2.6.2-4.8.2-2.8.6-4 1.7-4s1.6 1.3 1.8 4.7c.2 3.8.7 4.8 2.1 4.8 1.5 0 1.8-.8 1.6-5.4-.1-2.9-.5-5.8-.9-6.4-.4-.6-4.2-1-9.1-1l-8.5.1v6.4zM144 92.6c0 6.3 1.4 7.6 7.1 7.2l4.2-.3-.1-4.3c-.1-8.4-.1-8.4-1.9-8-1.4.3-1.8 1.3-1.8 4.8s-.4 4.5-1.7 4.8c-1.5.3-1.8-.4-1.8-4.7 0-4.4-.2-5-2-4.8-1.7.1-2 .8-2 5.3zM158 93.5c0 5.9.2 6.5 2.1 6.5 1.7 0 2-.6 1.8-3.8-.3-5.4-.1-6.2 1.6-6.2 1.5 0 1.7.8 1.9 6.5.1 2 .7 3.1 1.9 3.3 1.4.3 1.7-.4 1.7-5 0-3-.5-5.9-1.2-6.6-.7-.7-3.1-1.2-5.5-1.2H158v6.5zM171.9 88.7c-.1 2.2-.1 9.5 0 10.5.1.5.9.8 1.9.8 1.5 0 1.8-.8 1.6-5.8-.2-7.4-.2-7.2-1.9-7.2-.8 0-1.5.8-1.6 1.7zM179.2 88.3c-.6.7-1.2 3-1.4 5.1-.3 4.6 2.6 7.6 6.6 6.9 3.7-.7 4.2-3.3.7-3.3-3.3 0-4.6-2.2-3-5.2.7-1.3 1.7-1.8 3-1.5 1.4.4 1.9 0 1.9-1.4 0-1.5-.7-1.9-3.4-1.9-1.8 0-3.8.6-4.4 1.3zM190 88v1.7c.1.5 1.2.7 2.5.5 1.2-.2 2.6.2 3 .7.3.6-.2 1.1-1.4 1.1-3.7 0-5.1 1.1-5.1 4.1 0 3.4 2.3 4.7 7.4 4.1l3.4-.4-.4-5.5c-.2-3-.6-5.9-.9-6.4-.8-1.2-8.5-1.2-8.5.1zm6 8c0 .5-.6 1-1.4 1-.8 0-1.8-.5-2.1-1-.3-.6.3-1 1.4-1 1.2 0 2.1.4 2.1 1z"/></svg>