<?xml version="1.0" encoding="utf-8"?>
<!-- Generator: Adobe Illustrator 22.1.0, SVG Export Plug-In . SVG Version: 6.00 Build 0)  -->
<svg version="1.1" id="Livello_1" xmlns="http://www.w3.org/2000/svg" xmlns:xlink="http://www.w3.org/1999/xlink" x="0px" y="0px"
	 viewBox="0 0 260 65.5" style="enable-background:new 0 0 260 65.5;" width="200" xml:space="preserve">
<style type="text/css">
	.st0{fill:#127AE2;}
</style>
<title>logo</title>
<g id="Livello_2_1_">
	<g id="Layer_1">
		<circle class="st0" cx="8.6" cy="20.9" r="8.6"/>
		<path class="st0" d="M29.2,64.5V14.2h13.5v50.3H29.2z"/>
		<path class="st0" d="M56.3,14V0h13.5v14h12.4v11.5H69.8v20.6c0,1.4,0,2.9,0.2,4.3c0.1,0.8,0.5,1.6,1.1,2.2c0.8,0.7,1.9,1,3,0.9
			l7.6-0.2L82.3,64c-3.4,0.9-6.8,1.4-10.3,1.5c-6,0-10.1-1.4-12.4-4.1s-3.4-7.7-3.3-15L56.3,14z"/>
	</g>
</g>
<path class="st0" d="M107.3,31c-1.6,0.4-3.2,0.5-4.8,0.6c-1.2,0-2.3-0.1-3.4-0.5c-0.8-0.3-1.5-0.9-2-1.7c-0.5-0.8-0.9-1.7-1-2.7
	c-0.2-1.3-0.3-2.6-0.3-3.9c0-3.3,0.5-5.6,1.4-6.9c0.9-1.3,2.6-1.9,5.1-1.9c1.7,0,3.4,0.3,5,0.7l-0.1,2.8c-1.4-0.2-2.7-0.4-4.1-0.4
	c-0.8-0.1-1.6,0.1-2.3,0.4c-0.5,0.4-0.9,1-1,1.7c-0.3,1.4-0.4,2.8-0.3,4.2c-0.1,1.4,0.1,2.8,0.7,4.1c0.7,0.8,1.7,1.3,2.8,1.1
	c1.5,0,2.9-0.1,4.4-0.3L107.3,31z"/>
<path class="st0" d="M110.3,20.2c0.9-1.1,2.4-1.7,4.4-1.7c2.1,0,3.5,0.6,4.4,1.7c1,1.4,1.4,3.1,1.3,4.8c0,4.4-1.9,6.6-5.8,6.6
	c-3.8,0-5.7-2.2-5.7-6.6C108.9,23.3,109.3,21.6,110.3,20.2z M112.9,27.8c0.8,1,2.3,1.2,3.3,0.4c0.2-0.1,0.3-0.3,0.4-0.4
	c0.4-0.9,0.6-1.9,0.5-2.8c0.1-1-0.1-1.9-0.5-2.8c-0.8-1-2.3-1.2-3.3-0.4c-0.1,0.1-0.3,0.2-0.4,0.4c-0.4,0.9-0.6,1.8-0.5,2.8
	C112.3,26,112.5,27,112.9,27.8z"/>
<path class="st0" d="M126.3,31.3h-3.3V18.8h3.3v0.7c0.9-0.6,1.9-0.9,2.9-1c1.2-0.1,2.3,0.4,3.1,1.2c1.3-0.7,2.7-1.1,4.2-1.2
	c1.3-0.2,2.7,0.4,3.5,1.4c0.8,1.4,1.1,3,1,4.6v6.8h-3.4v-6.7c0-0.8-0.1-1.6-0.4-2.4c-0.3-0.5-0.8-0.8-1.4-0.8
	c-0.7,0-1.3,0.1-1.9,0.3l-0.4,0.1c0.1,1.2,0.1,2.2,0.1,2.8v6.5h-3.4v-6.4c0.1-0.9-0.1-1.8-0.3-2.6c-0.3-0.5-0.8-0.8-1.4-0.8
	c-0.7,0-1.3,0.1-1.9,0.3l-0.3,0.1L126.3,31.3z"/>
<path class="st0" d="M151.3,18.8h3.4v12.5h-3.3v-0.7c-0.9,0.6-2,0.9-3.1,1c-1.7,0-2.9-0.5-3.5-1.4c-0.7-1.5-1-3.2-0.9-4.8v-6.5h3.4
	v6.6c-0.1,0.9,0,1.7,0.3,2.5c0.2,0.5,0.7,0.7,1.4,0.7c0.7,0,1.4-0.1,2.1-0.3l0.3-0.1L151.3,18.8z"/>
<path class="st0" d="M161.1,31.3h-3.4V18.8h3.3v0.7c0.9-0.6,2-0.9,3.1-1c1.7,0,2.8,0.5,3.4,1.5c0.7,1.4,1.1,3,0.9,4.5v6.8h-3.4v-6.7
	c0-0.8-0.1-1.6-0.4-2.4c-0.3-0.5-0.9-0.8-1.5-0.8c-0.7,0-1.4,0.1-2,0.3l-0.3,0.1L161.1,31.3z"/>
<path class="st0" d="M171.6,17.2v-3.4h3.4v3.4H171.6z M171.6,31.3V18.8h3.4v12.5L171.6,31.3z"/>
<path class="st0" d="M182.7,18.5c1.1,0,2.2,0.2,3.3,0.4l0.7,0.2l-0.1,2.7c-1.3-0.1-2.3-0.2-2.9-0.2c-0.8-0.1-1.7,0.2-2.3,0.7
	c-0.5,0.9-0.7,1.8-0.6,2.8c-0.1,1,0.1,1.9,0.6,2.8c0.6,0.6,1.5,0.9,2.3,0.8l2.9-0.2l0.1,2.7c-1.3,0.3-2.7,0.5-4.1,0.5
	c-1.5,0.1-3-0.4-4-1.6c-0.8-1-1.2-2.7-1.2-5c0-2.3,0.4-4,1.2-5C179.7,18.9,181.2,18.3,182.7,18.5z"/>
<path class="st0" d="M198.7,22.7v5.2c0,0.3,0.1,0.6,0.2,0.8c0.2,0.2,0.4,0.3,0.6,0.3l-0.1,2.5c-0.7,0-1.3,0-2-0.2
	c-0.6-0.1-1.1-0.4-1.5-0.7c-1.1,0.6-2.4,0.9-3.7,0.9c-2.6,0-3.9-1.4-3.9-4.1c-0.1-1.1,0.3-2.1,1.1-2.8c1-0.6,2.1-1,3.3-1l2.7-0.2
	v-0.8c0-0.4-0.1-0.8-0.4-1.1c-0.3-0.2-0.7-0.3-1.1-0.3l-4.7,0.2l-0.1-2.3c1.7-0.5,3.4-0.7,5.1-0.7c1.2-0.1,2.5,0.2,3.5,1
	C198.5,20.4,198.8,21.5,198.7,22.7z M193.1,26c-0.8,0-1.4,0.6-1.4,1.3c0,0.1,0,0.1,0,0.2c0,0.9,0.4,1.4,1.2,1.4
	c0.7,0,1.4-0.1,2.1-0.3l0.4-0.1v-2.7L193.1,26z"/>
<path class="st0" d="M207.7,31.3v-17h3.4v17H207.7z"/>
<path class="st0" d="M221.5,21.6h-3.1v5.1c0,0.4,0,0.7,0,1.1c0,0.2,0.1,0.4,0.3,0.5c0.2,0.2,0.5,0.2,0.7,0.2l1.9,0l0.1,2.7
	c-0.8,0.2-1.7,0.3-2.6,0.4c-1.1,0.1-2.2-0.2-3.1-1c-0.7-1.1-1-2.4-0.8-3.7v-5.2h-1.4v-2.9h1.5v-3.5h3.4v3.5h3.1L221.5,21.6z"/>
<path class="st0" d="M233.2,22.7v5.2c0,0.3,0.1,0.6,0.2,0.8c0.2,0.2,0.4,0.3,0.6,0.3l-0.1,2.5c-0.7,0-1.3,0-2-0.2
	c-0.5-0.1-1.1-0.4-1.5-0.7c-1.1,0.6-2.4,0.9-3.7,0.9c-2.6,0-3.9-1.4-3.9-4.1c-0.1-1.1,0.3-2.1,1.1-2.8c1-0.6,2.1-1,3.3-1l2.7-0.2
	v-0.8c0-0.4-0.1-0.8-0.4-1.1c-0.3-0.2-0.7-0.3-1.1-0.3l-4.7,0.2l-0.1-2.3c1.7-0.5,3.4-0.7,5.1-0.7c1.2-0.1,2.5,0.2,3.5,1
	C233,20.4,233.4,21.5,233.2,22.7z M227.6,26c-0.8,0-1.4,0.6-1.4,1.3c0,0.1,0,0.1,0,0.2c0,0.9,0.4,1.4,1.2,1.4c0.7,0,1.4-0.1,2.1-0.3
	l0.4-0.1v-2.7L227.6,26z"/>
<path class="st0" d="M236.6,31.3V13.8h3.4v17.5H236.6z"/>
<path class="st0" d="M243.2,17.2v-3.4h3.4v3.4H243.2z M243.2,31.3V18.8h3.4v12.5L243.2,31.3z"/>
<path class="st0" d="M259.2,22.7v5.2c0,0.3,0.1,0.6,0.2,0.8c0.1,0.2,0.3,0.3,0.6,0.4l-0.1,2.5c-0.7,0-1.3,0-2-0.2
	c-0.6-0.1-1.1-0.4-1.5-0.7c-1.1,0.6-2.4,0.9-3.7,0.9c-2.6,0-3.9-1.4-3.9-4.1c-0.1-1.1,0.3-2.1,1.1-2.8c1-0.6,2.1-1,3.3-1l2.7-0.2
	v-0.8c0-0.4-0.1-0.8-0.4-1.1c-0.3-0.2-0.7-0.3-1.1-0.3l-4.7,0.2l-0.1-2.3c1.7-0.5,3.4-0.7,5.1-0.7c1.2-0.1,2.5,0.2,3.5,1
	C258.9,20.4,259.3,21.5,259.2,22.7z M253.6,26c-0.8,0-1.4,0.6-1.4,1.3c0,0.1,0,0.1,0,0.2c0,0.9,0.4,1.4,1.2,1.4
	c0.7,0,1.4-0.1,2.1-0.3l0.4-0.1v-2.7L253.6,26z"/>
</svg>
