<svg xmlns="http://www.w3.org/2000/svg" viewBox="0 0 577.47 577.47"><defs><style>.cls-1{fill:#127ae2;opacity:.8}.cls-2{fill:#fff}.cls-3{fill:#91c044}</style></defs><title>Risorsa 3</title><g id="Livello_2" data-name="Livello 2"><g id="Layer_1" data-name="Layer 1"><path class="cls-1" d="M291.24 286.06l286.23 287.87V0H291.24v286.06zm282.71 291.41L288.74 290.63 3.52 577.47h570.43zM286.24 286.06V0H0v573.93l286.24-287.87zM0 577.47zm577.47 0z"/><path class="cls-2" d="M226.84 529.5c-2.36 0-3.53.83-3.53 2.48a2 2 0 0 0 .83 1.82 16.23 16.23 0 0 0 3.69 1.34 9.89 9.89 0 0 1 4 1.89 4.56 4.56 0 0 1 1.17 3.47 5.63 5.63 0 0 1-1.71 4.49 6.81 6.81 0 0 1-4.66 1.49 27.73 27.73 0 0 1-5.24-.55l-1-.2.31-2.48a46 46 0 0 0 5.73.51c2.3 0 3.46-1 3.46-3.07a2.06 2.06 0 0 0-.78-1.77 12.09 12.09 0 0 0-3.51-1.25 9.47 9.47 0 0 1-4.07-1.88 4.84 4.84 0 0 1-1.33-3.78 4.69 4.69 0 0 1 1.68-3.92 7.38 7.38 0 0 1 4.66-1.32 31 31 0 0 1 5.07.5l1 .17-.25 2.5c-2.6-.29-4.44-.44-5.52-.44zm16.46 5.35h-3.84V541a6.47 6.47 0 0 0 .25 2.26c.16.37.59.55 1.28.55l2.28-.08.14 2.42a16.27 16.27 0 0 1-2.84.36q-2.37 0-3.24-1.08c-.59-.73-.88-2.09-.88-4.09v-6.46h-1.78v-2.59h1.78v-4h3v4h3.84zm3.24-1.09q1.44-1.82 4.78-1.81c2.22 0 3.82.6 4.77 1.81a8.63 8.63 0 0 1 1.44 5.43 9 9 0 0 1-1.4 5.46c-.92 1.22-2.53 1.83-4.81 1.83s-3.89-.61-4.82-1.83a9 9 0 0 1-1.39-5.46 8.69 8.69 0 0 1 1.43-5.43zm2.27 9a3.38 3.38 0 0 0 5 0 7.67 7.67 0 0 0 .64-3.65 6.91 6.91 0 0 0-.68-3.59 3.4 3.4 0 0 0-4.93 0 7 7 0 0 0-.68 3.59 7.67 7.67 0 0 0 .65 3.7zm11.72 3.42v-13.92h3v1.67a13.37 13.37 0 0 1 4.73-2v3a19.91 19.91 0 0 0-4.09 1.23l-.61.25v9.72zm8.77-13.92h3l3 11.33h.7l2.95-11.33h3l-5.29 19.9h-3l1.67-6H273zm22.48 2.59h-3.85V541a6.73 6.73 0 0 0 .25 2.26c.17.37.6.55 1.28.55l2.29-.08.14 2.42a16.38 16.38 0 0 1-2.84.36 4 4 0 0 1-3.25-1.08c-.58-.73-.87-2.09-.87-4.09v-6.46h-1.79v-2.59h1.79v-4h3v4h3.85zm12.39 8.82l.78-.08.05 2.25a28.61 28.61 0 0 1-5.62.64c-2.06 0-3.55-.56-4.45-1.69s-1.35-2.95-1.35-5.43q0-7.41 6.05-7.41 5.85 0 5.84 6.38l-.19 2.17h-8.63a3.83 3.83 0 0 0 .75 2.53 3.54 3.54 0 0 0 2.7.81c1.32 0 2.67-.06 4.07-.17zm-1.67-5.51a4.71 4.71 0 0 0-.66-2.88 2.66 2.66 0 0 0-2.21-.82 2.75 2.75 0 0 0-2.27.86 4.54 4.54 0 0 0-.74 2.84zm6.06 8.02v-19.72h3v19.72zm7.05 0v-19.72h3v19.72zm6.88-16.29v-3.2h3v3.2zm0 16.29v-13.92h3v13.92zm9.74 0h-3v-13.92h3v.86A7.77 7.77 0 0 1 336 532c1.86 0 3.13.52 3.81 1.57a10.06 10.06 0 0 1 1 5.2v7.46h-3v-7.43a7.65 7.65 0 0 0-.48-3.2 2 2 0 0 0-2-1 6.91 6.91 0 0 0-2.73.56l-.42.16zm24.34 1.89q0 4.57-6.6 4.57a9.85 9.85 0 0 1-4.71-.87 3.28 3.28 0 0 1-1.53-3.14 3.1 3.1 0 0 1 .5-1.77 7.42 7.42 0 0 1 1.62-1.6 2.25 2.25 0 0 1-.92-2 4.29 4.29 0 0 1 .75-1.81l.25-.42a4.46 4.46 0 0 1-2-4.18 4.37 4.37 0 0 1 1.51-3.67 6.45 6.45 0 0 1 4.06-1.17 10.48 10.48 0 0 1 2.43.28l.41.08 4.32-.11v2.45l-2.31-.14a3.63 3.63 0 0 1 .75 2.28c0 1.82-.46 3.08-1.38 3.77a7.1 7.1 0 0 1-4.3 1 6 6 0 0 1-1.22-.11 4.07 4.07 0 0 0-.4 1.46.72.72 0 0 0 .52.71 9.79 9.79 0 0 0 2.49.22c2.21 0 3.72.32 4.54.89s1.22 1.68 1.22 3.28zm-9.86.28a1.45 1.45 0 0 0 .78 1.39 6.07 6.07 0 0 0 2.67.42c2.25 0 3.37-.64 3.37-1.92q0-1.1-.6-1.38a6.68 6.68 0 0 0-2.38-.32l-2.73-.17a4 4 0 0 0-.86.94 2 2 0 0 0-.25 1.04zm.83-9.65a2.76 2.76 0 0 0 2 .6 2.69 2.69 0 0 0 2-.6 3.22 3.22 0 0 0 0-3.76 2.76 2.76 0 0 0-2-.6 2.23 2.23 0 0 0-2.56 2.48 2.56 2.56 0 0 0 .56 1.88zm-29.07-137.83a2 2 0 0 0-2-2.05h-43.55a2 2 0 0 0 0 4.09h43.51a2 2 0 0 0 2.04-2.04zm-61.95 2.04h6.89a2 2 0 1 0 0-4.09h-6.89a2 2 0 0 0 0 4.09zm0 58.56a2 2 0 0 0 0 4.09h21.38a2 2 0 0 0 0-4.09zm32-18.84a2 2 0 0 0-2-2h-30a2 2 0 0 0 0 4.09h30a2.05 2.05 0 0 0 2-2.09zm14.58-20.88a2 2 0 0 0-2-2.05h-44.58a2 2 0 0 0 0 4.09h44.54a2 2 0 0 0 2.04-2.04z"/><path class="cls-2" d="M328.21 447.82a2 2 0 0 0-2 2v24.77a9.49 9.49 0 0 1-9.48 9.48h-.26c-5.34 0-9.42-4.38-9.48-10.19a2 2 0 0 0-2-2h-59.2v-80.4a9.49 9.49 0 0 1 9.48-9.48H330l-.18.19-.21.22a2.62 2.62 0 0 1-.22.25l-.2.25-.2.25c-.07.09-.14.17-.2.26l-.19.26-.18.27-.18.27a2.61 2.61 0 0 0-.17.28 2.54 2.54 0 0 0-.16.28c-.06.09-.11.19-.16.28s-.1.19-.15.29l-.15.29c-.05.1-.09.2-.13.3s-.1.2-.14.3l-.12.31-.12.3-.11.32c0 .1-.07.2-.1.31l-.09.33-.09.31c0 .11 0 .23-.08.34s-.05.21-.07.31l-.06.36-.06.3c0 .13 0 .26-.05.39v19.8a2 2 0 0 0 4.09 0v-15.41h21a2.07 2.07 0 0 0 2.05-2.07c-.09-8.11-5.92-14.23-13.59-14.23h-84.51a13.59 13.59 0 0 0-13.57 13.57v80.42h-21.26a2 2 0 0 0-1.45.61 2 2 0 0 0-.59 1.45c.08 8.12 5.91 14.24 13.56 14.24h84.73a13.59 13.59 0 0 0 13.57-13.57v-24.77a2 2 0 0 0-2.05-2.04zm2.15-57.74v-.19c0-.08 0-.17.05-.26s0-.13 0-.2l.06-.24a1.46 1.46 0 0 1 0-.2 2 2 0 0 1 .07-.23l.06-.2c0-.08 0-.15.07-.22l.08-.21c0-.06.05-.13.08-.2l.09-.21c0-.06 0-.12.08-.19l.1-.21.08-.16c0-.08.08-.16.13-.24a.35.35 0 0 1 .05-.08 8.87 8.87 0 0 1 .62-1l.22-.29a3.11 3.11 0 0 1 .23-.28v-.05l.24-.26h.05l.26-.27.29-.27a9.4 9.4 0 0 1 4.49-2.17l.42-.07h1.3a9.47 9.47 0 0 1 9.28 8.12h-18.4zm-98.4 94a9.47 9.47 0 0 1-9.28-8.12H303l.09.63a1.77 1.77 0 0 1 0 .2l.09.42a2 2 0 0 0 0 .24l.09.36c0 .09.05.17.07.26s.06.22.1.34a2.41 2.41 0 0 0 .08.25c0 .11.07.22.11.33l.09.25.12.33a2.44 2.44 0 0 0 .1.24c0 .11.09.21.14.32a2.29 2.29 0 0 0 .1.23c.05.11.1.22.16.33a2 2 0 0 0 .1.21c.07.12.13.25.2.38s.05.09.08.14l.3.5a1 1 0 0 0 .08.11l.24.38.12.17.23.3c0 .07.09.12.13.18l.23.28.15.18.22.27a1.29 1.29 0 0 1 .16.17l.12.12z"/><path class="cls-3" d="M357.83 415.58v-.07a2.43 2.43 0 0 0-.1-.55 2 2 0 0 0-.11-.26 1.07 1.07 0 0 0-.13-.21v-.05l-.18-.2-.31-.24-.23-.14h-.05l-.26-.11-.27-.07h-.34c-17.1-.44-39.4 3.68-50.68 16.55-4.93 5.63-7.21 12.78-9.41 19.69l-.54 1.69a.25.25 0 0 0 0 .07l-3.46 12.27a2 2 0 0 0 1.42 2.52 1.75 1.75 0 0 0 .55.08 2.06 2.06 0 0 0 2-1.49l3.2-11.38a64.31 64.31 0 0 1 11.33-3.85c2.21-.6 4.71-1.28 7.75-2.22 6.55-2 19.12-10.44 24.9-16.7a139 139 0 0 1 14.24-13.61 2 2 0 0 0 .21-.2l.17-.22v-.05a2.05 2.05 0 0 0 .22-.5v-.06a2.16 2.16 0 0 0 .05-.27v-.19zm-49.59 17.21c4.75-5.43 12.05-9.52 21.67-12.17a79 79 0 0 1 8.14-1.76 159.14 159.14 0 0 0-17.83 10.37 164.27 164.27 0 0 0-17.75 13.57 33.43 33.43 0 0 1 5.77-10.01zm31.61-4.79c-5.63 6.1-17.79 13.94-23.11 15.58-3 .91-5.43 1.58-7.61 2.17-2 .54-3.77 1-5.54 1.59.79-.76 1.72-1.61 2.82-2.57a162.76 162.76 0 0 1 16.08-12.14c10.32-6.89 19.65-11.73 26.5-13.83-2.99 2.74-5.9 5.69-9.14 9.2z"/><path class="cls-2" d="M348.36 271.82c-2.79 0-4.67-.77-5.67-2.31s-1.49-4.08-1.49-7.6.5-6 1.51-7.54 2.88-2.24 5.65-2.24a23.89 23.89 0 0 1 5.46.7l-.11 2.5a29.44 29.44 0 0 0-5-.44c-1.67 0-2.8.5-3.39 1.49s-.89 2.86-.89 5.6.28 4.6.86 5.59 1.7 1.49 3.37 1.49a31.34 31.34 0 0 0 5.07-.42l.08 2.57a26.57 26.57 0 0 1-5.45.61zm8.9-12.73c.95-1.2 2.54-1.81 4.77-1.81s3.82.61 4.78 1.81a8.69 8.69 0 0 1 1.43 5.43 8.93 8.93 0 0 1-1.39 5.46q-1.39 1.84-4.82 1.84t-4.82-1.82a9 9 0 0 1-1.39-5.46 8.63 8.63 0 0 1 1.44-5.45zm2.27 9.05a2.61 2.61 0 0 0 2.5 1.12 2.64 2.64 0 0 0 2.51-1.12 7.78 7.78 0 0 0 .64-3.64 7.06 7.06 0 0 0-.68-3.6 2.73 2.73 0 0 0-2.47-1.06 2.7 2.7 0 0 0-2.46 1.06 6.94 6.94 0 0 0-.69 3.6 7.63 7.63 0 0 0 .65 3.64zm14.75 3.37h-3v-13.92h3v.86a7.26 7.26 0 0 1 3.63-1.17 4.29 4.29 0 0 1 3.53 1.37 10.57 10.57 0 0 1 5-1.37 4 4 0 0 1 3.54 1.55c.68 1 1 2.77 1 5.22v7.46h-3v-7.38a7.89 7.89 0 0 0-.46-3.2 1.91 1.91 0 0 0-1.91-.95 7.63 7.63 0 0 0-2.7.56l-.47.2a15 15 0 0 1 .22 3.56v7.21h-3v-7.15a9 9 0 0 0-.44-3.43 1.94 1.94 0 0 0-1.95-.95 6.09 6.09 0 0 0-2.59.56l-.42.17zM403 257.59h3v13.92h-3v-.86a7.65 7.65 0 0 1-3.76 1.17c-1.91 0-3.19-.52-3.84-1.55s-1-2.83-1-5.41v-7.27h3v7.3a8.81 8.81 0 0 0 .42 3.36c.27.58.92.87 1.94.87a6.71 6.71 0 0 0 2.76-.56l.42-.17zm9.74 13.92h-3v-13.92h3v.86a7.71 7.71 0 0 1 3.84-1.17c1.86 0 3.12.53 3.8 1.58s1 2.78 1 5.19v7.46h-3v-7.38a7.45 7.45 0 0 0-.49-3.2 2 2 0 0 0-2-.95 7 7 0 0 0-2.73.56l-.41.17zm12.16-16.29V252h3v3.2zm0 16.29v-13.92h3v13.92zm11.92-14.23a18.64 18.64 0 0 1 3.48.39l.7.14-.11 2.4c-1.47-.15-2.56-.23-3.26-.23a3.43 3.43 0 0 0-2.84.95 6.24 6.24 0 0 0-.73 3.57 6.72 6.72 0 0 0 .7 3.61c.46.67 1.43 1 2.9 1l3.25-.23.09 2.43a27 27 0 0 1-4.23.5q-3.18 0-4.47-1.71t-1.3-5.6c0-2.6.46-4.46 1.37-5.56s2.39-1.66 4.45-1.66zm17.4 4.6v6.35a1.33 1.33 0 0 0 .32.9 1.57 1.57 0 0 0 .91.38l-.08 2.31a5.91 5.91 0 0 1-3.71-1 10.68 10.68 0 0 1-4.48 1q-4.15 0-4.15-4.43a3.79 3.79 0 0 1 1.13-3.06 6.12 6.12 0 0 1 3.46-1.14l3.6-.31v-1a2.08 2.08 0 0 0-.49-1.56 2.05 2.05 0 0 0-1.44-.45c-1.18 0-2.67.08-4.45.23h-.89l-.11-2.14a24.32 24.32 0 0 1 5.58-.73 5.17 5.17 0 0 1 3.68 1.1 4.73 4.73 0 0 1 1.12 3.55zm-6.22 3.45a1.88 1.88 0 0 0-1.93 2.09c0 1.28.57 1.92 1.7 1.92a10.64 10.64 0 0 0 2.95-.45l.51-.16V265zm9.34-5.04v-2.7h10.33v2.7l-6.67 8.52h6.68v2.7h-10.34v-2.7l6.71-8.52zm13.34-5.07V252h3v3.2zm0 16.29v-13.92h3v13.92zm7.48-12.42c.95-1.2 2.54-1.81 4.77-1.81s3.82.61 4.78 1.81a8.69 8.69 0 0 1 1.43 5.43 8.93 8.93 0 0 1-1.39 5.46q-1.39 1.84-4.82 1.84t-4.82-1.82a8.93 8.93 0 0 1-1.39-5.46 8.63 8.63 0 0 1 1.44-5.45zm2.26 9.05a3.37 3.37 0 0 0 5 0 7.78 7.78 0 0 0 .64-3.64 6.94 6.94 0 0 0-.69-3.6 3.38 3.38 0 0 0-4.92 0 6.94 6.94 0 0 0-.69 3.6 7.78 7.78 0 0 0 .66 3.64zm14.76 3.37h-3v-13.92h3v.86a7.78 7.78 0 0 1 3.85-1.17c1.85 0 3.12.53 3.8 1.58s1 2.78 1 5.19v7.46h-3v-7.38a7.61 7.61 0 0 0-.49-3.2 2 2 0 0 0-2-.95 6.91 6.91 0 0 0-2.73.56l-.42.17zm22.08-2.51l.78-.09.06 2.26a29.4 29.4 0 0 1-5.63.64q-3.09 0-4.44-1.7t-1.35-5.43q0-7.41 6-7.41 5.85 0 5.85 6.38l-.19 2.17h-8.63a3.76 3.76 0 0 0 .75 2.54 3.58 3.58 0 0 0 2.7.8c1.36.01 2.71-.04 4.1-.16zm-1.67-5.52a4.81 4.81 0 0 0-.65-2.88 2.68 2.68 0 0 0-2.22-.82 2.76 2.76 0 0 0-2.26.86 4.58 4.58 0 0 0-.74 2.84zm-131.52-82.12v20a6.24 6.24 0 0 0 5.56 6.19 6.71 6.71 0 0 0 6.27 4.34h16.8a6.71 6.71 0 0 0 6.26-4.32 6.23 6.23 0 0 0 5.9-6.21v-8l24.28 7.46a2.4 2.4 0 0 0 1.41-4.58l-61.69-18.95v-27.8l80.2-24.63v77.06l-7.83-2.41a2.4 2.4 0 0 0-1.41 4.58l9.26 2.84a6.7 6.7 0 0 0 13.38-.41v-32a11.37 11.37 0 0 0 0-22.24v-9.6a2.39 2.39 0 0 0-4.78 0v63.85a1.92 1.92 0 0 1-3.83 0v-86.27a1.92 1.92 0 0 1 3.83 0v11.24a2.39 2.39 0 0 0 4.78 0v-11.24a6.7 6.7 0 0 0-13.38-.42l-83 25.5-25.2.88a6.7 6.7 0 0 0-12.88 2.66v29a6.7 6.7 0 0 0 12.85 2.66l23.21.8m-27.45-3.46a1.92 1.92 0 0 1-3.83 0v-29a1.92 1.92 0 1 1 3.83 0zm27.45-1.33l-22.66-.79v-4.6l22.66.29zm0-21.26l-5.77.07a2.4 2.4 0 1 0 .06 4.79l5.71-.07v6.58l-22.66-.29v-6l5.78-.07a2.4 2.4 0 0 0-.06-4.79l-5.72.08V151l22.66-.79zm28.63 51.76H395.9a1.92 1.92 0 1 1 0-3.83h16.8a1.92 1.92 0 1 1 0 3.83zm7.38-15.19v9.45a1.46 1.46 0 0 1-1.13 1.4 6.73 6.73 0 0 0-6.25-4.27c-17.7 0-17.66-.2-19.36.51a6.72 6.72 0 0 0-3.65 3.66 1.46 1.46 0 0 1-.83-1.3v-19zm62.38-22.35v-12.26a6.6 6.6 0 0 1 .01 12.28z"/><path class="cls-3" d="M509 161h-11.28a2.39 2.39 0 0 0 0 4.78H509a2.39 2.39 0 0 0 0-4.78zm-15.18-18l8-8a2.4 2.4 0 0 0-3.39-3.39l-8 8a2.39 2.39 0 0 0 3.38 3.38zm3.63 10.41l10.86-3.36a2.39 2.39 0 1 0-1.41-4.57l-10.9 3.35c-3 .93-1.61 5.52 1.45 4.58zm10.86 23.28l-10.86-3.36a2.4 2.4 0 1 0-1.41 4.58l10.86 3.35a2.39 2.39 0 1 0 1.41-4.57zm-14.49 7.1a2.39 2.39 0 0 0-3.38 3.39l8 8a2.4 2.4 0 0 0 3.39-3.39z"/><path class="cls-2" d="M81.4 270.72v-19.07h5.37l4.23 14.9 4.26-14.9h5.41v19.07h-3.09v-15.65h-.42l-4.51 14.87h-3.23l-4.51-14.87h-.42v15.65zm33.6-9.63v6.35a1.28 1.28 0 0 0 .32.9 1.5 1.5 0 0 0 .9.38l-.08 2.31a5.82 5.82 0 0 1-3.7-1 10.57 10.57 0 0 1-4.49 1c-2.76 0-4.15-1.48-4.15-4.43a3.79 3.79 0 0 1 1.13-3.06 6.15 6.15 0 0 1 3.47-1.14l3.59-.31v-1a1.69 1.69 0 0 0-1.92-2c-1.19 0-2.67.08-4.46.23l-.89.05-.11-2.14a24.39 24.39 0 0 1 5.58-.73 5.16 5.16 0 0 1 3.68 1.1 4.73 4.73 0 0 1 1.13 3.49zm-6.24 3.45a1.87 1.87 0 0 0-1.92 2.09c0 1.28.57 1.92 1.7 1.92a11 11 0 0 0 3-.44l.5-.17v-3.7zm10.06 6.18V256.8h3v1.67a13.37 13.37 0 0 1 4.73-2v3a19.94 19.94 0 0 0-4.09 1.22l-.61.26v9.71zm13.09 0h-3V251h3v11.4l1.73-.17 3.28-5.43h3.4l-4 6.52 4.23 7.4h-3.42l-3.4-5.87-1.81.19zm20.47-2.5l.78-.09.05 2.26a28.61 28.61 0 0 1-5.62.64c-2.06 0-3.55-.57-4.45-1.7s-1.35-2.94-1.35-5.43q0-7.41 6.05-7.41 5.85 0 5.84 6.38l-.19 2.17h-8.63a3.86 3.86 0 0 0 .75 2.54 3.58 3.58 0 0 0 2.7.8c1.32 0 2.69-.05 4.07-.16zm-1.67-5.52a4.73 4.73 0 0 0-.66-2.88 2.66 2.66 0 0 0-2.21-.82 2.79 2.79 0 0 0-2.27.86 4.58 4.58 0 0 0-.74 2.84zm13.39-3.31h-3.85v6.13a6.33 6.33 0 0 0 .26 2.25c.16.37.59.56 1.28.56l2.28-.09.14 2.43a16.38 16.38 0 0 1-2.84.36c-1.58 0-2.66-.36-3.25-1.09s-.87-2.09-.87-4.09v-6.46h-1.78v-2.59h1.78v-4h3v4h3.85zm2.48-4.96v-3.2h3v3.2zm0 16.29V256.8h3v13.92zm9.74 0h-3V256.8h3v.86a7.77 7.77 0 0 1 3.84-1.17c1.86 0 3.13.53 3.81 1.58a10 10 0 0 1 1 5.19v7.46h-3v-7.38a7.65 7.65 0 0 0-.48-3.2 2 2 0 0 0-2-.94 6.9 6.9 0 0 0-2.73.55l-.42.17zm24.34 1.9q0 4.56-6.6 4.56a10 10 0 0 1-4.71-.86 3.3 3.3 0 0 1-1.53-3.15 3.09 3.09 0 0 1 .5-1.76 7.43 7.43 0 0 1 1.62-1.61 2.23 2.23 0 0 1-.92-2 4.34 4.34 0 0 1 .75-1.81l.25-.42a4.44 4.44 0 0 1-2-4.17 4.39 4.39 0 0 1 1.51-3.68 6.45 6.45 0 0 1 4.06-1.17 11 11 0 0 1 2.43.28l.41.08 4.32-.11v2.45l-2.31-.14a3.64 3.64 0 0 1 .75 2.29c0 1.82-.46 3.07-1.38 3.77a7.11 7.11 0 0 1-4.3 1 5.35 5.35 0 0 1-1.22-.11 4.07 4.07 0 0 0-.4 1.46.71.71 0 0 0 .52.71 9.61 9.61 0 0 0 2.49.23c2.21 0 3.72.31 4.54.89s1.22 1.65 1.22 3.27zm-9.86.27a1.47 1.47 0 0 0 .78 1.4 6.1 6.1 0 0 0 2.67.41c2.25 0 3.37-.64 3.37-1.92 0-.72-.2-1.18-.6-1.37a6.39 6.39 0 0 0-2.38-.33l-2.73-.16a3.57 3.57 0 0 0-.86.93 2 2 0 0 0-.25 1.04zm.83-9.64a2.76 2.76 0 0 0 2 .6 2.69 2.69 0 0 0 2-.6 2.57 2.57 0 0 0 .6-1.88 2.52 2.52 0 0 0-.61-1.88 2.76 2.76 0 0 0-2-.6 2.23 2.23 0 0 0-2.56 2.48 2.57 2.57 0 0 0 .57 1.88zM92.92 141.49h-6.83a2.06 2.06 0 0 0 0 4.12h6.83a2.06 2.06 0 0 0 0-4.12zm101.46 0h-6.83a2.06 2.06 0 0 0 0 4.12h6.83a2.06 2.06 0 0 0 0-4.12zm-89.06 34.06l-4.83 4.83a2.06 2.06 0 0 0 2.91 2.91l4.83-4.82a2.06 2.06 0 1 0-2.91-2.92zm34.91-77.26a2.06 2.06 0 0 0 2.06-2.06v-6.82a2.06 2.06 0 1 0-4.11 0v6.82a2.05 2.05 0 0 0 2.05 2.06zm34.92 77.26a2.06 2.06 0 1 0-2.91 2.92l4.82 4.82a2.06 2.06 0 0 0 2.92-2.91zm-69.83-64a2.06 2.06 0 1 0 2.91-2.91l-4.83-4.83a2.06 2.06 0 1 0-2.91 2.91z"/><path class="cls-3" d="M189.24 122.94a5 5 0 0 0 5-5v-12.51a5 5 0 0 0-5-5h-11.89a5 5 0 0 0 0 10.06l-5.83 5.93a41.57 41.57 0 0 0-26.26-14.06 2.06 2.06 0 1 0-.5 4.09 37.42 37.42 0 0 1 23.87 12.91l-21.49 21.85-6.58-4.67a5 5 0 0 0-6.66.75l-17.08 19.21a5 5 0 0 0 7.51 6.68l14.08-15.84 6.4 4.55a5 5 0 0 0 6.5-.58l22.84-23.22a37.44 37.44 0 0 1 2.89 9.88 2.06 2.06 0 0 0 4.07-.59 41.13 41.13 0 0 0-3.89-12.42l7-7.08v.06a5 5 0 0 0 5.02 5zM148.4 148.4a.9.9 0 0 1-1.17.1l-7.91-5.61a2 2 0 0 0-2.72.31l-15.32 17.21a.9.9 0 0 1-1.28.08.92.92 0 0 1-.08-1.29L137 140a.93.93 0 0 1 1.21-.14l8 5.69a2.07 2.07 0 0 0 2.66-.23l34.88-35.48a2.06 2.06 0 0 0-1.47-3.5h-4.94a.91.91 0 0 1 0-1.82h11.89a.91.91 0 0 1 .91.91v12.48a.91.91 0 0 1-1.82 0v-5.09a2.06 2.06 0 0 0-3.52-1.44z"/><path class="cls-2" d="M179.53 145.2a2.07 2.07 0 0 0-2.25 1.85A37.47 37.47 0 0 1 160 174.93a13.82 13.82 0 0 0-6.54 11.77v8.47H127v-8.65a13.56 13.56 0 0 0-6.34-11.47 37.23 37.23 0 0 1 15-68.63 2.06 2.06 0 0 0-.5-4.08 41.34 41.34 0 0 0-16.68 76.21 9.41 9.41 0 0 1 4.39 8v8.95a5.37 5.37 0 0 0-3.6 5.06v2.93a5.33 5.33 0 0 0 1.14 3.29 5.34 5.34 0 0 0-1.14 3.3V213a5.36 5.36 0 0 0 5.35 5.35h6.47V223a4.88 4.88 0 0 0 4.87 4.87h8.51a4.87 4.87 0 0 0 4.86-4.87v-4.65h6.47a5.36 5.36 0 0 0 5.36-5.35v-2.93a5.29 5.29 0 0 0-1.15-3.3 5.28 5.28 0 0 0 1.15-3.29v-2.93a5.37 5.37 0 0 0-3.61-5.06v-8.79a9.77 9.77 0 0 1 4.62-8.29 41.71 41.71 0 0 0 13.07-13.07 41.24 41.24 0 0 0 6.12-17.89 2.06 2.06 0 0 0-1.83-2.25zm-23.7 54.09a1.26 1.26 0 0 1 1.23 1.23v2.94a1.25 1.25 0 0 1-1.23 1.23h-31.19a1.24 1.24 0 0 1-1.23-1.23v-2.94a1.25 1.25 0 0 1 1.23-1.23zM145.24 223a.76.76 0 0 1-.75.75H136a.76.76 0 0 1-.75-.75v-4.65h10V223zm11.82-10a1.25 1.25 0 0 1-1.23 1.23h-31.19a1.24 1.24 0 0 1-1.23-1.23v-2.93a1.25 1.25 0 0 1 1.23-1.24h31.19a1.26 1.26 0 0 1 1.23 1.24z"/></g></g></svg>