<svg xmlns="http://www.w3.org/2000/svg" viewBox="0 0 240.37 190.12"><defs><style>.cls-1{fill:#fff}.cls-2{fill:#91c044}</style></defs><title>Risorsa 3</title><g id="Livello_2" data-name="Livello 2"><g id="Layer_1" data-name="Layer 1"><path class="cls-1" d="M172.52 39.57a3.52 3.52 0 0 0-3.52-3.52H94a3.53 3.53 0 1 0 0 7.05h75a3.52 3.52 0 0 0 3.52-3.53zM65.72 43.1H77.6a3.53 3.53 0 0 0 0-7.05H65.72a3.53 3.53 0 0 0 0 7.05zm0 100.95a3.52 3.52 0 0 0 0 7h36.85a3.52 3.52 0 1 0 0-7zm55.16-32.48a3.51 3.51 0 0 0-3.52-3.52H65.72a3.52 3.52 0 1 0 0 7h51.64a3.51 3.51 0 0 0 3.52-3.48zm25.12-36a3.52 3.52 0 0 0-3.52-3.52H65.72a3.52 3.52 0 1 0 0 7h76.78a3.52 3.52 0 0 0 3.5-3.48z"/><path class="cls-1" d="M189.31 120.51a3.52 3.52 0 0 0-3.52 3.53v42.69a16.36 16.36 0 0 1-16.35 16.35H169c-9.22 0-16.24-7.55-16.34-17.56a3.52 3.52 0 0 0-3.52-3.49H47.22V23.39A16.36 16.36 0 0 1 63.56 7.05h128.9l-.3.32-.37.39-.37.44-.36.41-.35.45-.33.43-.33.46c-.11.15-.22.3-.32.46l-.3.47-.3.47c-.1.16-.19.33-.28.49s-.19.32-.28.49l-.25.5-.26.5c-.08.17-.15.34-.23.52s-.16.34-.23.51l-.21.53c-.07.18-.14.35-.2.53s-.13.36-.19.55-.12.35-.17.52-.11.38-.17.57l-.15.54c0 .19-.09.39-.13.59s-.09.35-.12.53-.08.41-.12.62l-.09.52c0 .22-.06.45-.08.67s-.05.33-.06.49 0 .51-.06.76 0 .28 0 .42v32.46a3.52 3.52 0 1 0 7 0V28.1h36.25a3.53 3.53 0 0 0 3.52-3.56C232.46 10.55 222.41 0 209.18 0H63.56a23.41 23.41 0 0 0-23.39 23.39V162H3.52A3.52 3.52 0 0 0 0 165.58c.14 14 10.19 24.54 23.39 24.54h146.05a23.41 23.41 0 0 0 23.39-23.39V124a3.52 3.52 0 0 0-3.52-3.49zM193 21l.06-.32c0-.15.05-.3.08-.45s0-.23.07-.34.06-.28.1-.42l.09-.35c0-.13.07-.26.11-.39s.07-.24.11-.36.08-.24.13-.37.08-.24.13-.36.09-.23.14-.34.09-.25.15-.37.09-.21.14-.32l.18-.37a2.44 2.44 0 0 1 .14-.28l.21-.4.09-.15a15.15 15.15 0 0 1 1.07-1.68l.39-.5.06-.08c.13-.16.26-.32.4-.47l.07-.09.42-.45.07-.08.46-.45.05-.05.5-.45a16.41 16.41 0 0 1 7.75-3.75l.73-.11.7-.08h1.55c8.08 0 14.48 5.81 16 14H193zM23.39 183.08c-8.09 0-14.49-5.82-16-14h138.47c0 .37.1.73.17 1.09 0 .12 0 .24.07.36s.08.47.14.7l.09.42.15.63.12.44c.06.19.11.39.17.59s.09.29.14.44.12.38.19.56l.15.44c.07.18.14.37.22.55l.16.42.24.56.18.39c.09.19.18.38.28.57a3.78 3.78 0 0 0 .17.35c.11.23.23.44.35.66s.09.16.13.24c.17.3.35.59.52.87l.13.2.43.65.21.29.38.52.24.31c.12.16.25.33.38.48a3.88 3.88 0 0 0 .26.31l.39.46.27.29.2.22z"/><path class="cls-2" d="M240.36 64.94v-.13a3.32 3.32 0 0 0-.17-1 4.43 4.43 0 0 0-.2-.45 2.06 2.06 0 0 0-.23-.37v-.07a3.27 3.27 0 0 0-.3-.35l-.07-.07a4.15 4.15 0 0 0-.32-.27h-.05a2.65 2.65 0 0 0-.4-.24h-.08a3.25 3.25 0 0 0-.43-.18 3.45 3.45 0 0 0-.46-.12h-.11l-.49-.05c-29.6-.96-68.05 6.14-87.48 28.36-8.5 9.71-12.43 22-16.22 34-.31 1-.62 2-.94 2.92v.12l-6 21.15a3.53 3.53 0 0 0 6.79 1.91l5.52-19.61c6.75-3.17 12.19-4.65 19.53-6.65 3.81-1 8.13-2.21 13.35-3.81 11.3-3.48 33-18 42.94-28.8a240.34 240.34 0 0 1 24.54-23.46 3.76 3.76 0 0 0 .35-.34 2.88 2.88 0 0 0 .3-.39v-.07a3.35 3.35 0 0 0 .4-.88.19.19 0 0 0 0-.08 3.94 3.94 0 0 0 .1-.47v-.33s.13-.21.13-.27zm-85.48 29.67c8.2-9.37 20.77-16.42 37.36-21a138.58 138.58 0 0 1 14-3 273.22 273.22 0 0 0-30.73 17.88 281.66 281.66 0 0 0-30.6 23.4c2.53-6.38 5.56-12.26 9.97-17.28zm54.49-8.26c-9.7 10.51-30.67 24-39.83 26.85-5.11 1.57-9.37 2.73-13.13 3.75-3.4.93-6.49 1.77-9.55 2.74 1.37-1.31 3-2.78 4.86-4.43a283.15 283.15 0 0 1 27.73-20.93c17.78-11.88 33.88-20.22 45.68-23.83-5.13 4.72-10.13 9.8-15.76 15.85z"/></g></g></svg>