<svg xmlns="http://www.w3.org/2000/svg" viewBox="0 0 281.67 171.8"><defs><style>.cls-1{fill:#fff}.cls-2{fill:#91c044}</style></defs><title>Risorsa 2</title><g id="Livello_2" data-name="Livello 2"><g id="Layer_1" data-name="Layer 1"><path class="cls-1" d="M62.17 116.89v34.42A10.74 10.74 0 0 0 71.75 162a11.56 11.56 0 0 0 10.8 7.49h29a11.56 11.56 0 0 0 10.77-7.49 10.75 10.75 0 0 0 10.17-10.7v-13.75l41.85 12.86a4.13 4.13 0 1 0 2.43-7.89L70.42 109.85V62l138.26-42.52v132.84l-13.5-4.14a4.12 4.12 0 1 0-2.43 7.88l16 4.91a11.55 11.55 0 0 0 23.07-.72v-55.18a19.61 19.61 0 0 0 0-38.34V50.18a4.13 4.13 0 0 0-8.26 0v110.07a3.3 3.3 0 0 1-6.6 0V11.55a3.3 3.3 0 0 1 6.6 0v19.38a4.13 4.13 0 0 0 8.26 0V11.55a11.55 11.55 0 0 0-23.07-.72l-143.11 44-43.48 1.48A11.55 11.55 0 0 0 0 60.89v50a11.55 11.55 0 0 0 22.16 4.57l40 1.4m-47.32-6a3.3 3.3 0 1 1-6.6 0v-50a3.3 3.3 0 0 1 6.6 0zm47.32-2.28l-39.06-1.36v-7.89l39.06.5zm0-36.66l-10 .13a4.13 4.13 0 0 0 .11 8.25l9.85-.13v11.41l-39.06-.5V80.72l10-.13a4.13 4.13 0 1 0-.1-8.25l-9.85.13v-7.94l39.06-1.36zm49.36 89.24h-29a3.3 3.3 0 0 1 0-6.6h29a3.3 3.3 0 1 1 0 6.6zM124.24 135v16.29a2.52 2.52 0 0 1-1.94 2.41 11.62 11.62 0 0 0-10.77-7.37c-30.51 0-30.46-.33-33.38.88a11.68 11.68 0 0 0-6.29 6.31 2.5 2.5 0 0 1-1.44-2.23v-32.8zm107.55-38.52V75.32a11.37 11.37 0 0 1 0 21.16z"/><path class="cls-2" d="M277.55 81.77h-19.46a4.13 4.13 0 1 0 0 8.26h19.46a4.13 4.13 0 0 0 0-8.26zm-26.19-31.04l13.86-13.86a4.13 4.13 0 0 0-5.84-5.87l-13.85 13.89a4.13 4.13 0 1 0 5.83 5.84zm6.26 17.97l18.72-5.79A4.12 4.12 0 1 0 273.9 55l-18.72 5.78c-5.18 1.63-2.84 9.55 2.44 7.92zm18.72 40.12L257.62 103a4.12 4.12 0 0 0-2.44 7.88l18.72 5.79a4.13 4.13 0 0 0 2.44-7.89zm-24.98 12.25a4.13 4.13 0 1 0-5.83 5.84l13.85 13.86a4.13 4.13 0 1 0 5.84-5.84z"/></g></g></svg>