<svg xmlns="http://www.w3.org/2000/svg" viewBox="0 0 40.53 58.87"><defs><style>.cls-1{isolation:isolate}.cls-2{fill:#127ae2;mix-blend-mode:multiply}</style></defs><title>Risorsa 1</title><g class="cls-1"><g id="Livello_2" data-name="Livello 2"><g id="Layer_1" data-name="Layer 1"><path class="cls-2" d="M3.25 39.92l18.34-18.33a11.08 11.08 0 0 1 15.69 0 11.1 11.1 0 0 1 0 15.69L18.94 55.62a11.1 11.1 0 0 1-15.69 0 11.11 11.11 0 0 1 0-15.7z"/><path class="cls-2" d="M3.25 18.94l18.34 18.34a11.1 11.1 0 0 0 15.69 0 11.1 11.1 0 0 0 0-15.69L18.94 3.25a11.1 11.1 0 0 0-15.69 0 11.1 11.1 0 0 0 0 15.69z"/></g></g></g></svg>