<svg xmlns="http://www.w3.org/2000/svg" viewBox="0 0 453.834 453.834"><g fill="#fff"><path d="M226.932 0C101.625 0 .03 101.595.03 226.902 0 352.269 101.595 453.834 226.932 453.834c125.307 0 226.871-101.595 226.871-226.902C453.834 101.595 352.239 0 226.932 0zm0 423.465c-108.344 0-196.502-88.158-196.502-196.502S118.588 30.46 226.932 30.46c108.344-.03 196.472 88.128 196.472 196.502.03 108.314-88.128 196.503-196.472 196.503z"/><path d="M313.723 177.199l-87.885 87.915-87.885-87.915c-5.928-5.928-15.565-5.928-21.492 0s-5.928 15.565 0 21.492l98.585 98.585c2.979 3.04 6.901 4.438 10.792 4.438 3.922 0 7.813-1.49 10.792-4.438l98.555-98.585c5.928-5.928 5.928-15.565 0-21.492s-15.535-5.928-21.462 0z"/></g></svg>