<svg xmlns="http://www.w3.org/2000/svg" width="31.47" height="31.47" viewBox="0 0 31.47 31.47"><path fill="#FFF" d="M28.311 8.465h-8.166V6.436h8.166v2.029zm-12.482 8.316c.526.817.79 1.81.79 2.971 0 1.205-.297 2.283-.901 3.236a5.593 5.593 0 0 1-1.435 1.592c-.646.496-1.41.838-2.288 1.021-.882.183-1.835.272-2.862.272H0V5.597h9.792c2.468.039 4.218.754 5.251 2.16.62.861.927 1.894.927 3.095 0 1.241-.312 2.232-.937 2.985-.348.423-.862.808-1.544 1.154 1.033.379 1.816.972 2.34 1.79zm-11.153-3.19h4.291c.882 0 1.595-.169 2.143-.503.549-.335.823-.93.823-1.784 0-.942-.362-1.568-1.089-1.869-.625-.21-1.424-.318-2.393-.318H4.676v4.474zm7.67 5.871c0-1.053-.431-1.78-1.29-2.172-.48-.221-1.158-.336-2.027-.344H4.676v5.403H8.96c.881 0 1.562-.114 2.054-.356.887-.44 1.332-1.281 1.332-2.531zm18.994-3.298c.1.664.145 1.626.125 2.884H20.891c.059 1.46.562 2.48 1.519 3.064.575.366 1.274.545 2.093.545.863 0 1.566-.218 2.107-.666.295-.238.555-.574.779-.996h3.877c-.103.861-.568 1.734-1.408 2.625-1.299 1.41-3.121 2.121-5.461 2.121-1.935 0-3.638-.6-5.117-1.789-1.475-1.192-2.215-3.131-2.215-5.817 0-2.519.666-4.449 2-5.79 1.338-1.345 3.065-2.014 5.195-2.014 1.262 0 2.4.225 3.416.678 1.012.455 1.848 1.169 2.506 2.151.595.865.979 1.865 1.158 3.004zm-3.817.379c-.069-1.009-.407-1.773-1.015-2.295-.603-.525-1.354-.787-2.25-.787-.978 0-1.729.28-2.267.832-.539.553-.874 1.301-1.012 2.25h6.544z"/></svg>