<svg xmlns="http://www.w3.org/2000/svg" width="32" height="32" viewBox="0 0 32 32"><title>twitter</title><path d="M32 6.133c-.889 1.244-1.956 2.311-3.378 3.378v.889c0 3.022-.711 5.867-1.956 8.711-1.422 2.844-3.556 5.156-6.578 7.111-2.844 1.956-6.222 2.844-9.956 2.844s-7.111-.889-10.133-2.844h1.6c3.022 0 5.689-.889 8.178-2.667-1.422 0-2.667-.533-3.733-1.422s-1.956-1.956-2.311-3.2c.178 0 .533.178 1.067.178s1.244 0 1.778-.178c-1.6-.356-2.844-1.067-3.733-2.311-1.067-1.6-1.422-2.844-1.422-4.444.889.356 1.778.711 2.844.889-1.956-1.6-2.844-3.378-2.844-5.689 0-1.067.356-2.133.889-3.2 3.556 4.267 8 6.578 13.511 6.756-.178-.356-.178-.889-.178-1.422 0-1.778.533-3.378 1.956-4.622 1.244-1.244 2.844-1.956 4.622-1.956 1.956 0 3.378.533 4.8 1.956 1.422-.356 2.844-.711 4.089-1.422-.533 1.422-1.422 2.667-2.844 3.556 1.244-.178 2.489-.533 3.733-.889z"/></svg>