<svg xmlns="http://www.w3.org/2000/svg" viewBox="0 0 504.4 73.18"><defs><style>.cls-1{fill:#fff;}.cls-2{fill:#116ec8;}.cls-3{fill:#6f7072;}</style></defs><title>logo_agid</title><g id="Livello_2" data-name="Livello 2"><g id="Layer_1" data-name="Layer 1"><path class="cls-1" d="M297.35,24.26,303.12.86h7.55l5.81,23.4h-3.83l-1.26-5h-9l-1.26,5ZM306.06,4l-2.91,11.85h7.49L307.77,4Z"/><path class="cls-1" d="M334,26.58q0,5.61-8.1,5.61a12.2,12.2,0,0,1-5.77-1.06,4,4,0,0,1-1.88-3.86,3.74,3.74,0,0,1,.61-2.17,9.16,9.16,0,0,1,2-2,2.77,2.77,0,0,1-1.12-2.49,5.15,5.15,0,0,1,.92-2.22l.31-.51q-2.46-1.47-2.46-5.13a5.36,5.36,0,0,1,1.84-4.51,8,8,0,0,1,5-1.43,13,13,0,0,1,3,.34l.51.1,5.3-.13v3L331.3,10a4.43,4.43,0,0,1,.93,2.8c0,2.23-.57,3.78-1.7,4.63s-2.88,1.28-5.27,1.28a7.19,7.19,0,0,1-1.51-.13,5.07,5.07,0,0,0-.47,1.79.87.87,0,0,0,.63.87,11.79,11.79,0,0,0,3,.27c2.71,0,4.57.39,5.57,1.1S334,24.62,334,26.58Zm-12.1.35a1.78,1.78,0,0,0,1,1.7,7.5,7.5,0,0,0,3.28.52q4.13,0,4.13-2.36c0-.89-.24-1.45-.73-1.69a8,8,0,0,0-2.92-.39l-3.35-.21a4.68,4.68,0,0,0-1.06,1.14A2.59,2.59,0,0,0,321.94,26.93Zm1-11.84a3.37,3.37,0,0,0,2.42.73,3.31,3.31,0,0,0,2.41-.73,3.16,3.16,0,0,0,.74-2.31,3.07,3.07,0,0,0-.76-2.3,3.35,3.35,0,0,0-2.42-.74c-2.1,0-3.14,1-3.14,3A3.12,3.12,0,0,0,323,15.09Z"/><path class="cls-1" d="M349.2,21.19l1-.11.07,2.77a35.76,35.76,0,0,1-6.9.79q-3.79,0-5.45-2.09t-1.66-6.66q0-9.09,7.42-9.09,7.17,0,7.17,7.83l-.24,2.66H340a4.69,4.69,0,0,0,.92,3.11c.59.66,1.7,1,3.32,1S347.49,21.32,349.2,21.19Zm-2.05-6.77a5.79,5.79,0,0,0-.8-3.53,3.24,3.24,0,0,0-2.71-1,3.4,3.4,0,0,0-2.79,1.06,5.61,5.61,0,0,0-.9,3.48Z"/><path class="cls-1" d="M358.12,24.26H354.4V7.18h3.69V8.24A9.46,9.46,0,0,1,362.8,6.8c2.28,0,3.83.65,4.66,1.93s1.25,3.42,1.25,6.38v9.15H365v-9a9.21,9.21,0,0,0-.6-3.93A2.47,2.47,0,0,0,362,10.12a8.57,8.57,0,0,0-3.35.68l-.51.21Z"/><path class="cls-1" d="M372.19,10.49V7.18h12.68v3.31L376.67,21h8.2v3.31H372.19V21l8.24-10.46Z"/><path class="cls-1" d="M388.56,4.28V.35h3.72V4.28Zm0,20V7.18h3.72V24.26Z"/><path class="cls-1" d="M409.43,12.44v7.79a1.61,1.61,0,0,0,.39,1.11,1.9,1.9,0,0,0,1.11.46l-.1,2.84a7.13,7.13,0,0,1-4.54-1.27,12.94,12.94,0,0,1-5.5,1.27c-3.4,0-5.09-1.81-5.09-5.43a4.64,4.64,0,0,1,1.38-3.76,7.48,7.48,0,0,1,4.25-1.4l4.41-.38V12.44a2.5,2.5,0,0,0-.6-1.91,2.49,2.49,0,0,0-1.76-.55c-1.45,0-3.28.09-5.46.27l-1.1.07-.13-2.63a29.76,29.76,0,0,1,6.85-.89c2.08,0,3.58.45,4.51,1.35A5.79,5.79,0,0,1,409.43,12.44Zm-7.65,4.24a2.3,2.3,0,0,0-2.36,2.56c0,1.57.69,2.36,2.08,2.36a13.46,13.46,0,0,0,3.63-.55l.61-.21V16.3Z"/><path class="cls-1" d="M421.63,31.61V7.18h3.69V8.24a8.51,8.51,0,0,1,4.4-1.44,5.8,5.8,0,0,1,4.95,2.07q1.57,2.07,1.58,6.94t-1.8,6.85c-1.19,1.32-3.15,2-5.86,2a20.63,20.63,0,0,1-3.24-.31v7.28Zm7.44-21.49a7.93,7.93,0,0,0-3.21.71l-.51.24V21.15a15.46,15.46,0,0,0,3,.28,3.6,3.6,0,0,0,3.22-1.34,8.58,8.58,0,0,0,.88-4.54C432.45,11.93,431.33,10.12,429.07,10.12Z"/><path class="cls-1" d="M452.13,21.19l1-.11.06,2.77a35.59,35.59,0,0,1-6.9.79c-2.52,0-4.34-.7-5.44-2.09s-1.66-3.61-1.66-6.66q0-9.09,7.41-9.09,7.17,0,7.18,7.83l-.24,2.66H442.91a4.69,4.69,0,0,0,.92,3.11c.59.66,1.7,1,3.31,1S450.42,21.32,452.13,21.19Zm-2.05-6.77a5.86,5.86,0,0,0-.8-3.53,3.26,3.26,0,0,0-2.72-1,3.39,3.39,0,0,0-2.78,1.06,5.67,5.67,0,0,0-.91,3.48Z"/><path class="cls-1" d="M457.32,24.26V7.18H461V9.23a16.41,16.41,0,0,1,5.81-2.43v3.73a24.42,24.42,0,0,0-5,1.5l-.75.31V24.26Z"/><path class="cls-1" d="M299.12,65.25V41.07h3.73V65.25Z"/><path class="cls-1" d="M306.91,49.64l1.54-8h3.89l-2.59,8Z"/><path class="cls-1" d="M316.13,65.25V41.85h3.8v23.4Z"/><path class="cls-1" d="M334.07,51.35h-4.71v7.52a8.1,8.1,0,0,0,.3,2.76c.21.46.73.69,1.57.69l2.81-.11.17,3a20.49,20.49,0,0,1-3.49.44c-1.93,0-3.26-.44-4-1.33s-1.07-2.56-1.07-5V51.35h-2.19V48.17h2.19v-5h3.69v5h4.71Z"/><path class="cls-1" d="M349.75,53.43v7.79a1.61,1.61,0,0,0,.39,1.11,1.84,1.84,0,0,0,1.11.46l-.1,2.84a7.19,7.19,0,0,1-4.54-1.26,13.07,13.07,0,0,1-5.5,1.26c-3.4,0-5.09-1.81-5.09-5.43a4.67,4.67,0,0,1,1.38-3.76,7.56,7.56,0,0,1,4.25-1.4l4.41-.37V53.43a2.51,2.51,0,0,0-.6-1.91A2.54,2.54,0,0,0,343.7,51q-2.19,0-5.46.27l-1.1.07L337,48.69a29.23,29.23,0,0,1,6.85-.89c2.08,0,3.58.45,4.51,1.35A5.78,5.78,0,0,1,349.75,53.43Zm-7.65,4.24a2.3,2.3,0,0,0-2.36,2.56c0,1.57.69,2.36,2.08,2.36a13,13,0,0,0,3.62-.55l.62-.2V57.29Z"/><path class="cls-1" d="M354.63,65.25V41.07h3.73V65.25Z"/><path class="cls-1" d="M363.07,45.27V41.34h3.73v3.93Zm0,20V48.17h3.73V65.25Z"/><path class="cls-1" d="M383.94,53.43v7.79a1.66,1.66,0,0,0,.4,1.11,1.84,1.84,0,0,0,1.11.46l-.1,2.84a7.22,7.22,0,0,1-4.55-1.26,13,13,0,0,1-5.5,1.26q-5.08,0-5.09-5.43a4.67,4.67,0,0,1,1.38-3.76,7.62,7.62,0,0,1,4.26-1.4l4.4-.37V53.43a2.51,2.51,0,0,0-.59-1.91A2.56,2.56,0,0,0,377.9,51c-1.46,0-3.28.09-5.47.27l-1.09.07-.14-2.63a29.29,29.29,0,0,1,6.85-.89c2.09,0,3.59.45,4.51,1.35A5.78,5.78,0,0,1,383.94,53.43Zm-7.65,4.24a2.29,2.29,0,0,0-2.35,2.56c0,1.57.69,2.36,2.08,2.36a13,13,0,0,0,3.62-.55l.61-.2V57.29Z"/><path class="cls-1" d="M404.68,65.25h-8.1V41.85h8.1c3.6,0,6.06.92,7.38,2.74s2,4.68,2,8.57a27.73,27.73,0,0,1-.39,5,11.4,11.4,0,0,1-1.39,3.74Q410.33,65.26,404.68,65.25Zm5.43-12.09q0-4.23-1.06-6.11c-.7-1.26-2.16-1.88-4.37-1.88h-4.3V61.91h4.3c2.25,0,3.76-.83,4.51-2.5a10,10,0,0,0,.73-2.7A27.07,27.07,0,0,0,410.11,53.16Z"/><path class="cls-1" d="M418,45.27V41.34h3.72v3.93Zm0,20V48.17h3.72V65.25Z"/><path class="cls-1" d="M441.2,67.58q0,5.6-8.1,5.6a12.1,12.1,0,0,1-5.77-1.06c-1.25-.7-1.88-2-1.88-3.86a3.72,3.72,0,0,1,.62-2.17,9.15,9.15,0,0,1,2-2,2.77,2.77,0,0,1-1.13-2.5,5.38,5.38,0,0,1,.92-2.22l.31-.51q-2.46-1.47-2.46-5.12a5.35,5.35,0,0,1,1.84-4.51,7.92,7.92,0,0,1,5-1.44,13.53,13.53,0,0,1,3,.34l.52.11,5.29-.14v3L438.47,51a4.47,4.47,0,0,1,.92,2.8c0,2.23-.57,3.77-1.69,4.63a8.81,8.81,0,0,1-5.28,1.28,7.08,7.08,0,0,1-1.5-.14,5.13,5.13,0,0,0-.48,1.79.86.86,0,0,0,.63.87,11.65,11.65,0,0,0,3.06.28c2.71,0,4.56.39,5.57,1.09S441.2,65.62,441.2,67.58Zm-12.09.34a1.77,1.77,0,0,0,.95,1.71,7.53,7.53,0,0,0,3.28.51q4.14,0,4.14-2.36c0-.89-.25-1.45-.74-1.69a8,8,0,0,0-2.92-.39l-3.35-.21a4.7,4.7,0,0,0-1.06,1.15A2.55,2.55,0,0,0,429.11,67.92Zm1-11.84a3.38,3.38,0,0,0,2.43.74,3.3,3.3,0,0,0,2.4-.74,3.94,3.94,0,0,0,0-4.61,3.38,3.38,0,0,0-2.43-.73q-3.13,0-3.14,3A3.11,3.11,0,0,0,430.13,56.08Z"/><path class="cls-1" d="M444.2,45.27V41.34h3.73v3.93Zm0,20V48.17h3.73V65.25Z"/><path class="cls-1" d="M461.63,51.35h-4.72v7.52a8,8,0,0,0,.31,2.76c.2.46.73.69,1.57.69l2.8-.11.17,3a20.28,20.28,0,0,1-3.48.44c-1.94,0-3.26-.44-4-1.33s-1.08-2.56-1.08-5V51.35H451V48.17h2.18v-5h3.69v5h4.72Z"/><path class="cls-1" d="M477.31,53.43v7.79a1.61,1.61,0,0,0,.39,1.11,1.84,1.84,0,0,0,1.11.46l-.1,2.84a7.22,7.22,0,0,1-4.55-1.26,13,13,0,0,1-5.5,1.26q-5.09,0-5.09-5.43A4.64,4.64,0,0,1,465,56.44a7.56,7.56,0,0,1,4.25-1.4l4.41-.37V53.43a2.51,2.51,0,0,0-.6-1.91,2.56,2.56,0,0,0-1.76-.54c-1.46,0-3.28.09-5.47.27l-1.09.07-.13-2.63a29.21,29.21,0,0,1,6.84-.89c2.09,0,3.59.45,4.51,1.35A5.74,5.74,0,0,1,477.31,53.43Zm-7.66,4.24a2.29,2.29,0,0,0-2.35,2.56c0,1.57.69,2.36,2.08,2.36A13,13,0,0,0,473,62l.62-.2V57.29Z"/><path class="cls-1" d="M482.19,65.25V41.07h3.72V65.25Z"/><path class="cls-1" d="M502.79,62.18l1-.1.07,2.76a35,35,0,0,1-6.91.79c-2.52,0-4.34-.69-5.44-2.08s-1.66-3.61-1.66-6.67q0-9.08,7.41-9.08,7.17,0,7.18,7.82l-.24,2.67H493.57a4.66,4.66,0,0,0,.92,3.1c.59.67,1.7,1,3.31,1S501.08,62.32,502.79,62.18Zm-2.05-6.76a5.87,5.87,0,0,0-.8-3.54,3.29,3.29,0,0,0-2.72-1,3.42,3.42,0,0,0-2.78,1.06,5.71,5.71,0,0,0-.91,3.49Z"/><path class="cls-1" d="M72.78,65.67,87.3,1.14h24.86l14.52,64.53H113.59L111,54H88.44L85.88,65.67ZM97.46,12,90.91,42.61h17.65L102,12Z"/><path class="cls-1" d="M161.23,42.51V31.13H180V64.62a144.34,144.34,0,0,1-22,2.19q-15.09,0-20.74-8.07t-5.64-25.62q0-17.55,5.88-25.34t20-7.78A101,101,0,0,1,176.6,2l3.41.67-.38,10.15A180.38,180.38,0,0,0,161,11.58q-7.26,0-10.2,1.71c-2,1.13-3.4,3.24-4.32,6.31s-1.38,8.32-1.38,15.75S146,48,147.84,51s5.64,4.46,11.39,4.46l7.88-.38V42.51Z"/><path class="cls-1" d="M192.35,65.67V1.14h13.09V65.67Z"/><path class="cls-1" d="M241.22,65.67H219.49V1.14h21.73A45.39,45.39,0,0,1,255,2.89a16.57,16.57,0,0,1,8.4,5.79,23.87,23.87,0,0,1,4.12,9.49,71.75,71.75,0,0,1,1.14,14.19,82.76,82.76,0,0,1-1,14.47,28.06,28.06,0,0,1-3.94,10.25,16.44,16.44,0,0,1-8.4,6.55A40.94,40.94,0,0,1,241.22,65.67ZM255,40.05q.2-3,.19-8.4a77.6,77.6,0,0,0-.38-8.59,16.29,16.29,0,0,0-1.8-5.88,7.54,7.54,0,0,0-4.23-3.66,23.23,23.23,0,0,0-7.54-1h-8.64V54.28h8.64q7.11,0,10.34-3.61Q254.32,47.73,255,40.05Z"/><path class="cls-2" d="M43.6,43.1c.3,0,.69.13.6.38s-.22.65-.43.7a.78.78,0,0,1-.69-.61.49.49,0,0,1,.52-.47Z"/><path class="cls-2" d="M18.38,51a1,1,0,0,0,.95,0l-.26-.39-.56-.47c-.3-.18-.52,0-.73.43l.6.43Z"/><path class="cls-3" d="M34.73,62.08c-.09.18,0,.3.17.48s.39.17.52.08l-.69-.56Z"/><path class="cls-1" d="M56.63,30.68q.25-1.8-.39-2.31c-.47-.3-1-.22-1.67.3-.39-.22-.91,0-1.55.55a1,1,0,0,0,0-.77,2,2,0,0,0,1.12-.9A3.61,3.61,0,0,0,54.44,26a8.05,8.05,0,0,1,1.2-2.31c.51-1.12.13-1.51-1-1.16a2.51,2.51,0,0,0,1-1.55,2.64,2.64,0,0,0-.52-1.55.44.44,0,0,0-.73-.21,1.63,1.63,0,0,0,.17-.82,7.24,7.24,0,0,0-.64-2c-.09-1.34-.39-1.89-1-1.68a5.15,5.15,0,0,0-.68-2c-.56-.81-1-1-1.29-.64-.9-1.33-1.72-1.85-2.49-1.63a3,3,0,0,0-.56-1.55,5.28,5.28,0,0,0-.73-1.8c-.39-.17-.69.08-.86.69a5.31,5.31,0,0,0-.47-1.55,1.34,1.34,0,0,0-1.2-.86.81.81,0,0,0-.56.09,2,2,0,0,0-.9-.35c-.78-.81-1.46-.9-2.11-.21L41,4.15c-.22-.82-.69-1-1.38-.56a11.2,11.2,0,0,0-2.83-2.28c-.65-.21-1.08-.17-1.29.18A2.19,2.19,0,0,0,34.43.84a7.12,7.12,0,0,1-1.08-.3c-.51,0-.73.26-.68.86A2.89,2.89,0,0,0,31,1.83a.85.85,0,0,0-.26,1,1.8,1.8,0,0,0,1,1,1.13,1.13,0,0,0-.17.73c0,.34.39.6,1.07.86a3.68,3.68,0,0,0,1.55,0,.74.74,0,0,0,.56,1A2.12,2.12,0,0,0,37.17,7l-.12.86,1.33.56a1.56,1.56,0,0,0,.9,1.37l.51.22a1.85,1.85,0,0,0-.6.47.53.53,0,0,0,.3.9,10.52,10.52,0,0,0,1.68.09,2.38,2.38,0,0,0,.21.64,4.5,4.5,0,0,0,.73.95,6.66,6.66,0,0,0,1.63,1,5.21,5.21,0,0,0-.34.9,2,2,0,0,0,.09,1.72c-.09-.05-.39.17-.52.38-.43.65.47,1.59.65,1.94a1.38,1.38,0,0,0-.48.21c-.3.21-.21,1.33.69,1.55A8.05,8.05,0,0,1,45.59,22c.09.09.39.65.82,1.2.21.3.43.78,1,.78a17.87,17.87,0,0,0,2.28,4.59,7.68,7.68,0,0,1,1.2,1.85,3.67,3.67,0,0,0-.08,1.07,15.88,15.88,0,0,1-.6,3c-.95-.48-1.12.17-1.25.77,0,0-.43-.09-.52.13,0-.39-.55-.69-.85-.52,0,0-.3.22-.52.35,0,0-.13-.3-.13-.56A3.21,3.21,0,0,1,47,33.6s.26-.3.38-.55c.3-.52.09-2.11-.25-3.22a.75.75,0,0,0-.52-.56.61.61,0,0,0-.69.38c0-.21-.38-.34-.64-.43-.73-.17-1.55,1.25-1.46,2.58-.56-.43-1.25-.3-1.16.43.13,1,1.68,2.88,1.72,3.69-.47-.43-1.55-.43-1.55.6a3.54,3.54,0,0,0,.35,1c-.22,1.07,1,1.88,2.06,2.87,0,.47.13.47.3.69-.17.3-1.33,2.06-1.33,2.1s-.86-.43-1.12-.17a4.89,4.89,0,0,0-.64.77l.13,1.25a2.16,2.16,0,0,1-.82,1.76,6,6,0,0,0-1.29,1.76,2.94,2.94,0,0,1-1.33,1.33,1.84,1.84,0,0,0-.56-.64.19.19,0,0,0-.26-.09,49.62,49.62,0,0,0-4.63,2.23,5,5,0,0,0-1.72,2H30.65a9.94,9.94,0,0,0-1.16-1.07c-.3-.22-.82-.26-1.55.13a2.69,2.69,0,0,0-2.1.38,1.23,1.23,0,0,1-.95.09l-1.67-1.8c-3.44-1.46-5.33-2.11-5.63-1.94a1.66,1.66,0,0,0-.73.86,7.57,7.57,0,0,1-1.54-1.28l-1-1.21a3,3,0,0,1-.95-2.44l.18-1a.37.37,0,0,0-.09-.38,2,2,0,0,0-.9-.47s-.22-.09-.35.55c.05.13-1.07-1.5-1.11-1.54a6.94,6.94,0,0,0,1.16-2.41,15.43,15.43,0,0,0,.51-3.22.92.92,0,0,1,.13-.17c.52-.38,1.2-4.16,1-5.07-.08-.34-.17-.55-.26-.55a.44.44,0,0,0-.3.08l.22-.38c.13-.3.13-.48,0-.56a1.72,1.72,0,0,0-1.2.21,9.34,9.34,0,0,0-.48-1.76c0-.08-.21,0-.21,0-.95.56-1.38,1.85-1.72,3.39l-.26.26a13.38,13.38,0,0,0-2.62,5.28A6.68,6.68,0,0,1,6.56,36a2.29,2.29,0,0,1-.17-1.2.69.69,0,0,0-.17-.9,10.18,10.18,0,0,1-.91-3,9.72,9.72,0,0,1,.56-2.15,27.2,27.2,0,0,1,1.76-3.52s.39-.43.52-.47c1.16-.3,6.4-7,5.84-10.18A27,27,0,0,0,16.44,10l.3-.09.34-.13c1.12-.47,2.1-.94,3-1.33l1.38-.73A10,10,0,0,0,24.12,6a3.83,3.83,0,0,0,1.46-2.49c-.17-.35-.6-.48-1.37-.48a2.63,2.63,0,0,0,.64-1.41c-.3-.39-1.16-.47-2.66-.22a11.93,11.93,0,0,0-4,1.81A14.66,14.66,0,0,0,15,6a14.74,14.74,0,0,0-2.24,3.35l.69-1.54c.34-.73.69-1.63,1.07-2.62a1.36,1.36,0,0,0,0-1c-.08-.26-.3-.3-.64-.22a6.76,6.76,0,0,0-2,1.42,15.17,15.17,0,0,0-2.74,4A25.2,25.2,0,0,0,7.5,13a5.78,5.78,0,0,0-.08-2.62c-.13-.3-.35-.38-.73-.25a4.41,4.41,0,0,0-1.08,1.11c-.34.52-.73,1-1,1.46a20.51,20.51,0,0,0-1.2,2,15.51,15.51,0,0,0-1.2,3,29.61,29.61,0,0,0-.82,4.68,12.83,12.83,0,0,0,.26,4,14.42,14.42,0,0,0,1.07,3.14,2.35,2.35,0,0,0,1,1.2,24.76,24.76,0,0,1,.82,2.49,4.62,4.62,0,0,1,.26,1.24.56.56,0,0,0,.21.6,1.52,1.52,0,0,1,.43.69,13.42,13.42,0,0,0,1.2,3,9.39,9.39,0,0,0-.12,1.5c-1.08-3.13-2-5.5-2.67-7.13-1.33-2.92-2.31-4.25-3.09-4a1.09,1.09,0,0,0-.73,1,9.06,9.06,0,0,0,0,1.54,22.09,22.09,0,0,0,.26,2.66,18.24,18.24,0,0,0,3.48,7.52l2.49,2.92a7.4,7.4,0,0,0,1.42,1.12,1.49,1.49,0,0,0,1.24.17,22.8,22.8,0,0,0,2.15,2.83c.56.82,1.11,1.25,1.67,1.2a1.17,1.17,0,0,0,1.12.82l.51-.09a18.26,18.26,0,0,0,1.89,1.63l-.64,1.85a21.28,21.28,0,0,1-3.14.26c-.9-.65-2.1-1.5-3.73-2.58l-.09-2a3,3,0,0,1,.39-1.76c.09-.38-.13-.73-.64-1-.73-.34-1.08-.51-1.38-.43-.13,0,0,.18,0,.39v.13c0-.09,0-.13.17-.09.94.26,1.37.56,1.29.95A3.23,3.23,0,0,0,8,49.79l0,1.76a28,28,0,0,0-3.86-2.1,2.42,2.42,0,0,1,.56,0,.36.36,0,0,0,.38-.22c.09-.13,0-.21-.38-.26a3.24,3.24,0,0,0-1.38.18c-.17.17-.13.38.09.55a44,44,0,0,1,4.29,2.45c2,1.25,3.48,2.28,4.6,3,1.07,0,2.53-.17,4.46-.43l2.92-.56c1.2-.21,2.45-.43,3.74-.56a11.06,11.06,0,0,1,1.8-.12c.73-.05,1.37-.09,2-.18a9.14,9.14,0,0,1,1.07,2.92c.09.43,0,.69-.17.73a52.45,52.45,0,0,1-5.8,1.89l-3.17.69c-2.37.43-4.73.77-7,1A37.51,37.51,0,0,1,7.16,58,26.84,26.84,0,0,1,3,55c-.91-1-1.25-1.54-1.08-1.76a11,11,0,0,0,1.2-2.58A1.57,1.57,0,0,0,3.21,50c-.26-.77-.09-1.15.56-1.2a28,28,0,0,1,3.05-.08.35.35,0,0,0,.43-.22l.51-1-.34-.13L7,48v.21l-3.44.09a1.1,1.1,0,0,0-.81.34A1.7,1.7,0,0,0,2.65,50a1.6,1.6,0,0,1,0,.64,9,9,0,0,1-1.29,2.66c-.09.18,0,.39.13.73a8.75,8.75,0,0,0,1.29,1.51,11,11,0,0,0,1.33,1.07c.6.43,1.67,1.07,3.18,2a48.55,48.55,0,0,0,5.11,2.66c.34,0,2.62-.3,6.78-.9l0,.38c-1.2.9-2,1.29-2.32,1.12-.47,0-.6.39-.43,1.07a1,1,0,0,0,.73.6l.43.52,1.25.73a2.45,2.45,0,0,0,1.37,0,1.47,1.47,0,0,0,.82-1l.13-.13,1.37-1.37,1-.73A2,2,0,0,0,25,60.7c.05-.34.13-.6.3-.69l1.21-.81c0-.13.51.08,1.46.55a1.62,1.62,0,0,0,1.2-.08l.9-.52c.77.18,2.19,1.16,4.16,3,0,.21.09.43.39.73a2.33,2.33,0,0,0,1.29.51l.47.9.47.17a2.76,2.76,0,0,0,2-.72l.73-.26q.59-.45.51-.9l-.3-.3-.64-.18a14.29,14.29,0,0,1-2.49-1.54l-.56-.39c2.45.43,5.54.77,9.19,1a2.43,2.43,0,0,0,1.8-.69c.78-.55,3-2.19,6.87-4.89a7.88,7.88,0,0,0,1.38-2.1,3.75,3.75,0,0,1-.9-1.38,5.54,5.54,0,0,1-.48-1.5,3,3,0,0,1,0-1,.87.87,0,0,0-.3-.86,1.09,1.09,0,0,0-.77-.3,12,12,0,0,0-2.45,0c-.43,0-.69-.13-.73-.3l0-.81c.09-.35,0-.52-.3-.48a4.73,4.73,0,0,0-1.8.73.67.67,0,0,0,0,1,1,1,0,0,1,.39.78,22.51,22.51,0,0,1-.39,3,22.6,22.6,0,0,1-3.35,2.41,8.06,8.06,0,0,1-3.17-.22A3,3,0,0,1,40.35,53c.56-.34,1.16-.73,1.81-1.2.42-.09.77-.17,1.07-.26s.43-.39.43-.82A1.08,1.08,0,0,0,44.3,50l2-2.36a3.69,3.69,0,0,1,2.06-.94,8.12,8.12,0,0,0,3.52-1.55.91.91,0,0,0,0-1A11.14,11.14,0,0,0,54,42a1.92,1.92,0,0,0,.26-1.81,6.7,6.7,0,0,0,1.55-2.57,5.55,5.55,0,0,0-.05-1.85,4.87,4.87,0,0,0,.91-.69,1.16,1.16,0,0,0,.25-.81,1.18,1.18,0,0,0-.38-.86A2.7,2.7,0,0,0,56.63,30.68ZM25,3.63a2.05,2.05,0,0,1-.73,1.42,13.29,13.29,0,0,1-2.92,2c-1.2.6-2.79,1.33-4.51,2.19V9a44,44,0,0,1,6.27-4.2c.52-.31.3-.39-.3-.26-.68.34-1.41.77-2.23,1.24l-4,2.62,0-.38a23.2,23.2,0,0,1,6.36-4.38A3.41,3.41,0,0,1,25,3.63Zm-7.68.82a13.17,13.17,0,0,1,4.42-2.36,5.69,5.69,0,0,1,2.15-.3c.3.08.38.25.25.51l-.73,1a7,7,0,0,0-2.7,1.07A27.91,27.91,0,0,0,17,7l-.48.3c-.25-.17-.68-.08-1.37.26A40.65,40.65,0,0,1,20.6,3.59a8.38,8.38,0,0,0,1.72-1,9.22,9.22,0,0,0-2.11.94,49.68,49.68,0,0,0-4.46,3.05l-2,1.81A21,21,0,0,1,17.34,4.45ZM15.23,8.23c.35-.22.6-.3.73-.26a2,2,0,0,1,.09.94,10.38,10.38,0,0,1-.9,2.5L13.9,13.85a4.71,4.71,0,0,0-2.49,1.2c.39-.68.9-1.5,1.46-2.4s1.46-2.28,2.71-4.08c.21-.34.21-.43,0-.26s-.69.82-1.55,1.94a61.79,61.79,0,0,0-3.35,5.23c-.39.61-1.29,2-2.83,4.34L8,19.31l2-3.61,2-3.65A13.25,13.25,0,0,1,15.23,8.23ZM7,16.51c.9-1.46,2-3.56,3.26-6.22a18.55,18.55,0,0,1,1.67-2.66c.22-.52.09-.52-.38,0A36,36,0,0,0,7.63,14.2l.65-1.64c.13-.34.47-1.2,1.07-2.44a15.73,15.73,0,0,1,1.8-3,17.21,17.21,0,0,1,1.21-1.46c.81-.69,1.28-1,1.41-1s.13.26.09.43L12.18,9.3a41.9,41.9,0,0,1-4.25,6.57c-.73.82-1.2,1.33-1.37,1.55a3,3,0,0,0-.43.64l.13-.56Zm.9,3.87a19.82,19.82,0,0,0-1.08,2.36l-.25,0,.73-2.19ZM5.36,26.13l.25-1,.22-1,.56-.09L5.7,25.92l-.47,1.59Zm-.18-3.69a23.47,23.47,0,0,1,.65-2.79l.26.34ZM3.9,29.18l-.13-.26c-.13-.21.08-1.54.73-4C4.28,26.78,4.07,28.19,3.9,29.18Zm-.48-1.93a22.3,22.3,0,0,1,.35-5.84,24.73,24.73,0,0,1,1.5-6.36c.3-.64.3-.77,0-.3q-2.07,3.56-2.41,10.4a12.55,12.55,0,0,0,.26,3.47c.22.73.47,1.12.77,1.25a.49.49,0,0,0,.52,0,3.2,3.2,0,0,0-.09.73A2.61,2.61,0,0,1,3,29.18a20.32,20.32,0,0,1-.77-2.53,14,14,0,0,1-.3-3.74,32,32,0,0,1,.73-5,15.35,15.35,0,0,1,3.48-6.44c.38-.43.6-.52.73-.3a14.33,14.33,0,0,1,0,2.62,16.85,16.85,0,0,1-.65,2.83,57.36,57.36,0,0,0-1.59,5.93C4.2,23.77,3.81,25.36,3.42,27.25Zm1,3.26V30c.86-.94.77-1.8,1.08-2.66l1.2-3.05L8.06,21a37.52,37.52,0,0,1,3.14-4.93,3.71,3.71,0,0,1,2.1-1.51c.17.22.17.69,0,1.38a10.66,10.66,0,0,1-.82,2.19,0,0,0,0,0,0,0A21.26,21.26,0,0,1,8.19,24l2.32-3.78,1.12-2c.43-.77.51-1,.21-.81C9.56,20.85,8.19,23,7.72,23.9s-.9,1.72-1.33,2.49a13.86,13.86,0,0,0-1,1.8A4.94,4.94,0,0,1,4.41,30.51Zm9.11,1.42a24.29,24.29,0,0,1-.69,3.78,20.4,20.4,0,0,0-.17-2.49l.3-.86c0-.3-.05-.3-.17,0l-.18.38,0-.68.52-.65C13.43,31,13.56,31.2,13.52,31.93ZM13,30.08c.3-.08.34.09.17.39l-.64.94a6.32,6.32,0,0,0-.17-1A5.06,5.06,0,0,1,13,30.08Zm-2.66,1.59c.47-1.89.94-2.87,1.37-3a14.07,14.07,0,0,1,.6,3.65,22.68,22.68,0,0,1,0,4.81,9.78,9.78,0,0,1-.9,3.65l-.43.94c0-1.41,0-2.53,0-3.43s.09-2.06.09-3.52.13-3.14.3-5c.09-.48.09-.56-.08-.3a49.1,49.1,0,0,0-.65,7.21l0,1.93-.09,2.66-.43-.51a20.92,20.92,0,0,1-.38-5A21.48,21.48,0,0,1,10.34,31.67Zm-3,5.67a13.91,13.91,0,0,1,2.58-5.15,17.23,17.23,0,0,0-.39,2.06A28,28,0,0,0,7.2,39.36a16.56,16.56,0,0,0-.34,1.84A15.24,15.24,0,0,1,7.33,37.34Zm2.23,2.83-.73-.94.56-1.37A7.22,7.22,0,0,0,9.56,40.17Zm6.83,14,.47-1.37,1.55,1Zm3.74-.64L17.59,52l-2.31-1.54-.43-.56a.46.46,0,0,0-.56-.09c-.26.09-.43,0-.56-.38A1.46,1.46,0,0,1,11.88,49l-1.11-1.37-1-1.81-.39-.26a1,1,0,0,1-.73.13,2.5,2.5,0,0,1-1.46-.9,20.53,20.53,0,0,1-2-3.48,63.41,63.41,0,0,1-2.83-5.92c-.35-1.12-.6-1.81-.73-2.11s-.17-.3-.13,0A10.48,10.48,0,0,0,2,35.19c.31,1,.91,2.41,1.76,4.34.73,1.55,1.46,2.92,2.19,4.21a20.87,20.87,0,0,1-3.6-5.07,18.11,18.11,0,0,1-1.5-4.34,11.1,11.1,0,0,1-.22-2.19,7.28,7.28,0,0,1,0-1.63c.13-.34.26-.47.48-.43s.43.35.94,1a20.63,20.63,0,0,1,2,4.34c.81,2.23,1.33,3.73,1.54,4.42s.39,1.33.56,1.84a15,15,0,0,0,.69,1.59A4.53,4.53,0,0,0,8,44.9c.51.38.94.43,1.2.21L8,42.88a.65.65,0,0,0-.39,0h0a.16.16,0,0,1-.13,0,.22.22,0,0,1-.17-.05.09.09,0,0,1-.09-.08c0-.05-.09-.05-.13-.09a1,1,0,0,1,0-.26s0-.08,0-.12v-.39a16.55,16.55,0,0,1,.42-2.11,24.74,24.74,0,0,1,2.15-5,10.45,10.45,0,0,0-.17,1.85C8.53,38.5,7.89,40,7.5,41.16c-.21.82-.17,1.25,0,1.2l.25-.12-.17-.52.13-.39.39.73.26-.17.21.3-.21.3L10,44.68l.39-.3.26.3c-.48.48-.65.73-.56.9a14.67,14.67,0,0,0,1.11,1.81c.69,1,1.25,1.29,1.68.86.13-.13.3-.09.51.08a3.2,3.2,0,0,1,.69,1l0-.77-1.25-1.2L12,46A15.49,15.49,0,0,1,10.77,44c-.26-.47-.56-1-.95-1.63S9,41.08,8.45,40.26l.08-.39L9.61,41.2A29.8,29.8,0,0,1,11.67,44c.39.64.64.81.69.47l.21-.64.3.17-.21,1.33-.09.39c0,.3,0,.51.17.55s.26.26.39.65a7.09,7.09,0,0,0,1.07,1.42,11.08,11.08,0,0,0,2,1.8c.73.47,1.29.9,1.76,1.2s.69.6.64.9l.65.13-.17-.81.38-.09a1.4,1.4,0,0,1,.52.73,14.87,14.87,0,0,0,1.54,1.07ZM9,42.49l.21-.21.95,1.59-.09.21Zm1.59,3.18L11,45.2l.9,1.24.52.91.17.51a2.26,2.26,0,0,1-.82-.73l-.55-.73ZM22.4,53.1l-1.46-1c-.6-.69-1-1.2-1.28-1.55a2.64,2.64,0,0,0-.78-.68,1.25,1.25,0,0,0-.9-.22c-.17,0-.34.26-.51.69l-.09-.09a1,1,0,0,1,.43-.73.8.8,0,0,1,.73.09l1.63.77,2.79,1a7.66,7.66,0,0,1,1.25,1.5A11.07,11.07,0,0,1,22.4,53.1Zm.86,7.08A24.82,24.82,0,0,1,20,62.85l-.38-.13c.68-.43,1.67-1.12,3-2.11l.56-.64-.3,0a17.33,17.33,0,0,1-1.46,1.16,14,14,0,0,1-1.94,1.11l-1,.47.17.22.73.09c.43.25.6.55.56.81-.22.34-.61.39-1.08.13l-.81-.43a2.21,2.21,0,0,0-.91-.6l-.34-.26.13-.3,1,.43h.3l-.17-.64,1.2-.78c.3-.13.47-.3.39-.6l.08-.6a2.4,2.4,0,0,0,1.68-.26,4.64,4.64,0,0,1,1.72-.47C23.65,59.63,23.65,59.88,23.26,60.18ZM37.43,7.37l.09-.77-.65.12A1.72,1.72,0,0,1,35,6.17c-.39.08-.56-.09-.52-.48s.13-.51-.13-.55l-1,.08a1.69,1.69,0,0,1-1.25-.56c-.13-.21,0-.51.26-.86a1.92,1.92,0,0,1-1.12-.73c-.17-.25,0-.51.26-.73a3.27,3.27,0,0,1,1.8-.08.79.79,0,0,1-.17-.77c0-.26.6-.13,1.76.43l.69.38c.17-.34.47-.43.9-.3A10.41,10.41,0,0,1,38,2.9a12.46,12.46,0,0,1,1.55,1.51c.47-.3.81-.26,1,.21l.08.82a1.4,1.4,0,0,0-1.84-.09l-.48-.21a7.68,7.68,0,0,1-1.2-1.81c-.13-.51-.21-.56-.21-.13a3.57,3.57,0,0,0,.81,1.72,5.35,5.35,0,0,1-2.19-1.2c-.47-.52-.81-.9-1.07-1.25s-.34-.38-.3,0a4.67,4.67,0,0,0,1.12,1.38c-.35-.17-.69-.3-1-.47a6.11,6.11,0,0,0-2-.56c-.26,0-.26,0,0,.13a9.09,9.09,0,0,1,1.93.64,1.78,1.78,0,0,1,.86.52,5.4,5.4,0,0,1-2,.38c-.43,0-.6,0-.56,0a.88.88,0,0,0,.39.13,6.3,6.3,0,0,0,2.49-.25,21.24,21.24,0,0,0,2.15.9A4.13,4.13,0,0,0,36.06,6c-.17.22-.09.26.26,0A3.47,3.47,0,0,1,38,5.52l.56.26a3.16,3.16,0,0,0,.43,1.85l-.39.13ZM41.3,11c-1.25,0-1.51,0-1.59-.22s-.09-.3.38-.56l.22-.38c-.73-.35-1.42-.73-1.46-1.64l.6-.25c.26-.3.26-.56,0-.73S39.06,6.64,39,6c.26-.56.86-.56,1.85,0,.43-.81.94-1.07,1.54-.73a1.06,1.06,0,0,0-1.16.86,3.68,3.68,0,0,0,0,1.33,3.46,3.46,0,0,0-.81-.81c-.6-.3-.73-.3-.35.08a9.72,9.72,0,0,1,1,1.2,2.34,2.34,0,0,1-1.64.56c-.21.09-.17.13.09.17a1.43,1.43,0,0,0,.94-.08,3.82,3.82,0,0,0,.22,1.33,3.71,3.71,0,0,0,.81.82C41.51,10.76,41.38,10.85,41.3,11Zm.73.64c-.05-.26.21-.43.73-.47s.55-.17.25-.43a3.42,3.42,0,0,1-1.63-1.16c-.3-.39-.3-.65,0-.82l.52-.13.26-.3-.3-1.2a1.16,1.16,0,0,1,.51-1.29,2.35,2.35,0,0,1,1.8.56c0-.3.22-.43.65-.3s.77,1,1.11,2.53l.56.22c.17-.43.35-.65.43-.65s.35.39.56,1.12a2.34,2.34,0,0,1,.64,2,2.27,2.27,0,0,0-.47,1.42l-.26-.6A8.82,8.82,0,0,1,47.18,10c0-.3,0-.3-.09,0a8,8,0,0,0,0,1.67,15.39,15.39,0,0,0-2-2.14A5.13,5.13,0,0,1,45,7.84c-.09-.56-.13-.69-.18-.39a6.78,6.78,0,0,0,.09,1.89A21.2,21.2,0,0,1,43,7.07c-.17-.3-.25-.39-.25-.22a9.58,9.58,0,0,0,1.37,2c.47.56.86,1,1.16,1.29a9.21,9.21,0,0,0-1.55-.34,4.14,4.14,0,0,1-1.2-.35c-.34-.08-.34,0,0,.26a4.35,4.35,0,0,0,1.25.39,8.39,8.39,0,0,1,1.76.56,5,5,0,0,1,1.2,1.37l.39.9a8.14,8.14,0,0,0-2.1-.73,3.78,3.78,0,0,1-1.38-.39c-.6-.25-.64-.21-.21.09a3.76,3.76,0,0,0,1.46.47,7.38,7.38,0,0,1,2.4.95l.09.21a.81.81,0,0,0-.17.73l.25.69c-.21-.26-.47-.13-.86.34a.78.78,0,0,0-.08-.81A5.51,5.51,0,0,0,44.26,13l-.22.39A2.42,2.42,0,0,1,42,11.62Zm8.24,16.92c-.26-.35-.56-.9-1-1.63s-.77-1.34-1-1.76a1.75,1.75,0,0,1-.08-1.38c.13-.47.25-.81.34-1.07s.09-.3,0-.13a5.15,5.15,0,0,0-.56,1.37L47.22,22a7.79,7.79,0,0,1,1.2-3c.22-.39.22-.43-.08-.09A7,7,0,0,0,47,21.71l-1-2.32a6.22,6.22,0,0,1,.81-2.45c.3-.64.22-.6-.21.09a11.77,11.77,0,0,0-.77,1.89c-.31-1.29-.61-2.41-.91-3.31l-.25-.08.12.38a17.44,17.44,0,0,0,.73,3A5.49,5.49,0,0,0,44,17.93c-.3-.17-.3-.13,0,.09a6.32,6.32,0,0,1,1.51,1.16c.26.64.51,1.2.73,1.71a10.4,10.4,0,0,0-2.06-1c-.35-.08-.35,0,0,.13a5.29,5.29,0,0,1,2.27,1.46l.69,1.81c-.26,0-.56-.39-1-1.12a5.25,5.25,0,0,0-2.53-1.85.71.71,0,0,1-.39-.73c0-.25.3-.34.77-.3a2.9,2.9,0,0,0-.47-.9L43.31,18c-.34-.73-.12-1.11.65-1.11-.3-.47-.39-.82-.3-1a2.15,2.15,0,0,1,.3-1.25,3.08,3.08,0,0,0,.3-.81c.43.25.82.47,1.16.64a1.07,1.07,0,0,1,.56.95l-.17,1c.08.21.25.12.55-.22a2.33,2.33,0,0,1,.73-.73,2.17,2.17,0,0,1,.73.6,3.5,3.5,0,0,1-.25,2.36l-.39,1c.77-1,1.37-1.5,1.85-1.46.17.13.21.34.17.69a4.12,4.12,0,0,0,0,1.11,1.11,1.11,0,0,1-.39,1A2.44,2.44,0,0,0,48.17,22c.73-.56,1-.43.9.3l-.39,1.46c-.13.69,0,1,.35,1s.55,0,.64.13a1.15,1.15,0,0,1,0,.73,1.71,1.71,0,0,0-.25.94,1.32,1.32,0,0,0,.17.39c.08.08.34.08.64-.09s.52,0,.52.3v1a1.62,1.62,0,0,0,.34.95,1,1,0,0,0,.6.43l.3-.39c-.47,0-.64-.26-.64-.9a8.27,8.27,0,0,0,0-1.42c-.17-.43-.35-.68-.56-.73s-.6-1.16-1.25-3.39l.73,0c.52,1.89.95,2.92,1.25,3s.47.3.43.52a4.59,4.59,0,0,0,.17,1.24c.39-.13.64-.47.73-1.11a1.23,1.23,0,0,0-.51-1.38,1.67,1.67,0,0,1-.82-.73c-.13-.38,0-.6.43-.73.26-.13-.34-.68-1.8-1.63-.73-.51-1-1-.69-1.37.13-.22.34-.22.64,0s.52.25.6.17c.18-.3,0-.56-.38-.65s-.6-.25-.56-.42a7,7,0,0,1,0-1.42,1.81,1.81,0,0,0-.08-.9c-.26-.35-.73-.35-1.42.08a1.75,1.75,0,0,0,.13-1.11,2.58,2.58,0,0,0-.52-1l-.34-1c-.09-.34.13-.6.6-.73a2.19,2.19,0,0,1,0-1.5,5.09,5.09,0,0,0,.34-.77c.09-.22.26-.22.6-.09A6.43,6.43,0,0,1,50.79,13c.34-.39.73-.26,1,.43a3.58,3.58,0,0,1,.47,2.27c.82-.47,1.12-.13.9.9a6.85,6.85,0,0,1,.65,1.76,1.55,1.55,0,0,1-.22,1.16,1.82,1.82,0,0,0-.3.82c0,.17.09.17.26,0a1.45,1.45,0,0,1,.9-.52,2.7,2.7,0,0,1,.39,1.25,1.3,1.3,0,0,1-.48.82,1.66,1.66,0,0,0-.51,1c0,.21.08.3.3.3l.6-.18c.3,0,.34.22,0,.73a10,10,0,0,0-.68,1.51,3.77,3.77,0,0,0-.22,1c0,.52-.13.82-.26.91a10.24,10.24,0,0,0,0-2.06,20.31,20.31,0,0,0-.43-2.41,5,5,0,0,0,.73-1.59c.17-.47.13-.51-.08-.17a2.77,2.77,0,0,1-.73,1.25c-.26-.82-.52-1.85-.82-3.05A5,5,0,0,0,52.93,17c0-.73,0-.77-.13-.17a4.48,4.48,0,0,1-.73,2c-.3-.95-.6-1.85-.94-2.67a5.13,5.13,0,0,0,.13-1.67c0-.64-.09-.64-.17-.09a3.45,3.45,0,0,1-.17,1.21l-.73-1.89-.48-1.08c-.17-.34-.21-.34-.17,0L50,14.11a4,4,0,0,0-.94-.86c-.3-.17-.35-.17-.18,0a7.51,7.51,0,0,1,1.29,1.38c.3.73.6,1.46.9,2.23a5.66,5.66,0,0,0-1.8-1.2c-.43-.17-.43-.09,0,.26a12.23,12.23,0,0,1,2.19,2l.77,2.32a5.94,5.94,0,0,1-1.54-1.5c-.26-.26-.3-.21,0,.13a11,11,0,0,0,1.72,2L52.85,23a14.24,14.24,0,0,0-2-1.59c-.34-.22-.39-.17-.09.13A11.6,11.6,0,0,1,53,23.81a11.6,11.6,0,0,1,.3,3.48c0,.43-.34.73-.94.95l-.13,1.63-.86,0A11,11,0,0,1,50.27,28.54Zm1.12,1.59a3.45,3.45,0,0,1,.73,0c-.3,1.71-.69,3.6-1,4.76l-.47-.25A28.92,28.92,0,0,0,51.39,30.13Zm-6,9.66c-.13-.09-.52-.43-1.12-.95s-.73-.94-.56-1.37a3.2,3.2,0,0,1-.43-.73.82.82,0,0,1,.09-.82c.17-.25.6-.13,1.24.35a1.54,1.54,0,0,0,0-1.08l-.38-1a9.62,9.62,0,0,0-.86-1.37c-.26-.52-.3-.82-.17-.9s.34,0,.64.25c.56-.6.94-.77,1.12-.51a3.31,3.31,0,0,1,.43,1.29,6,6,0,0,1,0,1.89l-.13.13.13.12a5.59,5.59,0,0,1-.17,1.55,1,1,0,0,0,.17.56,3.76,3.76,0,0,1,0-.6c0-.13.08-.39.21-.82a3.3,3.3,0,0,0,.17-.73s0-.08-.17-.13a.39.39,0,0,0,.3-.3.57.57,0,0,0,0-.38,10.08,10.08,0,0,1-.08-1.08,5,5,0,0,0-.17-1.33,3.29,3.29,0,0,1-.18-.73c0-.17-.17-.26-.38-.3s-.6.22-1,.73a6,6,0,0,1,.64-1.93c.22-.35.43-.43.65-.3a1.09,1.09,0,0,1,.43.43c.08.17.17.13.3-.09s.25-.3.34-.21a3.14,3.14,0,0,1,.3.38,3.28,3.28,0,0,1,.21.65,9.69,9.69,0,0,1,.13,1.24,1.72,1.72,0,0,1-.21,1.2,1.21,1.21,0,0,0-.26.73c0,1.16.13,1.77.26,1.77a.75.75,0,0,0,.47-.26.51.51,0,0,1,.52-.17c.17,0,.21.38.25,1s.09.69.18.18.25-.73.51-.73.3.64.13,2a12.49,12.49,0,0,0-1.89,2,1.86,1.86,0,0,1,0-1.21,3.59,3.59,0,0,0,.34-.77c.09-.3.18-.56.26-.77.17-.56.13-.6-.08-.13-.13.26-.26.51-.35.73a3.65,3.65,0,0,1-.34.6,14.59,14.59,0,0,0-.43-1.93c-.22-.65-.26-.6-.17,0,.17,1.07.3,2.1.38,3.09a8.33,8.33,0,0,0-1.16-1,7.78,7.78,0,0,1-1-.94c-.25-.17-.3-.13-.12.08a11.49,11.49,0,0,0,1.2,1.29c.51.47.86.82,1,1a2.28,2.28,0,0,1,.21.38,9.9,9.9,0,0,1-.73.86.5.5,0,0,1-.26-.47C45.55,40.05,45.5,39.87,45.38,39.79ZM33.22,52.2a4.52,4.52,0,0,1,1-.86,29,29,0,0,1,3.83-1.68.27.27,0,0,1,.3.09l.25.34-.38.26a1.4,1.4,0,0,1-.86.26,2.51,2.51,0,0,0-1.2.3,1.12,1.12,0,0,0-.82.9.8.8,0,0,1-.39.52c-.51.25-.94.51-1.37.73l-1-.09Zm2.88,1.11h-.17v-.08a1.2,1.2,0,0,0-.39.13l-1.11-.18,1.2-.6.3.56s.09,0,.17-.08l-.17-.56a.86.86,0,0,1,.39-1,1.5,1.5,0,0,1,1.2-.34c.17,0,.17.34,0,.94a3.11,3.11,0,0,1-1.46,1Zm-4.94,4.38L31,57.14l-.9,1.15-.73.48a1.27,1.27,0,0,1-1,.34l-1.2-.56.6-.3.17.13c-.13.34,0,.3.39-.13l1-1a5.54,5.54,0,0,0-.43-2.36,8.42,8.42,0,0,0-.82-1.8c0-.22-.56-.26-1.54-.13a2.83,2.83,0,0,1,2.06-.09l.81.34.43-.17,0,0L29,52.63l.38,0,.35.34.08.05h0l.21.21a9.75,9.75,0,0,1,1.94,2.53,2.46,2.46,0,0,1,0,1.34C31.64,57.65,31.33,57.82,31.16,57.69Zm8.08,4.86.38.08-.13.17-.9.26a3,3,0,0,1-1.37.69l-.56-.09-.13-.38a1,1,0,0,1,.52-.43,4.85,4.85,0,0,1,.81-.26l.82.13ZM38,62.37c-.6,0-1,.39-1.16.39h-.47a9,9,0,0,0-1.55-1.46L33.22,60c.3-.17,1,0,1.89.21Zm4.85-7.08a4,4,0,0,0,1.51-.09,21,21,0,0,0,3.77-2.79,26,26,0,0,1,4.64-2.87c.39-.22.39-.39,0-.48a6.74,6.74,0,0,0-1.58-.17c-.22.17-.22.34.08.43a1.07,1.07,0,0,1,.69.09,24.43,24.43,0,0,0-3.78,2.36c.09-.52.17-1.42.26-2.66A2.34,2.34,0,0,0,48.08,48c-.17-.21,0-.43.65-.6l.47-.13V48l-.65-.17.09.34a1.07,1.07,0,0,0,.77.52l1.85.09.81-.05c1,.05,1.42.26,1.38.69a4.21,4.21,0,0,0,.08,1.24,7.39,7.39,0,0,0,1.16,2.8,4.11,4.11,0,0,1-.9,1.41L52,56.06c-1.5,1.08-3.56,2.49-6.18,4.25a42.67,42.67,0,0,1-6.7-.43,48.16,48.16,0,0,1-6.48-1.41l-.56-.13.26-.26a4.42,4.42,0,0,0,.64-1,4,4,0,0,0-.17-1.16,3.94,3.94,0,0,0-1.29-2.1v-.22l.51-.08a17.68,17.68,0,0,1,3.74.56c1.12.25,2.41.51,3.91.73S42.2,55.25,42.84,55.29Zm-2.53-.9c-.6-.09-1.55-.26-2.83-.52l1.2-.38c.64.12,1,0,1.07-.39A2.64,2.64,0,0,0,40.31,54.39Zm7.08-10A1.51,1.51,0,0,0,47,45.93a6.37,6.37,0,0,0-1.84,1.5,11.68,11.68,0,0,0-1.33,1.68,1.77,1.77,0,0,1-.95.81,1.34,1.34,0,0,1-1.33-.26l-.13.86L39.11,51.9,38,52.37a4.45,4.45,0,0,0,.17-1.16l.39-.34c1.54-.82,2.45-1.55,2.7-2.24a6.19,6.19,0,0,1,1-1.41,3.53,3.53,0,0,0,.78-1.38l0-.81L43,44.17c.35.38.69.51,1,.26A16.28,16.28,0,0,1,45.55,42a20.45,20.45,0,0,1,1.72-2.11c.6-.64,1.11-1.2,1.54-1.67l0,.86a29.71,29.71,0,0,0-2.54,3.43,24.57,24.57,0,0,0-2.31,4.13A3.49,3.49,0,0,1,42.84,48a3.32,3.32,0,0,0-.81.56c-.17.3-.09.38.25.26a3,3,0,0,1,.73-.52c.52-.26,1.55-1.42,3.18-3.52l0-1.2.39-.65c0,.65,0,1,.17,1.08s.34-.13.56-.56.81-1.68,1.76-3.65A2.25,2.25,0,0,0,49,41.38c-.56.38-.68,1-.43,2ZM55,36.87a3.1,3.1,0,0,1-.55,1.46c-.95,1.07-1.33,1.67-1.16,1.89a1.34,1.34,0,0,1-.13,1.46,21.52,21.52,0,0,1-2,2c.22.47,0,.81-.51,1.15a13,13,0,0,1-2.19.95,6.86,6.86,0,0,0,2.7-3.56,4.37,4.37,0,0,1,1.25-.86c.3-.22.38-.3.17-.26a6.73,6.73,0,0,0-1.29.73,10,10,0,0,0,.9-2.79,8.86,8.86,0,0,0,1.68-2c.3-.47.34-.56,0-.3a9,9,0,0,1-1.54,1.8c.3-1,.6-2.06.85-3.26.13-.69.09-.82-.08-.39L52.8,36.1A3.6,3.6,0,0,0,52.25,35l.43,1.42a15.72,15.72,0,0,1-.65,2.4,9.5,9.5,0,0,0-1.24-2.44c-.48-.61-.56-.61-.26,0a9.85,9.85,0,0,1,1.29,3,13.77,13.77,0,0,1-1,2.7,2.7,2.7,0,0,0-.86-.86c-.21-.13-.21,0,0,.22a6.41,6.41,0,0,1,.73.9A5.81,5.81,0,0,1,49.67,44a8.71,8.71,0,0,1-1.29,1.24,3.7,3.7,0,0,0,.56-2.79c0-.17.13-.34.43-.43s.39-.26.3-.39a2.87,2.87,0,0,1-.39-1.2,1.4,1.4,0,0,1,.82,0c.3-.21.26-.47-.09-.86a2.87,2.87,0,0,1-.64-1.63c0-.38.26-.56.82-.43.25,0,.25-.3.08-.9l-.56-.77c-.38-.9-.25-1.25.52-1l.9.56c.6.21.86-.17.86-1.2,0-.22.17-.26.51-.18s.69-.12,1-.81c.3-.3.51,0,.69.9-.09,1.2.21,1.76.9,1.67A5,5,0,0,1,55,36.87ZM56,34a.53.53,0,0,1-.17.56,2.07,2.07,0,0,1-.77.38l-.39-.68a2.15,2.15,0,0,0-.55-1.55,2.59,2.59,0,0,1,.73-.43c.25-.13.21,0-.13,0s-.65.43-.86.43h-.09a6.18,6.18,0,0,1,1-2.19c.13-.3,0-.34-.21,0a14.5,14.5,0,0,0-1,1.67,1.37,1.37,0,0,1-.3-.77c-.08-.43-.17-.47-.21,0a3.84,3.84,0,0,0,.3,1.12c-.52.77-.9,1.07-1.2.9.17-1.08.43-2.24.73-3.44.51-.51,1-.69,1.37-.51.56-.43,1-.52,1.38-.26a1.47,1.47,0,0,1,.25,1,3.3,3.3,0,0,1-.34,1.11c.43,0,.64.17.69.52a2.63,2.63,0,0,1-1.08,1.67C55.72,33.56,56,33.73,56,34Z"/><path class="cls-1" d="M8.39,55.59c0,.09.09.09.17.13.31.22.61.13.82-.26a.55.55,0,0,0-.12-.9c-.18-.13-.18-.13-.31.08l-.56,1Zm-4.5-3c.39.3.65.52,1.08,0a.6.6,0,0,0,0-.86.64.64,0,0,0-.26-.13c-.09,0-.09.09-.17.09l-.61,1Zm6.49,3.2c0-.31.13-.56-.13-.78l.09-.09a4.79,4.79,0,0,1,.47.31,1.82,1.82,0,0,0,.56.25l-.08.09a.27.27,0,0,0-.39,0c-.09.17-.26,1-.35,1.17l-.21,1.34.95-.82c.13-.17.73-.74.82-.91s0-.3-.09-.39v-.13a3.68,3.68,0,0,1,.39.3,1.34,1.34,0,0,1,.39.22v.09c-.3-.22-.6.17-.91.43L10,58.67l-.17-.09.56-2.81Zm-2.51.47a2.06,2.06,0,0,0-.26.65c-.08.18.09.22.26.39l-.09.09A3,3,0,0,0,7.22,57c-.17,0-.3-.21-.47-.26v-.17c.17.09.3.22.39,0a1.34,1.34,0,0,0,.43-.56l.69-1.21c.09-.17.3-.48.35-.56s-.09-.31-.26-.39l.08-.09c.18.13.39.22.57.35s.3.21.47.3a.82.82,0,0,1,.39,1.21.86.86,0,0,1-1.38.22.68.68,0,0,1-.26-.13l-.35.47ZM6.14,53.52c.09-.17.3-.48.35-.56s-.09-.31-.26-.39l.13-.09L8,53.56l-.43.65-.08-.09c.3-.47.12-.6-.26-.9L7,53.09c-.09-.09-.09-.09-.22.08l-.65,1c.48.35.69.13.91-.13h.09c-.13.26-.31.39-.35.56a3.55,3.55,0,0,1-.35.57l-.08-.09c.3-.48.13-.61-.26-.82L5.67,55c-.09.18-.22.31-.22.48a.46.46,0,0,0,.35.43.66.66,0,0,0,1-.13h.09l-.44.69L4.5,55.21l.08-.09a.31.31,0,0,0,.39,0,6.93,6.93,0,0,0,.44-.56l.73-1.08Zm-1.86,1a.51.51,0,0,0,.17.47l-.08.09c-.09-.09-.18-.13-.26-.22s-.26,0-.3-.13l0-.39V53.13c0-.22,0-.22-.17-.39l-.35.48a5.06,5.06,0,0,0-.35.64c0,.18.09.22.26.31l-.08.08C3,54.17,2.85,54,2.68,54a1.41,1.41,0,0,0-.56-.34l.09-.09c.17.09.25.13.38,0A1.1,1.1,0,0,0,3,53l.78-1.21a1.9,1.9,0,0,0,.34-.56c.09-.18-.08-.22-.17-.31v-.17c.26.13.39.3.65.43a1.66,1.66,0,0,1,.39.31c.39.3.73.64.39,1.21a.8.8,0,0,1-1.13.3v1.56Zm22.19,1-.65-1.21-.22,1.3.87-.09Zm-9.91,2.25c.09.13.09.39.18.52s.21.13.39.13.43-.39.34-.78a.89.89,0,0,0-.3-.6,1,1,0,0,0-.52,0h-.13l0,.73Zm-.08-.9h.08c.13-.09.31-.09.39-.18a1,1,0,0,0,.13-.6c-.08-.39-.26-.52-.56-.52a.37.37,0,0,1-.22.08v.22l.18,1ZM14.1,58.19a2.1,2.1,0,0,0,.17.61c.09.12.22.12.39,0,.39,0,.52-.3.43-.78a.78.78,0,0,0-.39-.52.94.94,0,0,0-.6,0H14l.09.65Zm-.17-.82.13-.09a.38.38,0,0,0,.39-.17.76.76,0,0,0,.12-.52c-.08-.39-.25-.61-.6-.52a.34.34,0,0,0-.22.09v.13l.18,1.08Zm11.59-1.3c0,.22-.13.61-.05.74s.22.13.39.13v.17h-.47a.86.86,0,0,1-.44.08v-.08a.57.57,0,0,0,.39-.39,8.44,8.44,0,0,1,.13-1l.35-2H26L27.16,56c.09.13.22.39.3.52s.22.09.39.09v.13a1.06,1.06,0,0,0-.52.09c-.21,0-.43.08-.6.08v-.08c.08-.09.3-.09.21-.31s-.08-.21-.08-.3l-.31-.52-1,.17,0,.22Zm-1.43-2h.09l.17,1h-.09c-.17-.52-.56-.91-1-.82-.78.08-.82,1-.74,1.77s.48,1.51,1.26,1.38c.52-.17.65-.6.65-1.21l.08-.08.18,1.12-.18-.21a1.35,1.35,0,0,1-.82.47c-.82.17-1.51-.39-1.69-1.38s.35-1.82,1.17-1.91a1.32,1.32,0,0,1,.91.13v-.26ZM21,55.55c0-.17-.09-.43-.09-.6a.57.57,0,0,0-.39-.13l-.09-.09a1.66,1.66,0,0,1,.61-.09c.22,0,.43-.08.6-.08v.08a.47.47,0,0,0-.3.22,1.39,1.39,0,0,0,.09.6l.17,1.43a1.54,1.54,0,0,0,.17.61c.09.13.22.13.39.13v.17h-.6a1.25,1.25,0,0,1-.61.09V57.8c.18,0,.31,0,.31-.22s0-.43,0-.6L21,55.55Zm-2.64.52c0-.17-.09-.52-.09-.69a.27.27,0,0,0-.39,0l-.08-.13a1.23,1.23,0,0,0,.6-.09A1.25,1.25,0,0,0,19,55l.08.13a.37.37,0,0,0-.39.18c0,.12.09.51.09.69l.17,1.42c.09.61.26.74.78.65.13-.08.39-.08.52-.26a1,1,0,0,0,.13-.6l.13-.09.17.91h-.21c-.7.09-1.43.26-2.12.35v-.09c.13-.09.3-.09.3-.22s0-.52,0-.69l-.3-1.34Zm-2.42.43a1.18,1.18,0,0,0-.18-.6c-.08-.13-.21-.13-.39-.13v-.09a1.44,1.44,0,0,1,.61-.09c.13,0,.3-.08.43-.08.43-.09,1,0,1.08.56.09.43-.21.69-.52.87a.91.91,0,0,1,.61.13,1,1,0,0,1,.47.6,1,1,0,0,1-1,1c-.09.09-.31.09-.44.09a2,2,0,0,0-.69.17v-.13c.09,0,.31,0,.31-.22s-.09-.43-.09-.6l-.17-1.52Zm-2.56.44c0-.13-.08-.52-.08-.7s-.22-.13-.39,0V56a1.06,1.06,0,0,0,.52-.09.92.92,0,0,0,.52-.09c.39-.08,1,0,1.08.65a.68.68,0,0,1-.44.82,1.33,1.33,0,0,1,.61.09.74.74,0,0,1,.39.65c.09.3,0,.52-.3.78s-.44.21-.7.26a1,1,0,0,0-.51.08c-.31,0-.44.09-.78.09v-.09c.13-.08.3-.08.39-.21s-.09-.52-.09-.69l-.22-1.34Zm25.74.38-.22-1.38-.6,1.25.82.13ZM44.24,57c0-.17-.08-.52-.08-.61s-.22-.17-.39-.17V56h.6c.18,0,.39-.09.61-.09v.17c-.17,0-.3,0-.39.18V57l.17,1.38a1.8,1.8,0,0,0,.09.69c.09.18.22.18.39.18v.08h-.61a1.39,1.39,0,0,1-.6.09v-.09c.08,0,.3,0,.3-.21s0-.48,0-.61L44.24,57Zm-3-.26c0-.17.08-.52.08-.69a.36.36,0,0,0-.39-.22l.09-.09c.13,0,.39.09.52.09a1.85,1.85,0,0,0,.69.09l-.09.17c-.08,0-.3-.09-.38.09s-.09.52-.18.69l-.21,1.47c-.09.6,0,.78.47.86.22,0,.48.09.61,0,.3-.17.3-.3.39-.6H43l-.22.91c0-.09-.17-.09-.17-.09-.78-.17-1.47-.22-2.21-.39v-.09a.61.61,0,0,0,.48-.17,2,2,0,0,1,.17-.6l.18-1.43ZM38,57.5c-.09.17-.22.52-.31.69s.22.22.31.3v.09c-.18,0-.31-.09-.48-.09s-.3-.08-.48-.08l.09-.09c.22,0,.3-.09.48-.3s.3-.61.47-.91L39,55.25l.17.09L39.66,58c.09.18.09.48.17.61s.18.17.31.22v.08c-.18,0-.39-.08-.61-.08a1.33,1.33,0,0,0-.61-.09l.09-.17c.09,0,.3.08.3-.09V58l-.08-.52-1.08-.17L38,57.5Zm-.31-1.56-.08-.09c.08-.47-.09-.6-.48-.69-.22,0-.47-.08-.47.09l-.39,2.38c0,.39,0,.47.39.6v.09a2.24,2.24,0,0,1-.7-.17,1.85,1.85,0,0,1-.69-.09V58c.48,0,.56-.08.61-.47l.3-2.38C36.29,55,36,55,35.9,55c-.48-.09-.61-.09-.7.51L35,55.38l.17-.78,2.6.48-.09.86Zm-3.89-.52c0-.17.09-.47,0-.6s-.17-.22-.3-.22v-.17a2.33,2.33,0,0,0,.6.17c.22,0,.48.09.7.09l-.09.08a.4.4,0,0,0-.39.18c-.09.17-.09.47-.17.6L34,57a1.82,1.82,0,0,0-.08.61c0,.21.17.21.3.21V58c-.22-.09-.39-.09-.61-.18a1.58,1.58,0,0,1-.6-.08v-.13a.37.37,0,0,0,.39-.18,1.45,1.45,0,0,0,.17-.6l.26-1.43Zm18.51-2.33-1.17-.78.48,1.3.69-.52Zm-5.19,3.72-1-.91.21,1.29.78-.38ZM51.73,54a4.22,4.22,0,0,0,.21.78c.18.17.31,0,.39-.09l.09.18A.9.9,0,0,1,52,55a1.78,1.78,0,0,0-.3.31l-.09-.18c.17-.17.17-.21.17-.47a7.12,7.12,0,0,1-.3-1l-.61-2,.09-.08,2.25,1.55a1.45,1.45,0,0,0,.48.31c.13.08.3,0,.47-.09v.17a3.08,3.08,0,0,0-.47.3c-.18.18-.31.22-.48.39l-.13-.08c.09-.09.22-.22.13-.39s-.22-.13-.3-.22l-.48-.3-.86.6.13.09Zm-3.85.56c-.22-.08-.39-.08-.52.09l-.09-.17c.17-.09.22-.09.3-.22a.6.6,0,0,0,.31-.17l3,1L50,53.86c-.18-.13-.31-.47-.48-.6s-.3-.09-.52,0l-.08-.09a2.42,2.42,0,0,1,.47-.21.54.54,0,0,1,.3-.31l.09.09c-.09.17-.22.17-.17.39s.39.52.52.78l1.21,1.68-.09.09a1.21,1.21,0,0,1-.48-.17L48,54.6,49,56a1.69,1.69,0,0,0,.48.52c.17.09.3,0,.47-.08v.08c-.08.18-.21.22-.39.31s-.21.17-.39.3L49.09,57c.17-.17.21-.21.17-.47a2.41,2.41,0,0,0-.39-.57l-1-1.47Zm-1.39,3.07a6,6,0,0,0,.13.78c.09.18.31.09.39,0l.09.09a1.92,1.92,0,0,1-.39.22,1.71,1.71,0,0,0-.39.21l-.09-.08c.18-.13.22-.22.18-.52a3.83,3.83,0,0,0-.18-1l-.39-2.07H46L48,57a2.16,2.16,0,0,0,.47.39c.13.08.31,0,.39,0l.09.08a2.24,2.24,0,0,0-.52.31,1.91,1.91,0,0,0-.52.3l-.09-.17c.18,0,.31-.18.22-.31a2.82,2.82,0,0,0-.3-.3l-.39-.3-.91.47,0,.13Z"/><path class="cls-1" d="M7.4,35.7c-.22-.61-.44-1.34-.52-1.6l0-.13,1.78-1q-.27-1.35-.39-2.46l-2-.39V27.18l2-.39a24,24,0,0,1,.39-2.46l-1-.57.65-.08.74.43v.17A22.91,22.91,0,0,0,8.56,27v.13l-1.94.39v2.25l1.94.39v.13A27.21,27.21,0,0,0,9,33l0,.12-1.73,1c.09.26.22.69.34,1.12Zm3.5,5.75c.17.26.34.48.43.61l1.82-.82.08.08c.57.65,1.22,1.26,1.95,2l.09.08-.82,1.82c.38.3,1.38,1,1.81,1.3l1.47-1.34.13.08a16.38,16.38,0,0,0,2.47,1.26l.13,0-.22,2c.52.18,1.64.57,2.16.7l1-1.73.13,0a20.86,20.86,0,0,0,2.68.43h.13l.39,2H29l.39-2h.13a21.19,21.19,0,0,0,2.68-.43l.13,0,1,1.73c.52-.18,1.65-.52,2.16-.7l-.21-2,.13-.05a19.62,19.62,0,0,0,2.42-1.25l.13-.09,1.47,1.34c.43-.3,1.38-1,1.82-1.34l-.83-1.82.13-.08a19.92,19.92,0,0,0,1.95-2l.09-.13,1.9.87c.3-.39,1-1.39,1.3-1.82l-1.34-1.47.08-.13a25.26,25.26,0,0,0,1.26-2.42l0-.13,2,.22c.17-.52.56-1.65.69-2.12l-1.73-1,0-.13a25.06,25.06,0,0,0,.43-2.68v-.13l2-.39V27.61l-2-.39v-.13a17.67,17.67,0,0,0-.43-2.68l0-.13,1.73-1c-.13-.52-.52-1.65-.69-2.17l-2,.26,0-.13a16.85,16.85,0,0,0-1.26-2.46l-.08-.13,1.34-1.47c-.3-.43-1-1.43-1.34-1.82l-1.82.82-.09-.13a19.74,19.74,0,0,0-1.94-1.94L40.44,14l.82-1.81c-.39-.31-1.38-1-1.82-1.35L38,12.22l-.13-.09a16.76,16.76,0,0,0-2.46-1.26l-.13,0,.21-2c-.47-.17-1.64-.56-2.16-.69l-1,1.73-.13,0A20.47,20.47,0,0,0,29.5,9.4h-.13L29,7.46H26.73L26.34,9.4h-.13a16.48,16.48,0,0,0-2.68.44l-.13,0-1-1.73c-.47.13-1.64.52-2.12.69l.22,2-.13,0A18.57,18.57,0,0,0,18,12.13l-.13.09-1.47-1.35a7.75,7.75,0,0,0-.87.65l0-.52c.3-.21.6-.43.73-.51l.13-.09,1.51,1.34a20.09,20.09,0,0,1,2.21-1.13l-.3-2.11.13-.05c.39-.17,2-.69,2.46-.82l.13,0,1,1.73A18.59,18.59,0,0,1,26,8.93L26.38,7h1.39a9.06,9.06,0,0,1,1.29,0h.13L29.58,9c.82.09,1.65.22,2.47.39l1-1.73.13,0c.43.13,2.08.65,2.51.83l.13,0-.09,2A20.49,20.49,0,0,1,38,11.61l1.47-1.34.13.09a22.52,22.52,0,0,1,2.12,1.55l.13.09L41,13.82a16.43,16.43,0,0,1,1.77,1.77l1.82-.87.09.13C45,15.2,46,16.58,46.23,17l.09.13L45,18.57a15.71,15.71,0,0,1,1.12,2.25l2-.26,0,.13a24.5,24.5,0,0,1,.78,2.47l0,.13-1.73,1a22.4,22.4,0,0,1,.39,2.47l2,.39v.13c0,.43,0,2.16,0,2.59V30l-2,.39c-.09.78-.22,1.6-.39,2.47l1.73,1,0,.13c-.09.43-.65,2.08-.78,2.46l0,.13-2-.21a18.14,18.14,0,0,1-1.12,2.2L46.28,40l-.09.31c-.26.34-1.25,1.77-1.51,2.07l-.09.13-1.86-.82A16.41,16.41,0,0,1,41,43.48l.86,1.82-.13.09c-.34.26-1.73,1.3-2.07,1.51l-.13.09L38,45.65a13,13,0,0,1-2.2,1.12l.21,2-.13,0c-.39.13-2,.7-2.46.83l-.13,0-1-1.77a20.48,20.48,0,0,1-2.46.39l-.39,2H26.47l-.39-2c-.78-.09-1.6-.22-2.47-.39l-1,1.77-.13,0c-.39-.13-2-.65-2.47-.83l-.13,0,.22-2a21.5,21.5,0,0,1-2.25-1.13l-1.47,1.34-.13-.08c-.34-.26-1.77-1.26-2.07-1.52l-.13-.08.82-1.86a23,23,0,0,1-1.78-1.78l-1.81.83-.09-.13-.47-.65Z"/><path class="cls-1" d="M27.85,44.61a15.38,15.38,0,0,1-6.66-1.47l-.3-.13,7-8.78,6.84,8.82-.31.13A15.33,15.33,0,0,1,27.85,44.61Zm-6.18-1.77a15.15,15.15,0,0,0,6.18,1.29,15.4,15.4,0,0,0,6.06-1.25L27.85,35ZM39.4,39.72l-6.18-9.34,10.51-3.76,0,.3a15.77,15.77,0,0,1-4.15,12.54ZM34,30.64l5.49,8.3a15.5,15.5,0,0,0,3.85-11.63Zm-17.69,9-.21-.21a16.16,16.16,0,0,1-4-12.59l.05-.3,10.51,3.89ZM12.5,27.14a15.4,15.4,0,0,0,3.72,11.67l5.62-8.21Zm18.68-3L30.88,13l.3,0a15.77,15.77,0,0,1,10.64,7.83l.13.25Zm.18-10.55.3,10,9.6-2.68A15.52,15.52,0,0,0,31.36,13.6ZM24.61,24.15,13.88,21l.18-.25A15.75,15.75,0,0,1,24.78,13l.3,0Zm-9.95-3.46,9.52,2.81.43-9.94A15.28,15.28,0,0,0,14.66,20.69Z"/><path class="cls-1" d="M27.9,14.16l-3.38,9.6,0,.13h-.17l-10.21.26,8.09,6.19.13.08-.05.18-2.89,9.77,8.39-5.79.13-.09.13.09,8.39,5.79-3-9.77,0-.18.13-.08,8.09-6.19-10.16-.21h-.18l0-.13L27.9,14.16Zm-3.77,9.3,3.55-10.08.22-.6.21.6,3.55,10.08,10.68.26H43l-.52.39L34,30.6,37,40.85l.17.65-.51-.35-8.78-6.1-8.78,6.1-.52.39.17-.65,3.07-10.25-8.52-6.49-.52-.39h.65l10.68-.3Z"/><polygon class="cls-1" points="9.08 44.87 9.08 44.87 9.08 44.91 9.08 44.87"/><polygon class="cls-1" points="8.13 43.01 9.08 44.87 9.08 44.87 8.13 43.01"/><line class="cls-1" x1="282.96" y1="0.65" x2="282.96" y2="65.46"/><rect class="cls-1" x="282.01" y="0.65" width="1.9" height="64.8"/></g></g></svg>