<svg xmlns="http://www.w3.org/2000/svg" viewBox="0 0 321.58 105.33"><defs><style>.cls-1{fill:#127ae2;}</style></defs><title>Risorsa 4</title><g id="Livello_2" data-name="Livello 2"><g id="Layer_1" data-name="Layer 1"><path class="cls-1" d="M173.24,49.86a36.36,36.36,0,0,1-7.68.93,14.49,14.49,0,0,1-5.47-.85,6.74,6.74,0,0,1-3.22-2.69,12,12,0,0,1-1.6-4.34,36.21,36.21,0,0,1-.45-6.27q0-7.93,2.24-11t8.22-3.12a34.7,34.7,0,0,1,8,1.09L173.12,28a45.87,45.87,0,0,0-6.61-.6,7.43,7.43,0,0,0-3.76.7,4.31,4.31,0,0,0-1.67,2.67,28.14,28.14,0,0,0-.55,6.72q0,4.74,1.11,6.57t4.42,1.83a46.89,46.89,0,0,0,7.06-.56Z"/><path class="cls-1" d="M178,32.47q2.13-2.74,7.11-2.75t7.12,2.75q2.13,2.76,2.13,7.74,0,10.57-9.25,10.58t-9.25-10.58Q175.89,35.23,178,32.47Zm4.16,12.29a3.75,3.75,0,0,0,5.91,0,9.57,9.57,0,0,0,.82-4.55,9.29,9.29,0,0,0-.82-4.5,3.8,3.8,0,0,0-5.91,0,9.28,9.28,0,0,0-.83,4.5A9.56,9.56,0,0,0,182.19,44.76Z"/><path class="cls-1" d="M203.72,50.31h-5.39V30.2h5.35v1.13a10,10,0,0,1,4.74-1.61,6.55,6.55,0,0,1,5,1.89,15.07,15.07,0,0,1,6.76-1.89q4,0,5.53,2.31t1.54,7.38v10.9H221.9V39.57a9.51,9.51,0,0,0-.57-3.8,2.21,2.21,0,0,0-2.25-1.23,11,11,0,0,0-3.14.57l-.6.2c.11,2,.16,3.54.16,4.58V50.31h-5.39V40a11.82,11.82,0,0,0-.52-4.2,2.21,2.21,0,0,0-2.29-1.23,8.8,8.8,0,0,0-3.1.57l-.48.16Z"/><path class="cls-1" d="M243.93,30.2h5.39V50.31H244V49.18a10.79,10.79,0,0,1-5,1.61c-2.78,0-4.66-.77-5.62-2.31s-1.45-4.12-1.45-7.74V30.2h5.39V40.82a11.5,11.5,0,0,0,.48,4.06c.32.72,1.1,1.08,2.33,1.08a9.72,9.72,0,0,0,3.34-.56l.52-.16Z"/><path class="cls-1" d="M259.69,50.31H254.3V30.2h5.35v1.13a10.12,10.12,0,0,1,5-1.61q4,0,5.55,2.37t1.53,7.32v10.9h-5.39V39.57a8.89,8.89,0,0,0-.61-3.8,2.41,2.41,0,0,0-2.41-1.23,9,9,0,0,0-3.18.57l-.48.16Z"/><path class="cls-1" d="M276.54,27.63V22.16h5.39v5.47Zm0,22.68V30.2h5.39V50.31Z"/><path class="cls-1" d="M294.43,29.72a28.54,28.54,0,0,1,5.35.64l1.09.24-.16,4.27q-3.18-.33-4.71-.33c-1.85,0-3.07.4-3.68,1.19s-.9,2.29-.9,4.48.3,3.71.9,4.53S294.17,46,296,46l4.67-.32.16,4.3a36.56,36.56,0,0,1-6.56.85q-4.46,0-6.41-2.51T286,40.21q0-5.55,2-8T294.43,29.72Z"/><path class="cls-1" d="M320.25,36.47v8.37a3.12,3.12,0,0,0,.32,1.34,1.5,1.5,0,0,0,1,.55l-.16,4.06a15.78,15.78,0,0,1-3.28-.28,7.45,7.45,0,0,1-2.47-1.13,13.39,13.39,0,0,1-5.91,1.41q-6.24,0-6.24-6.6,0-3.21,1.73-4.56A9.66,9.66,0,0,1,310.56,38l4.3-.32V36.47a2.15,2.15,0,0,0-.56-1.71,2.91,2.91,0,0,0-1.81-.46l-7.56.32-.16-3.74A31.56,31.56,0,0,1,313,29.72q3.89,0,5.59,1.61C319.68,32.4,320.25,34.12,320.25,36.47Zm-9.05,5.31A2.18,2.18,0,0,0,309,44.19c0,1.48.66,2.22,2,2.22a12.73,12.73,0,0,0,3.34-.49l.6-.16v-4.3Z"/><circle class="cls-1" cx="13.76" cy="33.63" r="13.76"/><path class="cls-1" d="M47,103.66V22.76H68.68v80.9Z"/><path class="cls-1" d="M90.53,22.49V0h21.68V22.49h19.9V40.93h-19.9V74.1a67.06,67.06,0,0,0,.24,6.88,5.65,5.65,0,0,0,1.78,3.48A6.77,6.77,0,0,0,119,85.91l12.29-.32,1,17.31q-10.83,2.43-16.5,2.43-14.56,0-19.9-6.55T90.53,74.59V22.49Z"/></g></g></svg>