<?xml version="1.0" encoding="iso-8859-1"?>
<!-- Generator: Adobe Illustrator 19.0.0, SVG Export Plug-In . SVG Version: 6.00 Build 0)  -->
<svg version="1.1" id="Layer_1" xmlns="http://www.w3.org/2000/svg" xmlns:xlink="http://www.w3.org/1999/xlink" x="0px" y="0px"
	 viewBox="0 0 512 512" style="enable-background:new 0 0 512 512;" xml:space="preserve">
<g>
	<g>
		<path fill="#FFF" d="M480,0H32C14.352,0,0,14.352,0,32v448c0,17.648,14.352,32,32,32h448c17.648,0,32-14.352,32-32V32
			C512,14.352,497.648,0,480,0z M480,480l-448,0.016V32h448V480z"/>
	</g>
</g>
<g>
	<g>
		<polygon fill="#FFF" points="272,240 272,128 240,128 240,240 128,240 128,272 240,272 240,384 272,384 272,272 384,272 384,240 		"/>
	</g>
</g>
</svg>
