<svg xmlns="http://www.w3.org/2000/svg" viewBox="0 0 40.53 58.87"><defs><style>.cls-1{isolation:isolate;}.cls-2{fill:#127ae2;mix-blend-mode:multiply;}</style></defs><title>Risorsa 1</title><g class="cls-1"><g id="Livello_2" data-name="Livello 2"><g id="Layer_1" data-name="Layer 1"><path class="cls-2" d="M3.25,39.92,21.59,21.59a11.08,11.08,0,0,1,15.69,0h0a11.1,11.1,0,0,1,0,15.69L18.94,55.62a11.1,11.1,0,0,1-15.69,0h0A11.11,11.11,0,0,1,3.25,39.92Z"/><path class="cls-2" d="M3.25,18.94,21.59,37.28a11.1,11.1,0,0,0,15.69,0h0a11.1,11.1,0,0,0,0-15.69L18.94,3.25a11.1,11.1,0,0,0-15.69,0h0A11.1,11.1,0,0,0,3.25,18.94Z"/></g></g></g></svg>