<?xml version="1.0" encoding="utf-8"?>
<!-- Generator: Adobe Illustrator 22.1.0, SVG Export Plug-In . SVG Version: 6.00 Build 0)  -->
<svg version="1.1" id="Layer_1" xmlns="http://www.w3.org/2000/svg" xmlns:xlink="http://www.w3.org/1999/xlink" x="0px" y="0px"
	 viewBox="0 0 1920 5398.3" width="1920" height="5398" style="enable-background:new 0 0 1920 5398.3;" xml:space="preserve">
<style type="text/css">
	.st0{clip-path:url(#SVGID_2_);}
	.st1{opacity:0.5;}
	.st2{fill:none;stroke:#6F6F6E;stroke-width:5.91;stroke-linecap:round;stroke-miterlimit:10;stroke-dasharray:25.33,25.33;}
	.st3{fill:#6F6F6E;}
	.st4{fill:none;stroke:#6F6F6E;stroke-width:5.99;stroke-linecap:round;stroke-miterlimit:10;stroke-dasharray:25.67,25.67;}
	.st5{fill:none;stroke:#6F6F6E;stroke-width:7.53;stroke-linecap:round;stroke-miterlimit:10;stroke-dasharray:32.26,32.26;}
	.st6{fill:none;stroke:#6F6F6E;stroke-width:6;stroke-linecap:round;stroke-miterlimit:10;stroke-dasharray:46.53,46.53;}
	.st7{fill:none;stroke:#6F6F6E;stroke-width:7;stroke-linecap:round;stroke-miterlimit:10;stroke-dasharray:30,30;}
	.st8{fill:none;stroke:#6F6F6E;stroke-width:6.13;stroke-linecap:round;stroke-miterlimit:10;stroke-dasharray:26.26,26.26;}
	.st9{fill:none;stroke:#6F6F6E;stroke-width:4.22;stroke-linecap:round;stroke-miterlimit:10;stroke-dasharray:18.1,18.1;}
</style>
<title>freccine-01</title>
<g id="Sfondo">
	<g>
		<defs>
			<rect id="SVGID_1_" x="-1.3" y="-2.7" width="1920.6" height="5975"/>
		</defs>
		<clipPath id="SVGID_2_">
			<use xlink:href="#SVGID_1_"  style="overflow:visible;"/>
		</clipPath>
		<g class="st0">
			<g id="Sfondo-2">
				<g class="st1">
					<path class="st2" d="M892.4,5247.7c-440.8-93.4-564.8-197.9-587.1-281.8c-23.4-88,68.6-140.3,46.7-245.2
						c-28-134.6-218.1-235.4-386.1-302.2"/>
					<path class="st3" d="M859.1,5211.2c-1.1,1.2-1.1,3,0,4.2l32,32l-42.5,15.5c-1.6,0.3-2.7,1.8-2.5,3.4c0.3,1.6,1.8,2.7,3.4,2.5
						c0.4-0.1,0.7-0.2,1-0.4l46.8-17c1.5-0.6,2.3-2.3,1.7-3.9c-0.1-0.4-0.4-0.7-0.6-1l-35.3-35.2c-0.4-0.4-0.9-0.7-1.5-0.8
						C860.9,5210.2,859.9,5210.5,859.1,5211.2z"/>
				</g>
				<g class="st1">
					<path class="st4" d="M1056.8,4246.4c544.7-305.3,768.2-365.1,866.8-354.2c103.2,11.4,54.4,98.7,171.3,116.9
						c149.9,23.4,438.3-87.8,673.3-193.4"/>
					<path class="st3" d="M1106.5,4251.7c0.1-1.7-1.2-3.1-2.8-3.2l-45.7-2.8l21.9-40.2c0.9-1.4,0.4-3.3-1-4.1
						c-1.4-0.9-3.3-0.4-4.1,1c-0.1,0.1-0.1,0.2-0.1,0.3l-24.1,44.4c-0.8,1.5-0.2,3.3,1.2,4.1c0.4,0.2,0.8,0.3,1.2,0.4l50.4,3.1
						c0.6,0,1.1-0.1,1.6-0.4C1105.9,4253.7,1106.5,4252.7,1106.5,4251.7z"/>
				</g>
				<g class="st1">
					<path class="st5" d="M1152,4593.5c315.7,491.7,497.9,598.2,608.3,590.8c115.8-7.8,135.6-139.6,271-156.1
						c173.6-21.2,381.8,166.1,539.4,340.8"/>
					<path class="st3" d="M1150,4656.3c2.1,0,3.7-1.7,3.7-3.8c0,0,0,0,0,0l-0.7-57.6l52.5,23.7c1.9,0.9,4.1,0,5-1.9
						c0.9-1.9,0-4.1-1.9-5l-57.9-26.1c-1.9-0.9-4.1,0-5,1.9c-0.2,0.5-0.3,1.1-0.3,1.6l0.8,63.5c0,0.7,0.2,1.4,0.6,2
						C1147.5,4655.7,1148.7,4656.3,1150,4656.3z"/>
				</g>
				<g class="st1">
					<path class="st6" d="M1096.9,3787.8C394.1,3746.3,213,3902.4,194.2,4070c-19.7,175.4,141.3,337.5,127.7,550
						c-17.5,272.6-306.5,384.4-566.7,435.6"/>
					<path class="st3" d="M1057.5,3756.9c-1,1.3-0.6,3.2,0.7,4.2l37.3,26.7l-40,22.6c-1.4,0.8-1.9,2.7-1.1,4.1
						c0.8,1.4,2.7,1.9,4.1,1.1l44.1-24.9c1.4-0.8,2-2.6,1.1-4.1c-0.2-0.4-0.5-0.7-0.9-1l-41.2-29.4c-0.5-0.3-1-0.5-1.6-0.6
						C1059.1,3755.6,1058.1,3756.1,1057.5,3756.9z"/>
				</g>
				<g class="st1">
					<path class="st7" d="M185.3,1348.4c263-429.2,260.1-608.1,195.5-688.7c-67.8-84.5-193.4-48.3-279.1-144.1
						c-110-122.9-56-353.1,13.7-540"/>
					<path class="st3" d="M238.6,1324.6c-0.9-1.7-3-2.4-4.7-1.6l-47.9,24l-1.5-53.5c-0.1-1.9-1.7-3.5-3.6-3.4s-3.5,1.7-3.4,3.6
						l1.6,59c0.1,1.9,1.7,3.4,3.6,3.4c0.5,0,1-0.1,1.4-0.4l52.8-26.4c0.6-0.3,1.1-0.8,1.4-1.3
						C239.1,1326.9,239.2,1325.6,238.6,1324.6z"/>
				</g>
				<g class="st1">
					<path class="st7" d="M1125,3347.5c-324-385.2-494.7-439-591.5-403.2c-101.6,37.6-106.9,168.2-224.9,219.2
						C157.2,3229-44.1,3105-199.4,2979.8"/>
					<path class="st3" d="M1119.3,3289.4c-1.9,0.3-3.3,2-3,3.9c0,0,0,0,0,0.1l7.6,53l-51.2-15.5c-1.8-0.6-3.8,0.5-4.4,2.3
						c0,0,0,0,0,0c-0.6,1.9,0.5,3.8,2.3,4.4l56.5,17.1c1.8,0.6,3.8-0.5,4.4-2.3c0.2-0.5,0.2-1,0.1-1.5l-8.4-58.4
						c-0.1-0.7-0.4-1.3-0.8-1.8C1121.6,3289.7,1120.5,3289.2,1119.3,3289.4z"/>
				</g>
				<g class="st1">
					<path class="st8" d="M783.5,958.5C187.6,886.5-16.3,799.3-83.1,728c-70-74.7,20.7-121-55.2-210.2
						c-97.4-114.3-381.7-197-622.8-251.1"/>
					<path class="st3" d="M745.7,924.1c-1.1,1.3-0.9,3.2,0.4,4.3l36,30l-42.4,20c-1.5,0.7-2.2,2.4-1.5,4c0,0,0,0.1,0.1,0.1
						c0.7,1.5,2.5,2.2,4.1,1.5l46.7-22.1c1.5-0.7,2.2-2.6,1.5-4.1c-0.2-0.4-0.5-0.8-0.8-1l-39.8-33
						C748.7,922.7,746.7,922.8,745.7,924.1L745.7,924.1z"/>
				</g>
				<g class="st1">
					<path class="st4" d="M527.3,2097.6c544.7-305.3,768.2-365.1,866.8-354.2c103.2,11.4,54.4,98.7,171.3,116.9
						c149.9,23.4,438.3-87.7,673.3-193.3"/>
					<path class="st3" d="M577.1,2102.9c0.1-1.7-1.2-3.1-2.8-3.2c0,0,0,0,0,0l-45.7-2.8l21.9-40.3c0.9-1.4,0.5-3.3-0.9-4.1
						c-1.4-0.9-3.3-0.5-4.1,0.9c-0.1,0.1-0.1,0.2-0.2,0.3l-24.2,44.4c-0.8,1.5-0.2,3.3,1.2,4.1c0.4,0.2,0.8,0.3,1.2,0.4l50.4,3.1
						C575.5,2105.8,577,2104.6,577.1,2102.9C577.1,2102.9,577.1,2102.9,577.1,2102.9L577.1,2102.9z"/>
				</g>
				<g class="st1">
					<path class="st9" d="M704.1,2449.2c-321.2,23-427-24.2-458.9-77.4c-33.4-55.8,19.4-109.9-16.4-177.6
						C183,2107.2,32.5,2075.6-96.1,2063"/>
					<path class="st3" d="M674,2430.8c-0.6,1-0.2,2.3,0.8,2.9l28.3,15.6l-26.1,19c-1,0.6-1.3,1.9-0.7,2.9c0.6,1,1.9,1.3,2.9,0.7
						c0.1-0.1,0.2-0.1,0.2-0.2l28.8-21c0.9-0.7,1.1-2,0.4-3c-0.2-0.2-0.4-0.4-0.7-0.6l-31.2-17.2
						C675.9,2429.3,674.6,2429.7,674,2430.8L674,2430.8z"/>
				</g>
				<g class="st1">
					<path class="st5" d="M1256.8,2071.8c127,570.4,261.3,733.1,367.6,764.2c111.4,32.6,175.4-84.3,308.2-53.2
						c170.2,39.9,301.2,287.5,389,505.8"/>
					<path class="st3" d="M1233.3,2130.1c2,0.7,4.1-0.3,4.8-2.3c0,0,0,0,0,0l19.2-54.3l41.1,40.3c1.4,1.5,3.8,1.6,5.3,0.2
						s1.6-3.8,0.2-5.3c-0.1-0.1-0.2-0.2-0.3-0.3l-45.3-44.4c-1.5-1.5-3.9-1.4-5.3,0.1c-0.4,0.4-0.7,0.9-0.9,1.4l-21.1,59.8
						c-0.2,0.7-0.3,1.4-0.1,2.1C1231.2,2128.6,1232.1,2129.6,1233.3,2130.1z"/>
				</g>
				<g class="st1">
					<path class="st6" d="M862.8,169.7c702.9-41.4,884,114.6,902.8,282.2c19.7,175.4-141.3,337.5-127.7,550
						c17.4,272.6,306.5,384.4,566.7,435.6"/>
					<path class="st3" d="M905.2,196.3c0.8-1.4,0.3-3.3-1.1-4.1c0,0,0,0,0,0l-40-22.6l37.4-26.6c1.4-1,1.7-2.8,0.7-4.2
						c-1-1.4-2.8-1.7-4.2-0.7l-41.2,29.4c-1.4,1-1.7,2.8-0.7,4.2c0.3,0.4,0.6,0.7,1,0.9l44.1,24.9
						C902.6,198.2,904.4,197.7,905.2,196.3C905.2,196.3,905.2,196.3,905.2,196.3z"/>
				</g>
			</g>
		</g>
	</g>
</g>
</svg>
