<svg id="Livello_1" data-name="Livello 1" xmlns="http://www.w3.org/2000/svg" xmlns:xlink="http://www.w3.org/1999/xlink" viewBox="0 0 1920 429.25"><defs><style>.cls-1{fill:none;}.cls-2{fill:#cccbcb;opacity:0.15;}.cls-10,.cls-11,.cls-12,.cls-13,.cls-2,.cls-6,.cls-8,.cls-9{isolation:isolate;}.cls-10,.cls-11,.cls-12,.cls-13,.cls-3,.cls-8,.cls-9{fill:#f1f1f1;}.cls-4{fill:#127ae2;}.cls-5{fill:#91c044;}.cls-6{fill:#4e4d4d;opacity:0.16;}.cls-7{clip-path:url(#clip-path);}.cls-8{opacity:0.25;}.cls-9{opacity:0.29;}.cls-10{opacity:0.32;}.cls-11{opacity:0.37;}.cls-12{opacity:0.41;}.cls-13{opacity:0.47;}.cls-14{fill:#2575d5;}.cls-15{fill:#093d68;}.cls-16{clip-path:url(#clip-path-2);}</style><clipPath id="clip-path"><polygon class="cls-1" points="1815.95 203.21 -0.37 203.26 -0.4 140.78 1332.84 73.96 1815.95 203.21"/></clipPath><clipPath id="clip-path-2"><polygon class="cls-1" points="103.84 204.17 1920.16 204.07 1920.19 301.62 586.95 350.56 103.84 204.17"/></clipPath></defs><title>colori</title><g id="Layer_1" data-name="Layer 1"><polygon class="cls-2" points="1920.16 203.21 -0.37 203.26 -0.4 174.87 -0.4 12.45 1920.16 203.21"/><polygon class="cls-2" points="1920.16 203.22 -0.37 203.26 -0.4 180.72 1920.16 0 1920.16 203.22"/><polygon class="cls-3" points="1920.16 203.21 -0.37 203.26 -0.4 174.87 379.67 61.35 1920.16 203.21"/><polygon class="cls-4" points="1920.16 203.21 -0.37 203.26 -0.4 140.78 1920.16 109.79 1920.16 203.21"/><polygon class="cls-5" points="1920.16 203.22 -0.37 203.26 -0.4 144.54 -0.4 43.25 1920.16 203.22"/><polygon class="cls-4" points="1815.95 203.21 -0.37 203.26 -0.4 140.78 1332.84 73.96 1815.95 203.21"/><polygon class="cls-6" points="1520.63 203.21 -0.4 203.21 -0.4 99.39 379.67 91.35 1520.63 203.21"/><g class="cls-7"><polygon class="cls-8" points="1389.28 -100.52 -195.51 120.96 -205.78 114.75 1379.01 -106.73 1389.28 -100.52"/><polygon class="cls-9" points="1411.63 -87.03 -173.16 134.45 -183.44 128.25 1401.36 -93.23 1411.63 -87.03"/><polygon class="cls-10" points="1433.98 -73.54 -150.81 147.94 -161.08 141.74 1423.71 -79.74 1433.98 -73.54"/><polygon class="cls-11" points="1456.33 -60.04 -128.46 161.44 -138.74 155.23 1446.06 -66.25 1456.33 -60.04"/><polygon class="cls-12" points="1478.68 -46.55 -106.11 174.93 -116.39 168.73 1468.41 -52.75 1478.68 -46.55"/><polygon class="cls-13" points="1501.03 -33.06 -83.76 188.42 -94.03 182.22 1490.76 -39.26 1501.03 -33.06"/><polygon class="cls-14" points="1523.38 -19.56 -61.41 201.92 -71.69 195.71 1513.11 -25.77 1523.38 -19.56"/><polygon class="cls-14" points="1545.73 -6.07 -39.06 215.41 -49.34 209.21 1535.46 -12.27 1545.73 -6.07"/><polygon class="cls-14" points="1590.43 20.92 5.64 242.4 -4.63 236.19 1580.16 14.71 1590.43 20.92"/><polygon class="cls-14" points="1635.13 47.9 50.34 269.38 40.06 263.18 1624.86 41.7 1635.13 47.9"/><polygon class="cls-14" points="1679.83 74.89 95.04 296.37 84.76 290.17 1669.56 68.69 1679.83 74.89"/><polygon class="cls-14" points="1724.53 101.88 139.74 323.36 129.47 317.15 1714.26 95.67 1724.53 101.88"/><polygon class="cls-3" points="1769.23 128.86 184.44 350.34 174.16 344.14 1758.96 122.66 1769.23 128.86"/><polygon class="cls-3" points="1813.93 155.85 229.14 377.33 218.86 371.13 1803.66 149.65 1813.93 155.85"/><polygon class="cls-3" points="1791.58 142.36 206.79 363.84 196.51 357.63 1781.31 136.15 1791.58 142.36"/><polygon class="cls-14" points="1746.88 115.37 162.09 336.85 151.81 330.65 1736.61 109.17 1746.88 115.37"/><polygon class="cls-14" points="1702.18 88.38 117.39 309.86 107.11 303.66 1691.91 82.18 1702.18 88.38"/><polygon class="cls-14" points="1657.48 61.4 72.69 282.88 62.41 276.67 1647.21 55.19 1657.48 61.4"/><polygon class="cls-14" points="1612.78 34.41 27.99 255.89 17.71 249.69 1602.51 28.21 1612.78 34.41"/><polygon class="cls-14" points="1568.08 7.42 -16.71 228.9 -26.98 222.7 1557.81 1.22 1568.08 7.42"/></g><polygon class="cls-15" points="1920.19 204.63 615.83 204.63 1920.16 118.7 1920.19 204.63"/><polygon class="cls-15" points="1323.36 204.65 -0.4 204.65 -0.4 100.83 379.67 102.79 1323.36 204.65"/><polygon class="cls-3" points="-0.37 204.17 1920.16 204.07 1920.19 271.6 1540.12 332.97 -0.37 204.17"/><polygon class="cls-4" points="-0.37 214.17 1920.16 214.07 1920.19 222.68 -0.37 376.39 -0.37 214.17"/><polygon class="cls-5" points="-0.37 204.17 1920.16 204.07 1920.19 343.74 1920.19 424.67 -0.37 204.17"/><polygon class="cls-4" points="103.84 204.17 1920.16 204.07 1920.19 302.68 586.95 351.62 103.84 204.17"/><g class="cls-16"><polygon class="cls-8" points="530.51 921.5 2115.3 398.44 2125.58 413.08 540.78 936.14 530.51 921.5"/><polygon class="cls-9" points="508.16 889.63 2092.95 366.57 2103.23 381.22 518.43 904.28 508.16 889.63"/><polygon class="cls-10" points="485.81 857.76 2070.6 334.7 2080.88 349.35 496.08 872.41 485.81 857.76"/><polygon class="cls-11" points="463.46 825.89 2048.25 302.84 2058.53 317.49 473.73 840.54 463.46 825.89"/><polygon class="cls-12" points="441.11 794.03 2025.9 270.97 2036.18 285.62 451.38 808.68 441.11 794.03"/><polygon class="cls-14" points="418.76 762.16 2003.55 239.1 2013.83 253.75 429.03 776.81 418.76 762.16"/><polygon class="cls-14" points="396.41 730.29 1981.2 207.24 1991.48 221.89 406.68 744.94 396.41 730.29"/><polygon class="cls-14" points="374.06 698.43 1958.85 175.37 1969.13 190.02 384.33 713.08 374.06 698.43"/><polygon class="cls-14" points="329.36 634.7 1914.15 111.64 1924.43 126.29 339.63 649.34 329.36 634.7"/><polygon class="cls-14" points="284.66 570.96 1869.45 47.91 1879.73 62.55 294.93 585.61 284.66 570.96"/><polygon class="cls-14" points="239.96 507.23 1824.75 -15.83 1835.03 -1.18 250.23 521.88 239.96 507.23"/><polygon class="cls-14" points="195.26 443.5 1780.05 -79.56 1790.33 -64.91 205.53 458.15 195.26 443.5"/><polygon class="cls-3" points="150.56 379.76 1735.35 -143.29 1745.63 -128.65 160.83 394.41 150.56 379.76"/><polygon class="cls-3" points="105.86 316.03 1690.65 -207.03 1700.93 -192.38 116.13 330.68 105.86 316.03"/><polygon class="cls-3" points="128.21 347.9 1713 -175.16 1723.28 -160.51 138.48 362.55 128.21 347.9"/><polygon class="cls-14" points="172.91 411.63 1757.7 -111.43 1767.98 -96.78 183.18 426.28 172.91 411.63"/><polygon class="cls-14" points="217.61 475.36 1802.4 -47.69 1812.68 -33.05 227.88 490.01 217.61 475.36"/><polygon class="cls-14" points="262.31 539.1 1847.1 16.04 1857.38 30.69 272.58 553.75 262.31 539.1"/><polygon class="cls-14" points="307.01 602.83 1891.8 79.77 1902.08 94.42 317.28 617.48 307.01 602.83"/><polygon class="cls-14" points="351.71 666.56 1936.5 143.5 1946.78 158.15 361.98 681.21 351.71 666.56"/></g><polygon class="cls-15" points="-0.4 200.8 1303.96 200.8 -0.37 375.2 -0.4 200.8"/><polygon class="cls-15" points="596.43 200.75 1920.19 200.75 1920.19 247.7 1240.12 319.55 596.43 200.75"/></g></svg>