<svg id="Livello_1" xmlns="http://www.w3.org/2000/svg" width="220.2" height="55.2" viewBox="0 0 220.2 55.2"><style>.st0{fill:#fff}.st1{fill:none}</style><path class="st0" d="M16.8 38.7c5.7-5.1 8-6.8 10.8-7.7l.2.2-.3.3c-4.1 3.8-7.7 8-11 12.5 1.4 0 1.7-.3 3.5-1.7.5-.3.5-.5.8-.8v.2c-.5.5-.8.6-.9.8l-.5.5c-1.1.9-1.8 1.1-2.9 1.1l-.6.9h-1.2l.6-.9c-1.2-.3-2-.6-2.9-1.4-2.4 1.8-4.1 2.4-6 2.4-1.4 0-2.1-.6-2.1-1.5 0-.6.5-1.1 1.1-1.1.3 0 .6.2.6.3s-.2.5-.5.5-.2-.3-.4-.6c-.3.2-.5.5-.5.8 0 .8.8 1.2 2 1.2 2.6 0 5-1.8 5.9-2.4-1.4-1.4-1.8-2.4-1.8-3.9 0-1.8.9-2.9 2.4-2.9 1.8 0 3 1.5 3.5 3.5l.2-.3zm-.6.6c-.8-3.5-3-3.5-3.2-3.5-1.4 0-2.1 1.1-2.1 2.6s.5 2.6 1.7 3.9c.8-.6 1.7-1.2 3.3-2.7l.3-.3zm-.3.4c-.3.3-2 1.7-3.2 2.7.9.8 1.7 1.2 2.7 1.4.6-1.5 1.1-2.7.8-4.4l-.3.3zm7.4-4.5c.6-.6 4.1-3.9 4.1-3.9-2.9.8-8 5.3-10.5 7.7l-.3.3c.3 1.5 0 2.6-.6 3.9l.3-.5c2-2.4 2.4-2.9 6.6-7.4l.4-.1z"/><path class="st0" d="M22.5 43.5l-.3.3c-.8.5-1.1.6-1.4.6-.6 0-.9-.5-.9-1.2 0-2 2.7-3.3 4.2-3.3.5 0 .8.2.8.6 0 .2 0 .3-.2.5l.8-.9h1.1l-4.5 5.3c1.7-.6 3.3-2 5.3-3.6v.2c-2.6 2.1-3.8 3-5.6 3.8-4.2 4.5-5.4 5.4-6.5 5.4-.5-.2-.8-.5-.8-.9 0-1.1 1.7-2.4 4.2-3.5l2-.9 1.8-2.4zm-7.2 5.4c-.5.5-.8.9-.8 1.2s.3.6.6.6c.8 0 1.7-.6 3.2-2.1.5-.5 1.5-1.7 2.1-2.6-2.5 1.1-4 1.8-5.1 2.9m8.9-8.9c-1.5 0-3.9 2.9-3.9 3.8 0 .3.3.5.5.5 1.1 0 3.9-2.7 3.9-3.6-.1-.5-.2-.7-.5-.7"/><path class="st0" d="M32.3 41.7l-.3.3c-1.7 1.7-3.2 2.4-4.5 2.4-.8 0-1.1-.5-1.1-1.2 0-2.4 3.3-3.3 4.2-3.3.5 0 .8.3.8.6 0 .9-1.5 1.5-3.6 1.7-.6.8-.9 1.2-.9 1.7 0 .3.3.5.8.5 1.2 0 2.6-.8 4.7-2.7-.1-.2-.1 0-.1 0zm-1-1.2c0-.3-.2-.3-.5-.3-.8 0-1.8.8-2.7 1.8 2.1-.2 3.2-1.2 3.2-1.5"/><path class="st0" d="M32.2 41.7c.8-.6 2-1.7 2.6-1.7.3 0 .5.2.5.6 0 .6-.5 1.1-1.4 2.3l.6-.5c1.2-.9 2.6-1.8 3.2-2.1.3-.2.6-.2.8-.2.3 0 .5.3.5.6 0 .8-.6 1.5-1.7 2.4-.8.5-.9.8-.9 1.1 0 .2.2.3.3.3s1.1 0 3.9-2.7v.2c-.5.3-2.9 2.6-3.9 2.6-.3 0-.6-.3-.6-.6 0-.6.5-1.4 1.4-2.3.8-.8 1.2-1.1 1.2-1.4 0-.2-.2-.2-.3-.2-.6 0-3.5 1.8-6 4.2h-1.1l1.7-1.8c1.1-1.2 1.8-2 1.8-2.3l-.2-.2c-.5 0-1.8 1.2-2.4 1.8v-.3z"/><path class="st0" d="M41.8 40.5c0-.5.2-.8.6-.8.3 0 .3.2.3.3 0 .3-.2.3-.5.3-.2 0-.5-.2-.5-.2.2.3.5.5.8.5.5 0 1.1-.2 1.2-.3l.5-.3c.6-.5.8-.6.9-.6s.2 0 .2.2c0 .3-.6.8-1.7 1.1L40.9 43c.5-.2.9-.2 1.2-.2.5 0 .6.2.6.6 0 .2-.2.3-.3.5s-.2.3-.2.3c.5 0 2-1.4 2.9-2.3.2-.2.3-.3.5-.3v.2c-1.4 1.2-2.9 2.6-3.6 2.6-.3 0-.5-.2-.5-.5s.2-.5.5-.8c.2-.2.2-.3.2-.3s-.2-.2-.3-.2c-.9 0-1.7.5-2.1 1.1-.3.3-.5.5-.6.5 0 0-.2 0-.2-.2 0-.3.8-.8 1.4-1.2l2.9-2.4c-.5.2-.6.2-.9.2-.2.2-.3 0-.6-.1l-1.5 1.4v-.2l1.5-1.2z"/><path class="st0" d="M45.7 41.7c.9-.8 1.5-1.2 2.1-1.7h1.1l-2.4 2.7s0 .2-.2.2c-.6.6-.9.9-.9 1.1 0 .2.2.3.2.3.8 0 2.3-1.1 3.9-2.7v.2c-.8.6-2.9 2.6-3.9 2.6-.3 0-.5-.2-.5-.5 0-.9.6-1.8 2-3.2l.5-.5c-.6.3-1.4 1.1-2.1 1.7v-.2h.2zm4.5-4.1c0 .3-.2.5-.5.5-.2 0-.3-.2-.3-.3 0-.3.2-.5.5-.5s.3.2.3.3"/><path class="st0" d="M56.3 41.7l-.5.5c-1.7 1.4-2.9 2.3-3.5 2.3-.3 0-.3-.2-.3-.5s.2-.5.3-1.2c-.2.2-.2.2-.5.3-1.1.9-1.8 1.4-2.3 1.4-.5 0-.8-.5-.8-1.2 0-2.1 2.9-3.3 4.2-3.3.5 0 .8.2.8.6v.5l.8-.9 1.1-.2-.5.5c-.5.5-.8.9-1.1 1.2-.8.8-2 2.1-2 2.4 0 .2 0 .2.2.2.8 0 2.9-1.8 3.8-2.7v.3h.3zm-7 2.1c0 .3.2.5.5.5 1.1 0 3.9-2.7 3.9-3.6 0-.3-.2-.5-.5-.5-1.7 0-3.9 2.8-3.9 3.6M65.2 37h.6l-4.7 5.6c.8-.5 3.6-2.7 4.5-2.7.3 0 .5.3.5.6 0 .8-.5 1.4-1.5 2.3-.8.6-1.1.9-1.1 1.2 0 .2.2.3.5.3.5 0 1.7-.8 3.5-2.3l.5-.3v.2c-2.3 2-3.2 2.6-3.9 2.6-.5 0-.6-.2-.6-.6 0-.6.5-1.4 1.5-2.3.8-.6 1.1-1.1 1.1-1.2s-.3-.4-.5-.4c-.8 0-4.4 2.6-5.4 3.9l-5.1 5.9H54l10.4-11.7c-.3.2-3.5 3.2-4.2 3.8v-.2c1.5-1.4 3.2-2.7 4.4-4.1l.6-.6z"/><path class="st0" d="M72.7 41.7c-.2 0-.2.2-.3.3-1.7 1.7-3.2 2.4-4.5 2.4-.8 0-1.1-.5-1.1-1.2 0-2.4 3.3-3.3 4.2-3.3.5 0 .8.3.8.6 0 .9-1.5 1.5-3.6 1.7-.6.8-.9 1.2-.9 1.7 0 .3.3.5.8.5 1.2 0 2.6-.8 4.7-2.7-.1-.2-.1 0-.1 0zm-1.1-1.2c0-.3-.2-.3-.5-.3-.8 0-1.8.8-2.7 1.8 2.2-.2 3.2-1.2 3.2-1.5"/><path class="st0" d="M72.5 41.7c.8-.6 1.5-1.2 2.3-1.8-.2-.6.2-1.1.6-1.1.3 0 .5.2.5.3 0 .2-.2.3-.5.3-.2 0-.2-.2-.5-.3-.2.2-.2.2-.2.3 0 .3.2.5.5.5h.6c.2 0 .3.3.3.6 0 .6-2.7 2.9-2.7 3.5 0 .2 0 .2.3.2.5 0 1.5-.6 3.2-2.1.3-.3.5-.5.8-.6v.2c-.3.3-3 2.6-4.1 2.6-.3 0-.3-.2-.3-.5 0-.8.3-1.5 1.1-2.3l1.1-1.2c0-.2.2-.3.5-.5h-.5c-.3 0-.5 0-.6-.2-.5.5-1.5 1.1-2.3 1.8-.1 0-.1.3-.1.3zm18.4-8.1l-7.7 8.7c-.6.6-1.4 1.5-1.4 1.8 0 .2.2.3.3.3.5 0 1.7-.8 3.3-2.3l.5-.5v.2c-.3.3-.5.3-.8.6-1.2 1.1-2.3 2-2.9 2-.3 0-.5-.3-.5-.6 0-.9 1.2-2.4 2.3-3.5.3-.3.6-.8 1.2-1.4-.9.6-2.7 2.3-3.3 2.9v-.2l3.5-3c.8-.6 2-2 4.2-4.5l.5-.6h.8z"/><path class="st0" d="M92.2 41.7l-.5.5c-1.7 1.4-2.9 2.3-3.5 2.3-.3 0-.3-.2-.3-.5s.2-.5.3-1.2c-.2.2-.2.2-.5.3-1.1.9-1.8 1.4-2.3 1.4-.5 0-.8-.5-.8-1.2 0-2.1 2.9-3.3 4.2-3.3.5 0 .8.2.8.6v.5l.8-.9 1.1-.2-.5.5c-.5.5-.8.9-1.1 1.2-.8.8-2 2.1-2 2.4 0 .2 0 .2.2.2.8 0 2.9-1.8 3.8-2.7v.3h.3zm-7 2.1c0 .3.2.5.5.5 1.1 0 3.9-2.7 3.9-3.6 0-.3-.2-.5-.5-.5-1.7 0-3.9 2.8-3.9 3.6m15.9-5.7c-1.5 0-2.1-.3-2.9-.9-.5-.5-.8-1.1-.8-1.7 0-1.4.8-2.6 3.2-3.8.9-.5 2.6-.9 5.6-.9v.2c-3.3 0-5.1.5-6.6 1.5-1.2.9-2 2-2 3.2 0 1.5 1.1 2.3 3.2 2.4h.8c3.3-3.6 8.9-7.1 11-7.1.6 0 1.1.3.9.9 0 1.7-4.8 4.8-10.7 6.2-2.3 2.6-3.3 4.2-3.3 5.4 0 .9.8 1.5 2 1.5 2.9 0 5.6-2.6 5.6-4.1 0-.8-.6-1.4-1.5-1.4-.3 0-2.7 0-4.8 3.9l-.2-.2c1.7-3.2 3.8-4.1 5-4.1.9 0 1.5.6 1.5 1.5 0 2-3 4.4-5.6 4.4-1.5 0-2.6-.9-2.6-2.4 0-1.4.6-2.6 2.4-4.5h-.2zm12.3-6.3c0-.5-.3-.8-.9-.8-1.1 0-3.3 1.1-5.3 2.6-1.5 1.1-2.6 2.1-4.2 4.1 6-1.3 10.4-4.4 10.4-5.9m-.3 9.9c-.5.3-.9.6-1.4.6h-.3c-1.4 1.4-2.6 2.1-3.5 2.1-.6 0-.9-.5-.9-1.1 0-2 3-3.5 4.2-3.5.6 0 .9.3.9.8s-.2.9-.6 1.4h.3c.5 0 .9-.3 1.4-.6v.3h-.1zm-5.7 1.9c0 .3.3.5.6.5 1.5 0 3.9-2.6 3.9-3.6 0-.3-.3-.6-.6-.6-1.7.3-3.9 3.3-3.9 3.7"/><path class="st0" d="M118 41.7c-.2 0-.2.2-.3.3-1.7 1.7-3.2 2.4-4.5 2.4-.8 0-1.1-.5-1.1-1.2 0-2.4 3.3-3.3 4.2-3.3.5 0 .8.3.8.6 0 .9-1.5 1.5-3.6 1.7-.6.8-.9 1.2-.9 1.7 0 .3.3.5.8.5 1.2 0 2.6-.8 4.7-2.7-.1-.2-.1 0-.1 0zm-1-1.2c0-.3-.2-.3-.5-.3-.8 0-1.8.8-2.7 1.8 2.3-.2 3.2-1.2 3.2-1.5"/><path class="st0" d="M118.8 40.9c.5-.3 1.1-.9 1.8-1.5.2-.2.8-.9.9-.9.2 0 .3.2.3.2 0 .3-.6.6-.8.6.6.9.8 1.2.8 2.1 0 .3 0 .5-.2.8h.3c.5 0 .9-.2 1.4-.6v.2c-.5.5-.9.6-1.4.6h-.5c-.8 1.5-2.7 2.1-3.6 2.1-.6 0-1.1-.3-1.1-.8 0-.3.3-.6.8-.6.3 0 .5.2.5.5s-.2.5-.5.5c-.2 0-.5-.2-.5-.3l-.2.2c0 .3.3.6.8.6 1.4 0 3.2-2 3.2-3.6 0-.5 0-.8-.3-1.2l-2.7 2.3v-.2l1-1z"/><path class="st0" d="M123.1 41.7c.9-.8 1.5-1.2 2.1-1.7h1.1l-2.4 2.7s0 .2-.2.2c-.6.6-.9.9-.9 1.1 0 .2 0 .3.3.3.8 0 2.3-1.1 3.9-2.7v.2c-.8.6-2.9 2.6-3.9 2.6-.3 0-.5-.2-.5-.5 0-.9.6-1.8 2-3.2l.5-.5c-.6.3-1.4 1.1-2.1 1.7v-.2h.1zm4.7-4.1c0 .3-.2.5-.5.5-.2 0-.3-.2-.3-.3 0-.3.2-.5.5-.5.1 0 .3.2.3.3"/><path class="st0" d="M132.4 41.7c-.5.3-.9.6-1.4.6h-.3c-1.4 1.4-2.6 2.1-3.5 2.1-.6 0-.9-.5-.9-1.1 0-2 3-3.5 4.2-3.5.6 0 .9.3.9.8s-.2.9-.6 1.4h.3c.5 0 .9-.3 1.4-.6v.3h-.1zm-5.7 1.9c0 .3.3.5.6.5 1.5 0 3.9-2.6 3.9-3.6 0-.3-.3-.6-.6-.6-1.5.3-3.9 3.3-3.9 3.7"/><path class="st0" d="M132.4 41.7c.8-.6 2-1.7 2.6-1.7.3 0 .5.2.5.6 0 .6-.5 1.1-1.4 2.3l.6-.5c1.2-.9 2.6-1.8 3.2-2.1.3-.2.6-.2.8-.2.3 0 .5.3.5.6 0 .8-.6 1.5-1.7 2.4-.8.5-.9.8-.9 1.1 0 .2.2.3.3.3.2 0 1.1 0 3.9-2.7v.2c-.5.3-2.9 2.6-3.9 2.6-.3 0-.6-.3-.6-.6 0-.6.5-1.4 1.4-2.3.8-.8 1.2-1.1 1.2-1.4 0-.2-.2-.2-.2-.2-.6 0-3.5 1.8-6 4.2h-1.1l1.7-1.8c1.1-1.2 1.8-2 1.8-2.3l-.2-.2c-.5 0-1.8 1.2-2.4 1.8-.1.2-.1-.1-.1-.1z"/><path class="st0" d="M145.7 41.7l-.3.3c-1.7 1.7-3.2 2.4-4.5 2.4-.8 0-1.1-.5-1.1-1.2 0-2.4 3.3-3.3 4.2-3.3.5 0 .8.3.8.6 0 .9-1.5 1.5-3.6 1.7-.6.8-.9 1.2-.9 1.7 0 .3.3.5.8.5 1.2 0 2.6-.8 4.7-2.7-.1-.2-.1 0-.1 0zm-1.1-1.2c0-.3-.2-.3-.5-.3-.8 0-1.8.8-2.7 1.8 2.2-.2 3.2-1.2 3.2-1.5m16.5-2.6c1.7-2.3 3.6-4.5 6.3-5.9l.2.2c-1.4.6-3.2 1.7-4.8 4.7-1.5 2.6-2 3.5-2.9 4.4-2.1 2.4-5.3 3.9-8.3 3.9-1.8 0-2.9-.6-2.9-1.5 0-.6.3-.9.8-.9.3 0 .6.2.6.5s-.2.5-.5.5-.5-.2-.5-.6c-.3.2-.5.3-.5.8 0 .9 1.1 1.4 2.6 1.4 3.8 0 5.6-1.8 6.3-2.6.8-.8.9-.9 3-3.9l.6-1zm2.3-4.8c-2.3 4.5-5.7 4.5-5.9 4.5-1.2 0-2-.6-2-1.7 0-1.7 2.3-5 8-5 .9 0 2 0 3.8.3 1.7.2 2.4.3 3.2.3 1.4 0 2.3-.2 2.7-.5h.3c-.8.8-2.7 1.1-3.8 1.1-.5 0-1.4-.2-2.7-.3-1.8-.3-3-.5-4.1-.5-4.7 0-7.2 2.9-7.2 4.7 0 .9.8 1.5 1.8 1.5 1.7 0 4.4-1.5 5.9-4.4zm3.7 8.6l-.3.3c-1.7 1.7-3.2 2.4-4.5 2.4-.8 0-1.1-.5-1.1-1.2 0-2.4 3.3-3.3 4.2-3.3.5 0 .8.3.8.6 0 .9-1.5 1.5-3.6 1.7-.6.8-.9 1.2-.9 1.7 0 .3.3.5.8.5 1.2 0 2.6-.8 4.7-2.7-.1-.2-.1 0-.1 0zm-1-1.2c0-.3-.2-.3-.5-.3-.8 0-1.8.8-2.7 1.8 2.3-.2 3.2-1.2 3.2-1.5"/><path class="st0" d="M167 41.7c.8-.6 1.5-1.2 2.3-1.8-.2-.6.2-1.1.6-1.1.3 0 .5.2.5.3 0 .2-.2.3-.5.3-.2 0-.2-.2-.5-.3 0 .2-.2.2-.2.3 0 .3.2.5.5.5h.6c.1 0 .3.3.3.6 0 .6-2.7 2.9-2.7 3.5 0 .2.2.2.3.2.5 0 1.5-.6 3.2-2.1.3-.3.5-.5.8-.6v.2c-.3.3-3 2.6-4.1 2.6-.3 0-.3-.2-.3-.5 0-.8.3-1.5 1.1-2.3l1.1-1.2c0-.2.2-.3.5-.5h-.5c-.3 0-.5 0-.6-.2-.5.5-1.5 1.1-2.3 1.8l-.1.3z"/><path class="st0" d="M171.9 41.7c.8-.6 1.5-1.2 2.3-1.8-.2-.6.2-1.1.6-1.1.3 0 .5.2.5.3 0 .2-.2.3-.5.3-.2 0-.2-.2-.5-.3 0 .2-.2.2-.2.3 0 .3.2.5.5.5h.6c.1 0 .3.3.3.6 0 .6-2.7 2.9-2.7 3.5 0 .2.2.2.3.2.5 0 1.5-.6 3.2-2.1.3-.3.5-.5.8-.6v.2c-.3.3-3 2.6-4.1 2.6-.3 0-.3-.2-.3-.5 0-.8.3-1.5 1.1-2.3l1.1-1.2c0-.2.2-.3.5-.5h-.5c-.3 0-.5 0-.6-.2-.5.5-1.5 1.1-2.3 1.8l-.1.3z"/><path class="st0" d="M177 41.7c.9-.8 1.5-1.2 2.1-1.7h1.1l-2.4 2.7-.2.2c-.6.6-.9.9-.9 1.1 0 .2.2.3.3.3.8 0 2.3-1.1 3.9-2.7v.2c-.8.6-2.9 2.6-3.9 2.6-.3 0-.5-.2-.5-.5 0-.9.6-1.8 2-3.2l.5-.5c-.6.3-1.4 1.1-2.1 1.7v-.2h.1zm4.5-4.1c0 .3-.2.5-.5.5-.2 0-.3-.2-.3-.3 0-.3.2-.5.5-.5s.3.2.3.3"/><path class="st0" d="M187.1 35.8l1.1-.2-2.1 2.3h1.7l-.2.2h-1.7l-3 3.5c-.9 1.1-1.8 2-1.8 2.1 0 .2.2.3.3.3.9 0 2.3-.9 4.2-2.6v.2l-.6.4c-1.8 1.5-2.9 2.1-3.8 2.1-.3 0-.6-.2-.6-.5 0-.8.9-2.3 2.7-4.1l.8-.8c-.9.6-2 1.5-3.5 2.9v-.2l.5-.5c1.5-1.4 2.4-2.1 3.6-2.9h-.9l.2-.2h.9l2.2-2z"/><path class="st0" d="M191 41.7c-.5.3-.9.6-1.4.6h-.3c-1.4 1.4-2.6 2.1-3.5 2.1-.6 0-.9-.5-.9-1.1 0-2 3-3.5 4.2-3.5.6 0 .9.3.9.8s-.2.9-.6 1.4h.3c.5 0 .9-.3 1.4-.6v.3h-.1zm-5.7 1.9c0 .3.3.5.6.5 1.5 0 3.9-2.6 3.9-3.6 0-.3-.3-.6-.6-.6-1.5.3-3.9 3.3-3.9 3.7"/><path class="st0" d="M191 41.7c.8-.6 1.5-1.2 2.3-1.8-.2-.6.2-1.1.6-1.1.3 0 .5.2.5.3 0 .2-.2.3-.5.3-.2 0-.2-.2-.5-.3-.2.2-.2.2-.2.3 0 .3.2.5.5.5h.6c.2 0 .3.3.3.6 0 .6-2.7 2.9-2.7 3.5 0 .2 0 .2.2.2.5 0 1.5-.6 3.2-2.1.3-.3.5-.5.8-.6v.2c-.3.3-3 2.6-4.1 2.6-.3 0-.3-.2-.3-.5 0-.8.3-1.5 1.1-2.3l1.1-1.2c0-.2.2-.3.5-.5h-.5c-.3 0-.5 0-.6-.2-.5.5-1.5 1.1-2.3 1.8v.3z"/><path class="st0" d="M196 41.7c.9-.8 1.5-1.2 2.1-1.7h1.1l-2.4 2.7-.2.2c-.6.6-.9.9-.9 1.1 0 .2 0 .3.2.3.8 0 2.3-1.1 3.9-2.7v.2c-.8.6-2.9 2.6-3.9 2.6-.3 0-.5-.2-.5-.5 0-.9.6-1.8 2-3.2l.5-.5c-.6.3-1.4 1.1-2.1 1.7v-.2h.2zm4.5-4.1c0 .3-.2.5-.5.5-.2 0-.3-.2-.3-.3 0-.3.2-.5.5-.5s.3.2.3.3"/><path class="st0" d="M206.6 41.7l-.5.5c-1.7 1.4-2.9 2.3-3.5 2.3-.2 0-.3-.2-.3-.5s0-.5.3-1.2c-.2.2-.2.2-.5.3-1.1.9-1.8 1.4-2.3 1.4-.5 0-.8-.5-.8-1.2 0-2.1 2.9-3.3 4.2-3.3.5 0 .8.2.8.6v.5l1-1.1 1.1-.2-.3.5c-.5.5-.8.9-1.1 1.2-.8.8-2 2.1-2 2.4 0 .2 0 .2.2.2.8 0 2.9-1.8 3.8-2.7v.3zm-7 2.1c0 .3.2.5.5.5 1.1 0 3.9-2.7 3.9-3.6 0-.3-.2-.5-.5-.5-1.7 0-3.9 2.8-3.9 3.6"/><path class="st0" d="M215.6 33.6l-7.7 8.7c-.6.6-1.4 1.5-1.4 1.8 0 .2.2.3.3.3.5 0 1.7-.8 3.3-2.3l.5-.5v.2c-.3.3-.5.3-.8.6-1.2 1.1-2.3 2-3 2-.3 0-.5-.3-.5-.6 0-.9 1.2-2.4 2.3-3.5.3-.3.6-.8 1.2-1.4-.9.6-2.7 2.3-3.3 2.9v-.2l3.5-3c.8-.6 2-2 4.2-4.5l.5-.6h.9z"/><path class="st0" d="M215.5 41.7l-.3.3c-1.7 1.7-3.2 2.4-4.5 2.4-.8 0-1.1-.5-1.1-1.2 0-2.4 3.3-3.3 4.2-3.3.5 0 .8.3.8.6 0 .9-1.5 1.5-3.6 1.7-.6.8-.9 1.2-.9 1.7 0 .3.3.5.8.5 1.2 0 2.6-.8 4.7-2.7h-.1zm-1.1-1.2c0-.3-.2-.3-.5-.3-.8 0-1.8.8-2.7 1.8 2.3-.2 3.2-1.2 3.2-1.5M101.6 23.6c-.1.2-.3.2-.5.1l.1-.2.2-.3.1-.1c.2.2.2.3.1.5.1 0 .1 0 0 0m.3.2c.1-.1.1-.2.1-.2 0-.2-.1-.3-.2-.4l-.3-.1c-.1 0-.2-.1-.3-.2l-.1.1c.1.1.1.2 0 .3l-.2.3-.3.4c-.1.2-.2.3-.3.2l-.1.1.5.3.1-.1c-.2-.1-.1-.2 0-.4l.2-.3.1.1c.3.1.6.1.8-.1m2.6-12.3c.3-.4.6-.7.9-1 .8-.7 1.8-1.2 3-1.6l-.1 1.5-.2 1.8s0 .1-.1.1l-3.5-.8zm-.3 0c0 .1.1.2.2.2l3.5.7h.1c.1 0 .3-.2.3-.3l.1-1.7.1-1.5c0-.1-.1-.2-.1-.2h-.2c-1.2.4-2.3 1-3.2 1.8l-.8.8v.2m3.7 15.8c-.1 0-.2.1-.2.2.2 0 .3.1.4 0 .3-.2.5-.6.9-.7v-.1c-.1 0-.3.1-.4.2-.2 0-.4.4-.7.4m-4.5-2.5l.1-.2.1-.3h.1c.1.1.1.2.1.3l-.1.1c-.1.2-.2.2-.3.1m-.3.8c-.1-.1-.1-.2 0-.3l.2-.3h.1c.2.1.2.2.1.4l-.1.1c-.1 0-.2.1-.3.1m.7-1.4l-.5-.2-.1.1c.2.1.1.2 0 .3l-.4.7c-.1.2-.1.3-.3.2v.1l.5.2c.2.1.5.2.7 0 0-.1.1-.1.1-.2.1-.3 0-.5-.2-.5.1 0 .2 0 .3-.1.1 0 .1-.1.1-.2.2-.2 0-.3-.2-.4m1.2 1.3c-.1 0-.2-.1-.2-.2v-.1l-.1-.3h.1c.2 0 .3.1.3.3v.1c0 .1 0 .2-.1.2m-.5-1.3s.1 0 0 0c.2-.1.3 0 .4.2v.1c0 .1-.1.2-.2.2l-.1-.2-.1-.3zm.4.6c.1 0 .2-.1.3-.2v-.2c-.1-.3-.4-.3-.6-.3l-.5.1v.1c.2-.1.2 0 .3.3l.2.7c0 .2.1.3-.1.3v.1l.5-.1c.2 0 .5-.1.5-.3v-.2c-.2-.3-.4-.4-.6-.3"/><path class="st0" d="M103.2 24l-.4-.3-.1.1c.1 0 .1.1.1.2l-.3.3-.5.4.3-.8s0-.1.1-.2.1-.1.2 0l.1-.1-.6-.3-.1.1c.1.1.1.1 0 .3l-.4 1.3.1.1 1.1-.9c.2-.2.2-.2.4-.2m-2.7-.2c-.3.2-.4.2-.6.1s-.1-.2 0-.4l.2-.3c.1.1.2.2.1.4h.1l.3-.5h-.1c-.1.2-.2.2-.4.1l.3-.4.1-.1h.2c.1.1.2.2.1.4h.1l.2-.4-.9-.5c.1.1.1.2 0 .4l-.5.7c-.1.2-.2.3-.3.2v.1l.9.5.1-.2.1-.1zm6 1.1c0 .3-.1.4-.3.4-.2 0-.2-.1-.3-.4l-.2-.7c0-.2-.1-.3.1-.3v-.1l-.6.1v.1c.2 0 .2.1.3.3l.2.8c0 .2.1.3-.1.3v.1l1.1-.2-.2-.4zm2.5-.6l.1-.2.1-.4.2.4.1.2h-.5zm.8.2l-.2-.4-.3-.8h-.1l-.2.8-.1.3c0 .2-.1.4-.2.4v.1h.4v-.1c-.1 0-.1 0-.2-.1v-.3h.4l.1.3c0 .1-.1.1-.2.1v.1h.6v-.1c-.1 0-.1 0-.1-.1.1 0 .1-.1.1-.2m0-14.5l1 3.1h3.5l-2.9 1.8 1.2 3.1-2.8-1.9-2.9 1.9 1.2-3.1-2.9-1.8h3.5l1.1-3.1zm-5.6 2.8l3.6 2.2-1.4 3.7 3.5-2.4 3.5 2.4-1.5-3.8 3.6-2.2h-4.3l-1.3-3.8-1.3 3.8-4.4.1zm4.2 11.7c0 .3-.1.5-.3.5-.3 0-.4-.3-.5-.6-.1-.3 0-.7.3-.7.2 0 .3.1.4.4h.1l-.1-.5h-.1v.2c-.1-.1-.2-.1-.4-.1-.4.1-.6.4-.5.9s.4.7.8.7c.1 0 .3-.1.4-.2l.1.1h.1l-.3-.7zm-1.2.3l-.2-.8c0-.2-.1-.3.1-.3v-.1l-.6.1v.1c.2-.1.2.1.2.3l.2.8c0 .2.1.3-.1.3v.1l.6-.1v-.1c-.1 0-.2-.1-.2-.3"/><path class="st0" d="M111.2 8.9c1.1.3 2 .8 2.9 1.5l1 1-3.5.8s-.1 0-.1-.1l-.1-1.7-.2-1.5v3.4c.1.1.2.2.4.2l3.5-.8c.1 0 .1-.1.2-.2v-.2c-.3-.3-.5-.6-.8-.9-.9-.8-2-1.4-3.2-1.7h-.2c-.1 0-.2.1-.2.3l.1 1.5.2 1.7V8.9zm-1.3 10.9c-.8 0-1.7-.2-2.4-.4l2.4-2.5h.2l2.3 2.5c-.9.3-1.7.4-2.5.4m.2-3l-.1-.1c-.1 0-.1-.1-.2 0-.1 0-.2 0-.3.1l-2.4 2.4c-.1.2.1.4.1.4.8.3 1.6.4 2.5.4.8 0 1.6-.1 2.5-.3.1 0 .4-.2.1-.4l-2.2-2.5zm7.6 7.7l-.1-.3-.1-.2.3.2.2.2-.3.1zm.9.1c-.1 0-.1-.1-.2-.2l-.2-.2-.8-.7-.1.1.2.6.2.5c0 .2.2.4 0 .5l.1.1.4-.2-.1-.1c-.1 0-.1.1-.2 0l-.2-.3.4-.2.2.2c.1.1 0 .1-.1.2v.1l.5-.3-.1-.1c.1 0 .1 0 0 0m-.2-16.3c-.1.1 0 .2 0 .3s.1.2.2.1c0-.1-.1-.2-.1-.2 0-.1 0-.3-.1-.2m-6 15.3c.2 0 .1.1.1.3l-.3.8c0 .2-.1.3-.2.3v.1l.6.1v-.1c-.2 0-.1-.1-.1-.3l.2-.8c.1-.2.1-.3.3-.3v-.1h-.6zm6.7-.9c0-.1 0-.1.1-.1l-.1-.1-.4.2v.1c.2-.1.3.1.4.2l.4.5-1.3-.5-.3.2.1.1h.3l.6.8c.1.2.2.2.1.3v.1l.4-.2-.1-.1c-.1.1-.3-.1-.4-.2l-.5-.6 1.5.6h.1l-.7-1c-.1 0-.2-.2-.2-.3"/><path class="st0" d="M116.9 19.9c.1-.1.3-.3.3-.4 0 .1-.1.3-.2.4l-.2.2h-.1c.1-.1.2-.1.2-.2m1.4-1c-.1.1-.1.2-.2.3 0 0-.1-.1-.1-.3 0-.2.1-.5.2-.5.2.2.1.5.1.5m.1.6c-.1-.2.1-.4.1-.6v-.2l.1.1c.2.3 0 .6-.2.7m.7.2c-.1.2-.3.3-.4.5 0 .1-.1.1-.2.1s-.1-.1-.2-.1c-.1.2-.4.2-.5.3-.4.3-.4-.2-.4-.1-.2.2-.4.5-.7.7-.1.2-.2.5-.3.5l-.1.1c0 .1-.1.1-.2.1s-.1-.1-.2 0-.1 0-.2 0c-.1.1-.5.6-.8.6-.1 0-.2 0-.2-.1-.3 0-.5.4-.6.4v.1h.2c0 .1-.2.2-.3.3 0 0-.2.1-.3.1 0 0-.4 0-.9-.2v-.2l.5-.3c0 .1.1.2.2.3.1 0 .1 0 .1-.1 0-.2-.4-.2-.1-.4.2-.1.2 0 .5-.1.2 0 .5-.2.6-.3 0 0 .3-.1.7-.8 0 0 .2-.4 2-3.2 0 0 .4-.4 1.1-1.7.1-.1.1.1.2.1.1-.2-.1-.3-.1-.4-.1-.2-.1-.4-.1-.6 0-.1.1 0 .2.1 0 .2.1.3.1.5.3 0 .4-1.5.4-1.8V14c-.1-.2-.5-.3-.5-.4.3-.1-.1-.6-.2-.4 0 .1.1.1 0 .2-.5 0-.4-.4-.5-.5s-.3 0-.3-.2c0-.1 0-.2-.1-.3-.1 0-.3.1-.3-.2 0-.2.6.3.4-.2-.2-.4-.6-.1-.7-.2-.1-.2-.5-.8-.5-1 0-.1.3.2.3 0s-.2-.4-.3-.3c-.3.2-.4 0-.4-.1v-.3c-.1-.1-.2-.1-.3-.2 0-.1-.1-.2 0-.2.6-.2 0-.4.1-.6.1-.1.4.1.6-.2.2-.1.2-.1.2 0 .2.2-.1.5.3.5.1 0 .2-.2.3-.1.2.2.2.3.3.6.1.4-.1.4-.1.5l-.1.1c0 .1 0 .2.1.3.1 0 .2-.1.3-.2 0-.1.1-.1.1 0 .1.1 0 .2.1.3.5.4 0 .7 0 .7-.1-.1 0-.3-.1-.4-.1.2.1.4 0 .6 0 0-.1-.3-.8-1.2 0-.2-.1-.4 0-.6 0 0 0-.1-.1 0-.1 0 0 .1-.1.1-.1-.3-.2-.5-.4-.8l-.1.1c.1.4.3.7.4 1.1h-.1l-.3-.3h-.1c0 .2.3.4.5.5l.6.8c-.1-.1-.3-.1-.4-.1v.1c.5.2.9.7 1 1.1-.1 0-.1-.1-.2 0 0 .1.3.3.5.4v-.1c-.2-.4-.5-.7-.4-1.1.1.1.2.5.3.1.1 0 .1.3.1.3.2.2.3.2.2.4-.1.1-.1.2-.1.4.1.2.4.1.3.3 0 .1-.1.2-.1.3l.3.3c.1-.1-.1-.3-.1-.4.1-.2 0-.4-.1-.5s0-.2 0-.3c-.1.2.4.3.2.5.1.3.3.5.2.7.1.1.1 0 .2-.1s.2-.3.1-.5c-.1 0-.1-.1-.2-.1 0-.2-.1-.3-.1-.4.1 0 .1 0 .1-.1 0-.3-.4-.4-.5-.6 0-.2-.3-.3-.3-.5.1-.1.4 0 .3-.2-.3-.3-.6-.5-.8-.9 0 0-.1-.2 0-.3.1 0 .2 0 .2-.1 0-.2-.2-.3-.4-.4-.2-.2-.2-.4-.3-.6.6-.4.6-.6.8-.9 0-.1-.3-.4.3-.2.1 0 .3-.1.3-.2.2.1.1.7.3.7.1 0 .1-.2.3-.1 0 0 0 .4.3.7 0 .2-.1.4 0 .6 0 0 .1.1.3-.1 0 .7.2.8.2.8-.1.2-.6.9-.1 1 .1 0 0-.3.1-.4.1-.1.3.1.3.5 0 .3-.6.6-.2 1 0-.1.1-.1.1-.1.1.1.1.3.1.4-.3.1-.2.4-.2.6-.1.2-.5.2-.4.5 0 .3-.3.3-.4.5 0 0-.6 2.9-1 3.2-.1.1-.5.9-.9 1.2-.1.1-.2 0-.3.1v.2c-.1.1-.3.6-.5.7-.1.1-.1.3-.2.4-.1.2-.6.7-.6 1.1 0 .6.1.6.1.6.2-.1.1-.3.2-.5l1-1c0-.1.1-.1.1-.2.2-.1.2-.8.3-.9h.2c0 .3.1.5 0 .7h-.2c0 .1.1.1.1.2-.1.1-.1.2-.2.2.1.2.1 0 .2 0 .2.1.3-.2.4 0 .2-.2.5-.4.6-.6.2-.2.2-.4.3-.6h.1c.2-.2.3-.4.6-.4l.1-.1c-.1-.1-.3.1-.4.1.1-.4.4-.7.4-1.1.1-.3.4-.4.7-.5.1-.1.1-.1.1-.2-.1.2-.3.2-.5.3-.1-.5.9-1.3.9-1.6h-.1c-.2.2-.2.5-.5.5.2-1 .3-1.4.3-1.4s0-.1-.1-.1c-.2-.1-.4 1.3-.4 1.3-.3-.1-.1-.5-.2-.7-.1 0-.1.1-.1.1s-.1.3.1.7c-.1.5-.2 1-.3 1.4l-.1.1c0-.2-.1-.3-.1-.5s0-.3-.1-.4c-.2.2-.1.5 0 .7 0 .4 0 .8-.2 1.1-.1.1 0 .2 0 .2-.1.2-.2.3-.3.5-.3-.3 0-1 0-1.1 0-.2-.2-.1-.2-.3 0-.1.2-.2.1-.3 0-.1.2-.2.2-.3-.2-.4.3-.8.3-1.1 0-.1.2.1.2-.1s-.1-.5.1-.6c.1-.2-.1-.4.1-.5.1-.1.2-.1.3-.1.1.1 0 .3.2.3.1-.1.1-.6.1-.6s.1-.1.3-.1c.1 0 .1.2.3.2.2.1.5.1.5.2 0 .2-.4.3-.1.5 0 0 .3 0 .3.1 0 .2-.2.3-.2.5 0 .3-.3.3-.4.5 0 .1.1.1.2.1s.1 0 .1.1 0 .3-.1.4-.3.1-.3.2c0 .3-.2.6-.4.8 0 0-.5.1-.3.3.1.1.3-.1.3 0-.6.9-.8 1.1-.8 1.1-.2.3-.6.1-.6.5 0-.4.1-.3 0-.2m.1.7c.2.3.2.5.2.5v.2c0 .1-.3.1-.3.1 0-.1.1-.1 0-.2-.1 0-.2.1-.2.1-.1-.1.1-.1.1-.2 0 0-.4.3-.5.2 0-.1.5-.3.4-.4s-.4.2-.5.2c-.1-.1.1-.4.8-.5m.7.8c0 .2-1.1.5-1.1.5-.1 0 0 .1-.1.1 0 .1.1.1.1.1 0 .1-.1.1-.1.1.1.1-.1.2-.1.2-.1 0-.2-.4-.3-.4l-.1-.1v-.1c.2 0 .5-.1.7-.1.2-.1.8-.3 1-.3m-4.7 1.4c0-.2 1.1-.4 1.2-.5.3-.1.4-.3.5-.4.1-.2.1-.4.2-.5.1-.2.5-.4 1-.5.1 0 .3-.1.1.2-.1.1-.1.3-.2.5 0 .1.1.2.2.4 0 .1.1.1.1.2.1.2.2.3.2.5-.1.1-1.8 1.1-2.2 1.1-.3.1-.6 0-1 0-.1-.2-.1-.4-.1-.4-.1-.3-.1-.5 0-.6m-.7.5c.1-.1.2-.2.3-.2.1 0 .1.1.1.2s0 .3-.1.3-.2 0-.3-.1c0 0 .1-.2-.2-.1.2 0 .2-.1.2-.1m5.7-2s.1-.2.5 0c0 .1.1.3.2.5 0 0 .2.6.5 1.4.1.2-.1.3-.1.4-.6.5-2.9 1.7-3.2 1.9-.4.2-1 .4-1.7.4-1.8.1-4.2-.3-4.6-.6.5-.6.3-1.1.3-1.2-.2-.3-.5-.8-.6-.9l.1-.1c3.5.6 4.8.7 4.8.6.5 0 2.9-1.4 3.8-2 .3-.2.5-.4.5-.5-.2.1-.3.1-.5.1m-5.6 5.4c.1.1.2.3.3.4.1.2.3.4.3.4.1-.1-.2-.2.1-.3.3 0 .3.7 1.1.4.2.2.6.1.8.2 0 0 0 .1-.1.1-.5 0-1.2 0-1.6.3-.1.1 0 .2-.1.2-.1-.1 0-.3.1-.4s.4 0 .2-.2c0 0-.1-.1-.6.4-.1-.1-.1-.2-.1-.2-.4.1-.5-.3-.8-.4-.1-.1.1-.1 0-.2-.2-.1-.3-.2-.5-.2-.6-.2-.1-.4-.3-.5-1-.3-.9-.5-.9-.5.1-.2.2 0 .3-.1 0-.1-.1-.1-.1-.2.1-.1.5.3.5.2.1-.1-.1-.2.1-.2.3-.1 1.1.8 1.3.8.1-.1 0-.1 0-.1-.2.1-.1.1 0 .1m-3.3-1.5c-.2-.2.2-.8-.1-.8-.1 0 0 .1 0 .2-.1.3-.1.6-.3.8-.1 0-.1 0 0-.1.1-.2.2-.5.2-.7 0 0-.1-.1-.1.2 0 .2-.2.4-.3.6 0 .1-.2.2-.3.2 0-.3.2-.5.2-.8.1-.2.1.1.1.1.1-.1.1-1-.3-1.2-.1.1.3.5.1.8h-.1c-.1-.6-.3-.9-.5-1.1-.3-.3-.7-.2-.8-.2.1-.1.2-.2.3-.2.1 0 .3 0 .5.1.3.1.5.2.6.3 0 0 .1-.1 0-.1s-.1-.1-.1-.1c.4-.2 1.5 1.4 1.3 1.9-.1-.1-.2.1-.4.1m-11.7-2.6s-.1 0 0 0c-.2.3-.3.3-.5.2H99l.1-.2.1-.2.1-.2h.1c.2.1.2.2.2.4m10.3 2.8c-.8.1-5.3.8-5.7.8-.5.1-1 0-1.3-.1-.3-.1-4-1.9-4.4-2.6-.1-.1-.1-.3-.1-.3l.1.1.2.2.1-.1c-.2-.1-.1-.2 0-.3l.2-.3c.1 0 0 .2 0 .3l-.1.5.3.2.1-.1c-.1 0-.1-.1-.1-.1l.1-.7c.2.1.3 0 .5-.2.1 0 .1-.1.1-.2v-.2l-.2-.2-.3-.2h-.3c.1.1.1.2 0 .3l-.2.3-.4.4c-.1.1-.1.1-.1.2v-.1c.3-.5.4-1 .5-1.5.1-.1.2-.1.2-.1-.1 0-.1.1 0 .2s.8.5 1.6.9c1.4.7 3.1 1.6 3.1 1.6.2 0 1.5-.2 2.7-.4 1.3-.2 2.6-.4 2.9-.3.1 0 .2.2.3.4.2.4.4 1.1.4 1.4.1.2-.2.2-.2.2m-3.6 1.9c-.1.2-.4.5-.6.5s-.3-.1-.3 0c0 .2.2.1.3.2.1.3-.2.4-.3.5.1-.6-.5-.6-.8-.6 0 0-.5.2-.5 0s.5-.3.8-.4c0 0 .1 0 .1-.1.2-.4.7-.5 1.1-.7.1 0 .4.2.7-.2-.1-.1.1-.2.1-.2.1 0 0 .1 0 .1.2 0 .2-.2.4-.2.1 0 .1 0 .1.1.1.1.1 0 .2 0 0 .1-.8.8-1.3 1m-6.2-5.9c.1.1.4.2.7.3.2 0 .4.1.6.1-.1.2-.3.6-.3.7-.1 0-.2-.1-.3-.1-.1-.1-.2-.1-.3-.2-.1 0 .1-.1 0-.2l.1-.1c.2.1.2 0 .1-.1-.4-.2-.7-.3-1-.5.1 0 .2.1.4.1m.5-.8c.3.1.4.1.5.2 0 .1-.1-.1-.2 0s.3.2.3.4c0 0-.2-.2-.3-.1s-.1.2-.1.3h-.1c-.1 0-.2 0-.4-.1 0-.2.2-.5.3-.7m4.6 2.5c.1 0 .3.1.4.2l.2.2s-.6.2-.8.2c.1-.1.1-.3.1-.4.1-.1.1-.1.1-.2m-.6-.8c-.1-.1-.2-.1-.3-.2.1-.1 0-.1-.1-.1 0 .1-.1.2-.2.2s-.2 0-.2-.1c.1 0 .2 0 .2-.1s0-.2-.1-.2-.1.2-.2.2c-.5-.2-1.2-1.1-1.2-1.3-.1-.1-.3 0-.4-.1-.1 0-1.1-.9-1.3-1.2-1.9-1.8-2-2.6-2-3.5 0-.3-.1-.5-.1-.8v-.2c.1-.1.3.2.4.2.5.5 1 1.7 1.2 2.3 0 .1.1.2.1.3.1.2.1.4.2.6-.1-.1-.2-.3-.3-.4 0-.1-.1 0-.1 0-.1.1-.1 0-.2-.1-.5-.8-.8-1.6-1-2.4l-.1-.1c-.1 0 .1.7.4 1.4-.1 0-.1-.1-.2-.1 0 .3.7.8.8 1.1v.2c.4.5.7 1.1 1.1 1.6.1.2.3.3.4.5.1.1.2 0 .2.1.1.2.2.3.4.4.1 0 .2.1.2 0s-.1-.2-.1-.3c.1.1.2.2.3.2l.3-.1c.1.1-.1.3-.1.4.2.3.8 1 .9.9.2-.2.3.2.4 0 .1-.1 0-.2-.1-.2-.4.1-.4-.3-.6-.5-.2-.3-.2-.7-.5-1-.3-.4-.5-.8-.9-1.1-.1 0 0-.2.1-.2.2 0 .1.4.3.4.1 0 .1-.3.2-.3-.1.4.3 1.2.9 1.4.1.1.1.1.1.2s-.1 0-.1 0c-.1.1.1.2.1.2 0 .6 1.7 2.2 3 2.4 0 .1.1.1.1.1.1.1.3 0 .3.3.1 0 .1.1.1.2-.2.1-.3.1-.4 0-.2 0-.3-.1-.4-.1-.1-.2-1.4-1.1-1.5-1.1m-4.1-4.8c.1 0 .2.2.3.4.1.1.1.2.2.3v.4h-.1c-.1-.2-.2-.5-.3-.7.1-.2 0-.3-.1-.4m-.2-5c0 .2 0 .5-.1.7s0 .4-.2.6c0-.4.1-.9.3-1.3-.1 0 0-.2.4-1.3.2.3-.1 1-.3 1-.1.1-.1.2-.1.3m-.3 2.5c-.3.1-.4-.4-.4-.4-.6-1.6-.6-3.6.4-5.1 0 0 .5-1 .9-1.4.1 0 .1 0 .1.1.1.4-.1 1.2-.2 1.3-.1.5-.7 2.5-.9 3-.1.2-.1.4-.1.7-.1-.1 0-.3 0-.4-.1-.7.6-2.9.7-3.3.1-.3.3-.6.3-1l-.1.1-.3.9c-.4 1-.8 2.1-.8 3.3-.2.6-.1 1.3.1 1.9.5.5.3-.3.4-.5 0-.2.2-.4.2-.6 0-.3.1-.6.3-.9-.1 0-.1-.1-.1-.1v-.2c.3-.1.4-.8.5-.8 0-.1.1-.2 0-.2s-.2.1-.2-.1c.1-.3 0-.6.3-.8 0 0 0-.2.4-.6 0 .2-.6.9-.5 1.2 0 .1.1 0 .1 0 .1-.1.1-.3.3-.3 0 .2-.4.3-.1.4.5-.3.6-.7.6-.7.1-.4.3-.7.6-1 .6-.9 1.3-1.3 1.8-1.6.1-.1.2-.1.2 0s-.1.3-.2.1c-.4.3-1 1.1-1.3 1.4 0 0-.2.1-1.1 1.4-.1.2-.3.4-.6.5 0 0-.1-.1-.1 0s-.4 1-.7 1.9c-.1.5-.3.9-.3 1.3 0 .1 0 .2.1.3.3-.2.4-.5.5-.7h.1c-.1.3-.2.9-.6.8v.3c0 .3 0 .6.2.9.1 0 .3 1.2.6 1.5.1.1 0 .1 0 .2 0 0 0 .1-.1.1s-.1-.1-.1-.1c-.2-.2-.3-.5-.4-.7 0-.1.1-.1.1-.2-.1-.1-.2-.1-.2-.2s.2-.1.1-.2-.4 0-.3-.2c0-.4-.1-.7-.2-1.1v-.2m2.6-8.2c.4-.4.7-.7 1-.8 0 0 .2-.1.3-.1v.1c0 .3-.1.5-.3.8-.4 1-1.3 2.1-1.8 2.7l-.2.2c0-.1 0-.2.1-.2.2-.6 1-1.9 1.6-2.7.1-.1.2-.3.3-.4.1-.2.3-.4.2-.4-.1 0-.2.2-.3.3-.1.1-.3.3-.4.5-.6.8-1.3 2.1-1.6 2.7-.1.1-.1.2-.1.3-.2 0-.2.1-.3.2.1-.2.1-.4.2-.6.4-1.2.9-2.1 1.3-2.6m2.3-.8c1.3-1.1 3-1.4 3.1-1.4v.1c-.4.4-.9.8-1.4 1.1-.1.1-.2.2-.3.2-.3.2-.9.4-1 .5 0 0-.1 0-.1-.1l.6-.4c.5-.3 1.8-1 1.8-1.2-.7.3-1.4.7-2.1 1.2-.1.1-.3.2-.5.3l-.1-.1c-.1 0-.4.3-.7.6 0 .1 0 .2-.1.2 0-.1.1-.2.1-.2s.3-.5.7-.8m-.9 1.3c0-.1.2-.3.5-.5s.5-.3.5-.3c0 .1-.1.2-.2.3-.1.1-.3.3-.4.3-.1.1-.4.3-.4.2m.2.4s-.6.4-.6.3c.1-.1.8-.6.6-.3m-.6.3c-.5.4-1 1-1.4 1.5 0 0-.4.5-.6.9l-.1-.1c0-.1.3-.4.6-.8.5-.7 1.3-1.7 1.5-1.9.1-.1.2-.1.3-.1-.1.2-.3.3-.3.5-.1 0 0 0 0 0m4.9-2.5c-.1.2-.5.5-.6.5-.3.3-.9.6-1.4.9-.4.2-.7.3-.8.4-.1 0-.4-.1.1-.3h.1c.3-.1 1-.5 1.6-.8.3-.2.6-.3.8-.4v-.1c-.2.1-.6.2-1 .4-.5.2-1.1.5-1.6.8s-.8.5-1.1.6h-.1c0 .1-.1.1-.2 0 .1-.1.2-.1.3-.2.1-.2.4-.3.6-.5l1.5-.9c.2-.1 1.7-.7 1.8-.4m-3.7 2.1s0-.1.1-.2c.2-.2.5-.4.5-.2 0 .1-.1.1-.2.1-.2.2-.3.3-.4.3m-1.1 6.5l2.6.9.8.3s.1.1 0 .1l-.9 1.3-1 1.5h-.1c-.7-.9-1.2-1.9-1.4-3v-1.1m-1.7 3.9c0-.1.1-.1.1-.2l.2-.2v.2c0 .2-.1.3-.1.5-.1.2-.3-.1-.2-.3m-.2-.1s0-.2.1-.5l.3-.6c.4 0-.1.9-.2 1s-.1.1-.2.1c0 .1 0 0 0 0m-.5 0c.1-.5.3-1 .5-1.1-.1-.2.4-.9.6-1.1.1.8-.6 1.4-.8 2.1v.1c-.1.4-.3.9-.1 1.3.1.1.3.1.4-.1.2.2.1.6.1.8-.2 0-.2-.5-.2-.5-.1 0-.1.1-.3 0-.3-.3-.3-.9-.2-1.5m.3-1.5c0 .1 0 .2-.1.2s-.1 0-.1-.1c-.2-.1.1-.1.2-.1m.4-3.1l-.1.4-.6.1v1.1s-.2 0-.3-.1c-.1-.4 0-.6 0-.6.1-.2.3-.5.6-.7l.3-.3c.1-.1.1-.2.2-.2l-.1.3zm1.4-3.8c-.1.3-.4.5-.7.6.2-.3.5-.6.5-.6.3-.4.8-1 1.1-1.3l.1-.1c0 .3-.5 1.1-1 1.4m.7 0l-.2.2v-.1c.1-.2.4-.4.4-.5l.1.2-.3.2zm-3 3.7c.1-1.3 2.3-3.6 2.7-3.6.4 0-.8 2.2-1.5 2.8-.2.3-.5.5-.8.8 0 .1-.1.2-.1.3l-.1.1c0-.1 0-.2.1-.3.4-.8 1.8-2.6 2.3-3.2 0 0 .1-.1-.1-.1 0 0-1 .8-2.3 3.3l-.2.4-.1.1c0-.3 0-.4.1-.6m-.4.1c.2-1 .7-1.8 1-1.9 0 .2-.1.3-.3.4-.2.5-.4 1-.5 1.4-.1.3-.1.5-.2.8-.1-.2 0-.5 0-.7m-.1 2c.1 0 .1 0 .2-.1 0-.1.1-.1.1-.2.3 0 .6 0 .7.1.1.2.1.4.1.6.1.3-.6.3-.7.5 0 .3.2.5.1.8-.1-.3-.3-.6-.4-.9-.2-.3-.2-.6-.1-.8m2.6-.1v-.5s-.1.2 0 .5c-.2.9-.3 2.6-.2 3.5v.5h-.1c-.1-.2 0-.4-.1-.6-.1-.3-.1-.5-.2-.8v-.2c-.3-.4-.1-1.6.2-2.5.1-.4.3-.7.4-.7.2 0 .3.3.3.7.1.7 0 1.6-.2 1.8 0 .3-.1.6-.1 1 0 .1.1.2-.1.2-.1 0 0-.1 0-.2-.2-.1.1-1.8.1-2.7m5.1 7.9s0 .1-.1.1c0 0-.1 0-.6-.1-.3-.1-.6-.4-.8-.3-.1 0-.1 0-.2-.1-.3-.1-.8-.4-1-.5-.1 0 .1-.4.7-.3.1 0 .3.1.3.1.4.2 1.2.5 1.7 1.1m6.1-1.5c-.3 0-1.2.4-1.8.6-.3.1-.4.2-.5.2-.3.1-.4.4-.6.6-.2 0-.4.1-.6-.1-.1-.2-.6-.1-.7-.1-.1.1-.2 0-.3 0-.1-.1-.2-.1-.3-.1-.3 0-.6 0-.7.2-.1.1-.5.1-.7-.2-.4-.4-1.1-.7-1.6-.9-.2-.1-.4-.1-.4-.1-.2 0-.5 0-.7.4-1.5-.8-1.7-2-1.7-2-.3-.6-.4-.7-.4-.7l.6-.2.5.5-.2.5 1.2.8.5-.3.6.3v.5l1.4.4.3-.5.7.1.1.5h1.5l.1-.5.7-.1.3.5 1.4-.4v-.5l.6-.3.5.3 1.2-.8-.2-.5.5-.5.5.2s.1 0-.4.6c0 0-.2 1.1-1.2 2 0-.1-.1-.3-.2-.4m-2.7 1.4c0-.2.2-.3.3-.4.1-.1.6-.3 1-.4s1.4-.6 1.5-.2c0 .1 0 .2-.1.2h-.1c-.2 0-.5.2-.8.1-.2.1-.9.6-1.2.7-.1 0-.3.1-.2-.1 0-.1-.3.1-.4.1m6.9-8.6c0 .1 0 .4-.2.4v-.9s.3 0 .1.2c0 .1.1.3.1.3m-1.2 3c0-.2 0-.3.1-.4 0-.1 0-.1-.1-.1s-.2.3-.2.4c-.1-.2 0-.4-.1-.6v-.3c0-.4.1-.8-.1-1.1 0-.1-.1-.5-.1-.7h-.1c0 .1.1.6.1.7-.1-.1-.3-.1-.4-.1-.1-.1-.1-.2-.1-.3l-.1-.3c.2-.1.3-.3.4-.4.1 0 .2.2.3.1.1 0 .2-.1.2 0 .1.2-.1.4-.1.5v.1l.2-.1c.1.1.1.1 0 .2-.1.3.3.6.1.8-.3.2-.1.5-.1.5.2 0 .2-.3.4-.2.1.1.3.9-.1 1.1-.2.2-.1.5-.4.7.1-.1.2-.5.2-.5m-.4-1.6c.1 0 0 .3 0 .5v.1s-.1 0-.1-.1-.1-.5.1-.5m-1-.9c-.1 1.1-.6 2.2-1.4 3.2h-.1l-1.9-2.7v-.1l2.2-.8 1.2-.4v.8m.4 1c0-.1.1-.1.1-.1-.1-.1 0-.1-.2-.2s-.1-.3-.1-.4c.1.1.2.1.3.1.2-.1.3.2.2.2-.1.2.1.4-.1.5v.2c.1.2.1.3-.1.4-.2-.1.1-.3-.1-.4-.1 0 0-.2 0-.3m.8 1.8v.2c-.3-.1-.2-.3-.6-.3-.1 0-.1.1 0 .1.2.1.5.3.5.5-.1.1-.1.1-.2.1-.2-.4-.6-.2-.6-.4s0-.4.1-.6c.1-.4.5-.5.6-.7.1.1.1.7.1.8 0 .1-.1.2.1.3m1.6-2.3c0 .1-.3-.1-.4-.1-.3.2-.2.5-.1.8-.1-.1-.4-.2-.4-.2 0-.3.1-.5.2-.7s.9.2.7-.8v-.1l.1.1c.1.2 0 .7-.1 1m-13.4-7.1l.4.3 1-.5v-.5l.9-.3.4.5 1.1-.2.1-.5h1l.1.5 1.1.2.3-.4.9.3V8l1 .5.4-.3 1 .4-.2.5.7.6c.1.5.3.8.3.8s.2.5.6.4l-.4.1c.6 1.4 1.3 1.8 1.3 1.8l.1.8.5.1v.9s-.3.2-.3.9c-.2-.7-.2-.8-.2-.8-.1-1.1-.8-.9-1.1-.8 0 0-.1.1-.1.2v-.3c0-.1 0-.1-.1-.2s-.2-.1-.3-.1l-1.8.7-1.6.6s-.1 0-.1.1c-.1.1-.1.3 0 .4l1.9 2.8c.1.1.1.1.2.1s.2-.1.2-.1c.6-.8 1.1-1.6 1.3-2.5 0 .1.2.2.1.6.1.2.2.5 0 .8 0 .1-.1.2-.1.3-.1.2-.1.4-.1.5-.1.3.7.4.8.6l-.5.7-.5-.4-.8.7.2.5-.8.5-.4-.3-1 .5v.5l-.9.3-.3-.4-1.1.2-.1.5h-1l-.1-.5-1.3-.3-.3.4-.9-.3v-.5l-1-.5-.4.3-.8-.5.2-.5-.8-.7-.5.2-.2-.3c.2-.3.5-2.4.4-2.8.3.8.7 1.6 1.3 2.3 0 0 .1.1.2.1s.3 0 .3-.1l.8-1.2 1-1.5.1-.1c0-.2-.1-.3-.2-.3l-.9-.3-2.6-.9c-.1 0-.2 0-.2.1-.1 0-.1.1-.1.2v.4c-.1-.1-.3-.2-.4 0-.1.1-.3.5-.5.8-.1.2-.2.3-.3.3l-.1-.3V15l-.6-.3v-.9l.5-.1.1-.7.1-.4-.2-.1c.1-.2 1.6-1.6 1.7-2.7l.7-.6.2-.2-.2-.5.9-.4zm10-.8c0-.1-.1-.1-.1-.2-.1-.1-.2-.2-.2-.3.3-.1-.1-.4.1-.6.6-.5.8-.3.8-.3.1.2.2.3.2.4.1.1.3-.2.3-.2.1.1.1.2.2.3.1.1.3.1.3.3-.1.2-.2.2-.1.3.1.1.1.2.2.2.1-.1 0-.4.2-.3 0 0 .1.1.1.2.1.1.1.2.3.3.2.1-.2.4-.1.6s0 .5-.1.6c-.2.1-.2-.4-.1-.7 0 0 0-.1-.1-.1-.1.1-.1.3-.2.3-.5-.9-.7-1.4-.7-1.4-.1 0 0 .2 0 .3-.3-.3-.6-.6-1-.9 0-.1 0 0-.1 0s.3.5.7.8c-.1 0-.2-.1-.3 0 .1.1.2.1.3.1.3.2.6.5.8.8v.1c-.1 0-.3-.2-.4-.1.1.1.2.1.3.2.4.4.6.7.7 1-.1.1-.1.1-.2.1-.1-.2-.3-.2-.3-.4-.1-.1-.2-.3-.4-.3-.1.1-.2.1-.3 0-.3-.2 0-.5-.4-.7-.2-.1-.4-.2-.4-.4m.3.9c-.2-.3-.6-.4-.7-.6-.1-.4-.3-.3-.5-.3l-.1-.1c-.1-.1-.2-.3-.3-.4 0-.1.2-.2.1-.3-.2-.3-.1-.9.5-.8.2 0 .3-.1.5-.1.1.1.4.2 0 .4-.1 0-.1-.1-.2 0 0 .1.1.2 0 .3-.2-.1-.3-.3-.6-.4 0 0-.1.1 0 .1.2.2.5.2.5.5-.1.2-.3 0-.3.2h.2c0 .2.1.3.1.4.1.2.2.3.4.4.1.3.4.4.4.7 0 .1 0 0 0 0m-2.6-2.8c-.5 0-.9-.4-1-.5v.2c-.3-.1-.9-.5-.9-.3 0 .1.7.3.9.5.1 0 .2-.1.3 0 0 .1-.3 0-.2.2.4 0 .7.1 1.1.1.2.1-.2.2-.2.3 0 .1.2 0 .3-.1.3-.2.3 0 .5-.1.1 0 .2 0 .2.1-.1.2 0 .4 0 .6-.5 0-.3-.3-.4-.3-.2.1-.4.1-.6.1-.1-.3-.5-.1-.7-.3-.1-.2.2-.1.3-.2-.3-.1-1 0-1.1 0-.1-.2-.1-.4-.4-.4-.1 0-.2-.1-.2-.1-.1-.1 0-.6.2-.5.1 0 .3.3.4 0 0-.1 0-.2.1-.2.3-.2.4.2.7.1.1 0 .1.3.3.2.1-.1.2-.1.4-.1s.2.2.4.2c.1.1.3.1.5.2.1 0 .1.1.1.2.1.2.5-.2.4.2-.2.1-.1.3-.5.2-.3 0-.6-.4-.8-.5-.2 0-.1.2-.1.2m6.7 13.8c.2-.2 1.1-1.2 1.1-1.7.1-.1.8-.7.7-1.8.1-.2.3-.4.3-.6.1-.2 0-.4 0-.7 0-.2-.1-.2-.3-.3-.2 0-.8-.7-1.3-.4.5-1 .7-1.3.7-1.3.1-.3-.1-.5-.2-.7.1-.4-.1-1-.2-1.3v-.2c-.5-.3-.3-.7-.5-1.1 0-.1-.5-.8-.7-1-.2-.1-.3-.3-.4-.4 0-.2-.3-.2-.4-.2-.4-.1-.6-.3-.6-.4-.4-.5-1-1.1-1.4-1.3-.2-.2-.5-.3-1-.4-.6-.3-1-.3-1-.3-.3 0-1.5-.8-2.5-.9-1.6-.1-1.5.7-1.5 1 .4.7.9.8.9.8.3 0 .5.4.9.5.3.1 1.2.4 1.4.5.2.1.3.2.3.3.1.2.2.3.4.3 0 0 .1 0 1.2 1-.2.3-.1.3-.1.3s.2.1.2.6h-.1l-.5-.5.2-.5-1.2-.8-.5.3-.6-.2v-.5l-1.4-.4-.3.5-.7-.1-.1-.6h-1.5l-.1.5-.7.1-.3-.5-1.4.4v.5l-.6.3-.6-.3-.7.4s.1-.3.2-.4c-.2-.1.1-.3.2-.3.3 0 .5-.1.7-.2.1 0 1.1-.4 1.4-.6.2-.1.4-.3.5-.3.3-.1.5-.3.7-.5s.3-.4.4-.5c0-.1 0-.2-.1-.2-.4-.1-.7.1-1 .1l-.1-.1c.2-.3.7-.7.6-.8-.1-.2-.4-.1-.6-.1-1.8.3-3.1 1.6-3.1 1.6-.2.2-.5.4-.5.5 0 0-.1.1-.1 0 .2-.2.2-.4.2-.5 0 0 0-.3-.1-.3-.1-.2-.5.1-.8.3-.2.1-.7.6-.8.8-.4.5-.7 1-.9 1.5 0 .1 0 .2-.2.2 0-.2 0-.5-.1-.6s-.3-.1-.5.1-.6.7-1 1.5c-.4.7-.8 1.7-.8 3 0 1.4.9 2.8.9 2.8 0 .1.1.2 0 .2-.1-.1-.1-.2-.2-.2 0 0-.4-.5-.8-.6-.2 0-.3.1-.3.2s-.1.3-.1.4c0 1 .3 2.4.7 2.9.3.5 2.1 2.4 2.8 2.7.6.3.9.9 1.4 1.4.1.1.5.3 1.1.4.1.1.5.1.6.4 0 .1-.1.2-.1.3-.1.2-.1.3-.2.5-.6 0-.9 0-1.3-.2-.5-.3-1.2-.6-1.7-.9-.8-.4-.5-.4-.4-.6.1-.3.4-.6.3-.9 0-.4-.8-.8-.9-.9-.2-.1-.3-.1-.3 0-.1.3-.2.6-.3.8-.7-.4-1.2-.2-1.4.1 0 .2-.5 1.4-.7 1.8-.1.3.2.7.4 1 .1.2 3.5 2.5 5.6 2.5.3 0 1.6-.3 1.9-.3 0 0 .1 0 .1.1-.3.3-.9.3-1.1.8-.1.1-.3.2-.5.3-.3.1-.5.3-.8.3-.3.1-.6.1-.6.2.1.4 1.5.8 1.7.8.4.1.7 0 1-.3.1-.1.2-.5.5-.5.1-.1.4-.3.7-.5.3-.2 1.6-1.1 1.8-1.2.2-.3.6-.5.9-.6l.2.1c.3 0 .8.1 1.1-.1.3.4.8.7 1.3.9.3.1.6.5.7.6l.3.3c.1.1.1.1.2 0l.5.4h.2c.1 0 .5.4.7.5.2 0 .2.2.3.3.1.2 1.2.1 1.6-.5.1 0 .3.1.4 0s.6-.3.3-.3c-.3-.1-.4-.2-.7-.2l-.3-.3c-.2 0-.6-.2-.7-.2-.7-.3-1-.6-1.2-.7-.1-.1-.1-.2 0-.2s1 0 1.7.1h.7c1.8-.4 3.5-1.7 3.9-1.9.3-.3.7-.7.7-.9 0-.3-.4-1.2-.5-1.6 0-.1-.1-.7-.4-.7-.3-.3-.9.1-1.1.1 0 0-.1-.1-.1-.2-.1-.2-.1-.4-.2-.6-.5-.2-.2-.2-.1-.4.5-.2.2-.7.7-.8"/><path class="st0" d="M119.8 13.3c.3-.1.1-.8.2-1.1 0-.1.1-.2 0-.3-.1 0-.1.2-.2.2 0-.2-.1-.4-.2-.6-.1-.4.3-1.1 0-1.2 0 .6-.1.6-.1.6-.2-.5-.5-1.5-.4-2h-.1c-.1.1 0 .2-.1.3h-.1c-.1-.1-.1-.2-.2-.3-.1 0-.1.1-.1.1.1.2.4.7.3.8l-.3-.3c.1.3.8 1.2.7 1.4l-.2-.2c-.1-.1-.1.1 0 .1.3.4.6.7.6 1.2v.1l-.3-.3h-.1c0 .2.2.3.4.4.3.2.3.9.2 1.1m.3 9.5l.2.2-.3.2-.1-.3-.1-.2.3.1zm-.5-.6l.2.6.2.5c0 .2.1.4 0 .4l.1.1.4-.2-.1-.1c-.1 0-.1.1-.2 0l-.1-.2.3-.2.2.2c.1.1 0 .1-.1.2v.1l.5-.3.1-.1h-.1c-.1 0-.1-.1-.2-.1l-.2-.2-1-.7z"/><path id="SVGID_x5F_1_x5F_" class="st1" d="M114.1 24.3c0-.2 0-.4-.2-.4-.1 0-.1 0-.2.2l-.2.9c-.1.2-.1.3.1.3v.1l-.6-.1v-.1c.2.1.2-.1.2-.3l.2-.9c0-.2 0-.2-.1-.2-.2-.1-.3.1-.3.3h-.1l.1-.4 1.2.2-.1.4"/><path class="st0" d="M114.4 24.8l.1-.3.1-.2.1.3v.2h-.3zm.7.3l-.1-.3-.2-1h-.1l-.3.6-.2.5c-.1.1-.1.4-.3.3v.1h.4v-.1c-.1 0-.2 0-.1-.2l.1-.3h.4v.3c0 .1-.1.1-.2.1v.1l.6.1v-.1s-.1 0 0-.1c0 .2 0 .1 0 0m2.1-.1l-.2-.8c0-.2-.1-.3.1-.3v-.1l-.6.1v.1c.2-.1.2.1.2.3l.2.8c.1.2.1.3-.1.3v.1l.6-.1v-.1c-.1 0-.2-.1-.2-.3"/><path id="SVGID_x5F_2_x5F_" class="st1" d="M116.2 25.4c-.2 0-.2-.2-.2-.4v-.7c0-.2 0-.3.2-.3v-.1h-.7v.1c.2 0 .2.1.2.3v.8c0 .2 0 .3-.2.3v.1h1.1V25h-.1c0 .3-.1.4-.3.4"/></svg>