<svg xmlns="http://www.w3.org/2000/svg" width="172" height="49" viewBox="0 0 172 49"><path fill="#fff" d="M125.2 31.5h2.1v1.4h-2.1zM23.4 5.4H1.2v32c0 4.2 3.3 7.7 7.4 8V34.3h14.8c3.7 0 6.7-3 6.7-6.7V12.1c0-3.7-3-6.7-6.7-6.7m-.7 21.5H8.6V12.8h14.1v14.1zM89.3 5.4H68.5v25.2c0 2.1 1.8 3.8 3.9 3.7 2-.1 3.5-1.9 3.5-3.9V12.8H90v17.6c0 2 1.5 3.8 3.5 3.9 2.1.1 3.9-1.6 3.9-3.7V13.4c-.1-4.4-3.6-8-8.1-8"/><path d="M62.6 18.8H51.5c-.6 0-1.1-.5-1.1-1.1V6.5c0-.6.5-1.1 1.1-1.1h5.7c3.6 0 6.6 2.9 6.6 6.6v5.7c-.1.6-.6 1.1-1.2 1.1" fill="#6c79b8"/><path d="M57.1 34.3h-5.7c-.6 0-1.1-.5-1.1-1.1V22.1c0-.6.5-1.1 1.1-1.1h11.1c.6 0 1.1.5 1.1 1.1v5.7c.1 3.6-2.8 6.5-6.5 6.5" fill="#fab900"/><path d="M35.9 18.8H47c.6 0 1.1-.5 1.1-1.1V6.5c0-.6-.5-1.1-1.1-1.1h-5.7c-3.6 0-6.6 2.9-6.6 6.6v5.7c.1.6.6 1.1 1.2 1.1" fill="#1aa6ac"/><path d="M41.4 34.3h5.7c.6 0 1.1-.5 1.1-1.1V22.1c0-.6-.5-1.1-1.1-1.1H35.9c-.6 0-1.1.5-1.1 1.1v5.7c0 3.6 3 6.5 6.6 6.5" fill="#b3cb04"/><path d="M110.1 11.1h-1.2l-.1-.5c-.3.4-.8.7-1.7.7-1.4 0-2.7-.9-2.7-2.9 0-1.8 1.1-3 2.9-3 1.3 0 2.4.7 2.6 2.1h-1.7c-.1-.5-.5-.7-.9-.7-.7 0-1.1.6-1.1 1.6 0 .8.2 1.5 1.2 1.5.4 0 .8-.3.9-.6h-.8V8.1h2.5v3zm6.6-2.8c0 1.9-1.3 3-2.9 3-1.7 0-2.9-1.1-2.9-3 0-1.7 1.2-2.9 2.9-2.9 2 0 2.9 1.5 2.9 2.9m-4 0c0 .7.2 1.6 1.1 1.6.8 0 1.1-.7 1.1-1.6 0-.8-.3-1.6-1.1-1.5-.8 0-1.1.8-1.1 1.5m4.5-2.7h1.8l1 3.7 1-3.7h1.8l-1.9 5.5h-1.8zm6.4 5.5V5.6h4.5v1.3h-2.7v.8h2.3V9h-2.3v.8h2.8v1.3zm7.2-1.9v1.9H129V5.6h2.6c1.8 0 2.5.5 2.5 1.6 0 .6-.3 1.2-.9 1.4.6.2.9.4.9 1.5 0 .7 0 1 .2 1v.2h-1.8c0-.1-.1-.5-.1-1 0-.7-.1-1-1-1h-.6zm0-1.2h.7c.6 0 .9-.1.9-.5s-.3-.6-.7-.6h-.8V8zm8 .6l-.1-1.3V5.6h1.7v5.5h-1.7l-2-3 .1 1.3v1.7h-1.7V5.6h1.7zm2.2 2.5l2-5.5h1.8l2 5.5H145l-.2-.7H143l-.2.7H141zm2.9-3.9l-.6 2h1.1l-.5-2zm7.3 1.4l-.1-1.3V5.6h1.7v5.5h-1.7l-2-3 .1 1.3v1.7h-1.7V5.6h1.7zm6.2-.9c-.1-.6-.4-.9-1-.9s-1 .5-1 1.6c0 .8.2 1.5 1.1 1.5.6 0 .9-.4.9-.9h1.7c-.2 1.4-1.2 2.3-2.6 2.3-1.8 0-2.9-1.1-2.9-2.9 0-1.8 1.2-2.9 2.8-2.9 1.7 0 2.6.8 2.8 2.3h-1.8zm2.5 3.4V5.6h4.5v1.3h-2.7v.8h2.3V9h-2.3v.8h2.9v1.3zm-55.1 7.7v-5.5h4.5v1.3h-2.7v.8h2.3v1.3h-2.3v.8h2.8v1.3zm11.5-3.4c-.1-.6-.4-.9-1-.9s-1 .5-1 1.6c0 .8.2 1.5 1.1 1.5.6 0 .9-.4.9-.9h1.7c-.2 1.4-1.2 2.3-2.6 2.3-1.8 0-2.9-1.1-2.9-2.9 0-1.8 1.2-2.9 2.8-2.9 1.7 0 2.6.8 2.8 2.3h-1.8zm2.1 3.4l2-5.5h1.8l2 5.5h-1.8l-.2-.7h-1.8l-.2.7h-1.8zm2.9-3.9l-.6 2h1.1l-.5-2zm3.4 3.9v-5.5h2.7c1.6 0 2.4.7 2.4 1.9s-.7 1.9-2.3 1.9h-.9v1.7h-1.9zm2.6-3c.4 0 .7-.2.7-.6 0-.5-.6-.6-1-.6h-.5v1.2h.8zm2.1 3l2-5.5h1.8l2 5.5h-1.8l-.2-.7h-1.8l-.2.7h-1.8zm2.8-3.9l-.6 2h1.1l-.5-2zm7.1.5c-.1-.6-.4-.9-1-.9s-1 .5-1 1.6c0 .8.2 1.5 1.1 1.5.6 0 .9-.4.9-.9h1.7c-.2 1.4-1.2 2.3-2.6 2.3-1.8 0-2.9-1.1-2.9-2.9 0-1.8 1.2-2.9 2.8-2.9 1.7 0 2.6.8 2.8 2.3h-1.8zm2.5-2.1h1.8v5.5h-1.8zm2.7 0h5.1v1.4h-1.7v4.1h-1.8v-4.1h-1.6zm4.8 5.5l2-5.5h1.8l2 5.5h-1.8l-.2-.7h-1.8l-.2.7h-1.8zm3-7.2l.8 1.1H152l-1.3-1.1h1.6zm-.1 3.3l-.6 2h1.1l-.5-2zM104.8 21h1.8v5.5h-1.8zm5.8 1.6c0-.2-.1-.3-.3-.4-.1-.1-.3-.1-.5-.1-.4 0-.6.1-.6.3 0 .8 3.2.3 3.2 2.3 0 1.3-1.1 1.9-2.6 1.9s-2.4-.9-2.5-1.9h1.7c0 .2.1.3.3.4.2.1.3.1.5.1.5 0 .8-.1.8-.4 0-.8-3.2-.3-3.2-2.4 0-1.2 1-1.8 2.4-1.8 1.5 0 2.2.8 2.4 1.8h-1.6zM113 21h5.1v1.4h-1.7v4.1h-1.8v-4.1H113zm5.9 0h1.8v5.5h-1.8zm2.6 0h5.1v1.4H125v4.1h-1.8v-4.1h-1.7zm5.9 0h1.8v3.3c0 .5.1 1 .9 1 .7 0 .9-.4.9-1V21h1.8v3.1c0 1.8-.8 2.6-2.7 2.6-1.7 0-2.7-.7-2.7-2.6V21zm6.1 5.5v-1.3l2.7-2.9h-2.6V21h4.8v1.3l-2.7 2.9h2.8v1.3zm5.9-5.5h1.8v5.5h-1.8zm8.5 2.7c0 1.9-1.3 2.9-2.9 2.9-1.7 0-2.9-1.1-2.9-3 0-1.7 1.2-2.9 2.9-2.9 2 .1 2.9 1.5 2.9 3m-4 0c0 .7.2 1.6 1.1 1.6.8 0 1.1-.7 1.1-1.6 0-.8-.3-1.6-1.1-1.5-.8 0-1.1.8-1.1 1.5m8.5.3v-3h1.7v5.5h-1.7l-2-3 .1 1.3v1.7h-1.7V21h1.7zm2.3 2.5l2-5.5h1.8l2 5.5h-1.8l-.2-.7h-1.8l-.2.7h-1.8zm2.9-3.9l-.6 2h1.1l-.5-2zm3.6 3.9V21h1.8v4.2h2.5v1.3zm5.1 0V21h4.6v1.3h-2.7v.8h2.2v1.3h-2.2v.8h2.8v1.3zm-61.7 7.7c0-.6.2-1.1.6-1.5.9-.9 2.3-1.3 2.3-2.2 0-.3-.3-.5-.7-.5-.6 0-.8.5-.8 1h-1.4c0-1.6.9-2.2 2.3-2.2 1.1 0 2.2.5 2.2 1.8 0 1-.7 1.3-1.4 1.8-.4.2-.8.5-1.1.7h2.5v1.3h-4.5zm7.3-5.5c1.4 0 2.3.9 2.3 2.7 0 1.5-.6 2.9-2.3 2.9-1.8 0-2.4-1.3-2.4-2.9 0-1.9 1.1-2.7 2.4-2.7m.7 2.8c0-.6 0-1.6-.8-1.6-.7 0-.7 1.1-.7 1.6 0 .9.1 1.6.8 1.6.6 0 .7-.7.7-1.6m5.5 2.7h-1.6V31h-1.3v-1c.8 0 1.5-.3 1.6-1.2h1.2v5.4zm1.7-2.4l2.5-3h1.5v3.1h.7v1.2h-.7v1.1h-1.5v-1.1h-2.5v-1.3zm1.2.1h1.3v-1.7l-1.3 1.7zm6.7 2.3c0-.6.2-1.1.6-1.5.9-.9 2.3-1.3 2.3-2.2 0-.3-.3-.5-.7-.5-.6 0-.8.5-.8 1h-1.4c0-1.6.9-2.2 2.3-2.2 1.1 0 2.2.5 2.2 1.8 0 1-.7 1.3-1.4 1.8-.4.2-.8.5-1.1.7h2.5v1.3h-4.5zm7.3-5.5c1.4 0 2.3.9 2.3 2.7 0 1.5-.6 2.9-2.3 2.9-1.8 0-2.4-1.3-2.4-2.9 0-1.9 1.1-2.7 2.4-2.7m.7 2.8c0-.6 0-1.6-.8-1.6-.7 0-.7 1.1-.7 1.6 0 .9.1 1.6.8 1.6.6 0 .7-.7.7-1.6m2.3 2.7c0-.6.2-1.1.7-1.5.9-.9 2.3-1.3 2.3-2.2 0-.3-.3-.5-.7-.5-.6 0-.8.5-.8 1h-1.4c0-1.6.9-2.2 2.3-2.2 1.1 0 2.2.5 2.2 1.8 0 1-.7 1.3-1.4 1.8-.4.2-.8.5-1.1.7h2.5v1.3H138zm7.3-5.5c1.4 0 2.3.9 2.3 2.7 0 1.5-.6 2.9-2.3 2.9-1.8 0-2.4-1.3-2.4-2.9 0-1.9 1.1-2.7 2.4-2.7m.7 2.8c0-.6 0-1.6-.8-1.6-.7 0-.7 1.1-.7 1.6 0 .9.1 1.6.8 1.6.5 0 .7-.7.7-1.6" fill="#fff"/></svg>