<svg id="Livello_1" xmlns="http://www.w3.org/2000/svg" width="172" height="49" viewBox="0 0 172 49"><style>.st0{fill:#fff}.st1{fill:none}.st2{enable-background:new}</style><path class="st0" d="M7.8 36.2c-.2.3-.4.4-.8.2l.2-.3.3-.5c.2-.1.2-.1.3 0 .2 0 .2.2 0 .6.1 0 .1 0 0 0m.5.3c.1-.1.1-.3.1-.3 0-.3-.1-.6-.4-.7l-.4-.2c-.2-.1-.3-.2-.4-.3H7c.2.1.1.3 0 .6l-.3.5-.5.7c-.2.3-.3.4-.5.3l-.1.1.9.8.1-.1c-.3-.2-.2-.3 0-.6l.3-.7.2.1c.4.1.9.2 1.2-.2m4.2-21.9c.5-.6 1-1.2 1.5-1.7 1.4-1.3 3.1-2.2 5-2.8l-.2 2.8-.2 3s-.1.1-.2.1l-5.9-1.4zm-.4.1c0 .2.1.3.4.4l5.9 1.3h.2c.2 0 .4-.3.4-.5l.2-3 .2-2.8c0-.1-.1-.3-.2-.3s-.2-.1-.4 0c-2.1.6-3.9 1.7-5.4 3.2-.5.4-.9 1-1.3 1.5v.2m6.2 28c-.2 0-.3.1-.4.3.3 0 .4.1.7 0 .5-.4.8-1.1 1.4-1.3v-.1c-.2 0-.4.1-.7.3-.2.1-.5.9-1 .8m-7.6-4.4l.1-.3.2-.5h.1c.2.1.2.3.1.6 0 .1-.1.1-.1.2s-.2.1-.4 0m-.4 1.3c-.2-.1-.1-.3 0-.5V39l.3-.5h.1c.3.1.3.3.1.7-.1 0-.1.1-.1.2-.1.2-.3.3-.4.2m1.1-2.4l-.9-.3-.1.1c.3.1.2.3.1.6h-.1l-.6 1.2c-.2.3-.2.5-.5.3v.1l.7.4c.3.1.8.3 1.1 0 .1-.1.1-.2.2-.3.2-.5-.1-.9-.3-1 .1 0 .4 0 .6-.1.1 0 .1-.1.2-.3.3-.2-.1-.6-.4-.7"/><path class="st0" d="M13.4 39.5c-.2 0-.3-.1-.3-.3V39l-.1-.6h.1c.3 0 .5.1.6.5v.2c-.1.2-.1.4-.3.4m-.7-2.3c0-.1.1-.1.1-.1.2 0 .4.1.5.4v.2c0 .2-.1.3-.3.4l-.1-.3-.2-.6zm.6 1c.1-.1.3-.2.4-.4v-.3c-.1-.6-.6-.6-1-.5l-.9.2v.2c.3-.1.3.1.4.4l.3 1.3c0 .3.1.5-.2.6v.1l.9-.2c.3 0 .8-.2.9-.6v-.3c-.1-.4-.5-.5-.8-.5m-2.9-1.3l-.6-.5-.1.1c.1 0 .2.1.1.3-.1.1-.3.3-.5.4l-.8.8.5-1.4s0-.2.1-.3.2-.1.3 0l.1-.1-.9-.5-.1.1c.2.2.2.2 0 .6l-.7 2.2.1.1 1.9-1.6c.2-.2.4-.3.6-.2m-4.5-.4l-.1-.1c-.3.4-.5.4-.8.3-.3-.2-.1-.4 0-.7l.3-.4c.2.2.3.3.1.6h.1l.6-1H6c-.2.3-.4.3-.6.2l.4-.6c0-.1.1-.2.1-.2s.2 0 .3.1c.2.1.3.3.1.7h.1l.4-.6-1.4-.9v.1c.2.1.1.3 0 .6l-.8 1.2c-.2.3-.3.5-.6.3v.1l1.5.9.2-.3.2-.3z"/><path class="st0" d="M15.9 38.4c0 .5-.1.6-.5.7-.3 0-.4-.2-.5-.6l-.3-1.2c-.1-.3-.1-.5.2-.5v-.1l-1.1.2v.1c.3 0 .3.1.4.5l.3 1.4c0 .3.1.5-.2.5v.2l1.8-.3-.1-.7v-.2zm4.2-1l.1-.3.1-.6.3.6.1.3h-.6zm1.3.4l-.3-.6-.6-1.5h-.1l-.3 1.5-.1.6c-.1.3-.1.6-.4.7l.1.1h.7v-.2c-.1 0-.2 0-.3-.2v-.5h.7l.2.5c0 .2-.2.2-.3.2v.1h1v-.1c-.1 0-.2 0-.2-.1 0-.2-.1-.4-.1-.5m.1-25.9l1.7 5.4h5.9l-4.9 3.2 2 5.4-4.7-3.4-4.8 3.5 2-5.4-4.9-3.1h5.9l1.8-5.6zm-9.3 4.9l6 3.8-2.4 6.7 5.8-4.3 5.8 4.3-2.5-6.7 6-3.8h-7.2l-2.1-6.7-2.1 6.7h-7.3zm6.9 20.9c0 .4-.1.9-.5 1-.5 0-.7-.5-.8-1.2-.1-.5 0-1.3.4-1.3.3 0 .6.2.7.6h.1l-.1-.9h-.1v.3c-.2-.2-.4-.2-.6-.2-.6.1-1 .7-.9 1.6s.6 1.3 1.3 1.3c.2 0 .5-.2.6-.4l.1.2h.1l-.1-1h-.2zm-2 .6l-.3-1.4c0-.3-.1-.5.2-.6l-.1-.1-1.1.2v.2c.3-.1.3.1.4.4l.3 1.4c.1.3.1.5-.2.6l.1.1 1.1-.2-.1-.1c-.2 0-.3-.2-.3-.5"/><path class="st0" d="M23.8 9.9c1.8.5 3.4 1.5 4.8 2.7.6.5 1.1 1.2 1.6 1.8l-5.9 1.4s-.1 0-.2-.1l-.2-3.1-.1-2.7v6c.1.2.4.3.6.3l5.9-1.4c.1 0 .2-.2.3-.3.1-.1.1-.3 0-.3-.4-.5-.9-1.1-1.3-1.6-1.5-1.4-3.3-2.5-5.3-3.1h-.3c-.2 0-.3.2-.3.4l.2 2.7.3 3.1-.1-5.8zm-2.3 19.4c-1.4 0-2.8-.3-4.1-.7l4-4.4h.2l3.9 4.5c-1.2.4-2.5.6-4 .6M22 24s-.1-.1-.2-.1-.2-.1-.3 0c-.2 0-.3 0-.4.2l-4 4.4c-.2.4.1.6.2.6 1.3.4 2.7.6 4.2.7 1.4 0 2.7-.2 4.1-.6.1 0 .6-.3.2-.7L22 24zm12.5 13.9l-.1-.5-.1-.4.4.4.3.2-.5.3zm1.6 0c-.1 0-.2-.2-.3-.3l-.4-.3-1.4-1.2-.2.1.3 1.1.3 1c.1.3.3.6 0 .9l.1.1.6-.4v-.1c-.1 0-.2.1-.3-.1l-.2-.4.6-.3.4.4c.1.1 0 .2-.1.3v.1l.9-.5-.1-.3c0-.1-.1-.1-.2-.1m-.3-29.1c-.1.2 0 .3 0 .5.1.1.1.3.3.2 0-.2-.1-.3-.1-.4-.1-.1 0-.3-.2-.3M25.7 36.1c.3 0 .2.2.1.6l-.3 1.4c-.1.3-.1.5-.4.5v.1l1.1.2v-.2c-.3 0-.2-.2-.2-.5l.3-1.4c.1-.3.1-.5.4-.4v-.2l-1-.2v.1zm11.2-1.4c0-.1 0-.2.1-.2l-.1-.1-.6.3v.1c.3-.1.5.1.7.3l.7 1-2.2-1-.5.4.1.1c.1-.1.2 0 .4 0l1 1.4c.2.3.3.4.1.6v.1l.6-.4-.1-.1c-.2.2-.4-.1-.6-.3l-.8-1.1 2.5 1.1.1-.1-1.2-1.7c0-.1-.2-.3-.2-.4"/><path class="st0" d="M33.3 29.6c.1-.2.4-.4.6-.7 0 .2-.1.5-.3.6l-.3.3-.1-.1c0 .1 0-.1.1-.1m2.3-1.9c-.1.2-.2.3-.4.5-.1 0-.1-.2-.1-.5s.1-.9.3-1c.4.6.2 1 .2 1m.2 1.2c-.1-.3.1-.6.2-1v-.2s0 .1.1.1v.1c.3.3 0 .8-.3 1m1.2.2c-.2.3-.6.5-.6.9 0 .1-.2.2-.4.1-.1 0-.2-.2-.4-.2-.1.4-.6.3-.9.5-.6.5-.7-.3-.7-.2-.4.4-.7 1-1.1 1.3-.2.3-.4.9-.5 1-.1 0-.2.2-.2.2 0 .1-.1.2-.3.2-.1 0-.1-.2-.3-.1-.1.2-.2 0-.4 0-.2.2-.9 1.1-1.4 1.1-.1 0-.3 0-.4-.1-.2-.1-.6.6-.8.6-.1 0 0 .1 0 .1h.3c0 .2-.3.4-.5.5 0 0-.3.1-.5.2 0 0-.7 0-1.5-.3v-.3l.8-.4c.1.2.2.3.4.4.2.1.2 0 .2-.1 0-.3-.7-.4-.1-.7.3-.2.3 0 .9-.1.4-.1.8-.3 1.1-.5 0 0 .4-.2 1.2-1.5 0 0 .4-.6 3.3-5.8 0 0 .7-.6 1.8-3.1.1-.2.1.2.3.1.2-.3-.1-.4-.2-.6-.1-.3-.2-.7-.1-1.1 0-.1.2 0 .3.2.1.3.1.5.2.9.5 0 .7-2.6.7-3.1V19c-.2-.3-.9-.4-.9-.7.5-.1-.2-1.1-.3-.6 0 .1.1.2 0 .3-.8.1-.6-.6-.8-.9-.1-.2-.5 0-.6-.3 0-.2 0-.3-.2-.4-.2 0-.5.1-.5-.3 0-.3.9.4.7-.3-.3-.6-1-.2-1.1-.3-.2-.3-.9-1.4-.9-1.8 0-.2.4.3.4 0s-.4-.6-.5-.6c-.4.2-.6-.3-.6-.4v-.5c-.1-.2-.4-.2-.4-.4-.1-.1-.2-.3 0-.4 1.1-.3 0-.7.2-1 .2-.2.7.1 1-.3.2-.2.3-.1.4 0 .3.3-.1 1 .4 1 .2 0 .3-.3.6-.1.3.3.3.6.4 1.1.2.6-.2.7-.2.9 0 0-.1.1-.1.2s0 .3.1.4c.2-.1.4-.2.5-.4.1-.1.2-.1.2 0 .1.1 0 .4.1.5.8.7 0 1.3 0 1.3-.1-.2 0-.5-.2-.6-.1.3.1.7 0 1.1 0 0-.1-.5-1.4-2.1 0-.3-.1-.7-.1-1 0 0 0-.1-.1 0-.1 0-.1.1-.1.1-.2-.4-.3-1-.6-1.4l-.1.1c.2.6.5 1.3.7 1.9h-.1l-.5-.5h-.1c.1.3.5.6.8 1l1.1 1.5c-.2-.1-.4-.2-.7-.2v.1c.8.4 1.4 1.3 1.6 2-.1.1-.2-.1-.3 0 0 .2.5.5.9.6v-.2c-.3-.6-.8-1.3-.7-2 .1.1.3.9.6.1.2 0 .1.5.2.6.3.3.4.3.3.7-.1.2-.2.3-.1.7.1.3.7.2.5.6 0 .1-.1.3-.1.4.2.1.3.3.5.4.2-.2-.1-.5-.1-.7.2-.3 0-.6-.1-1-.2-.1 0-.3 0-.5-.1.4.7.4.3.9.1.4.4.9.3 1.3.1.2.2 0 .3-.1.2-.2.4-.6.2-.9-.1 0-.2-.2-.3-.2 0-.3-.2-.4-.2-.7.1 0 .2 0 .2-.1 0-.5-.7-.6-.8-1.2 0-.3-.4-.5-.5-.9.2-.1.7 0 .5-.3-.5-.4-1.1-1-1.3-1.6 0 0-.1-.3 0-.4.2 0 .3 0 .3-.2 0-.4-.4-.6-.7-.7-.3-.3-.3-.7-.5-1.2.2-.4.3-.9.5-1.3 0-.1-.5-.7.5-.4.1 0 .5-.1.5-.3.3.1.2 1.3.5 1.2.2 0 .1-.3.4-.2 0 0 0 .7.5 1.3 0 .3-.1.6 0 1 0 0 .2.2.4-.1 0 1.3.3 1.5.4 1.5-.2.3-1 1.6-.1 1.7.2 0 0-.6.2-.7.1-.1.4.2.5.9 0 .5-1 1.1-.3 1.7 0-.1.1-.1.1-.2.2-.5.2-.2.2 0-.5.2-.4.7-.4 1.1-.1.3-.8.4-.7.9 0 .4-.6.5-.7.9 0 0-.9 5.2-1.7 5.8-.2.2-.9 1.5-1.5 2.1-.1.1-.3 0-.5.1v.3c-.1.2-.6 1.1-.9 1.2-.1.2-.2.4-.4.7-.1.3-1 1.3-1 1.9 0 1.2.1 1.1.1 1.1.3-.1.2-.5.3-.9.6-.6 1.1-1.3 1.7-1.8.1-.1.1-.2.2-.3.3-.2.4-1.4.5-1.6 0 .1.2 0 .3 0 0 .4.2 1 0 1.3h-.4c.1.1.2.1.2.3-.1.1-.2.3-.3.4.1.3.2 0 .3 0 .3.1.4-.3.7 0 .3-.4.9-.7 1-1.2.3-.3.3-.6.5-1 .1 0 .1 0 .1-.1.3-.3.5-.6 1-.7 0 0 .1-.1.1-.2-.2-.2-.4.2-.7.2.2-.6.6-1.3.7-1.9.2-.5.7-.7 1.2-1 .1-.1.1-.2.1-.3-.2.3-.6.3-.9.4-.1-.9 1.5-2.2 1.5-2.8h-.2c-.3.3-.3.9-.8 1 .3-1.7.6-2.5.6-2.5l-.1-.1c-.3-.1-.6 2.3-.7 2.2-.4-.2-.1-.9-.4-1.2-.1 0-.1.1-.1.1s-.2.4.2 1.3c-.1.9-.4 1.7-.6 2.6l.5-.1c-.1-.3-.1-.6-.2-.9 0-.3 0-.5-.1-.7-.4.3-.1.9 0 1.3 0 .7-.1 1.4-.3 1.9-.1.1 0 .3 0 .4-.1.3-.3.6-.5.9-.6-.5 0-1.8 0-1.9 0-.3-.3-.2-.4-.5-.1-.2.4-.3.2-.6 0-.2.4-.3.3-.6-.2-.6.5-1.4.5-2-.1-.2.3.1.4-.1 0-.3-.2-.9.1-1.1.1-.3-.1-.6.1-1 .2-.2.4-.2.5-.1.1.2 0 .6.3.5.2-.1.1-1.1.1-1.1s.2-.2.5-.2c.1 0 .1.3.5.4.3.2.8.2.8.3 0 .3-.6.5-.2.9 0 0 .4 0 .4.2.1.3-.4.5-.3.9 0 .5-.5.6-.7 1 0 .1.1.2.3.2.1 0 .2 0 .2.1 0 .2 0 .4-.1.6-.1.1-.4.1-.4.3-.1.5-.3 1.1-.7 1.4 0 0-.9.1-.5.5.1.1.5-.2.5 0-1 1.6-1.3 2-1.3 2-.3.4-1 .2-1 .9.1.2.3.4.2.5m0 1.3c.3.5.3 1 .3 1v.3c0 .1-.4.1-.4.1 0-.1.2-.2 0-.3-.1 0-.3.2-.4.1-.1-.1.2-.2.2-.3 0-.1-.7.4-.7.3 0-.2.8-.5.6-.6-.1-.2-.7.4-.9.4-.1-.3.3-.9 1.3-1m1.3 1.4c0 .3-1.9 1-1.9 1-.1 0 0 .1-.1.2 0 .1.2.1.2.2s-.2.1-.1.2c.2.2-.1.3-.2.3s-.3-.6-.4-.7c0 0-.1-.1-.1-.2-.1-.1-.1-.1 0-.2.4 0 .8-.1 1.1-.1.2-.3 1.2-.7 1.5-.7m-7.9 2.5c0-.3 1.8-.7 2-.9.4-.2.6-.4.8-.7.2-.4.2-.7.3-1 .2-.3.8-.7 1.6-1 .1 0 .5-.2.2.3-.2.2-.2.5-.3.9 0 .1.2.4.4.7 0 .1.1.2.2.3.2.3.3.6.3.9-.2.2-3 1.9-3.6 2-.5.1-1.1 0-1.7-.1l-.2-.6c-.1-.2-.1-.5 0-.8m-1.1.9c.1-.2.4-.3.6-.3.1 0 .2.1.2.3s0 .5-.1.6c-.1 0-.3 0-.4-.1 0 0 .1-.3-.3-.2-.1-.1-.1-.2 0-.3m9.6-3.4s.1-.3.8 0c0 .1.1.5.3 1 0 0 .3 1.1.8 2.5.1.3-.1.5-.2.7-1 .9-4.9 3-5.3 3.3-.6.4-1.7.6-2.9.6-3 .1-7.1-.5-7.7-1 .8-1 .5-1.9.5-2.1-.4-.5-.8-1.5-1-1.6l.1-.1c5.8 1.2 8 1.2 8.1 1.1.8 0 4.8-2.5 6.3-3.5.6-.3.9-.6.8-.9-.3-.1-.5 0-.6 0m-9.5 9.5c.1.1.3.4.5.7s.4.6.6.6c.1-.1-.3-.4.1-.5.5-.1.5 1.2 1.8.7.3.3 1 .2 1.4.3l-.1.2c-.9-.1-1.9 0-2.7.4-.1.1 0 .3-.1.4-.2-.2 0-.5.1-.7.1-.2.6-.1.3-.3 0 0-.2-.2-1 .6-.1-.1-.1-.3-.2-.4-.6.1-.8-.6-1.4-.6-.1-.1.1-.2 0-.3-.3-.2-.6-.3-.9-.4-1-.3-.2-.6-.5-.9-1.7-.5-1.5-.9-1.5-.9.1-.3.3.1.5-.1-.1-.1-.2-.1-.1-.3.2-.1.8.4.9.4.2-.1-.1-.3.1-.3.5-.1 1.8 1.4 2.2 1.5.1 0 0 0 0-.1-.2-.1-.1-.1 0 0M24 38.7c-.3-.4.3-1.5-.2-1.5-.1 0 0 .2 0 .3-.2.4-.2 1-.6 1.3-.1 0-.1-.1-.1-.2.1-.4.3-.9.3-1.3-.1 0-.2-.2-.2.3 0 .3-.4.6-.4 1 0 .1-.3.3-.5.3 0-.5.3-.9.3-1.4.2-.3.2.1.2.1.1-.1.1-1.8-.5-2.1-.1.1.4.9.2 1.5h-.2c-.2-1.1-.5-1.6-.8-1.9-.6-.6-1.2-.3-1.4-.3.1-.2.3-.3.5-.3s.5 0 .9.2c.4.1.8.4 1 .4 0 0 .1-.1 0-.2-.1 0-.1-.1-.1-.2.7-.3 2.5 2.5 2.1 3.3 0 .4-.1.6-.5.7M4.4 33.9s-.1.1 0 0c-.4.5-.6.5-.8.4h-.1l.2-.3.2-.3c0-.1.2-.4.2-.4h.2c.2.2.2.4.1.6m17.2 5c-1.3.1-8.8 1.4-9.5 1.4-.9.1-1.6 0-2.1-.2-.6-.2-6.7-3.4-7.4-4.6l-.2-.4.1.2.4.3.1-.1c-.3-.1-.2-.3 0-.6l.4-.4c.1 0 0 .3 0 .5l-.1 1 .5.3.1-.1c-.1 0-.1-.1-.1-.2l.1-1.3c.3.1.6 0 .8-.3.1-.1.1-.2.1-.3v-.3c0-.2-.2-.4-.3-.4l-.4-.4-.4-.3-.1.1c.2.1.1.3-.1.6l-.4.5-.5.6c-.1.1-.2.2-.2.3v-.2c.5-.9.7-1.8.9-2.7.1-.2.3-.2.4-.2-.1.1-.1.2 0 .3s1.3.9 2.6 1.6c2.3 1.3 5.1 2.9 5.2 2.8.4 0 2.4-.3 4.6-.7 2.1-.3 4.4-.6 4.9-.6.2 0 .4.3.6.6.3.7.6 1.9.7 2.5-.1.8-.7.7-.7.7m-6 3.4c-.1 0 0 .1-.1.1-.1.3-.5.7-.9.9-.3 0-.5-.2-.6 0 0 .3.3.1.4.3.2.5-.3.7-.4.9.1-1-.9-1.1-1.3-1.2 0 0-.9.3-.8 0 0-.3.8-.5 1.3-.7.1 0 .1 0 .2-.1.3-.7 1.1-1 1.8-1.3.2.1.7.3 1.1-.3-.2-.2.1-.3.2-.3s0 .1 0 .2c.3 0 .4-.3.6-.3.1 0 .1.1.2.1.1.1.2-.1.3 0 .2.1-1.1 1.4-2 1.7M5.3 31.9c.2.2.6.3 1.1.5.3 0 .6.1 1 .1-.1.3-.4 1.1-.5 1.2-.2 0-.4-.1-.5-.2l-.6-.3c-.1-.1.2-.2 0-.3 0-.1.1-.1.1-.1.3.1.3-.1.2-.1-.6-.3-1.1-.5-1.7-.9.3 0 .6.1.9.1m.8-1.5c.1 0 .2 0 .2.1.3.1.4.2.6.4 0 .1-.2-.1-.4 0-.1.1.6.5.5.7 0 0-.4-.3-.4-.2-.1.2-.1.3-.2.6h-.1c-.2 0-.4 0-.7-.1 0-.5.3-1.1.5-1.5m7.7 4.5c.1 0 .4.2.6.3.2.2.4.3.3.3.1.1-1 .3-1.3.3.1-.2.2-.4.2-.7.1 0 .1 0 .2-.2m-1.1-1.5c-.2-.1-.3-.2-.5-.3.1-.2 0-.2-.2-.2 0 .2-.2.3-.4.3-.1 0-.3 0-.3-.1.1 0 .3 0 .3-.2 0-.1 0-.3-.1-.3-.2.1-.1.3-.4.4-.8-.4-1.9-2-2.1-2.3-.2-.2-.4 0-.7-.1-.2 0-1.8-1.6-2.2-2-3.2-3.2-3.3-4.7-3.3-6.2 0-.4-.1-1-.1-1.4v-.4c.1-.2.6.3.7.4.8.9 1.7 3.1 2.1 4.2.1.1.1.3.2.4.1.4.2.7.3 1.2-.2-.1-.3-.4-.5-.6 0-.1-.1 0-.2 0-.1-.2-.2-.4-.3-.5-.8-1.4-1.4-2.9-1.7-4.4l-.1-.1c-.2 0 .1 1.3.7 2.6-.1 0-.2-.2-.4-.1 0 .5 1.2 1.5 1.3 2v.1c.7 1 1.2 1.9 1.8 2.9.2.3.6.5.7.9.1.1.3 0 .3.2.2.3.3.5.6.6.2 0 .3.1.3-.1s-.1-.3-.1-.5c.3.2.5.3.6.3l.4-.1c.1.2-.1.4-.1.6.4.4 1.4 1.8 1.5 1.6.3-.3.5.4.7 0 .1-.2 0-.3-.2-.4-.6.2-.6-.6-.9-.9-.3-.6-.4-1.3-.9-1.8-.5-.6-.9-1.4-1.5-1.9-.1-.1 0-.3.2-.3.3 0 .2.6.6.6.2 0 .1-.5.3-.6-.1.6.5 2 1.4 2.6.1.1.2.2.2.3s-.1 0-.2 0c-.1.2.2.3.2.4 0 1 2.8 3.9 5 4.3l.2.2c.2.1.5.1.4.4.1 0 .2.1.2.3-.3.1-.5.1-.7 0-.3 0-.5-.1-.7-.2 0-.1-2.2-1.7-2.4-1.8M6 25c.1 0 .3.3.5.6l.3.6v.6h-.1c-.1-.4-.3-.9-.4-1.3-.1-.1-.2-.3-.3-.5m-.4-9c0 .4.1.9-.2 1.3-.2.3 0 .7-.3 1.1 0-.6.1-1.6.3-2.3 0 0 .1-.3.8-2.3.3.5-.2 1.7-.4 1.8-.1.1-.2.2-.2.4M5 20.5c-.4.1-.7-.7-.7-.7-.9-2.9-1.1-6.5.7-9.1 0 0 .9-1.8 1.6-2.5.1 0 .1.1.1.2.1.6-.2 2.1-.3 2.2-.2.9-1.1 4.5-1.4 5.4-.1.4-.2.7-.2 1.2-.2-.2 0-.4 0-.6-.1-1.3 1-5.2 1.1-5.9.2-.5.4-1.1.5-1.7h-.1c-.1.5-.4 1.1-.6 1.6-.7 1.8-1.4 3.7-1.3 5.8-.3 1.1-.2 2.3.2 3.3.9.9.5-.5.7-1 0-.3.4-.6.3-1.1.1-.6.2-1.1.5-1.6-.1.1-.1 0-.2-.1v-.3c.4-.2.6-1.5.9-1.5 0-.1.1-.3 0-.4-.1 0-.3.1-.4-.1.1-.5 0-1.1.5-1.4 0 0 0-.3.7-1 0 .3-1.1 1.6-.9 2.1 0 .1.1 0 .2 0 .2-.1.2-.5.5-.4 0 .3-.6.5-.1.7.8-.4 1-1.3 1-1.3.2-.7.6-1.3 1-1.7 1-1.6 2.2-2.3 3-2.9.1-.1.3-.1.3.1 0 .1-.1.5-.3.2-.6.4-1.7 1.9-2.3 2.6 0 0-.3.1-1.8 2.5-.2.3-.6.7-1 1-.1 0-.2-.1-.2 0s-.7 1.8-1.2 3.4c-.2.9-.4 1.6-.5 2.2 0 .2-.1.3.1.5.5-.3.6-.8.9-1.2h.1c0 .4-.1 1.5-.8 1.4v.5c0 .5.1 1.2.4 1.6 0 .1.4 2.1 1 2.8.1.1.1.2 0 .3 0 0 0 .1-.1.1-.1-.1-.2-.1-.2-.2-.3-.3-.5-.9-.7-1.3 0-.1.1-.2.1-.3-.2-.2-.3-.2-.4-.4-.1-.2.3-.1.2-.3-.1-.2-.6 0-.6-.3 0-.6-.1-1.3-.3-1.9.1-.2 0-.4 0-.5M9.4 6c.7-.9 1.2-1.3 1.6-1.5 0 0 .3-.2.5-.2v.2c0 .4-.2 1-.4 1.5-.7 1.7-2.2 3.7-3 4.8l-.4.4c0-.1.1-.3.1-.4.3-1.2 1.7-3.5 2.6-4.8.1-.2.3-.4.5-.6.2-.3.5-.6.3-.7-.2 0-.4.3-.5.5-.2.1-.5.4-.7.8-1 1.4-2.1 3.6-2.6 4.7-.1.2-.1.4-.2.5-.1.2-.2.3-.3.5.1-.3.2-.6.3-1C7.9 8.4 8.7 6.9 9.4 6m3.9-1.5c2.1-1.9 5-2.6 5.2-2.5v.1c-.7.7-1.5 1.5-2.4 2-.2.1-.4.3-.6.3-.6.3-1.5.7-1.7.9 0 0-.1 0-.1-.1 0 0 .4-.3 1-.7.8-.5 3-1.8 3.1-2-1.2.5-2.4 1.3-3.5 2-.2.2-.5.3-.8.5 0 0 0-.1-.1-.1s-.7.6-1.1 1.1c-.1.2-.3.3-.4.4 0-.1.1-.3.2-.4 0-.2.5-1 1.2-1.5m-1.5 2.3c0-.2.4-.5.8-.9s.7-.6.8-.5c0 .1-.1.3-.4.5-.2.2-.6.4-.7.5 0 .2-.5.5-.5.4m.4.6c-.1 0-.9.6-.9.5 0-.1 1.2-.9.9-.5m-1.1.7c-.7.6-1.6 1.7-2.2 2.6 0 0-.6.9-1.1 1.6l-.1-.1c0-.1.4-.7 1-1.5.9-1.3 2.2-3 2.4-3.4.1-.1.3-.1.4-.2-.1.3-.4.6-.7 1 .2-.1.2-.1.3 0m8.2-4.6c-.1.3-.8.9-.9 1-.5.4-1.5 1.1-2.3 1.5-.7.3-1.2.6-1.4.6-.1 0-.6-.1.2-.6 0 0 .1 0 .2-.1.5-.2 1.7-1 2.6-1.5.5-.3 1-.5 1.2-.6v-.2c-.4.1-1 .4-1.7.7-.9.4-1.8 1-2.7 1.5-.8.4-1.4.9-1.8 1.2l-.1.1c0 .1-.2.1-.3 0 .1-.2.3-.2.5-.3.2-.2.6-.5 1-.9.8-.6 1.7-1.2 2.4-1.5.5-.2 3-1.3 3.1-.9m-6.2 3.8c0-.1 0-.2.1-.3.3-.4.9-.7.8-.3 0 .1-.1.2-.3.2-.2.3-.5.4-.6.4m-1.9 11.6l4.3 1.6 1.4.5c.1 0 .1.1.1.2l-1.4 2.2-1.7 2.7h-.1c-1.2-1.6-2-3.4-2.3-5.2-.2-.6-.3-1.3-.3-2m-2.7 7c.1-.1.2-.2.2-.3l.3-.3v.3c0 .3-.1.5-.2 1-.2.2-.5-.5-.3-.7m-.4-.3s.1-.3.1-.9l.5-1c.7.1-.2 1.6-.4 1.8l-.2.2c-.1.1-.1 0 0-.1m-.8 0c.2-.9.5-1.7.7-2-.1-.3.7-1.6 1-1.9.1 1.5-1 2.5-1.3 3.7v.1c-.1.7-.5 1.6-.2 2.3.1.2.5.2.7-.1.3.4.1 1 .2 1.5h-.1c-.3 0-.3-.9-.4-1-.1 0-.1.2-.4 0-.5-.4-.5-1.5-.2-2.6m.4-2.6c0 .2 0 .4-.2.4-.1 0-.2 0-.2-.1-.1-.4.4-.4.4-.3m.7-5.6l-.1.7-1 .2v1.9s-.3-.1-.5-.1c-.1-.6 0-1 0-1 .1-.4.5-.9 1-1.3.2-.1.3-.3.5-.6.1-.1.2-.3.3-.4l-.2.6zm2.3-6.6c-.2.4-.7 1-1.2 1.1.3-.5.8-1.1.8-1.1.6-.7 1.3-1.7 1.8-2.2l.1-.1c.3.2-.5 1.6-1.5 2.3m1.3-.1l-.3.2v-.2c.1-.3.6-.6.7-.9l.1.3-.5.6zm-5.1 6.7c.1-2.3 3.8-6.4 4.5-6.4.6 0-1.3 3.9-2.6 5-.4.5-.9 1-1.3 1.5 0 .1-.1.3-.2.4 0 0-.1.1-.2.1 0-.1 0-.3.2-.5.6-1.5 3-4.6 3.8-5.8 0 0 .1-.2-.1-.1 0 0-1.6 1.4-3.9 5.9l-.3.6-.1.1c0-.3 0-.6.2-.8m-.7 0c.3-1.8 1.2-3.2 1.6-3.3 0 .3-.2.5-.4.7-.3.9-.6 1.7-.9 2.6-.1.4-.2 1-.3 1.4-.1-.6 0-1 0-1.4M6 21c.2 0 .2 0 .3-.1.1-.1.1-.2.1-.3.4 0 1 0 1.2.2.2.4.2.7.2 1.2.1.4-1.1.6-1.1 1 0 .5.4 1 .2 1.5-.1-.5-.6-1.1-.6-1.6C6 22 6 21.3 6 21m4.5-.1c.1-.3.1-.6 0-.7V20s-.1.3-.2.9c-.2 1.5-.3 4.6-.2 6.2v1h-.2c-.2-.3-.1-.6-.2-1s-.2-1-.3-1.5v-.3c-.4-.6-.1-2.9.4-4.4.2-.7.5-1.3.7-1.3.3 0 .5.6.6 1.3.2 1.2 0 2.9-.3 3.2-.1.5-.1 1.2-.2 1.7 0 .2.1.3-.1.3-.1 0-.1-.2 0-.3-.5-.3-.1-3.4 0-4.9m8.4 14s0 .1-.1.2c0 0-.1 0-1-.1-.4-.1-1.1-.6-1.3-.5-.1 0-.2 0-.3-.1-.6-.2-1.4-.7-1.6-1-.1 0 .2-.6 1.1-.5.2 0 .5.1.5.1.5.3 1.9.8 2.7 1.9M29 32.3c-.4 0-2.1.6-3.1 1.1-.4.1-.7.3-.8.3-.6.2-.6.6-1.1 1-.4 0-.7.1-1-.2-.2-.3-1-.2-1.1-.1-.2.1-.3 0-.5 0-.1-.1-.3-.2-.5-.2-.4 0-1 0-1.2.4-.2.1-.8.2-1.1-.3-.6-.8-1.8-1.3-2.6-1.7-.3-.1-.6-.2-.7-.2-.3 0-.8 0-1.2.7-2.5-1.4-2.8-3.5-2.8-3.5-.6-1.1-.6-1.2-.6-1.2l1-.3.9.9-.4.9 2 1.4.8-.6 1 .5v1l2.4.7.5-.9 1.2.2.2 1h2.5l.2-1 1.2-.2.5.9 2.4-.7v-1l1-.5.8.6 2-1.4-.4-.9.9-.9.8.3s.2.1-.7 1.1c0 0-.4 1.9-1.9 3.5-.2-.3-.3-.7-.6-.7m-4.4 2.5c0-.3.3-.5.5-.6s1-.4 1.7-.7c.7-.2 2.3-1.2 2.4-.3 0 .1 0 .3-.1.3H29c-.4 0-.8.3-1.3.2-.3.1-1.5 1.2-2 1.3-.2.1-.5.1-.4-.1 0-.6-.6-.1-.7-.1M36 19.3c0 .1 0 .6-.3.6v-1.6s.5 0 .2.4c.1.4.1.6.1.6m-1.9 5.4c0-.3 0-.5.2-.7 0-.1 0-.1-.1-.2-.1 0-.3.5-.3.6-.2-.3 0-.7-.2-1.1v-.5c.1-.7.2-1.5-.2-2 0-.2-.2-1-.2-1.2-.1 0-.1 0-.1.1 0 .2.2 1.1.2 1.3-.2-.1-.5-.2-.7-.1-.1-.2-.2-.4-.2-.6l-.1-.5c.3-.2.4-.4.7-.6.2 0 .3.3.5.2.1 0 .3-.2.3 0 .1.3-.1.6-.1 1v.1l.3-.1c.1.1.1.2.1.3-.2.5.5 1.1.1 1.4-.4.3-.2.9-.2 1 .3 0 .4-.5.7-.3.1.1.5 1.6-.1 1.9-.4.3-.2.9-.6 1.2-.2-.4 0-1.1 0-1.2m-.7-2.7c.1 0 0 .4 0 .9-.1.1-.1.2-.1.2-.1 0-.1-.1-.1-.2 0-.2 0-.9.2-.9m-1.7-1.7c-.2 2-1.1 3.9-2.3 5.7h-.1l-3.2-5v-.2l3.6-1.4 2-.7v.1c.1.4.1.9 0 1.5m.7 1.9c0-.1.2-.1.1-.2s0-.2-.4-.3c-.3-.1-.2-.5-.1-.6.1.1.3.2.5.1.3-.1.5.3.4.4-.2.3.1.6-.2.9v.4c.1.3.1.6-.1.7-.3-.2.1-.5-.2-.7-.1-.3 0-.6 0-.7m1.3 3.2v.3c-.5-.2-.4-.5-.9-.5-.1 0-.1.1 0 .1.4.1.8.5.9 1-.1.1-.2.2-.4.2-.3-.6-1-.4-1-.6 0-.3 0-.6.1-1 .1-.6.9-1 1-1.3.2.2.2 1.2.2 1.4-.1 0-.1.2.1.4m2.8-4.3c-.1.1-.5-.1-.7-.1-.5.4-.3 1-.2 1.4-.2-.1-.6-.3-.7-.4-.1-.4.1-1 .3-1.3s1.4.3 1.2-1.4v-.1l.1.1c.4.5.1 1.3 0 1.8M14.1 8.5l.7.5 1.7-.9v-.8l1.5-.4.5.7 1.9-.3.2-.9h1.6l.2.9 1.9.3.7-.7 1.5.5v.9l1.7.9.7-.5 1.3 1-.4.9 1.1 1c.2.9.4 1.4.4 1.4s.3.9 1 .7l-.4.3c.9 2.6 2.1 3.2 2.1 3.2l.2 1.5.9.2v1.6s-.5.4-.6 1.6c-.3-1.3-.4-1.5-.4-1.5-.2-1.9-1.3-1.6-1.8-1.4 0 0-.1.1-.2.3V19c0-.1 0-.2-.1-.3-.1-.2-.4-.2-.6-.1l-2.7 1-2.7.9s-.1 0-.2.1c-.2.2-.2.4 0 .6l3.2 4.9c.1.1.2.2.4.2s.3-.1.4-.2c1.1-1.4 1.8-2.9 2.2-4.5 0 .1.3.3.2 1.2.1.3.4.9 0 1.4 0 .1-.1.3-.1.6-.1.3-.1.7-.2.9-.1.4 1.2.6 1.3 1l-.9 1.2-.9-.3-1.4 1.2.4.9-1.3 1-.7-.5-1.7.9.1.9-1.8.2-.5-.7-1.9.3-.2.9h-1.6l-.2-.9-1.9-.3-.6.7-1.5-.5v-.9l-1.7-.8-.7.5-1.3-.9.3-.9-1.3-1.3-.9.4-.4-.5c.3-.6.8-4.3.7-5 .4 1.5 1.2 2.9 2.1 4.1 0 .1.1.1.3.2.2 0 .4 0 .5-.2l1.4-2.1 1.7-2.8c.1 0 .1-.1.1-.2.1-.3-.1-.5-.3-.6l-1.5-.6-4.1-1.6c-.1 0-.3 0-.4.1-.1 0-.2.2-.2.3v.6c-.1-.2-.5-.3-.7 0-.2.2-.5 1-.8 1.4-.3.4-.4.7-.5.6l-.1-.5-.1-.3-.9-.2v-1.6l.9-.2.2-1.2.1-.8-.3-.2c.2-.3 2.7-2.8 2.8-4.8l1.2-1.2.4-.3-.3-.9 1.3-.8zm16.7-1.4c-.1-.1-.2-.2-.2-.3-.1-.2-.3-.4-.2-.6.5-.2-.1-.7.2-1.1 1.1-1 1.3-.5 1.3-.5.1.3.3.5.4.7.1.2.5-.3.5-.3.1.2.2.3.3.6.1.2.5.2.5.5-.1.3-.4.3-.1.6.1.1.1.3.4.3.2-.1 0-.6.4-.5 0 .1.1.2.1.3.1.2.2.3.5.5.4.2-.3.7-.2 1.1.2.3 0 .9-.2 1.2-.3.2-.4-.7-.2-1.3 0 0 0-.1-.1-.1-.2.1-.1.4-.3.6-.8-1.6-1.1-2.5-1.1-2.5-.2.1 0 .3 0 .5-.5-.5-1-1.2-1.6-1.6 0-.1 0 0-.1 0-.2 0 .6.9 1.1 1.5-.2 0-.4-.1-.6 0 .1.4.4.3.5.4.6.3 1 1 1.4 1.5v.2c-.2 0-.5-.3-.7-.1.1.2.3.2.5.3.5.3.9.9 1 1.4-.1.1-.2.1-.3.1-.2-.3-.5-.3-.6-.6-.2-.2-.4-.5-.7-.5-.1.1-.4.2-.5 0-.5-.3 0-1-.6-1.2-.5-.5-.8-.6-.8-1.1m.4 1.6c-.3-.4-.9-.6-1.1-1.2-.1-.6-.6-.5-.9-.6l-.1-.1c-.2-.2-.3-.4-.5-.6.1-.2.3-.3.2-.6-.4-.3-.3-1.5.8-1.3.3 0 .5-.2.8-.1.1.1.7.3 0 .7-.1 0-.2-.2-.3 0 .1.2.1.3-.1.5-.3-.2-.6-.5-1-.6 0 0-.1.1 0 .1.3.3 1 .4 1 1-.1.2-.5-.1-.4.2.1.1.2 0 .3.1 0 .3.1.5.2.7.1.3.3.5.6.7.2.4.7.7.7 1.3-.2 0-.1-.1-.2-.2M27 3.8c-.8-.1-1.5-.7-1.7-.9l-.1.3c-.5-.1-1.5-.9-1.5-.4 0 .2 1.2.5 1.5.9.1 0 .3-.1.4 0 0 .2-.5 0-.3.3.6 0 1.2.1 1.8.2.3.1-.4.4-.4.5 0 .1.3 0 .4-.1.5-.3.4 0 .8-.1.2 0 .3 0 .4.1-.1.3 0 .6 0 1.1-.8 0-.4-.5-.7-.4-.3.1-.6.1-1 .2-.2-.5-.8-.1-1.1-.4-.2-.4.4-.1.4-.3-.1-.5-1.3-.3-1.4-.4-.2-.3-.2-.7-.7-.7-.1 0-.3-.1-.4-.2-.3-.3-.1-1.1.3-1.1.2 0 .5.5.7 0 0-.1 0-.3.2-.4.5-.1.6.6 1.1.4.3 0 .3.5.6.4.2-.2.3-.3.5-.2.3 0 .4.3.6.4.2.2.6.1.8.3.1 0 .2.1.1.3.2.3.8-.3.7.3-.3.1-.2.4-.8.3-.5 0-1-.6-1.3-1-.2.2.1.5.1.6m11 24.6c.3-.3 1.9-2.1 1.8-3.1.2-.1 1.4-1.2 1.2-3.2.2-.3.4-.6.5-1 .2-.4 0-.7 0-1.2 0-.3-.2-.4-.4-.5-.3 0-1.4-1.3-2.1-.6.9-1.7 1.1-2.3 1.1-2.3.1-.6-.2-1-.4-1.3.2-.6-.2-1.7-.4-2.3v-.3c-.6-.5-.1-1.3-.6-1.9 0-.2-.8-1.5-1.2-1.8-.2-.2-.5-.4-.7-.6 0-.3-.4-.3-.7-.3-.6-.1-.9-.6-1-.6-.7-.9-1.7-1.9-2.3-2.3-.4-.3-.9-.5-1.7-.6-1-.7-1.7-.7-1.8-.9-.3-.1-2.4-1.6-4-1.7-2.6-.2-2.5 1.3-2.5 1.7.7 1.3 1.5 1.4 1.5 1.4.5.1.9.6 1.4.9s2.1.7 2.3.9c.3.1.4.3.5.5.2.3.3.5.7.5 0 0 .2 0 1.9 1.8-.3.1-.1.2-.1.2s.3.1.3 1.2h-.1l-.9-.9.4-.9-2-1.4-.8.6L27 8V7l-2.3-.7-.6.9-1.2-.2-.2-1h-2.5L20 7l-1.2.2-.5-.9-2.4.7.1 1-1 .5-.8-.6-1.3.9s.2-.4.3-.7c-.2-.3.2-.5.4-.5.4 0 .8-.2 1.1-.4.1-.1 1.8-.7 2.4-1.2.3-.2.7-.4.9-.5.5-.2.9-.5 1.2-1 .3-.3.5-.6.7-1 0-.1 0-.3-.1-.3-.6-.1-1.1.2-1.7.2l-.1-.2c.3-.4 1.1-1.3 1.1-1.5-.2-.3-.6-.1-1-.1-3.2.5-5.3 2.9-5.3 2.9-.4.3-.8.7-.9 1 0 0-.2.1-.2 0 .1-.4.1-.7.1-1 0 0 0-.4-.1-.5-.2-.3-.9.1-1.4.5-.3.2-1.1 1-1.3 1.5-.7.7-1.2 1.7-1.6 2.6 0 .1 0 .3-.3.4 0-.3 0-.9-.2-1.1-.2-.1-.6 0-.8.2-.3.4-1 1.3-1.7 2.7-.6 1.2-1.3 3.1-1.3 5.2 0 2.5 1.5 4.9 1.5 5 .1.1.1.3 0 .4-.1-.2-.2-.3-.3-.4 0 0-.7-.9-1.3-1.2-.3 0-.4.2-.5.4 0 .2-.1.4-.1.7 0 1.7.4 4.4 1.2 5.1.4 1 3.4 4.2 4.6 4.8 1.1.5 1.5 1.6 2.4 2.5.2.1.9.5 1.8.6.2.1.9.2 1.1.7-.1.2-.1.3-.1.5-.1.3-.2.5-.4.9-1 .2-1.5.2-2.1-.1-.9-.5-1.9-1-2.8-1.6-1.3-.6-.8-.7-.6-1.1.2-.5.6-1.1.5-1.7-.1-.6-1.4-1.4-1.5-1.6-.3-.1-.5-.2-.6 0-.1.5-.3 1-.5 1.5-1.1-.6-2-.4-2.4.1 0 .3-.8 2.5-1.1 3.2-.2.4.3 1.3.7 1.7.2.3 5.9 4.5 9.3 4.5.4 0 2.6-.5 3.2-.6 0 0 .1 0 .1.1-.5.5-1.5.6-1.9 1.4-.2.1-.5.3-.8.4-.4.2-.8.4-1.3.5-.4.1-1 .2-1 .4.2.7 2.5 1.4 2.8 1.5.6.2 1.2 0 1.7-.4.2-.2.3-1 .9-1 .2-.2.7-.5 1.2-1 .5-.4 2.6-1.9 3-2 .3-.5 1-1 1.5-1.1l.3.2h.1c.6 0 1.3.1 1.9-.1.6.6 1.4 1.3 2.2 1.6.4.2 1.1.9 1.2 1 .1.2.3.4.5.6.1.1.2.1.3 0l.8.6c.1 0 .2.1.3-.1.1 0 .9.7 1.2 1 .3-.1.3.3.5.5.1.3 2.1.2 2.7-.9.2-.1.4.1.6-.1.2-.2 1.1-.5.6-.6-.4-.1-.7-.4-1.2-.3-.2-.1-.3-.4-.6-.5-.3 0-1-.3-1.1-.3-1.2-.5-1.6-1.2-2.1-1.3-.1-.1-.1-.3 0-.3.2 0 1.6.1 2.8.1.5 0 .9 0 1.2-.1 3-.6 5.9-3.1 6.5-3.4.5-.4 1.2-1.3 1.2-1.6 0-.6-.6-2-.9-2.8-.1-.1-.2-1.2-.7-1.2-.5-.5-1.5.2-1.8.1 0 0-.1-.1-.1-.3-.1-.3-.2-.7-.3-1.1-.8-.3-.3-.4-.1-.6.5.1.1-.6.7-.8"/><path class="st0" d="M38.1 17.8c.4-.1.2-1.5.3-1.9.1-.2.2-.4.1-.5-.2 0-.2.4-.3.4 0-.3-.2-.6-.3-1.1-.2-.6.4-1.9 0-2.1 0 1.1-.2 1.1-.2 1.1-.3-.9-.8-2.7-.7-3.5h-.1c-.1.1 0 .3-.1.4h-.1l-.3-.6c-.1 0-.1.1-.1.1.1.3.6 1.2.4 1.4-.1-.2-.3-.4-.4-.4.2.6 1.4 2.2 1.1 2.6l-.4-.6c-.2-.1-.1.1 0 .1.6.6 1 1.3 1.1 2.1v.1c-.1-.2-.3-.3-.5-.5h-.1c0 .3.3.5.6.7.2.5.1 1.8 0 2.2m.5 17l.3.3-.4.3-.1-.6-.2-.4.4.4zm-.8-1.1l.3 1.1.3 1c.1.3.2.6 0 .7l.1.1.6-.4-.1-.1c-.1 0-.2.1-.3 0l-.1-.5.6-.3.4.3c.1.2 0 .2-.1.3v.1l.9-.5h-.3c-.1 0-.2-.2-.3-.2l-.4-.3-1.4-1.3h-.2z"/><path class="st1" d="M28.7 37.3c0-.3 0-.6-.3-.6-.2 0-.2 0-.3.3l-.3 1.6c-.1.3-.1.5.2.6l-.1.1-1.1-.2v-.2c.3.1.3-.1.4-.4l.4-1.6c.1-.3.1-.3-.1-.3-.3-.1-.5.1-.6.5h-.1l.2-.7 2 .4-.1.7h-.2" id="SVGID_x5F_1_x5F_"/><path class="st0" d="M29.1 38.3l.2-.5.2-.4.1.6v.4l-.5-.1zm1.2.5l-.1-.4-.3-1.8h-.1l-.5 1.1-.4 1c-.1.2-.2.6-.5.6v.2h.7v-.1c-.1 0-.3 0-.2-.3l.2-.4.7.1.1.5c0 .2-.2.1-.3.1v.1l1 .1v-.1s-.1-.1-.2-.1c-.1-.3-.1-.5-.1-.6m3.5-.2l-.3-1.4c0-.3-.1-.5.2-.6v-.1l-1.1.2.1.2c.3-.1.3.1.4.4l.3 1.4c.1.3.1.5-.2.6v.1l1.1-.2-.1-.2c-.3.1-.4-.1-.4-.4"/><path class="st1" d="M32 39.3c-.4 0-.3-.3-.3-.6v-1.3c0-.3 0-.5.3-.5v-.1h-1.1v.1c.3 0 .3.2.3.5v1.4c0 .3 0 .5-.3.5v.2h1.9v-.9h-.1c-.1.5-.3.7-.7.7" id="SVGID_x5F_2_x5F_"/><g class="st2"><path class="st0" d="M62.5 9.1c0 .2 0 .4-.1.6 0 .2-.1.3-.1.3s-.1 0-.1-.1c.1-.3.1-.5.1-.8 0-.5-.1-.8-.4-1.1s-.5-.4-.9-.4c-.6 0-1.2.2-1.8.6.5.4.8.9.8 1.5 0 .5-.2.9-.6 1.2-.4.3-.8.5-1.3.5-.2 0-.4 0-.6-.1-.2-.1-.3-.2-.3-.2h.1c.2.1.4.2.7.2.4 0 .8-.2 1-.5.3-.4.4-.8.4-1.3 0-.4-.2-.8-.5-1.1-.8.6-1.5 1.6-2.2 3.1-.4.9-.8 1.5-1.2 1.9s-.8.7-1.5 1.1c-.7.4-1.4.5-2 .5-.5 0-.9-.1-1.2-.3-.3-.2-.5-.5-.5-.8 0-.2.1-.3.2-.5.1-.1.2-.2.4-.2s.3.1.3.4c0 .1 0 .2-.1.3-.1.1-.2.1-.3.1-.2 0-.3-.1-.3-.3v-.1c-.1 0-.1.1-.1.3 0 .3.1.5.4.7.3.2.7.3 1.1.3.8 0 1.5-.3 2.1-.9.3-.3.5-.5.7-.8.2-.3.7-1 1.4-2.1.4-.5.8-1.1 1.3-1.6s.9-.9 1.3-1.2c-.6-.5-1.4-.7-2.5-.7-1.5 0-2.8.5-3.9 1.6-.9.9-1.4 1.7-1.4 2.5 0 .4.1.7.4 1s.6.4 1 .4c.7 0 1.5-.3 2.2-1 .8-.7 1.2-1.4 1.2-2 0-.5-.3-.8-.8-.8s-.9.2-1.5.7c-.6.6-.9 1.2-.9 1.7 0 .1 0 .2.1.3s.2.1.3.1c-.2 0-.3-.1-.4-.2-.1-.2-.2-.3-.2-.6 0-.6.3-1.1.9-1.6.6-.5 1.2-.8 1.9-.8.6 0 .9.3.9.9 0 .7-.4 1.4-1.2 2.1S53.2 13 52.5 13c-.5 0-.9-.2-1.2-.4-.3-.3-.4-.7-.4-1.2 0-1 .6-1.9 1.7-2.8 1.1-.8 2.4-1.3 3.8-1.3 1.1 0 1.9.2 2.7.7.7-.4 1.3-.6 1.9-.6.5 0 .9.1 1.2.4.2.4.3.8.3 1.3zm-.8 3.9s-.1.2-.3.4c-.3.3-.5.5-.8.5-.3 0-.4-.2-.4-.5 0-.1 0-.2.1-.4l-.6.6c-.1.2-.4.6-.7 1.2h-.6l.9-1.4c.4-.7.7-1.2.7-1.3 0-.1 0-.2-.1-.2-.2 0-.6.4-1.1 1.2 0 .1-.1.1-.1.1l.1-.1c.6-.7.9-1.1 1.1-1.1.3 0 .4.2.4.6 0 .3-.1.6-.4 1.1l.5-.5c.1-.3.3-.6.5-.8.2-.2.4-.3.5-.3.1 0 .2 0 .2.1 0 .2-.2.4-.7.7-.1 0-.2.1-.4.2l-.1.1c-.1.2-.1.3-.1.4 0 .3.1.5.3.5.3 0 .6-.2.9-.7.1-.4.1-.5.2-.4 0-.1 0-.1 0 0z"/><path class="st0" d="M64.4 13s0 .1-.1.1l-.2.3c-.7.9-1.4 1.4-1.9 1.4-.3 0-.5-.1-.6-.3-.2-.2-.3-.4-.3-.7 0-.6.4-1.2 1.3-1.7.5-.3.9-.4 1.2-.4.1 0 .2 0 .3.1.1.1.1.2.1.3 0 .3-.2.5-.5.7s-.9.4-1.7.5c-.2.4-.4.7-.4.9 0 .3.2.5.5.5.6 0 1.3-.6 2.1-1.7.1 0 .2-.1.2 0 0-.1 0-.1 0 0zm-.5-1c0-.1-.1-.2-.2-.2-.2 0-.4.1-.7.4-.3.3-.6.6-.9 1 .5-.1 1-.3 1.3-.6.4-.2.5-.4.5-.6z"/><path class="st0" d="M66.2 10.9c0 .1-.2.4-.7.9v.3c0 .2.1.5.3 1 .1.2.1.4.1.6 0 .3-.2.6-.5.8-.3.2-.7.4-1.1.4-.2 0-.4-.1-.6-.2-.1-.1-.2-.3-.2-.6s.1-.5.3-.8c.2-.3.4-.4.6-.4h.1l.4-.5c.1-.2.3-.4.5-.6.1-.2.2-.5.3-.6.2-.3.3-.4.5-.3 0-.1 0-.1 0 0zm-.7 2.1v-1.2c-.2.3-.5.6-.9 1.1.1.1.1.1.1.2 0 .2-.2.4-.5.4-.1 0-.3.1-.4.2-.1.1-.2.2-.2.4 0 .1.1.3.2.4.1.1.2.1.4.1.3 0 .6-.2.9-.5.2-.3.4-.7.4-1.1zm2.9 0l-.3.4c-.7.9-1.2 1.4-1.5 1.4-.2 0-.3-.1-.4-.2s-.2-.3-.2-.5.1-.5.4-.9l.8-1.4h.7l-1.2 2c-.2.3-.3.5-.3.7 0 .2.1.2.3.2.2 0 .8-.6 1.7-1.7-.1-.1-.1-.1 0 0 0-.1 0-.1 0 0zm-.1-2.3c0 .1-.1.2-.2.4-.1.1-.2.2-.3.2-.2 0-.2-.1-.2-.2s.1-.2.2-.3.2-.2.3-.2c.1-.1.2 0 .2.1z"/><path class="st0" d="M73.3 9.2c-1.3 2.1-2.2 3.5-2.5 4.1-.4.6-.5 1-.5 1.1 0 .2.1.2.2.2.3 0 .9-.6 1.7-1.7 0 0 0-.1.1-.1l-.1.1-.2.3c-.7.9-1.2 1.4-1.5 1.4-.2 0-.3-.1-.4-.2-.1-.1-.2-.3-.2-.5s.1-.4.2-.7c-.6.9-1.1 1.3-1.4 1.3-.2 0-.3-.1-.5-.2s-.2-.4-.2-.6c0-.6.4-1.1 1.1-1.6.6-.4 1-.6 1.4-.6.2 0 .3.1.3.3 0 .1 0 .2-.1.3l1.9-3.2c.1 0 .2.1.3.1.1.2.2.2.4.2zm-2.6 2.9c0-.2-.1-.3-.3-.3-.3 0-.7.3-1.3 1-.5.6-.8 1.2-.8 1.6 0 .2.1.4.3.4.3 0 .8-.5 1.5-1.5.4-.6.6-1 .6-1.2z"/><path class="st0" d="M74.9 13s0 .1-.1.1l-.2.3c-.7.9-1.4 1.4-1.9 1.4-.3 0-.5-.1-.6-.3-.2-.2-.3-.4-.3-.7 0-.6.4-1.2 1.3-1.7.5-.3.9-.4 1.2-.4.1 0 .2 0 .3.1.1.1.1.2.1.3 0 .3-.2.5-.5.7s-.9.4-1.7.5c-.2.4-.4.7-.4.9 0 .3.2.5.5.5.6 0 1.3-.6 2.1-1.7.1 0 .1-.1.2 0 0-.1 0-.1 0 0zm-.5-1c0-.1-.1-.2-.2-.2-.2 0-.4.1-.7.4-.3.3-.6.6-.9 1 .5-.1 1-.3 1.3-.6.4-.2.5-.4.5-.6z"/><path class="st0" d="M79.2 13c0 .1-.3.4-.8 1-.4.5-.8.8-1 .8-.2 0-.3-.1-.4-.2s-.2-.3-.2-.5 0-.3.1-.4c.1-.1.2-.4.5-.8s.4-.7.4-.8c0-.1-.1-.2-.2-.2-.5 0-1.3 1-2.4 2.9h-.7l.8-1.3c.5-.8.7-1.2.7-1.4 0-.1 0-.2-.1-.2-.2 0-.5.4-1.1 1.2l-.1.1.1-.1c.5-.7.9-1.1 1.1-1.1.1 0 .2.1.3.2.1.1.1.2.1.4s-.1.5-.4 1c.4-.6.7-1 1-1.2.2-.2.4-.3.6-.3.2 0 .3.1.4.2s.2.3.2.5-.2.6-.5 1.1c-.3.5-.5.8-.5 1 0 .1.1.2.2.2.5-.4 1-1 1.9-2.1-.1-.1-.1-.1 0 0 0-.1 0-.1 0 0zm3.2-1.2c0 .1-.2.3-.5.5-.4.3-1 .8-1.9 1.4-.1.1-.3.2-.5.3h.2c.2 0 .3 0 .5.2s.2.3.3.5c.2-.1.5-.4.8-.7.4-.4.6-.7.8-.9 0-.1.1-.1.1-.1 0 .1-.2.3-.6.8-.4.4-.8.8-1.2 1.1v.1c0 .4-.1.8-.4 1.3s-.6.8-1 1.1c-.9.6-1.6.9-2.2.9-.4 0-.6-.2-.6-.5 0-.4.3-.8.9-1.2.3-.2 1.1-.6 2.3-1.2.2-.1.5-.2.7-.3.1-.2.1-.3.1-.5 0-.3-.1-.4-.4-.4h-.2l-.1.1-.2.2c-.3.3-.6.5-.6.5-.1 0-.1 0-.1-.1 0-.2.3-.4 1-.7 1-.8 1.8-1.3 2.3-1.8l-.1.1c-.2.1-.4.2-.5.2-.1 0-.3-.1-.5-.2s-.3-.2-.4-.2c-.2 0-.6.3-1 .8l-.1.1c0-.1.2-.3.5-.6.4-.4.7-.6 1-.6.1 0 .3.1.7.4.1.1.2.1.3.1h.2l.1-.1.2-.2c-.1-.4-.1-.5.1-.4 0-.1 0-.1 0 0zM80 15c-.1 0-.6.3-1.5.7-.7.3-1.2.7-1.6 1s-.6.7-.6.9c0 .3.2.4.5.4.5 0 1.1-.3 1.8-1 .7-.5 1.1-1.2 1.4-2z"/><path class="st0" d="M86 13c0 .1-.3.4-.8 1-.4.5-.8.8-1 .8-.2 0-.3-.1-.4-.2-.1-.1-.2-.3-.2-.5s.1-.4.2-.6c-.4.5-.6.8-.8 1s-.4.3-.6.3c-.2 0-.3-.1-.5-.2s-.2-.4-.2-.6c0-.7.5-1.3 1.5-1.8.4-.2.8-.4 1-.4.2 0 .3.1.3.3v.2l.3-.5h.7l-1 1.6c-.3.6-.5.9-.5 1.1 0 .2.1.3.2.3s.4-.2.7-.5c.4-.4.7-.8 1.1-1.3 0-.1 0-.1 0 0 0-.1 0-.1 0 0zm-1.4-.9c0-.2-.1-.3-.2-.3-.3 0-.8.3-1.3 1-.5.6-.8 1.2-.8 1.6 0 .2.1.3.3.3.2 0 .7-.4 1.3-1.2.4-.7.7-1.2.7-1.4zm8.3-2.9c-1.3 2.1-2.2 3.5-2.5 4.1-.4.6-.5 1-.5 1.1 0 .2.1.2.2.2.3 0 .9-.6 1.7-1.7 0 0 0-.1.1-.1l-.1.1-.2.3c-.7.9-1.2 1.4-1.5 1.4-.2 0-.3-.1-.4-.2-.1-.1-.2-.3-.2-.5s.1-.4.2-.7c-.6.9-1.1 1.3-1.4 1.3-.2 0-.3-.1-.5-.2s-.2-.4-.2-.6c0-.6.4-1.1 1.1-1.6.6-.4 1-.6 1.4-.6.2 0 .3.1.3.3 0 .1 0 .2-.1.3l1.9-3.2c.1 0 .2.1.3.1.1.2.2.2.4.2zm-2.6 2.9c0-.2-.1-.3-.3-.3-.3 0-.7.3-1.3 1s-.8 1.2-.8 1.6c0 .2.1.4.3.4.3 0 .8-.5 1.5-1.5.4-.6.6-1 .6-1.2z"/><path class="st0" d="M94.5 13s0 .1-.1.1l-.2.3c-.7.9-1.4 1.4-1.9 1.4-.3 0-.5-.1-.6-.3s-.3-.4-.3-.7c0-.6.4-1.2 1.3-1.7.5-.3.9-.4 1.2-.4.1 0 .2 0 .3.1.1.1.1.2.1.3 0 .3-.2.5-.5.7-.3.2-.9.4-1.7.5-.2.4-.4.7-.4.9 0 .3.2.5.5.5.6 0 1.3-.6 2.1-1.7.1 0 .1-.1.2 0 0-.1 0-.1 0 0zm-.5-1c0-.1-.1-.2-.2-.2-.2 0-.4.1-.8.4-.3.3-.6.6-.9 1 .5-.1 1-.3 1.3-.6.4-.2.6-.4.6-.6z"/><path class="st0" d="M97.3 9.2c-1.5 2.5-2.4 4-2.6 4.4-.2.4-.4.7-.4.9 0 .2.1.2.2.2.3 0 .9-.6 1.7-1.7 0 0 0-.1.1-.1l-.1.1-.2.4c-.7.9-1.2 1.4-1.5 1.4-.2 0-.3-.1-.4-.2s-.1-.3-.1-.4c0-.2 0-.4.1-.6.1-.2.4-.7.9-1.6.6-1.1 1.2-2 1.6-2.8h.7zm10.2-.5c0 .2-.2.5-.5.7.3.4.4.8.4 1.2 0 .1 0 .1-.1.1 0 0-.1-.1-.1-.2 0-.4-.1-.7-.4-1.1-.5.4-1.2.7-2.1 1-.9.3-1.7.4-2.4.4h-.3c-.6.8-.9 1.6-.9 2.3 0 .5.2.9.5 1.2.3.3.7.4 1.3.4 1 0 1.9-.5 2.7-1.5.5-.6.7-1.2.7-1.7 0-.3-.1-.5-.3-.7-.2-.2-.4-.2-.7-.2-.4 0-.9.2-1.4.7s-.8.9-.8 1.3v.1c.1-.1.2-.1.3-.1.2 0 .3.1.3.3 0 .3-.1.4-.4.4-.2 0-.4-.1-.4-.4 0-.5.3-1 .8-1.5s1-.8 1.6-.8c.7 0 1 .4 1 1.1 0 .8-.4 1.5-1.1 2.1-.7.6-1.6 1-2.5 1-.6 0-1.2-.2-1.6-.6s-.6-1-.6-1.6c0-.6.2-1.2.6-1.9-1.6-.3-2.3-.9-2.3-1.8 0-.6.3-1 .9-1.4.6-.4 1.3-.6 2.2-.6 1.2 0 2.4.4 3.6 1.2.2 0 .4-.1.6-.1 1 .2 1.4.3 1.4.7zm-1.9-.5c-1.1-.6-2.2-.9-3.5-.9-.8 0-1.4.2-2 .5-.6.4-.9.8-.9 1.3 0 .9.7 1.4 2.2 1.7 1-1.3 2.4-2.1 4.2-2.6zm1.3 1.2c-.3-.4-.6-.8-1.1-1.1-.7.2-1.3.5-2 .9-.6.4-1.2 1-1.6 1.5.7 0 1.6-.1 2.5-.4.9-.2 1.6-.5 2.2-.9zm.5-.7c0-.3-.3-.4-.9-.4-.2 0-.4 0-.6.1.4.3.8.6 1.1 1 .2-.3.4-.5.4-.7zm2.7 4.3c0 .1-.1.2-.3.4-.3.3-.6.5-.9.5-.1 0-.2 0-.3-.1-.5.7-.9 1-1.3 1-.2 0-.4-.1-.6-.3-.2-.2-.2-.4-.2-.6 0-.6.4-1.1 1.1-1.6.5-.4.9-.5 1.3-.5.3 0 .5.2.5.5 0 .4-.2.9-.7 1.5.1 0 .2.1.2.1.2 0 .3-.1.6-.2.2-.2.4-.3.5-.5.1-.2.1-.3.1-.2 0-.1 0-.1 0 0zm-.8-.8c0-.3-.1-.4-.4-.4-.3 0-.7.3-1.2.9-.5.6-.7 1.1-.7 1.6 0 .2.1.4.4.4.4 0 .8-.3 1.3-1-.1-.1-.2-.2-.2-.4s.1-.4.2-.5c.1-.2.3-.3.4-.3.1 0 .1 0 .1.1 0-.1.1-.2.1-.4z"/><path class="st0" d="M114.4 13c0 .1-.3.4-.8 1-.4.5-.8.8-1 .8-.2 0-.3-.1-.4-.2s-.2-.3-.2-.5 0-.3.1-.4c.1-.1.2-.4.5-.8s.4-.7.4-.8c0-.1-.1-.2-.2-.2-.5 0-1.3 1-2.4 2.9h-.7l.8-1.3c.5-.8.7-1.2.7-1.4 0-.1 0-.2-.1-.2-.2 0-.5.4-1.1 1.2l-.1.1.1-.1c.5-.7.9-1.1 1.1-1.1.1 0 .2.1.3.2.1.1.1.2.1.4s-.1.5-.4 1c.4-.6.7-1 1-1.2.2-.2.4-.3.6-.3.2 0 .3.1.4.2s.2.3.2.5-.2.6-.5 1.1c-.3.5-.5.8-.5 1 0 .1.1.2.2.2.5-.4 1.1-1 1.9-2.1 0-.1 0-.1 0 0 0-.1 0-.1 0 0z"/><path class="st0" d="M116.3 10.9c0 .1-.2.4-.7.9v.3c0 .2.1.5.3 1 .1.2.1.4.1.6 0 .3-.2.6-.5.8s-.7.4-1.1.4c-.2 0-.4-.1-.6-.2-.1-.1-.2-.3-.2-.6s.1-.5.3-.8c.2-.3.4-.4.6-.4h.1l.4-.5c.1-.2.3-.4.5-.6.1-.2.2-.5.3-.6.1-.3.2-.4.5-.3-.1-.1 0-.1 0 0zm-.8 2.1v-1.2c-.2.3-.5.6-.9 1.1.1.1.1.1.1.2 0 .2-.2.4-.5.4-.1 0-.3.1-.4.2-.1.1-.2.2-.2.4 0 .1.1.3.2.4.1.1.2.1.4.1.3 0 .6-.2.9-.5.3-.3.4-.7.4-1.1zm2.9 0l-.3.4c-.7.9-1.2 1.4-1.5 1.4-.2 0-.3-.1-.4-.2-.1-.1-.2-.3-.2-.4 0-.2.1-.5.4-.9l.8-1.4h.7l-1.2 2c-.2.3-.3.5-.3.7 0 .2.1.2.3.2.3-.1.8-.7 1.7-1.8 0-.1 0-.1 0 0 0-.1 0-.1 0 0zm-.1-2.3c0 .1-.1.2-.2.4s-.2.2-.3.2c-.2 0-.2-.1-.2-.2s.1-.2.2-.3c.1-.1.2-.2.3-.2.2-.1.2 0 .2.1z"/><path class="st0" d="M122.1 13c0 .1-.2.3-.6.7-.4.5-1 .9-1.7 1.3l-.3.5c-.5.9-1 1.6-1.6 2.1-.6.5-1.1.7-1.5.7-.2 0-.3 0-.4-.1-.1-.1-.2-.2-.2-.3 0-.7.8-1.5 2.5-2.2.4-.2.6-.3.7-.3l.9-1.7c-.4.5-.7.9-.8 1s-.3.2-.5.2-.3-.1-.5-.2c-.1-.2-.2-.4-.2-.6 0-.6.4-1.2 1.2-1.7.5-.3 1-.5 1.3-.5.2 0 .3.1.3.4v.2l.3-.5h.7s-.2.3-.5.8l-1.3 2.3c.5-.3.8-.5 1.1-.8s.6-.6 1-1.1c0-.2.1-.3.1-.2 0-.1 0-.1 0 0zm-3.1 2.3c-.1 0-.3.1-.6.3-1.6.8-2.4 1.5-2.4 2.2 0 .1 0 .2.1.3.1.1.2.1.3.1.4 0 .8-.2 1.1-.6.4-.4.8-1.1 1.4-2.2l.1-.1zm1.7-3.2c0-.2-.1-.3-.3-.3-.3 0-.8.3-1.3 1-.5.6-.8 1.2-.8 1.6 0 .2.1.4.3.4.2 0 .6-.3 1.1-1 .7-.9 1-1.4 1-1.7z"/><path class="st0" d="M124.9 9.2c-1.5 2.5-2.4 4-2.6 4.4-.2.4-.4.7-.4.9 0 .2.1.2.2.2.3 0 .9-.6 1.7-1.7 0 0 0-.1.1-.1l-.1.1-.2.3c-.7.9-1.2 1.4-1.5 1.4-.2 0-.3-.1-.4-.2s-.1-.3-.1-.4c0-.2 0-.4.1-.6.1-.2.4-.7.9-1.6.6-1.1 1.2-2 1.6-2.8h.3c.2.1.3.1.4.1zm.8 3.8l-.3.4c-.7.9-1.2 1.4-1.5 1.4-.2 0-.3-.1-.4-.2-.1-.1-.2-.3-.2-.4 0-.2.1-.5.4-.9l.8-1.4h.7l-1.2 2c-.2.3-.3.5-.3.7 0 .2.1.2.3.2.3-.1.8-.7 1.7-1.8-.1-.1 0-.1 0 0 0-.1 0-.1 0 0zm-.1-2.3c0 .1-.1.2-.2.4s-.2.2-.3.2c-.2 0-.2-.1-.2-.2s.1-.2.2-.3c.1-.1.2-.2.3-.2.2-.1.2 0 .2.1z"/><path class="st0" d="M128.9 13c0 .1-.1.2-.3.4-.3.3-.6.5-.9.5-.1 0-.2 0-.3-.1-.5.7-.9 1-1.3 1-.2 0-.4-.1-.6-.3-.2-.2-.2-.4-.2-.6 0-.6.4-1.1 1.1-1.6.5-.4.9-.5 1.3-.5.3 0 .5.2.5.5 0 .4-.2.9-.7 1.5.1 0 .2.1.2.1.2 0 .3-.1.6-.2.2-.2.4-.3.5-.5 0-.2.1-.3.1-.2 0-.1 0-.1 0 0zm-.9-.8c0-.3-.1-.4-.4-.4-.3 0-.7.3-1.2.9-.5.6-.7 1.1-.7 1.6 0 .2.1.4.4.4.4 0 .8-.3 1.3-1-.1-.1-.2-.2-.2-.4s.1-.4.2-.5c.1-.2.3-.3.4-.3.1 0 .1 0 .1.1.1-.1.1-.2.1-.4zm7.7-3c-1.3 2.1-2.2 3.5-2.5 4.1-.4.6-.5 1-.5 1.1 0 .2.1.2.2.2.3 0 .9-.6 1.7-1.7 0 0 0-.1.1-.1l-.1.1-.2.3c-.7.9-1.2 1.4-1.5 1.4-.2 0-.3-.1-.4-.2-.1-.1-.2-.3-.2-.5s.1-.4.2-.7c-.6.9-1.1 1.3-1.4 1.3-.2 0-.3-.1-.5-.2s-.2-.4-.2-.6c0-.6.4-1.1 1.1-1.6.6-.4 1-.6 1.4-.6.2 0 .3.1.3.3 0 .1 0 .2-.1.3l1.9-3.2c.1 0 .2.1.3.1.1.2.2.2.4.2zm-2.6 2.9c0-.2-.1-.3-.3-.3-.3 0-.7.3-1.3 1-.5.6-.8 1.2-.8 1.6 0 .2.1.4.3.4.3 0 .8-.5 1.5-1.5.5-.6.6-1 .6-1.2z"/><path class="st0" d="M137.4 13s0 .1-.1.1l-.2.3c-.7.9-1.4 1.4-1.9 1.4-.3 0-.5-.1-.6-.3-.2-.2-.3-.4-.3-.7 0-.6.4-1.2 1.3-1.7.5-.3.9-.4 1.2-.4.1 0 .2 0 .3.1.1.1.1.2.1.3 0 .3-.2.5-.5.7-.3.2-.9.4-1.7.5-.2.4-.4.7-.4.9 0 .3.2.5.5.5.6 0 1.3-.6 2.1-1.7.1 0 .1-.1.2 0-.1-.1 0-.1 0 0zm-.5-1c0-.1-.1-.2-.2-.2-.2 0-.4.1-.7.4-.3.3-.6.6-.9 1 .5-.1 1-.3 1.3-.6.3-.2.5-.4.5-.6z"/><path class="st0" d="M139.2 13l-.3.4c-.7.9-1.2 1.4-1.5 1.4-.2 0-.3-.1-.4-.2-.1-.1-.2-.3-.2-.4 0-.2.1-.5.4-.9l.8-1.4h.7l-1.2 2c-.2.3-.3.5-.3.7 0 .2.1.2.3.2.2-.1.8-.7 1.7-1.8-.1-.1-.1-.1 0 0 0-.1 0-.1 0 0zm-.1-2.3c0 .1-.1.2-.2.4-.1.1-.2.2-.3.2-.2 0-.2-.1-.2-.2s.1-.2.2-.3c.1-.1.2-.2.3-.2.1-.1.2 0 .2.1zm17.6-1.4v.4c0 .1-.1.2-.1.2 0-.2 0-.4.1-.6-.1-.5-.3-.9-.7-1.2-.4-.3-.8-.5-1.4-.5-.9 0-1.8.4-2.7 1.3-.4.3-.7.7-.9 1-.3.3-.8.9-1.5 1.9-1.1 1.5-2 2.4-2.7 2.7-.3.2-.5.2-.6.2l.1-.1c.4-.3.6-.6.8-1.1.2-.4.5-1.4 1-2.9.4-1.3.9-2.2 1.5-2.8v-.1s-.2.1-.3.2c-.5.5-1.2 1.5-1.9 2.9-.4.8-.8 1.5-1.2 1.9-.3.4-.7.8-1.2 1.1-.8.5-1.5.8-2.3.8-.5 0-.9-.1-1.2-.3-.3-.2-.5-.5-.5-.8 0-.2.1-.3.2-.5s.2-.2.4-.2.3.1.3.3c0 .1 0 .2-.1.3-.1.1-.2.1-.3.1-.2 0-.3-.1-.3-.3v-.1c-.1 0-.1.1-.1.3 0 .3.1.5.4.7.3.2.7.3 1.1.3.9 0 1.9-.5 2.8-1.5.4-.4.7-.8.9-1.1.3-.4.8-1.2 1.5-2.4.3-.5.7-1 1.1-1.4.4-.4.7-.6.8-.6-.3.4-.6 1.1-.9 2.1-.4 1.5-.8 2.6-1.1 3.2-.4.7-.8 1.2-1.4 1.5.1 0 .3-.1.6-.3.4-.3.7-.6 1.1-1 .3-.4.9-1.2 1.8-2.3.6-.8 1.1-1.4 1.4-1.8.4-.4.8-.7 1.2-1 .7-.5 1.4-.7 2-.7.6 0 1.1.2 1.5.5.6.7.8 1.1.8 1.7zm-8.5-.3c0 .1-.1.2-.3.5-.3.3-.6.5-.9.5-.2 0-.4-.1-.5-.2-.1-.1-.2-.3-.2-.5s.1-.4.2-.7c.2-.4.3-.6.3-.8 0-.2-.1-.3-.3-.4s-.4-.2-.7-.2c-.8 0-1.5.3-2.2 1-.7.6-1.1 1.3-1.1 2.1 0 .4.1.7.3.9.2.2.5.4.9.4.3 0 .6-.1 1-.3.3-.2.6-.4.8-.7 0 .1-.1.2-.3.4-.5.4-1 .6-1.5.6-.4 0-.7-.1-.9-.4s-.4-.6-.4-1c0-.8.4-1.5 1.1-2.1.7-.7 1.5-1 2.4-1 .4 0 .6.1.8.3.2.2.3.4.3.7 0 .2-.1.6-.3 1-.1.2-.1.3-.1.4 0 .3.1.4.4.4.2 0 .4-.1.6-.3l.6-.6c-.1-.1-.1-.1 0 0 0-.1 0-.1 0 0zm5.9-1.2s0 .1-.1.1c-.4.2-.8.5-1.1 1s-.7 1.1-1.1 1.9c-.6 1.3-1.1 2.2-1.6 2.7-.5.6-1 .9-1.7 1.2.3 0 .6.1.7.1.6 0 1-.1 1.3-.4.3-.2.8-.8 1.4-1.6l.1-.1s-.2.3-.5.7c-.4.5-.8.9-1.1 1.1-.3.2-.7.3-1.2.3-.3 0-.6 0-1-.1-.2.1-.5.1-.7.1-.2 0-.3 0-.3-.1s.1-.1.4-.1c.1 0 .3 0 .6.1h.1c.4-.1.7-.4 1-.6.3-.3.6-.8.9-1.5.7-1.4 1.3-2.4 1.8-3 .4-.6.9-1 1.5-1.5.3-.2.5-.3.6-.3z"/><path class="st0" d="M153.7 13l-.3.4c-.7.9-1.2 1.4-1.5 1.4-.2 0-.3-.1-.4-.2-.1-.1-.2-.3-.2-.4 0-.2.1-.5.4-.9l.8-1.4h.7l-1.2 2c-.2.3-.3.5-.3.7 0 .2.1.2.3.2.3-.1.9-.7 1.7-1.8 0-.1 0-.1 0 0 0-.1 0-.1 0 0zm0-2.3c0 .1-.1.2-.2.4s-.2.2-.3.2c-.2 0-.2-.1-.2-.2s.1-.2.2-.3c.1-.1.2-.2.3-.2.1-.1.2 0 .2.1zm4.4 2.3c0 .1-.3.4-.8 1-.4.5-.8.8-1 .8-.2 0-.3-.1-.4-.2s-.2-.3-.2-.5 0-.3.1-.4c.1-.1.2-.4.5-.8s.4-.7.4-.8c0-.1-.1-.2-.2-.2-.5 0-1.3 1-2.4 2.9h-.7l.8-1.3c.5-.8.7-1.2.7-1.4 0-.1 0-.2-.1-.2-.2 0-.5.4-1.1 1.2l-.1.1.1-.1c.5-.7.9-1.1 1.1-1.1.1 0 .2.1.3.2.1.1.1.2.1.4s-.1.5-.4 1c.4-.6.7-1 1-1.2.2-.2.4-.3.6-.3.2 0 .3.1.4.2s.2.3.2.5-.2.6-.5 1.1c-.3.5-.5.8-.5 1 0 .1.1.2.2.2.4-.4 1-1 1.9-2.1-.1-.1-.1-.1 0 0-.1-.1 0-.1 0 0z"/><path class="st0" d="M159.9 13l-.3.4c-.7.9-1.2 1.4-1.5 1.4-.2 0-.3-.1-.4-.2-.1-.1-.2-.3-.2-.4 0-.2.1-.5.4-.9l.8-1.4h.7l-1.2 2c-.2.3-.3.5-.3.7 0 .2.1.2.3.2.2-.1.8-.7 1.7-1.8-.1-.1-.1-.1 0 0 0-.1 0-.1 0 0zm-.1-2.3c0 .1-.1.2-.2.4-.1.1-.2.2-.3.2-.2 0-.2-.1-.2-.2s.1-.2.2-.3c.1-.1.2-.2.3-.2.1-.1.2 0 .2.1z"/><path class="st0" d="M161.7 10.9c0 .1-.2.4-.7.9v.3c0 .2.1.5.3 1 .1.2.1.4.1.6 0 .3-.2.6-.5.8s-.7.4-1.1.4c-.2 0-.4-.1-.6-.2-.1-.1-.2-.3-.2-.6s.1-.5.3-.8c.2-.3.4-.4.6-.4h.1l.4-.5c.1-.2.3-.4.5-.6.1-.2.2-.5.3-.6.2-.3.3-.4.5-.3 0-.1 0-.1 0 0zM161 13v-1.2c-.2.3-.5.6-.9 1.1.1.1.1.1.1.2 0 .2-.2.4-.5.4-.1 0-.3.1-.4.2-.1.1-.2.2-.2.4 0 .1.1.3.2.4.1.1.2.1.4.1.3 0 .6-.2.9-.5.2-.3.4-.7.4-1.1zm3-1.3l-.7.1-1.2 2c-.1.2-.2.4-.2.6 0 .2.1.2.3.2.3 0 .9-.6 1.7-1.7 0 0 0-.1.1-.1l-.1.1-.2.3c-.7.9-1.2 1.4-1.5 1.4-.2 0-.3-.1-.4-.2-.1-.1-.2-.3-.2-.5s.1-.5.3-.8l.9-1.5h-.5l.1-.1h.5l.6-1h.6l-.6 1h.5zm2.9 1.3s-.1.2-.3.4c-.3.3-.5.5-.8.5-.3 0-.4-.2-.4-.5 0-.1 0-.2.1-.4l-.6.6c-.2.2-.4.6-.7 1.2h-.6l.9-1.4c.4-.7.7-1.2.7-1.3 0-.1 0-.2-.1-.2-.2 0-.6.4-1.1 1.2 0 .1-.1.1-.1.1l.1-.1c.6-.7.9-1.1 1.1-1.1.3 0 .4.2.4.6 0 .3-.1.6-.4 1.1l.5-.5c.1-.3.3-.6.5-.8s.4-.3.5-.3c.1 0 .2 0 .2.1 0 .2-.2.4-.7.7-.1 0-.2.1-.4.2l-.1.1c0 .2-.1.3-.1.4 0 .3.1.5.3.5.3 0 .6-.2.9-.7.1-.4.2-.5.2-.4 0-.1 0-.1 0 0zm1.9 0s-.1 0 0 0l-.3.4c-.7.9-1.2 1.4-1.5 1.4-.2 0-.3-.1-.4-.2-.1-.1-.2-.3-.2-.4 0-.2.1-.5.4-.9l.8-1.4h.7l-1.2 2c-.2.3-.3.5-.3.7 0 .2.1.2.3.2.2-.1.8-.7 1.7-1.8-.1-.1-.1-.1 0 0-.1-.1 0-.1 0 0zm-.1-2.3c0 .1-.1.2-.2.4-.1.1-.2.2-.3.2-.2 0-.2-.1-.2-.2s.1-.2.2-.3c.1-.1.2-.2.3-.2.1-.1.2 0 .2.1z"/></g><path class="st1" d="M10.2 38.9h18v.5h-18z"/><g class="st2"><path class="st0" d="M59.6 24.8c0 .9-.1 1.6-.3 2.2-.2.6-.6 1.1-1 1.5s-.9.7-1.5.9c-.6.2-1.3.3-2.2.3h-2.3c-.2 0-.3 0-.4-.1-.1-.1-.2-.2-.2-.5v-8.3c0-.2.1-.4.2-.5.1-.1.2-.1.4-.1h2.4c.8 0 1.6.1 2.1.3.6.2 1.1.5 1.5.9.4.4.7.9.9 1.4.3.6.4 1.3.4 2zm-2 .1c0-.4-.1-.9-.2-1.3s-.3-.7-.5-1c-.2-.3-.5-.5-.9-.7-.4-.2-.8-.2-1.4-.2h-1v6.4h1c.5 0 1-.1 1.3-.2s.7-.3.9-.6c.2-.3.4-.6.5-1s.3-.9.3-1.4zm5.4-4.2c0 .4-.1.6-.2.8s-.4.2-.8.2-.7-.1-.8-.2c-.1-.1-.2-.4-.2-.7 0-.4.1-.6.2-.8.1-.1.4-.2.8-.2s.7.1.8.2c.2.1.2.4.2.7zm-.1 8.8v.1s-.1.1-.2.1-.2 0-.3.1h-.8c-.1 0-.2 0-.3-.1-.1 0-.1-.1-.2-.1v-6.7s.1-.1.2-.1.2 0 .3-.1h.8c.1 0 .2 0 .3.1.1 0 .1.1.2.1v6.6zm8.4-3.4c0 .6-.1 1.1-.2 1.6s-.3.9-.5 1.2-.5.6-.9.8-.8.3-1.2.3c-.2 0-.4 0-.5-.1-.2 0-.3-.1-.5-.2-.1-.1-.3-.2-.4-.3s-.3-.2-.5-.4v3.2s-.1.1-.2.1-.2 0-.3.1-.3 0-.4 0h-.4c-.1 0-.2 0-.3-.1-.1 0-.1-.1-.2-.1s0-.1 0-.1v-9.2l.1-.1c.1 0 .1 0 .2-.1h.8c.1 0 .2 0 .2.1.1 0 .1.1.1.1v.9c.2-.2.4-.4.6-.5.2-.1.4-.3.6-.4.2-.1.4-.2.6-.2.2 0 .4-.1.6-.1.5 0 .9.1 1.2.3.3.2.6.4.8.8.2.3.4.7.5 1.1s.2.8.2 1.3zm-1.9.1c0-.3 0-.5-.1-.8 0-.3-.1-.5-.2-.7-.1-.2-.2-.4-.4-.5-.2-.1-.4-.2-.6-.2-.1 0-.2 0-.4.1-.1 0-.2.1-.4.2-.1.1-.3.2-.4.3s-.3.3-.4.5v2.2c.3.3.5.6.7.8.2.2.5.3.7.3.2 0 .4-.1.6-.2.2-.1.3-.3.4-.5.1-.2.2-.4.2-.7.3-.3.3-.5.3-.8zm8.9 3.3c0 .1 0 .1-.1.2 0 0-.1.1-.2.1h-1c-.1 0-.2 0-.2-.1 0 0-.1-.1-.1-.2V29c-.3.3-.6.5-.9.7-.3.2-.7.2-1.1.2-.3 0-.7 0-1-.1-.3-.1-.5-.2-.8-.4-.2-.2-.4-.4-.5-.7s-.2-.6-.2-.9c0-.4.1-.7.2-1 .1-.3.4-.5.7-.7.3-.2.7-.3 1.1-.4s.9-.1 1.5-.1h.6v-.4c0-.2 0-.4-.1-.5 0-.2-.1-.3-.2-.4.2-.2 0-.3-.1-.3-.2 0-.4-.1-.6-.1-.3 0-.6 0-.8.1-.2.1-.5.1-.6.2s-.3.2-.5.2c-.1.1-.2.1-.3.1-.1 0-.1 0-.1-.1l-.1-.1c0-.1 0-.1-.1-.2v-.7c0-.1.1-.2.1-.2.1-.1.2-.1.4-.2s.4-.2.6-.2c.2-.1.5-.1.8-.2.3 0 .6-.1.8-.1.5 0 1 0 1.3.1.4.1.7.3.9.5.2.2.4.5.5.8s.2.7.2 1.2v4.4zm-1.8-2.8h-.7c-.3 0-.6 0-.8.1s-.4.1-.5.2l-.3.3c-.1.1-.1.3-.1.4 0 .3.1.5.3.6.2.2.4.2.7.2.3 0 .5-.1.7-.2.2-.1.4-.3.7-.6v-1zm7.9-3.2v.7c0 .1 0 .1-.1.1h-.2s-.1 0-.2-.1-.1 0-.2-.1h-.2c-.1 0-.2 0-.3.1-.1 0-.2.1-.3.2-.1.1-.2.2-.3.4-.1.1-.2.3-.4.5v4.2s-.1.1-.2.1-.2 0-.3.1h-.8c-.1 0-.2 0-.3-.1-.1 0-.1-.1-.2-.1v-6.7l.1-.1s.1 0 .2-.1h.8c.1 0 .2 0 .2.1s.1.1.1.1v.9c.2-.2.3-.4.5-.6l.4-.4c.1-.1.3-.2.4-.2.1 0 .3-.1.4-.1h.4c.1 0 .1 0 .2.1.1 0 .1 0 .1.1 0 0 0 .1.1.1v.3c0 .1.1.4.1.5zm7.5-.8c.2 0 .3 0 .4.1.1.1.1.2.1.4v6.4l-.1.1s-.2 0-.3.1h-.9c-.1 0-.2 0-.3-.1l-.1-.1v-5.4h-2.9v3.1c0 .4.1.6.2.8.1.2.3.3.6.3h.3c.1 0 .1 0 .2-.1.1 0 .1 0 .2-.1h.2s0 .1.1.1v1c0 .1-.1.2-.1.2 0 .1-.1.1-.2.1s-.2.1-.3.1c-.1 0-.2 0-.4.1h-.4c-.4 0-.7 0-1-.1-.3-.1-.5-.2-.7-.4-.2-.2-.3-.4-.4-.7s-.1-.6-.1-1v-3.3h-1c-.1 0-.2-.1-.2-.2s-.1-.3-.1-.6v-.4c0-.1 0-.2.1-.2 0-.1.1-.1.1-.1h.9v-1.6l.1-.1c.1 0 .2 0 .3-.1h.9c.1 0 .2 0 .3.1.1 0 .1.1.1.1v1.6h4.4zm.7-2c0 .4-.1.6-.2.8-.2.1-.4.2-.8.2s-.7-.1-.8-.2-.2-.4-.2-.7c0-.4.1-.6.2-.8.1-.1.4-.2.8-.2s.7.1.8.2c.1.1.2.4.2.7zm12.1 8.8v.1l-.1.1s-.2 0-.3.1h-.9c-.1 0-.2 0-.3-.1-.1 0-.1-.1-.1-.1v-4c0-.2 0-.4-.1-.6 0-.2-.1-.3-.2-.5l-.3-.3c-.1-.1-.3-.1-.5-.1s-.4.1-.7.3c-.2.2-.5.4-.7.7v4.4s-.1.1-.2.1-.2 0-.3.1h-.8c-.1 0-.2 0-.3-.1-.1 0-.1-.1-.2-.1v-4c0-.2 0-.4-.1-.6 0-.2-.1-.3-.2-.5l-.3-.3c-.1-.1-.3-.1-.5-.1s-.4.1-.7.3c-.2.2-.5.4-.7.7v4.4s-.1.1-.2.1-.2 0-.3.1h-.8c-.1 0-.2 0-.3-.1-.1 0-.1-.1-.2-.1v-6.7l.1-.1s.1 0 .2-.1h.8c.1 0 .2 0 .2.1.1 0 .1.1.1.1v.9c.4-.4.7-.7 1.1-.9.4-.2.7-.3 1.1-.3.3 0 .5 0 .7.1.2.1.4.1.6.2.2.1.3.2.4.4s.2.3.3.5c.2-.2.4-.4.6-.5.2-.2.4-.3.6-.4.2-.1.4-.2.5-.2.2 0 .4-.1.6-.1.4 0 .8.1 1.1.2s.5.3.7.6c.2.3.3.5.4.9.1.3.1.7.1 1.1v4.3zm7.8-3.5c0 .2-.1.4-.2.5-.1.1-.2.2-.4.2h-4c0 .3 0 .5.1.8l.3.6c.1.2.3.3.6.4.2.1.5.1.8.1.3 0 .6 0 .8-.1.2 0 .5-.1.6-.2.2-.1.3-.1.4-.2.1 0 .2-.1.3-.1h.1s.1 0 .1.1v1.1s0 .1-.1.1c0 0-.1.1-.3.1-.1.1-.3.1-.5.2s-.5.1-.8.1c-.3 0-.6.1-.9.1-.6 0-1.1-.1-1.5-.2-.4-.1-.8-.4-1.1-.7s-.5-.7-.7-1.1c-.1-.5-.2-1-.2-1.6 0-.6.1-1.1.2-1.6.2-.5.4-.9.7-1.2.3-.3.6-.6 1.1-.7.4-.2.9-.3 1.4-.3.5 0 1 .1 1.4.2s.7.4 1 .7c.2.3.4.6.5 1s.2.8.2 1.3v.4zm-1.8-.5c0-.5-.1-.9-.3-1.2-.2-.3-.6-.4-1-.4-.2 0-.4 0-.6.1-.2.1-.3.2-.4.4-.1.1-.2.3-.3.5-.1.2-.1.4-.1.6h2.7zm9.6 4v.1l-.1.1s-.2 0-.3.1h-.9c-.1 0-.2 0-.3-.1l-.1-.1v-3.8c0-.3 0-.6-.1-.7 0-.2-.1-.3-.2-.5l-.3-.3c-.1-.1-.3-.1-.5-.1s-.5.1-.7.3c-.2.2-.5.4-.7.7v4.4s-.1.1-.2.1-.2 0-.3.1h-.8c-.1 0-.2 0-.3-.1-.1 0-.1-.1-.2-.1v-6.7l.1-.1c.1 0 .1 0 .2-.1h.8c.1 0 .2 0 .2.1s.1.1.1.1v.9c.4-.4.7-.7 1.1-.9.4-.2.8-.3 1.2-.3.4 0 .8.1 1.1.2.3.1.6.3.7.6.2.3.3.5.4.9.1.3.1.7.1 1.2v4zm5.5-.7v.5c0 .1-.1.2-.1.2s-.1.1-.2.1-.2.1-.3.1c-.1 0-.2 0-.4.1h-.4c-.4 0-.7 0-1-.1-.3-.1-.5-.2-.7-.4-.2-.2-.3-.4-.4-.7s-.1-.6-.1-1v-3.3h-.8c-.1 0-.2-.1-.2-.2s-.1-.3-.1-.6v-.4c0-.1 0-.2.1-.2 0-.1.1-.1.1-.1h.9v-1.6l.1-.1c.1 0 .2 0 .3-.1h.9c.1 0 .2 0 .3.1.1 0 .1.1.1.1v1.6h1.5l.1.1c0 .1 0 .1.1.2s0 .2 0 .4c0 .3 0 .5-.1.6 0 .1-.1.2-.2.2h-1.4v3.1c0 .4.1.6.2.8.1.2.3.3.6.3h.3c.1 0 .1 0 .2-.1.1 0 .1 0 .2-.1h.2s0 .1.1.1v.2c0 .1.1.1.1.2zm7.8-2.7c0 .6-.1 1.1-.2 1.5-.1.5-.4.9-.7 1.2-.3.3-.7.6-1.1.8s-1 .3-1.6.3c-.6 0-1.1-.1-1.5-.2s-.8-.4-1.1-.7-.5-.7-.6-1.1c-.1-.4-.2-1-.2-1.5 0-.6.1-1.1.2-1.5.1-.5.4-.9.7-1.2.3-.3.7-.6 1.1-.8.4-.2 1-.3 1.6-.3.6 0 1.1.1 1.5.2.4.2.8.4 1.1.7.3.3.5.7.6 1.1s.2.9.2 1.5zm-1.9.1c0-.3 0-.6-.1-.9-.1-.3-.1-.5-.3-.7-.1-.2-.3-.4-.5-.5-.2-.1-.5-.2-.8-.2-.3 0-.5 0-.7.2-.2.1-.4.2-.5.4-.1.2-.2.4-.3.7-.1.3-.1.6-.1.9 0 .3 0 .6.1.9.1.3.1.5.3.7s.3.4.5.5c.2.1.5.2.8.2.3 0 .5 0 .7-.2.2-.1.4-.2.5-.4s.2-.4.3-.7c.1-.2.1-.6.1-.9zm13 3.3v.1l-.1.1c-.1 0-.1 0-.2.1s-.2 0-.4 0h-.4c-.1 0-.2 0-.2-.1-.1 0-.1-.1-.1-.1v-.8c-.3.4-.7.6-1.1.8-.4.2-.8.3-1.2.3-.5 0-.9-.1-1.3-.3-.3-.2-.6-.5-.8-.8s-.4-.7-.5-1.1c-.1-.4-.1-.9-.1-1.4 0-.6.1-1.1.2-1.6s.3-.9.5-1.2c.2-.3.5-.6.9-.8.4-.2.8-.3 1.2-.3.4 0 .7.1 1 .2.3.1.6.4.9.7v-3.6l.1-.1c.1 0 .2 0 .3-.1s.3 0 .4 0h.4c.1 0 .2 0 .3.1.1 0 .1.1.1.1v9.8zm-1.9-4.4c-.3-.3-.5-.6-.8-.8-.2-.2-.5-.3-.8-.3-.2 0-.4.1-.6.2-.2.1-.3.3-.4.5s-.2.4-.2.7c-.1.2-.1.5-.1.8 0 .3 0 .5.1.8s.1.5.2.7c.1.2.2.4.4.5s.4.2.6.2c.1 0 .2 0 .4-.1.1 0 .2-.1.4-.2.1-.1.3-.2.4-.3.1-.1.3-.3.4-.5v-2.2zm9.8.9c0 .2-.1.4-.2.5-.1.1-.2.2-.4.2h-4c0 .3 0 .5.1.8l.3.6c.1.2.3.3.6.4.2.1.5.1.8.1.3 0 .6 0 .8-.1.2 0 .5-.1.6-.2.2-.1.3-.1.4-.2.1 0 .2-.1.3-.1h.1s.1 0 .1.1v1.1s0 .1-.1.1c0 0-.1.1-.3.1-.1.1-.3.1-.5.2s-.5.1-.8.1c-.3 0-.6.1-.9.1-.6 0-1.1-.1-1.5-.2-.4-.1-.8-.4-1.1-.7s-.5-.7-.7-1.1c-.1-.5-.2-1-.2-1.6 0-.6.1-1.1.2-1.6.2-.5.4-.9.7-1.2.3-.3.6-.6 1.1-.7.4-.2.9-.3 1.4-.3.5 0 1 .1 1.4.2s.7.4 1 .7c.2.3.4.6.5 1s.2.8.2 1.3v.4zm-1.8-.5c0-.5-.1-.9-.3-1.2-.2-.3-.6-.4-1-.4-.2 0-.4 0-.6.1-.2.1-.3.2-.4.4-.1.1-.2.3-.3.5-.1.2-.1.4-.1.6h2.7zm5.1 4v.1s-.1.1-.2.1-.2 0-.3.1h-.8c-.1 0-.2 0-.3-.1-.1 0-.1-.1-.2-.1v-9.8s.1-.1.2-.1.2 0 .3-.1h.8c.1 0 .2 0 .3.1.1 0 .1.1.2.1s0 .1 0 .1v9.6zm3.7 0v.1s-.1.1-.2.1-.2 0-.3.1h-.8c-.1 0-.2 0-.3-.1-.1 0-.1-.1-.2-.1v-9.8s.1-.1.2-.1.2 0 .3-.1h.8c.1 0 .2 0 .3.1.1 0 .1.1.2.1s0 .1 0 .1v9.6zm7.4 0c0 .1 0 .1-.1.2 0 0-.1.1-.2.1h-1c-.1 0-.2 0-.2-.1 0 0-.1-.1-.1-.2V29c-.3.3-.6.5-.9.7-.3.2-.7.2-1.1.2-.3 0-.7 0-1-.1-.3-.1-.5-.2-.8-.4-.2-.2-.4-.4-.5-.7s-.2-.6-.2-.9c0-.4.1-.7.2-1 .1-.3.4-.5.7-.7.3-.2.7-.3 1.1-.4s1-.1 1.5-.1h.6v-.4c0-.2 0-.4-.1-.5 0-.2-.1-.3-.2-.4-.1-.1-.2-.2-.4-.2s-.4-.1-.6-.1c-.3 0-.6 0-.8.1-.2.1-.5.1-.6.2s-.3.2-.5.2c-.1.1-.2.1-.3.1-.1 0-.1 0-.1-.1l-.1-.1c0-.1 0-.1-.1-.2v-.7c0-.1.1-.2.1-.2.1-.1.2-.1.4-.2s.4-.2.6-.2c.2-.1.5-.1.8-.2.3 0 .6-.1.8-.1.5 0 1 0 1.3.1.4.1.7.3.9.5.2.2.4.5.5.8s.2.7.2 1.2v4.3zm-1.8-2.8h-.7c-.3 0-.6 0-.8.1-.2 0-.4.1-.5.2l-.3.3c-.1.1-.1.3-.1.4 0 .3.1.5.3.6.2.2.4.2.7.2.3 0 .5-.1.7-.2.2-.1.4-.3.7-.6v-1z"/></g><g class="st2"><path class="st0" d="M57 33v.4c0 .1 0 .2-.1.2 0 .1-.1.1-.1.1h-3.2v2.5h3l.1.1c0 .1 0 .1.1.2v.8c0 .1 0 .2-.1.2 0 .1-.1.1-.1.1h-3v3.6s-.1.1-.2.1-.2 0-.3.1h-1c-.1 0-.2 0-.3-.1-.1 0-.1-.1-.2-.1s0-.1 0-.1v-8.6c0-.2.1-.4.2-.5.1-.1.2-.1.4-.1h4.6l.1.1c0 .1 0 .1.1.2v.8zm7.7 8.5v.1l-.1.1s-.1 0-.2.1h-.8c-.1 0-.2 0-.2-.1s-.1-.1-.1-.1v-.9c-.4.4-.7.7-1.1.9-.4.2-.8.3-1.2.3-.4 0-.8-.1-1.1-.2s-.6-.3-.7-.6c-.2-.3-.3-.5-.4-.9-.1-.3-.1-.8-.1-1.2v-4.1l.1-.1c.1 0 .2 0 .3-.1h.8c.1 0 .2 0 .3.1s.1.1.2.1v3.8c0 .3 0 .6.1.8s.1.3.2.5l.3.3c.1.1.3.1.5.1s.5-.1.7-.3c.2-.2.5-.4.8-.7V35l.1-.1s.2 0 .3-.1h.8c.1 0 .2 0 .3.1l.1.1v6.5zm8.1 0v.1l-.1.1s-.2 0-.3.1h-.9c-.1 0-.2 0-.3-.1s-.2-.1-.2-.1v-3.8c0-.3 0-.6-.1-.7 0-.2-.1-.3-.2-.5l-.3-.3c-.1-.1-.3-.1-.5-.1s-.5.1-.7.3c-.2.2-.5.4-.7.7v4.4s-.1.1-.2.1-.2 0-.3.1h-.8c-.1 0-.2 0-.3-.1-.1 0-.1-.1-.2-.1v-6.7l.1-.1s.1 0 .2-.1h.8c.1 0 .2 0 .2.1s.1.1.1.1v.9c.4-.4.7-.7 1.1-.9.4-.2.8-.3 1.2-.3.4 0 .8.1 1.1.2.3.1.6.3.7.6.2.3.3.5.4.9.1.3.1.7.1 1.2v4zm6.3-.5v.4c0 .1 0 .2-.1.2s0 .1 0 .1h-4.4c-.1 0-.2 0-.3-.1s-.1-.2-.1-.4v-.7c0-.1.1-.1.1-.2s.1-.1.1-.2l2.4-3.8h-2.3c-.1 0-.2-.1-.2-.2s-.1-.3-.1-.6v-.4c0-.1 0-.2.1-.2 0-.1.1-.1.1-.1h4.3s.1 0 .1.1.1.1.1.2v1.2c0 .1 0 .1-.1.2 0 .1-.1.1-.1.2l-2.4 3.8H79l.1.1c0 .1 0 .1.1.2-.1-.1-.1 0-.1.2zm3.4-8.3c0 .4-.1.6-.2.8s-.4.2-.8.2-.7-.1-.8-.2c-.1-.1-.2-.4-.2-.7 0-.4.1-.6.2-.8.1-.1.4-.2.8-.2s.7.1.8.2c.1.1.2.4.2.7zm-.1 8.8v.1s-.1.1-.2.1-.2 0-.3.1h-.8c-.1 0-.2 0-.3-.1-.1 0-.1-.1-.2-.1v-6.7s.1-.1.2-.1.2 0 .3-.1h.8c.1 0 .2 0 .3.1.1 0 .1.1.2.1v6.6zm8.4-3.4c0 .6-.1 1.1-.2 1.5-.1.5-.4.9-.7 1.2s-.7.6-1.1.8-1 .3-1.6.3c-.6 0-1.1-.1-1.5-.2s-.8-.4-1.1-.7-.5-.7-.6-1.1c-.1-.4-.2-1-.2-1.5 0-.6.1-1.1.2-1.5.1-.5.4-.9.7-1.2.3-.3.7-.6 1.1-.8.4-.2 1-.3 1.6-.3.6 0 1.1.1 1.5.2.4.2.8.4 1.1.7.3.3.5.7.6 1.1s.2.9.2 1.5zm-1.9.1c0-.3 0-.6-.1-.9-.1-.3-.1-.5-.3-.7-.1-.2-.3-.4-.5-.5-.1-.1-.4-.1-.7-.1-.3 0-.5 0-.7.2-.2.1-.4.2-.5.4-.1.2-.2.4-.3.7-.1.3-.1.6-.1.9 0 .3 0 .6.1.9.1.3.1.5.3.7s.3.4.5.5c.2.1.5.2.8.2.3 0 .5 0 .7-.2.2-.1.4-.2.5-.4.1-.2.2-.4.3-.7v-1zm9.6 3.3v.1l-.1.1s-.2 0-.3.1h-.9c-.1 0-.2 0-.3-.1l-.1-.1v-3.8c0-.3 0-.6-.1-.7 0-.2-.1-.3-.2-.5l-.3-.3c-.1-.1-.3-.1-.5-.1s-.5.1-.7.3c-.2.2-.5.4-.7.7v4.4s-.1.1-.2.1-.2 0-.3.1H93c-.1 0-.2 0-.3-.1-.1 0-.1-.1-.2-.1v-6.7l.1-.1c.1 0 .1 0 .2-.1h.8c.1 0 .2 0 .2.1s.1.1.1.1v.9c.4-.4.7-.7 1.1-.9.4-.2.8-.3 1.2-.3.4 0 .8.1 1.1.2.3.1.6.3.7.6.2.3.3.5.4.9.1.3.1.7.1 1.2v4zm7.9-3.5c0 .2 0 .4-.2.5-.1.1-.2.2-.4.2h-4c0 .3 0 .5.1.8l.3.6c.1.2.3.3.6.4s.5.1.8.1c.3 0 .6 0 .8-.1.2 0 .5-.1.6-.2.2-.1.3-.1.4-.2.1 0 .2-.1.3-.1h.1s.1 0 .1.1v1.1s0 .1-.1.1c0 0-.1.1-.3.1-.1.1-.3.1-.5.2s-.5.1-.8.1c-.3 0-.6.1-.9.1-.6 0-1.1-.1-1.5-.2s-.8-.4-1.1-.7-.5-.7-.7-1.1c-.1-.5-.2-1-.2-1.6 0-.6.1-1.1.2-1.6.2-.5.4-.9.7-1.2.3-.3.6-.6 1.1-.7s.9-.3 1.4-.3c.5 0 1 .1 1.4.2.4.2.7.4 1 .7.2.3.4.6.5 1s.2.8.2 1.3v.4zm-1.8-.5c0-.5-.1-.9-.3-1.2-.2-.3-.6-.4-1-.4-.2 0-.4 0-.6.1-.2.1-.3.2-.4.4-.1.1-.2.3-.3.5-.1.2-.1.4-.1.6h2.7zm13.3-2.4c0 .5-.1 1-.2 1.4s-.4.8-.7 1c-.3.3-.7.5-1.2.6-.5.1-1 .2-1.6.2h-.8v3.1s-.1.1-.2.1-.2 0-.3.1h-1c-.1 0-.2 0-.3-.1-.1 0-.1-.1-.2-.1s0-.1 0-.1v-8.5c0-.2.1-.4.2-.5.1-.1.3-.2.5-.2h2.8c.2 0 .4.1.7.1l.9.3c.3.2.5.3.7.6.2.2.4.5.5.8.1.5.2.8.2 1.2zm-2 .1c0-.3-.1-.6-.2-.8s-.3-.4-.4-.5c-.2-.1-.4-.2-.5-.2h-1.4v3.2h.9c.3 0 .6 0 .8-.1.2-.1.4-.2.5-.3.1-.1.2-.3.3-.5-.1-.3 0-.5 0-.8zm9.6 6.3v.1l-.1.1c-.1 0-.1 0-.2.1h-.8c-.1 0-.2 0-.2-.1s-.1-.1-.1-.1v-.9c-.4.4-.7.7-1.1.9-.4.2-.8.3-1.2.3-.4 0-.8-.1-1.1-.2-.3-.1-.6-.3-.7-.6-.2-.3-.3-.5-.4-.9-.1-.3-.1-.8-.1-1.2v-4.1l.1-.1s.2 0 .3-.1h.8c.1 0 .2 0 .3.1.1 0 .1.1.2.1v3.8c0 .3 0 .6.1.8s.1.3.2.5l.3.3c.1.1.3.1.5.1s.5-.1.7-.3.5-.4.8-.7V35l.1-.1c.1 0 .2 0 .3-.1h.8c.1 0 .2 0 .3.1l.1.1v6.5zm8.4-3.4c0 .6-.1 1.1-.2 1.6s-.3.9-.5 1.2c-.2.3-.5.6-.9.8-.3.2-.7.3-1.2.3-.2 0-.4 0-.6-.1-.2 0-.4-.1-.5-.2-.2-.1-.3-.2-.5-.4-.2-.1-.3-.3-.5-.5v.8l-.1.1c-.1 0-.1 0-.2.1s-.2 0-.4 0h-.4c-.1 0-.2 0-.2-.1-.1 0-.1-.1-.1-.1v-9.8s.1-.1.2-.1.2 0 .3-.1h.8c.1 0 .2 0 .3.1.1 0 .1.1.2.1s0 .1 0 .1v3.6c.2-.2.3-.3.5-.4s.3-.2.5-.3c.2-.1.3-.1.5-.2s.4-.1.6-.1c.5 0 .9.1 1.2.3.3.2.6.5.8.8.2.3.4.7.5 1.1-.2.5-.1.9-.1 1.4zm-1.9.1c0-.3 0-.5-.1-.8 0-.3-.1-.5-.2-.7-.1-.2-.2-.4-.4-.5-.2-.1-.4-.2-.6-.2-.1 0-.2 0-.4.1-.1 0-.2.1-.4.2-.1.1-.3.2-.4.3-.1.1-.3.3-.4.5v2.2c.3.3.5.6.7.8.2.2.5.3.7.3.2 0 .4-.1.6-.2s.3-.3.4-.5c.1-.2.2-.4.2-.7s.3-.5.3-.8zm9.9-.1c0 .6-.1 1.1-.2 1.6s-.3.9-.5 1.2-.5.6-.9.8c-.3.2-.7.3-1.2.3-.2 0-.4 0-.6-.1-.2 0-.4-.1-.5-.2-.2-.1-.3-.2-.5-.4-.2-.1-.3-.3-.5-.5v.8l-.1.1c-.1 0-.1 0-.2.1h-.8c-.1 0-.2 0-.2-.1-.1 0-.1-.1-.1-.1v-9.8s.1-.1.2-.1.2 0 .3-.1h.8c.1 0 .2 0 .3.1.1 0 .1.1.2.1s0 .1 0 .1v3.6c.2-.2.3-.3.5-.4s.3-.2.5-.3c.2-.1.3-.1.5-.2s.4-.1.6-.1c.5 0 .9.1 1.2.3.3.2.6.5.8.8.2.3.4.7.5 1.1-.1.5-.1.9-.1 1.4zm-1.9.1c0-.3 0-.5-.1-.8 0-.3-.1-.5-.2-.7s-.2-.4-.4-.5c-.2-.1-.4-.2-.6-.2-.1 0-.2 0-.4.1-.1 0-.2.1-.4.2-.1.1-.3.2-.4.3-.1.1-.3.3-.4.5v2.2c.3.3.5.6.7.8.2.2.5.3.7.3.2 0 .4-.1.6-.2s.3-.3.4-.5c.1-.2.2-.4.2-.7s.3-.5.3-.8zm5.3 3.3v.1s-.1.1-.2.1-.2 0-.3.1h-.8c-.1 0-.2 0-.3-.1-.1 0-.1-.1-.2-.1v-9.8s.1-.1.2-.1.2 0 .3-.1h.8c.1 0 .2 0 .3.1.1 0 .1.1.2.1s0 .1 0 .1v9.6zm3.8-8.8c0 .4-.1.6-.2.8-.2.1-.4.2-.8.2s-.7-.1-.8-.2c-.1-.1-.2-.4-.2-.7 0-.4.1-.6.2-.8.1-.1.4-.2.8-.2s.7.1.8.2c.1.1.2.4.2.7zm-.2 8.8v.1s-.1.1-.2.1-.2 0-.3.1h-.8c-.1 0-.2 0-.3-.1-.1 0-.1-.1-.2-.1v-6.7s.1-.1.2-.1.2 0 .3-.1h.8c.1 0 .2 0 .3.1.1 0 .1.1.2.1v6.6zm6.8-1.1v.6l-.1.1c-.1.1-.2.1-.3.2-.1.1-.3.2-.5.2-.2.1-.4.1-.6.2-.2 0-.4.1-.7.1-.5 0-.9-.1-1.3-.2-.4-.2-.7-.4-1-.7-.3-.3-.5-.7-.6-1.1s-.2-.9-.2-1.5c0-.7.1-1.2.2-1.7.2-.5.4-.9.7-1.2s.6-.5 1-.7.8-.2 1.3-.2c.2 0 .4 0 .6.1s.4.1.5.1.3.1.4.2c.1.1.2.1.3.2l.1.1s0 .1.1.1 0 .1 0 .2v.3c0 .3 0 .5-.1.6 0 .1-.1.2-.2.2s-.2 0-.3-.1c-.1-.1-.2-.1-.3-.2-.1-.1-.3-.2-.5-.2s-.2-.1-.5-.1c-.5 0-.8.2-1.1.6-.3.4-.4.9-.4 1.6 0 .4 0 .7.1.9.1.3.2.5.3.7.1.2.3.3.5.4.2.1.4.1.7.1.3 0 .5 0 .7-.1.2-.1.3-.2.5-.3s.3-.2.3-.3c.1-.1.2-.1.2-.1h.1l.1.1v.8zm6.8 1.1c0 .1 0 .1-.1.2 0 0-.1.1-.2.1h-1c-.1 0-.2 0-.2-.1 0 0-.1-.1-.1-.2V41c-.3.3-.6.5-.9.7-.3.2-.7.2-1.1.2-.3 0-.7 0-1-.1-.3-.1-.5-.2-.8-.4-.2-.2-.4-.4-.5-.7s-.2-.6-.2-.9c0-.4.1-.7.2-1 .1-.3.4-.5.7-.7.3-.2.7-.3 1.1-.4s.9-.1 1.5-.1h.6v-.4c0-.2 0-.4-.1-.5 0-.2-.1-.3-.2-.4-.1-.1-.2-.2-.4-.2s-.4-.1-.6-.1c-.3 0-.6 0-.8.1-.2.1-.5.1-.6.2s-.3.2-.5.2-.2.1-.3.1c-.1 0-.1 0-.1-.1l-.1-.1c0-.1 0-.1-.1-.2v-.7c0-.1.1-.2.1-.2.1-.1.2-.1.4-.2s.4-.2.6-.2c.2-.1.5-.1.8-.2.3 0 .6-.1.8-.1.5 0 1 0 1.3.1.4.1.7.3.9.5.2.2.4.5.5.8s.2.7.2 1.2v4.3zm-1.8-2.8h-.7c-.3 0-.6 0-.8.1s-.4.1-.5.2l-.3.3c-.1.1-.1.3-.1.4 0 .3.1.5.3.6.2.2.4.2.7.2.3 0 .5-.1.7-.2.2-.1.4-.3.7-.6v-1z"/></g></svg>