<svg id="Livello_1" xmlns="http://www.w3.org/2000/svg" width="203.5" height="37" viewBox="0 0 203.5 37"><style>.st0{fill:#fff}.st1{fill:#3161aa}.st2{enable-background:new}</style><path class="st0" d="M1 1.2h51.1v34.7H1z"/><path class="st1" d="M2 2.2h49.1V35H2z"/><path class="st0" d="M25.5 9.3l1-.8 1.1.8-.4-1.2 1-.8h-1.3l-.4-1.2-.4 1.2h-1.2l1 .8zm-5.4 1.4l1.1-.7 1 .7-.4-1.2 1.1-.7h-1.3l-.4-1.3-.4 1.3h-1.3l1 .7zm-2.8.8l-.4 1.2h-1.3l1 .8-.4 1.2 1.1-.8 1 .8-.4-1.2 1-.8h-1.3zm-1.5 7.8l1 .7-.3-1.2 1-.7h-1.3l-.4-1.3-.4 1.3h-1.3l1.1.7-.4 1.2zm1.8 4.1l-.3-1.2-.4 1.2h-1.3l1 .8-.4 1.2 1.1-.7 1 .7-.4-1.2 1-.8zm4 4l-.4-1.3-.4 1.3h-1.3l1 .7-.3 1.2 1-.7 1 .7-.4-1.2 1.1-.7zm5.3 1.4l-.4-1.2-.4 1.2h-1.2l1 .7-.4 1.3 1-.8 1.1.8-.4-1.3 1-.7zm5.4-1.4l-.4-1.3-.4 1.3h-1.3l1.1.7-.4 1.2 1-.7 1 .7-.4-1.2 1.1-.7zm3.9-4l-.4-1.2-.4 1.2h-1.3l1.1.8-.4 1.2 1-.7 1.1.7-.4-1.2 1-.8zM39 18h-1.3l-.4-1.2-.4 1.2h-1.3l1 .8-.4 1.2 1.1-.7 1 .7-.4-1.2zm-4.2-3.3l1-.8 1.1.8-.4-1.3 1-.7h-1.3l-.4-1.3-.4 1.3h-1.3l1.1.7zm-2.9-7.2l-.4 1.3h-1.3l1.1.7-.4 1.2 1-.7 1.1.7-.4-1.2 1-.7h-1.3z"/><g class="st2"><path class="st0" d="M64.1 9.1c0 .5-.1.9-.2 1.3s-.3.7-.6.9-.6.5-1 .6c-.4.1-.8.1-1.3.1s-.9-.1-1.3-.2-.7-.3-1-.5-.5-.5-.6-.9-.2-.8-.2-1.3V4.4l.1-.1h1.2s.1 0 .1.1V9c0 .3 0 .6.1.8l.3.6c.1.1.3.3.5.3.2.1.4.1.7.1.2 0 .5 0 .7-.1.2-.1.4-.2.5-.3.1-.1.2-.3.3-.5.1-.2.1-.4.1-.7V4.4l.1-.1h1.2s.1 0 .1.1v4.7zm8 2.3v.2c0 .1-.1.1-.1.2s-.1.1-.2.1h-1.3c-.1 0-.2-.1-.3-.2-.1-.1-.2-.2-.2-.3-.1-.1-.2-.3-.3-.5l-1.9-3.6c-.1-.2-.2-.4-.3-.7-.1-.2-.2-.5-.3-.7v5.8l-.1.1h-1s-.1 0-.1-.1V4.8c0-.2.1-.3.2-.4.1-.1.2-.1.4-.1h1.2c.1 0 .2.1.3.1.1.1.2.1.2.2.1.1.1.2.2.4L70 7.8c-.1.2-.1.4 0 .6.1.2.2.3.2.5.1.2.2.3.2.5s.1.3.2.5V4.4l.1-.1h1l.1.1v7zm3.2.3v.1l-.1.1H74s-.1 0-.1-.1V4.4l.1-.1h1.2s.1 0 .1.1v7.3z"/></g><g class="st2"><path class="st0" d="M83.5 8c0 .6-.1 1.2-.2 1.7-.2.5-.4.9-.7 1.3-.3.3-.7.6-1.2.8s-1 .3-1.6.3c-.6 0-1.1-.1-1.6-.2-.4-.2-.8-.4-1.1-.7s-.5-.7-.7-1.2-.2-1.1-.2-1.7c0-.6.1-1.2.2-1.7.2-.5.4-.9.7-1.3.3-.3.7-.6 1.2-.8.5-.2 1-.3 1.6-.3.6 0 1.1.1 1.5.2.4.2.8.4 1.1.7.3.3.5.7.7 1.2.2.5.3 1 .3 1.7zm-1.7.1c0-.4 0-.8-.1-1.1-.1-.3-.2-.6-.3-.8-.2-.2-.4-.4-.6-.5-.3-.1-.6-.2-.9-.2-.4 0-.7.1-1 .2-.3.1-.5.3-.6.6-.2.1-.3.4-.3.7-.1.3-.1.7-.1 1 0 .4 0 .8.1 1.1l.3.9c.1.3.4.4.6.5s.6.2 1 .2.7-.1 1-.2.5-.3.6-.6c.2-.2.3-.5.3-.9v-.9z"/></g><g class="st2"><path class="st0" d="M91 11.4v.2c0 .1-.1.1-.1.2-.1 0-.1.1-.2.1h-1.3c-.1 0-.2-.1-.3-.2-.1-.1-.2-.2-.2-.3-.1-.1-.2-.3-.3-.5l-1.9-3.6c-.1-.2-.2-.4-.3-.7-.1-.2-.2-.5-.3-.7v5.8l-.1.2h-1c-.1 0-.1 0-.1-.1v-7c0-.2.1-.3.2-.4.1-.1.2-.1.4-.1h1.2c.1 0 .2.1.3.1.1.1.2.1.2.2.1.1.1.2.2.4l1.5 2.8c.1.2.2.3.3.5s.2.3.2.5c.1.2.2.3.2.5.1.2.1.3.2.5V4.4l.1-.1h1l.1.1v7zm6.2-.1v.5c0 .1 0 .1-.1.1h-3.9c-.1 0-.2 0-.3-.1-.1-.1-.1-.2-.1-.4V4.8c0-.2 0-.3.1-.4.1-.1.2-.1.3-.1h3.9l.1.1v1s0 .1-.1.1h-2.8v1.9h2.4l.1.1v1s0 .1-.1.1h-2.4v2.2h2.8l.1.1v.4zm8.6 0v.5s0 .1-.1.1h-3.9c-.1 0-.2 0-.3-.1-.1-.1-.1-.2-.1-.4V4.8c0-.2 0-.3.1-.4.1-.1.2-.1.3-.1h3.9l.1.1v1s0 .1-.1.1h-2.8v1.9h2.4l.1.1v1s0 .1-.1.1h-2.4v2.2h2.9l.1.1v.2c-.1 0-.1.1-.1.2zm7.6-2.2c0 .5-.1.9-.2 1.3s-.3.7-.6.9-.6.5-1 .6c-.4.1-.8.2-1.4.2-.5 0-.9-.1-1.3-.2s-.7-.3-1-.5-.5-.5-.6-.9-.2-.8-.2-1.3V4.4l.1-.1h1.2c.1 0 .1 0 .1.1V9c0 .3 0 .6.1.8l.3.6c.1.1.3.3.5.3.2.1.4.1.7.1.2 0 .5 0 .7-.1.2-.1.4-.2.5-.3.1-.1.2-.3.3-.5.1-.2.1-.4.1-.7V4.4l.1-.1h1.2c.1 0 .1 0 .1.1v4.7zm7.3 2.6v.1l-.1.1h-1.4c-.1 0-.1 0-.1-.1 0 0 0-.1-.1-.1l-.7-1.7c-.1-.2-.2-.4-.2-.5s-.2-.3-.3-.4-.2-.2-.3-.2c-.1-.1-.3-.1-.4-.1h-.5v3l-.1.1h-1.2c-.1 0-.1 0-.1-.1v-7c0-.2 0-.3.1-.4.1-.1.2-.1.3-.1h2.9c.3 0 .6.1.8.2.2.1.5.2.6.4.2.2.3.4.4.6.1.2.1.5.1.8 0 .3 0 .5-.1.7l-.3.6c-.1.2-.3.3-.5.4l-.6.3c.1.1.2.1.3.2l.3.3c.1.1.2.2.3.4.1.1.2.3.2.5l.6 1.5c.1.1.1.3.1.3v.2zm-2-5.2c0-.3-.1-.5-.2-.6-.1-.2-.3-.3-.6-.4h-1.4v2.2h.8c.2 0 .4 0 .6-.1.2-.1.3-.1.4-.2s.2-.2.2-.3c.2-.3.2-.4.2-.6z"/></g><g class="st2"><path class="st0" d="M128.1 8c0 .6-.1 1.2-.2 1.7-.2.5-.4.9-.7 1.3-.3.3-.7.6-1.2.8-.5.2-1 .3-1.6.3-.6 0-1.1-.1-1.6-.2s-.8-.4-1.1-.7-.5-.7-.7-1.2-.2-1.1-.2-1.7c0-.6.1-1.2.2-1.7s.4-.9.7-1.3c.3-.3.7-.6 1.2-.8.5-.2 1-.3 1.6-.3.6 0 1.1.1 1.5.2s.8.4 1.1.7c.3.3.5.7.7 1.2.2.5.3 1 .3 1.7zm-1.7.1c0-.4 0-.8-.1-1.1-.1-.3-.2-.6-.3-.8-.2-.2-.4-.4-.6-.5-.3-.1-.6-.2-.9-.2-.4 0-.7.1-1 .2s-.5.3-.6.6c-.2.2-.3.5-.3.8s-.1.7-.1 1c0 .4 0 .8.1 1.1l.3.9c.1.3.4.4.6.5s.6.2 1 .2.7-.1 1-.2.5-.3.6-.6c.2-.2.3-.5.3-.9v-1zm8.2-1.5c0 .4-.1.8-.2 1.1-.1.3-.3.6-.6.8-.3.2-.6.4-.9.5-.4.1-.8.2-1.3.2h-.6v2.5l-.1.1h-1.2c-.1 0-.1 0-.1-.1V4.8c0-.2 0-.3.1-.4.1-.1.2-.1.4-.1h2.3c.2 0 .4 0 .6.1.2 0 .5.1.7.3s.4.3.6.5c.2.2.3.4.4.7-.1.1-.1.4-.1.7zm-1.6.1c0-.3 0-.5-.1-.7-.1-.2-.2-.3-.3-.4-.1-.1-.3-.1-.4-.2s-.3 0-.5 0h-.7V8h.7c.2 0 .5 0 .6-.1.2-.1.3-.2.4-.3.1-.1.2-.3.2-.4.1-.1.1-.3.1-.5z"/></g><g class="st2"><path class="st0" d="M140.1 11.3v.5s0 .1-.1.1h-3.9c-.1 0-.2 0-.3-.1-.1-.1-.1-.2-.1-.4V4.8c0-.2 0-.3.1-.4.1-.1.2-.1.3-.1h3.9l.1.1v1s0 .1-.1.1h-2.8v1.9h2.4l.1.1v1s0 .1-.1.1h-2.4v2.2h2.9l.1.1v.2c-.1 0-.1.1-.1.2z"/></g><g class="st2"><path class="st0" d="M147.7 11.3c0 .1.1.3.1.3v.2s-.1.1-.2.1h-1.3c-.1 0-.1 0-.1-.1 0 0 0-.1-.1-.1l-.5-1.5h-2.9l-.5 1.5c0 .1 0 .1-.1.1l-.1.1h-1c-.1 0-.2 0-.2-.1 0 0-.1-.1 0-.2s0-.2.1-.3l2.4-6.8c0-.1.1-.1.1-.2 0 0 .1-.1.2-.1h1.7c.1 0 .1.1.2.1 0 0 .1.1.1.2l2.1 6.8zm-3.6-5.6l-1 3.3h2.2l-1.2-3.3z"/></g><g class="st2"><path class="st0" d="M62.2 16v.3l-.1.1h-2.3v2.1H62c.1 0 0 0 .1.1v.6l-.1.1h-2.2v2.6H59V16c0-.1 0-.2.1-.3.1 0 .1-.1.2-.1h2.8l.1.1c.1.1 0 .1 0 .1v.2zm4.9 3.4c0 .3 0 .7-.1 1-.1.3-.2.5-.4.7-.2.2-.4.4-.7.5s-.6.2-.9.2c-.3 0-.6-.1-.9-.2-.3-.1-.5-.3-.6-.5-.2-.2-.3-.4-.4-.7-.1-.3-.1-.6-.1-1 0-.3 0-.7.1-1 .1-.3.2-.5.4-.7.2-.2.4-.4.7-.5.3-.1.6-.2.9-.2.3 0 .6.1.9.2.3.1.5.3.6.5s.3.4.4.7.1.7.1 1zm-.8.1c0-.2 0-.4-.1-.6 0-.2-.1-.4-.2-.5-.1-.2-.2-.3-.4-.4-.2-.1-.4-.1-.6-.1-.2 0-.4 0-.6.1-.2.1-.3.2-.4.3s-.2.3-.2.5c-.1.2-.1.4-.1.7 0 .2 0 .4.1.7s.1.4.2.5c.1.2.2.3.4.4.2.1.4.1.6.1.2 0 .4 0 .6-.1.2-.1.3-.2.4-.3.1-.1.2-.3.2-.5.1-.3.1-.6.1-.8zm5.6 2.1c0 .1-.1.1-.1.1h-.7v-2.6c0-.2 0-.4-.1-.6 0-.1-.1-.3-.2-.4-.1-.1-.2-.2-.3-.2-.1-.1-.2-.1-.4-.1s-.4.1-.6.2c-.2.1-.4.3-.6.6v3.1h-.8v-4.4h.8v.7c.2-.3.5-.5.7-.6.2-.1.5-.2.7-.2.3 0 .5 0 .7.1.2.1.3.2.5.4.1.2.2.3.3.6.1.2.1.5.1.8v2.5zm5 0c0 .1 0 .1-.1.1h-.7V21c-.2.2-.5.4-.7.6-.2.1-.5.2-.8.2-.3 0-.6-.1-.8-.2-.2-.1-.4-.3-.5-.5-.1-.2-.2-.4-.3-.7v-.9c0-.4 0-.7.1-1 .1-.3.2-.5.3-.7.2-.2.3-.4.6-.5.2-.1.5-.2.8-.2.2 0 .5.1.7.2.2.1.4.3.6.5v-2.6h.8v6.4zm-.8-3c-.2-.3-.4-.5-.6-.6-.2-.1-.4-.2-.6-.2-.2 0-.4 0-.5.1-.1.1-.2.2-.3.4-.1.2-.1.3-.2.5 0 .2-.1.4-.1.6v.6c0 .2.1.4.2.5.1.2.2.3.3.4.1.1.3.1.5.1h.3c.1 0 .2-.1.3-.1l.3-.3c.1-.1.2-.2.3-.4v-1.6zm6.2.8c0 .3 0 .7-.1 1-.1.3-.2.5-.4.7-.2.2-.4.4-.7.5s-.6.2-.9.2c-.3 0-.6-.1-.9-.2-.3-.1-.5-.3-.6-.5-.2-.2-.3-.4-.4-.7-.1-.3-.1-.6-.1-1 0-.3 0-.7.1-1 .1-.3.2-.5.4-.7.2-.2.4-.4.7-.5.3-.1.6-.2.9-.2.3 0 .6.1.9.2.3.1.5.3.6.5s.3.4.4.7.1.7.1 1zm-.8.1c0-.2 0-.4-.1-.6 0-.2-.1-.4-.2-.5-.1-.2-.2-.3-.4-.4-.2-.1-.4-.1-.6-.1-.2 0-.4 0-.6.1-.2.1-.3.2-.4.3s-.2.3-.2.5c-.1.2-.1.4-.1.7 0 .2 0 .4.1.7s.1.4.2.5c.1.2.2.3.4.4.2.1.4.1.6.1.2 0 .4 0 .6-.1.2-.1.3-.2.4-.3.1-.1.2-.3.2-.5 0-.3.1-.6.1-.8zm7.4.5c0 .3-.1.5-.2.8-.1.2-.2.4-.4.6-.2.2-.4.3-.7.3s-.5.1-.8.1c-.2 0-.4 0-.6-.1-.2 0-.3-.1-.5-.1-.1-.1-.3-.1-.3-.2-.1-.1-.2-.1-.2-.1l-.1-.1v-.6h.1s.1 0 .2.1.2.1.3.2.3.1.5.2.4.1.6.1c.2 0 .3 0 .5-.1.1 0 .3-.1.4-.2.1-.1.2-.2.2-.3.1-.1.1-.3.1-.4 0-.2 0-.3-.1-.4l-.3-.3c-.1-.1-.3-.2-.4-.3-.2-.1-.3-.2-.5-.2-.2-.1-.3-.2-.5-.3s-.3-.2-.4-.3c-.1-.1-.2-.3-.3-.5s-.1-.4-.1-.6c0-.3 0-.5.1-.7.1-.2.2-.4.4-.5l.6-.3c.2-.1.5-.1.7-.1h.4c.1 0 .3.1.4.1s.2.1.3.1c.1 0 .2.1.2.1s0 .1.1.1v.7h-.1s-.1 0-.2-.1c-.1 0-.2-.1-.3-.1s-.2-.1-.4-.1c-.1 0-.3-.1-.5-.1s-.3 0-.4.1c-.1 0-.2.1-.3.2-.1.1-.1.2-.2.3 0 .1-.1.2-.1.3 0 .2 0 .3.1.4l.3.3c.1.1.3.2.4.3.2.1.3.2.5.2.2.1.3.2.5.3.2.1.3.2.4.3s.2.3.3.5.3.2.3.4zm5-.6c0 .3 0 .7-.1 1-.1.3-.2.5-.4.7-.2.2-.4.4-.7.5s-.6.2-.9.2c-.3 0-.6-.1-.9-.2-.3-.1-.5-.3-.6-.5-.2-.2-.3-.4-.4-.7-.1-.3-.1-.6-.1-1 0-.3 0-.7.1-1 .1-.3.2-.5.4-.7.2-.2.4-.4.7-.5.3-.1.6-.2.9-.2.3 0 .6.1.9.2.3.1.5.3.6.5s.3.4.4.7.1.7.1 1zm-.8.1c0-.2 0-.4-.1-.6 0-.2-.1-.4-.2-.5-.1-.2-.2-.3-.4-.4-.2-.1-.4-.1-.6-.1-.2 0-.4 0-.6.1-.2.1-.3.2-.4.3s-.2.3-.2.5c-.1.2-.1.4-.1.7 0 .2 0 .4.1.7s.1.4.2.5c.1.2.2.3.4.4.2.1.4.1.6.1.2 0 .4 0 .6-.1.2-.1.3-.2.4-.3.1-.1.2-.3.2-.5.1-.3.1-.6.1-.8zm5 1.4v.3s0 .1-.1.1c0 0-.1.1-.2.1-.1.1-.2.1-.3.2-.1 0-.2.1-.4.1h-.4c-.3 0-.6 0-.8-.1-.2-.1-.4-.2-.6-.4-.2-.2-.3-.4-.4-.7-.1-.3-.1-.6-.1-1s.1-.8.2-1.1c.1-.3.2-.5.4-.7.2-.2.4-.3.6-.4.2-.1.5-.1.8-.1h.4c.1 0 .2.1.3.1.1 0 .2.1.3.1.1.1.1.1.2.1l.1.1v.6l-.1.1s-.1 0-.2-.1l-.2-.2c-.1-.1-.2-.1-.3-.2-.1-.1-.3-.1-.5-.1-.4 0-.7.1-.9.4-.2.3-.3.7-.3 1.2 0 .3 0 .5.1.7.1.2.1.4.2.5.1.1.2.2.4.3s.3.1.5.1.3 0 .5-.1c.1-.1.3-.1.3-.2.1-.1.2-.1.2-.2.1-.1.1-.1.2-.1h.1v.6zm1.9-5c0 .2 0 .3-.1.4s-.2.1-.4.1-.3 0-.4-.1c-.1-.1-.1-.2-.1-.4s0-.3.1-.4c.1-.1.2-.1.4-.1s.3 0 .4.1.1.3.1.4zm-.1 5.7c0 .1-.1.1-.1.1h-.7v-4.4h.8v4.3zm4.6 0s0 .1 0 0l-.1.1h-.5v-.5c-.2.2-.4.4-.6.5-.2.1-.5.2-.7.2-.2 0-.4 0-.6-.1-.2-.1-.3-.1-.5-.3-.1-.1-.2-.2-.3-.4-.1-.2-.1-.3-.1-.5s0-.4.1-.6c.1-.2.2-.3.4-.4.2-.1.4-.2.7-.3s.6-.1.9-.1h.6v-.3c0-.2 0-.3-.1-.4 0-.1-.1-.2-.2-.3-.1-.1-.2-.1-.3-.2s-.3-.1-.5-.1-.4 0-.5.1c-.2 0-.3.1-.4.1s-.2.1-.3.2c-.1 0-.1.1-.2.1h-.1v-.5s0-.1.1-.1c0 0 .1-.1.2-.1.1-.1.2-.1.4-.2.1 0 .3-.1.4-.1h.5c.3 0 .6 0 .8.1.2.1.4.2.5.3.1.1.2.3.3.5.1.2.1.4.1.7v2.6zm-.8-1.9h-.7c-.2 0-.4 0-.6.1s-.3.1-.4.2c-.1.1-.2.2-.2.3 0 .1-.1.2-.1.3 0 .2.1.4.2.5s.3.2.6.2c.2 0 .4-.1.6-.2.2-.1.4-.3.5-.5v-.9zm3 1.9c0 .1-.1.1-.1.1h-.7v-6.5c0-.1 0 0 .1 0h.7c.1 0 0 0 0 .1v6.3zm5-2.3c0 .1 0 .2-.1.3s-.1.1-.2.1h-2.8c0 .2 0 .4.1.6 0 .2.1.3.2.5s.3.2.4.3c.2.1.4.1.6.1h.5c.1 0 .3-.1.4-.1.1 0 .2-.1.3-.1h.3v.6s-.1 0-.2.1c-.1 0-.2.1-.3.1-.1 0-.3.1-.5.1h-.6c-.3 0-.7 0-.9-.1-.3-.1-.5-.2-.7-.4-.2-.2-.3-.4-.4-.7s-.1-.6-.1-1 0-.7.1-1 .2-.5.4-.7c.2-.2.4-.4.6-.5.3-.1.5-.2.8-.2.3 0 .6.1.8.2.2.1.4.2.6.4.2.2.3.4.3.6s.1.5.1.8zm-.7-.2c0-.4-.1-.7-.3-1-.2-.2-.5-.3-.8-.3-.2 0-.4 0-.5.1-.1.1-.3.2-.4.3-.1.1-.2.3-.2.4s-.1.3-.1.5h2.3zm7.5 2.3v.2l-.1.1h-3c-.1 0-.1 0-.2-.1-.1 0-.1-.1-.1-.3V16c0-.1 0-.2.1-.3.1 0 .1-.1.2-.1h3v.7c0 .1 0 0-.1 0H116v1.9h2.1l.1.1v.5l-.1.1H116V21h2.5l.1.1c.1.1 0 .1 0 .1-.1.1-.1.1-.1.2zm4.9.2c0 .1 0 .1-.1.1h-.7V21c-.2.3-.5.5-.7.6-.2.1-.5.2-.7.2-.3 0-.5 0-.7-.1s-.3-.2-.5-.4-.2-.3-.3-.6-.1-.5-.1-.8v-2.7h.8v2.6c0 .2 0 .4.1.6s.1.3.2.4c.1.1.2.2.3.2s.2.1.4.1.4-.1.6-.2.4-.3.6-.6v-3.1h.8v4.4zm3.9-4v.4h-.9s-.2.1-.2.2l-.3.3c-.1.1-.2.3-.3.4v2.9h-.8v-4.4h.8v.6c.1-.2.2-.3.3-.4l.3-.3c.1-.1.2-.1.3-.1h.9v.2c-.1.1-.1.2-.1.2zm4.6 1.8c0 .3 0 .7-.1 1-.1.3-.2.5-.4.7s-.4.4-.7.5-.6.2-.9.2c-.3 0-.6-.1-.9-.2-.3-.1-.5-.3-.6-.5-.2-.2-.3-.4-.4-.7-.1-.3-.1-.6-.1-1 0-.3 0-.7.1-1s.2-.5.4-.7c.2-.2.4-.4.7-.5.3-.1.6-.2.9-.2.3 0 .6.1.9.2.3.1.5.3.6.5s.3.4.4.7.1.7.1 1zm-.8.1c0-.2 0-.4-.1-.6 0-.2-.1-.4-.2-.5-.1-.2-.2-.3-.4-.4-.2-.1-.4-.1-.6-.1-.2 0-.4 0-.6.1s-.3.2-.4.3-.2.3-.2.5-.1.4-.1.7c0 .2 0 .4.1.7 0 .2.1.4.2.5.1.2.2.3.4.4.2.1.4.1.6.1.2 0 .4 0 .6-.1.2-.1.3-.2.4-.3.1-.1.2-.3.2-.5.1-.3.1-.6.1-.8zm5.9-.1c0 .4 0 .7-.1 1-.1.3-.2.5-.4.7-.2.2-.3.4-.6.5-.2.1-.5.2-.8.2h-.3c-.1 0-.2-.1-.3-.1-.1-.1-.2-.1-.3-.2l-.3-.3v2.2h-.8v-6.1h.8v.7c.1-.1.3-.2.4-.3.1-.1.2-.2.4-.2.1-.1.2-.1.4-.1h.4c.3 0 .6.1.8.2.2.1.4.3.5.5.1.2.2.4.3.7s-.1.3-.1.6zm-.8.1v-.6c0-.2-.1-.4-.2-.5-.1-.2-.2-.3-.3-.4-.1-.1-.3-.1-.5-.1h-.3c-.1 0-.2.1-.3.1-.1.1-.2.1-.3.3-.1.1-.2.2-.3.4v1.7c.2.3.4.5.6.6s.4.2.6.2c.2 0 .4 0 .5-.1.1-.1.3-.2.3-.4.1-.2.2-.3.2-.5-.1-.3 0-.5 0-.7zm5.5-.2c0 .1 0 .2-.1.3s-.1.1-.2.1h-2.8c0 .2 0 .4.1.6 0 .2.1.3.2.5s.3.2.4.3c.2.1.4.1.6.1h.5c.1 0 .3-.1.4-.1.1 0 .2-.1.3-.1h.3v.6s-.1 0-.2.1c-.1 0-.2.1-.3.1-.1 0-.3.1-.5.1h-.6c-.3 0-.7 0-.9-.1-.3-.1-.5-.2-.7-.4-.2-.2-.3-.4-.4-.7s-.1-.6-.1-1 0-.7.1-1 .2-.5.4-.7c.2-.2.4-.4.6-.5.3-.1.5-.2.8-.2.3 0 .6.1.8.2.2.1.4.2.6.4.2.2.3.4.3.6s.1.5.1.8zm-.7-.2c0-.4-.1-.7-.3-1-.2-.2-.5-.3-.8-.3-.2 0-.4 0-.5.1-.1.1-.3.2-.4.3-.1.1-.2.3-.2.4s-.1.3-.1.5h2.3zm5.8.3c0 .3 0 .7-.1 1-.1.3-.2.5-.4.7s-.4.4-.7.5-.6.2-.9.2c-.3 0-.6-.1-.9-.2-.3-.1-.5-.3-.6-.5-.2-.2-.3-.4-.4-.7-.1-.3-.1-.6-.1-1 0-.3 0-.7.1-1s.2-.5.4-.7c.2-.2.4-.4.7-.5.3-.1.6-.2.9-.2.3 0 .6.1.9.2.3.1.5.3.6.5s.3.4.4.7.1.7.1 1zm-.8.1c0-.2 0-.4-.1-.6 0-.2-.1-.4-.2-.5-.1-.2-.2-.3-.4-.4-.2-.1-.4-.1-.6-.1-.2 0-.4 0-.6.1s-.3.2-.4.3-.2.3-.2.5-.1.4-.1.7c0 .2 0 .4.1.7 0 .2.1.4.2.5.1.2.2.3.4.4.2.1.4.1.6.1.2 0 .4 0 .6-.1.2-.1.3-.2.4-.3.1-.1.2-.3.2-.5.1-.3.1-.6.1-.8z"/></g><g class="st2"><path class="st0" d="M62.2 27.5v.3l-.1.1h-2.3V30H62c.1 0 0 0 .1.1v.6l-.1.1h-2.2v2.6H59v-5.7c0-.1 0-.2.1-.3.1 0 .1-.1.2-.1h2.8l.1.1c.1.1 0 .1 0 .1 0-.1 0-.1 0 0zm4.9 3.4c0 .3 0 .7-.1 1-.1.3-.2.5-.4.7-.2.2-.4.4-.7.5s-.6.2-.9.2c-.3 0-.6-.1-.9-.2-.3-.1-.5-.3-.6-.5-.2-.2-.3-.4-.4-.7-.1-.3-.1-.6-.1-1 0-.3 0-.7.1-1 .1-.3.2-.5.4-.7.2-.2.4-.4.7-.5.3-.1.6-.2.9-.2.3 0 .6.1.9.2.3.1.5.3.6.5s.3.4.4.7.1.7.1 1zm-.8.1c0-.2 0-.4-.1-.6 0-.2-.1-.4-.2-.5-.1-.2-.2-.3-.4-.4-.2-.1-.4-.1-.6-.1-.2 0-.4 0-.6.1-.2.1-.3.2-.4.3s-.2.3-.2.5c-.1.2-.1.4-.1.7 0 .2 0 .4.1.7s.1.4.2.5c.1.2.2.3.4.4.2.1.4.1.6.1.2 0 .4 0 .6-.1.2-.1.3-.2.4-.3.1-.1.2-.3.2-.5.1-.3.1-.6.1-.8zm5.6 2.1c0 .1-.1.1-.1.1h-.7v-2.6c0-.2 0-.4-.1-.6 0-.1-.1-.3-.2-.4-.1-.1-.2-.2-.3-.2-.1-.1-.2-.1-.4-.1s-.4.1-.6.2c-.2.1-.4.3-.6.6v3.1h-.8v-4.4h.8v.7c.2-.3.5-.5.7-.6.2-.1.5-.2.7-.2.3 0 .5 0 .7.1.2.1.3.2.5.4.1.2.2.3.3.6.1.2.1.5.1.8v2.5zm5 0c0 .1 0 .1-.1.1h-.7v-.7c-.2.2-.5.4-.7.6-.2.1-.5.2-.8.2-.3 0-.6-.1-.8-.2-.2-.1-.4-.3-.5-.5-.1-.2-.2-.4-.3-.7V31c0-.4 0-.7.1-1 .1-.3.2-.5.3-.7.2-.2.3-.4.6-.5.2-.1.5-.2.8-.2.2 0 .5.1.7.2.2.1.4.3.6.5v-2.6h.8v6.4zm-.8-3c-.2-.3-.4-.5-.6-.6-.2-.1-.4-.2-.6-.2-.2 0-.4 0-.5.1-.1.1-.2.2-.3.4-.1.2-.1.3-.2.5 0 .2-.1.4-.1.6v.6c0 .2.2.5.2.6.1.2.2.3.3.4.1.1.3.1.5.1h.3c.1 0 .2-.1.3-.1l.3-.3c.1-.1.2-.2.3-.4v-1.7zm6.2.8c0 .3 0 .7-.1 1-.1.3-.2.5-.4.7-.2.2-.4.4-.7.5s-.6.2-.9.2c-.3 0-.6-.1-.9-.2-.3-.1-.5-.3-.6-.5-.2-.2-.3-.4-.4-.7-.1-.3-.1-.6-.1-1 0-.3 0-.7.1-1 .1-.3.2-.5.4-.7.2-.2.4-.4.7-.5.3-.1.6-.2.9-.2.3 0 .6.1.9.2.3.1.5.3.6.5s.3.4.4.7.1.7.1 1zm-.8.1c0-.2 0-.4-.1-.6 0-.2-.1-.4-.2-.5-.1-.2-.2-.3-.4-.4-.2-.1-.4-.1-.6-.1-.2 0-.4 0-.6.1-.2.1-.3.2-.4.3s-.2.3-.2.5c-.1.2-.1.4-.1.7 0 .2 0 .4.1.7s.1.4.2.5c.1.2.2.3.4.4.2.1.4.1.6.1.2 0 .4 0 .6-.1.2-.1.3-.2.4-.3.1-.1.2-.3.2-.5 0-.3.1-.6.1-.8zm7.5 1.9v.2l-.1.1H86c-.1 0-.1 0-.2-.1-.1 0-.1-.1-.1-.3v-5.4c0-.1 0-.2.1-.3.1 0 .1-.1.2-.1h3v.7c0 .1 0 0-.1 0h-2.4v1.9h2.1l.1.1c.1.1 0 .1 0 .1v.4l-.1.1h-2.1v2.2H89l.1.1c.1.1 0 .1 0 .1s-.1.1-.1.2zm4.9.2c0 .1 0 .1-.1.1h-.7v-.7c-.2.3-.5.5-.7.6-.2.1-.5.2-.7.2-.3 0-.5 0-.7-.1s-.3-.2-.5-.4c-.1-.2-.2-.3-.3-.6s-.1-.5-.1-.8v-2.7h.8v2.6c0 .2 0 .4.1.6s.1.3.2.4c.1.1.2.2.3.2.1.1.2.1.4.1s.4-.1.6-.2.4-.3.6-.6v-3.1h.8v4.4zm3.9-4v.4c0 .1 0 0-.1 0h-.8s-.2.1-.2.2l-.3.3c-.1.1-.2.3-.3.4v2.9h-.8v-4.4h.8v.7c.1-.2.2-.3.3-.4l.3-.3c.1-.1.2-.1.3-.1h.9v.2c-.1 0-.1.1-.1.1zm4.6 1.8c0 .3 0 .7-.1 1-.1.3-.2.5-.4.7-.2.2-.4.4-.7.5s-.6.2-.9.2c-.3 0-.6-.1-.9-.2-.3-.1-.5-.3-.6-.5-.2-.2-.3-.4-.4-.7-.1-.3-.1-.6-.1-1 0-.3 0-.7.1-1 .1-.3.2-.5.4-.7.2-.2.4-.4.7-.5.3-.1.6-.2.9-.2.3 0 .6.1.9.2.3.1.5.3.6.5s.3.4.4.7.1.7.1 1zm-.8.1c0-.2 0-.4-.1-.6 0-.2-.1-.4-.2-.5-.1-.2-.2-.3-.4-.4-.2-.1-.4-.1-.6-.1-.2 0-.4 0-.6.1-.2.1-.3.2-.4.3s-.2.3-.2.5c-.1.2-.1.4-.1.7 0 .2 0 .4.1.7s.1.4.2.5c.1.2.2.3.4.4.2.1.4.1.6.1.2 0 .4 0 .6-.1.2-.1.3-.2.4-.3.1-.1.2-.3.2-.5.1-.3.1-.6.1-.8zm5.9-.1c0 .4 0 .7-.1 1s-.2.5-.4.7c-.2.2-.3.4-.6.5-.2.1-.5.2-.8.2h-.3c-.1 0-.2-.1-.3-.1-.1-.1-.2-.1-.3-.2l-.3-.3v2.2h-.8v-6.1h.8v.7c.1-.1.3-.2.4-.3.1-.1.2-.2.4-.2.1-.1.2-.1.4-.1h.4c.3 0 .6.1.8.2.2.1.4.3.5.5.1.2.2.4.3.7-.2 0-.1.3-.1.6zm-.8.1v-.6c0-.2-.1-.4-.2-.5s-.2-.3-.3-.4c-.1-.1-.3-.1-.5-.1h-.3c-.1 0-.2.1-.3.1-.1.1-.2.1-.3.3-.1.1-.2.2-.3.4v1.7c.2.3.4.5.6.6.2.1.4.2.6.2.2 0 .4 0 .5-.1.1-.1.3-.2.3-.4.1-.2.2-.3.2-.5-.1-.3 0-.5 0-.7zm5.5-.2c0 .1 0 .2-.1.3-.1.1-.1.1-.2.1h-2.8c0 .2 0 .4.1.6s.1.3.2.5c.1.1.3.2.4.3s.4.1.6.1h.5c.1 0 .3-.1.4-.1.1 0 .2-.1.3-.1h.3v.6s-.1 0-.2.1c-.1 0-.2.1-.3.1-.1 0-.3.1-.5.1h-.6c-.3 0-.7 0-.9-.1-.3-.1-.5-.2-.7-.4-.2-.2-.3-.4-.4-.7-.1-.3-.1-.6-.1-1s0-.7.1-1 .2-.5.4-.7c.2-.2.4-.4.6-.5.2-.1.5-.2.8-.2.3 0 .6.1.8.2.2.1.4.2.6.4s.3.4.3.6.1.5.1.8zm-.8-.2c0-.4-.1-.7-.3-1-.2-.2-.5-.3-.8-.3-.2 0-.4 0-.5.1-.1.1-.3.2-.4.3-.1.1-.2.3-.2.4-.1.2-.1.3-.1.5h2.3zm5.9.3c0 .3 0 .7-.1 1-.1.3-.2.5-.4.7s-.4.4-.7.5-.6.2-.9.2c-.3 0-.6-.1-.9-.2-.3-.1-.5-.3-.6-.5-.2-.2-.3-.4-.4-.7-.1-.3-.1-.6-.1-1 0-.3 0-.7.1-1s.2-.5.4-.7c.2-.2.4-.4.7-.5.3-.1.6-.2.9-.2.3 0 .6.1.9.2.3.1.5.3.6.5s.3.4.4.7.1.7.1 1zm-.8.1c0-.2 0-.4-.1-.6 0-.2-.1-.4-.2-.5-.1-.2-.2-.3-.4-.4-.2-.1-.4-.1-.6-.1-.2 0-.4 0-.6.1s-.3.2-.4.3-.2.3-.2.5-.1.4-.1.7c0 .2 0 .4.1.7 0 .2.1.4.2.5.1.2.2.3.4.4.2.1.4.1.6.1.2 0 .4 0 .6-.1.2-.1.3-.2.4-.3.1-.1.2-.3.2-.5.1-.3.1-.6.1-.8zm7.8 2.1c0 .1 0 .1-.1.1h-.7v-.7c-.2.2-.5.4-.7.6-.2.1-.5.2-.8.2-.3 0-.6-.1-.8-.2-.2-.1-.4-.3-.5-.5-.1-.2-.2-.4-.3-.7-.1-.3-.1-.6-.1-.9 0-.4 0-.7.1-1 .1-.3.2-.5.3-.7.2-.2.3-.4.6-.5.2-.1.5-.2.8-.2.2 0 .5.1.7.2.2.1.4.3.6.5v-2.6h.8v6.4zm-.8-3c-.2-.3-.4-.5-.6-.6-.2-.1-.4-.2-.6-.2-.2 0-.4 0-.5.1-.1.1-.2.2-.3.4s-.1.3-.2.5c0 .2-.1.4-.1.6v.6c0 .2.1.4.2.5.1.2.2.3.3.4.1.1.3.1.5.1h.3c.1 0 .2-.1.3-.1l.3-.3c.1-.1.2-.2.3-.4v-1.6zm3.1-2.7c0 .2 0 .3-.1.4-.1.1-.2.1-.4.1s-.3 0-.4-.1c-.1-.1-.1-.2-.1-.4s0-.3.1-.4c.1-.1.2-.1.4-.1s.3 0 .4.1.1.3.1.4zm-.1 5.7c0 .1-.1.1-.1.1h-.7v-4.4c0-.1 0 0 .1 0h.7c.1 0 0 0 0 .1v4.2zm6.9-1.6c0 .3-.1.5-.2.8-.1.2-.2.4-.4.6-.2.2-.4.3-.7.3s-.5.1-.8.1c-.2 0-.4 0-.6-.1-.2 0-.3-.1-.5-.1-.1-.1-.2-.1-.3-.2-.1-.1-.2-.1-.2-.1l-.1-.1v-.6c0-.1 0 0 .1 0 0 0 .1 0 .2.1s.2.1.3.2.3.1.5.2.4.1.6.1c.2 0 .3 0 .5-.1s.3-.1.4-.2c.1-.1.2-.2.2-.3s.1-.3.1-.4c0-.2 0-.3-.1-.4l-.3-.3c-.1-.1-.3-.2-.4-.3-.2-.1-.3-.2-.5-.2-.2-.1-.3-.2-.5-.3-.2-.1-.3-.2-.4-.3-.1-.1-.2-.3-.3-.5-.1-.2-.1-.4-.1-.6 0-.3 0-.5.1-.7.1-.2.2-.4.4-.5l.6-.3c.2-.1.5-.1.7-.1h.4c.1 0 .3.1.4.1.1 0 .2.1.3.1.1 0 .2.1.2.1s0 .1.1.1v.7h-.1s-.1 0-.2-.1-.2-.1-.3-.1-.2-.1-.4-.1c-.1 0-.3-.1-.5-.1s-.3 0-.4.1c-.1 0-.2.1-.3.2s-.1.2-.2.3c0 .1-.1.2-.1.3 0 .2 0 .3.1.4l.3.3c.1.1.3.2.4.3s.3.2.5.2c.2.1.3.2.5.3.2.1.3.2.4.3s.2.3.3.5c.3 0 .3.2.3.4zm4.4-2.6v.2l-1.4 4v.1s-.1 0-.1.1h-.8s-.1 0-.1-.1l-.1-.1-1.4-4v-.3h.8v.1l1.2 3.5v.1-.1l1.2-3.5v-.1h.7v.1c0-.1 0-.1 0 0zm1.8-1.5c0 .2 0 .3-.1.4-.1.1-.2.1-.4.1s-.3 0-.4-.1c-.1-.1-.1-.2-.1-.4s0-.3.1-.4c.1-.1.2-.1.4-.1s.3 0 .4.1.1.3.1.4zm-.1 5.7c0 .1-.1.1-.1.1h-.7v-4.4c0-.1 0 0 .1 0h.7c.1 0 0 0 0 .1v4.2zm2.2 0c0 .1-.1.1-.1.1h-.7v-6.5h.8v6.4zm5 0c0 .1 0 .1-.1.1h-.7v-.7c-.2.3-.5.5-.7.6s-.5.2-.7.2c-.3 0-.5 0-.7-.1s-.3-.2-.5-.4c-.1-.2-.2-.3-.3-.6s-.1-.5-.1-.8v-2.7h.8v2.6c0 .2 0 .4.1.6s.1.3.2.4c.1.1.2.2.3.2.1.1.2.1.4.1s.4-.1.6-.2.4-.3.6-.6v-3.1h.8v4.4zm5.4-2.2c0 .4 0 .7-.1 1s-.2.5-.4.7c-.2.2-.3.4-.6.5-.2.1-.5.2-.8.2h-.3c-.1 0-.2-.1-.3-.1-.1-.1-.2-.1-.3-.2l-.3-.3v2.2h-.8v-6.1h.8v.7c.1-.1.3-.2.4-.3.1-.1.2-.2.4-.2.1-.1.2-.1.4-.1h.4c.3 0 .6.1.8.2.2.1.4.3.5.5.1.2.2.4.3.7-.2 0-.1.3-.1.6zm-.8.1v-.6c0-.2-.1-.4-.2-.5s-.2-.3-.3-.4c-.1-.1-.3-.1-.5-.1h-.3c-.1 0-.2.1-.3.1-.1.1-.2.1-.3.3-.1.1-.2.2-.3.4v1.7c.2.3.4.5.6.6.2.1.4.2.6.2.2 0 .4 0 .5-.1.1-.1.3-.2.3-.4.1-.2.2-.3.2-.5-.1-.3 0-.5 0-.7zm5.8-.1c0 .4 0 .7-.1 1s-.2.5-.4.7c-.2.2-.3.4-.6.5-.2.1-.5.2-.8.2h-.3c-.1 0-.2-.1-.3-.1-.1-.1-.2-.1-.3-.2l-.3-.3v2.2h-.8v-6.1h.8v.7c.1-.1.3-.2.4-.3.1-.1.2-.2.4-.2.1-.1.2-.1.4-.1h.4c.3 0 .6.1.8.2.2.1.4.3.5.5.1.2.2.4.3.7-.1 0-.1.3-.1.6zm-.8.1v-.6c0-.2-.1-.4-.2-.5s-.2-.3-.3-.4c-.1-.1-.3-.1-.5-.1h-.3c-.1 0-.2.1-.3.1-.1.1-.2.1-.3.3-.1.1-.2.2-.3.4v1.7c.2.3.4.5.6.6.2.1.4.2.6.2.2 0 .4 0 .5-.1.1-.1.3-.2.3-.4.1-.2.2-.3.2-.5V31zm5.9-.1c0 .3 0 .7-.1 1-.1.3-.2.5-.4.7-.2.2-.4.4-.7.5s-.6.2-.9.2c-.3 0-.7-.1-.9-.2-.3-.1-.5-.3-.6-.5-.2-.2-.3-.4-.4-.7-.1-.3-.1-.6-.1-1 0-.3 0-.7.1-1 .1-.3.2-.5.4-.7.2-.2.4-.4.7-.5.3-.1.6-.2.9-.2.3 0 .7.1.9.2.3.1.5.3.6.5s.3.4.4.7.1.7.1 1zm-.8.1c0-.2 0-.4-.1-.6 0-.2-.1-.4-.2-.5-.1-.2-.2-.3-.4-.4s-.4-.1-.6-.1c-.2 0-.4 0-.6.1-.2.1-.3.2-.4.3s-.2.3-.2.5c-.1.2-.1.4-.1.7 0 .2 0 .4.1.7 0 .2.1.4.2.5.1.2.2.3.4.4.2.1.4.1.6.1.2 0 .4 0 .6-.1.2-.1.3-.2.4-.3.1-.1.2-.3.2-.5.1-.3.1-.6.1-.8zm8.3 2.1c0 .1 0 .1-.1.1h-.6s-.1 0-.1-.1V33l-.6-1.4c-.1-.2-.1-.3-.2-.4-.1-.1-.2-.3-.3-.4-.1-.1-.2-.2-.3-.2-.1-.1-.3-.1-.5-.1h-.5v2.7h-.8v-5.7c0-.1 0-.2.1-.3.1 0 .1-.1.2-.1h2c.2 0 .4.1.6.2.2.1.3.2.5.3s.2.3.3.5c.1.2.1.4.1.6 0 .2 0 .4-.1.5-.1.2-.1.3-.2.4-.1.1-.2.2-.4.3-.1.1-.3.2-.5.2.1 0 .2.1.3.2.1.1.2.1.2.2.1.1.1.2.2.3s.1.3.2.4l.5 1.3c0 .1.1.2.1.2l-.1.4zm-1.3-4.3c0-.2-.1-.4-.2-.6s-.3-.3-.5-.4h-1.4v2h.8c.2 0 .4 0 .6-.1.2-.1.3-.1.4-.2.1-.1.2-.2.2-.3s.1-.2.1-.4zm5.8 2c0 .1 0 .2-.1.3s-.1.1-.2.1h-2.8c0 .2 0 .4.1.6 0 .2.1.3.2.5s.3.2.4.3c.2.1.4.1.6.1h.5c.1 0 .3-.1.4-.1.1 0 .2-.1.3-.1h.3v.6s-.1 0-.2.1c-.1 0-.2.1-.3.1-.1 0-.3.1-.5.1h-.6c-.3 0-.7 0-.9-.1-.3-.1-.5-.2-.7-.4-.2-.2-.3-.4-.4-.7s-.1-.6-.1-1 0-.7.1-1 .2-.5.4-.7c.2-.2.4-.4.6-.5.3-.1.5-.2.8-.2.3 0 .6.1.8.2.2.1.4.2.6.4.2.2.3.4.3.6s.1.5.1.8zm-.8-.2c0-.4-.1-.7-.3-1-.2-.2-.5-.3-.8-.3-.2 0-.4 0-.5.1-.1.1-.3.2-.4.3-.1.1-.2.3-.2.4s-.1.3-.1.5h2.3zm5.5-1.5v.2l-.1.1h-.6c.1.1.2.2.2.4 0 .1.1.3.1.4 0 .2 0 .5-.1.6-.1.2-.2.3-.3.5s-.3.2-.5.3c-.2.1-.4.1-.7.1-.2 0-.3 0-.5-.1-.2 0-.3-.1-.4-.2-.1.1-.1.1-.1.2s-.1.2-.1.2c0 .1.1.2.2.3.1.1.2.1.4.1h1.1c.2 0 .4 0 .6.1.2.1.3.1.5.2.1.1.2.2.3.4.1.1.1.3.1.5s0 .4-.1.6c-.1.2-.2.3-.4.5s-.4.2-.6.3c-.3.1-.6.1-.9.1-.3 0-.6 0-.9-.1s-.4-.1-.6-.2c-.2-.1-.3-.2-.3-.4-.1-.1-.1-.3-.1-.5v-.3c0-.1.1-.2.1-.3s.1-.2.2-.3c.1-.1.2-.2.3-.2-.2-.1-.3-.2-.3-.3-.1-.1-.1-.2-.1-.4s0-.4.1-.5.2-.3.3-.4c-.1-.1-.2-.2-.2-.4s-.1-.3-.1-.5 0-.5.1-.6c.1-.2.2-.4.3-.5.1-.1.3-.2.5-.3.2-.1.4-.1.7-.1h.4c.1 0 .2 0 .3.1h1.3c.1 0 .1 0 .1.1-.2.1-.2.2-.2.3zm-.8 4.4c0-.2-.1-.3-.2-.4s-.3-.2-.6-.2h-1.1l-.2.2-.2.2c0 .1-.1.1-.1.2v.2c0 .2.1.4.3.5.2.1.5.2.9.2.2 0 .4 0 .6-.1.2 0 .3-.1.4-.2.1-.1.2-.2.2-.3-.1-.1 0-.2 0-.3zm-.4-3.3c0-.3-.1-.5-.2-.7-.2-.2-.4-.2-.7-.2-.2 0-.3 0-.4.1-.1 0-.2.1-.3.2-.1.1-.1.2-.2.3s-.1.2-.1.4c0 .3.1.5.2.7.2.2.4.2.7.2.2 0 .3 0 .4-.1.1 0 .2-.1.3-.2.1-.1.1-.2.2-.3 0-.2.1-.3.1-.4zm3-2.8c0 .2 0 .3-.1.4-.1.1-.2.1-.4.1s-.3 0-.4-.1c-.1-.1-.1-.2-.1-.4s0-.3.1-.4c.1-.1.2-.1.4-.1s.3 0 .4.1.1.3.1.4zm-.1 5.7c0 .1-.1.1-.1.1h-.7v-4.4h.8v4.3zm5.4-2.2c0 .3 0 .7-.1 1-.1.3-.2.5-.4.7s-.4.4-.7.5-.6.2-.9.2c-.3 0-.6-.1-.9-.2-.3-.1-.5-.3-.6-.5-.2-.2-.3-.4-.4-.7-.1-.3-.1-.6-.1-1 0-.3 0-.7.1-1s.2-.5.4-.7c.2-.2.4-.4.7-.5.3-.1.6-.2.9-.2.3 0 .6.1.9.2.3.1.5.3.6.5s.3.4.4.7.1.7.1 1zm-.8.1c0-.2 0-.4-.1-.6 0-.2-.1-.4-.2-.5-.1-.2-.2-.3-.4-.4-.2-.1-.4-.1-.6-.1-.2 0-.4 0-.6.1s-.3.2-.4.3-.2.3-.2.5-.1.4-.1.7c0 .2 0 .4.1.7 0 .2.1.4.2.5.1.2.2.3.4.4.2.1.4.1.6.1.2 0 .4 0 .6-.1.2-.1.3-.2.4-.3.1-.1.2-.3.2-.5.1-.3.1-.6.1-.8zm5.6 2.1c0 .1-.1.1-.1.1h-.7v-2.6c0-.2 0-.4-.1-.6 0-.1-.1-.3-.2-.4-.1-.1-.2-.2-.3-.2-.1-.1-.2-.1-.4-.1s-.4.1-.6.2c-.2.1-.4.3-.6.6v3.1h-.8v-4.4h.8v.7c.2-.3.5-.5.7-.6.2-.1.5-.2.7-.2.3 0 .5 0 .7.1.2.1.3.2.5.4.1.2.2.3.3.6.1.2.1.5.1.8v2.5zm4.6 0s0 .1 0 0l-.1.1h-.5v-.5c-.2.2-.4.4-.6.5-.2.1-.5.2-.7.2-.2 0-.4 0-.6-.1-.2-.1-.3-.1-.5-.3-.1-.1-.2-.2-.3-.4s-.1-.3-.1-.5 0-.4.1-.6c.1-.2.2-.3.4-.4.2-.1.4-.2.7-.3s.6-.1.9-.1h.6v-.3c0-.2 0-.3-.1-.4 0-.1-.1-.2-.2-.3-.1-.1-.2-.1-.3-.2s-.3-.1-.5-.1-.4 0-.5.1c-.2 0-.3.1-.4.1s-.2.1-.3.2c-.1 0-.1.1-.2.1h-.1v-.5s0-.1.1-.1c0 0 .1-.1.2-.1s.2-.1.4-.2c.1 0 .3-.1.4-.1h.5c.3 0 .6 0 .8.1.2.1.4.2.5.3.1.1.2.3.3.5.1.2.1.4.1.7v2.6zm-.8-1.9h-.7c-.2 0-.4 0-.6.1s-.3.1-.4.2c-.1.1-.2.2-.2.3 0 .1-.1.2-.1.3 0 .2.1.4.2.5.1.1.3.2.6.2.2 0 .4-.1.6-.2s.4-.3.5-.5v-.9zm3 1.9c0 .1-.1.1-.1.1h-.7v-6.5h.8v6.4zm5-2.3c0 .1 0 .2-.1.3-.1.1-.1.1-.2.1h-2.8c0 .2 0 .4.1.6s.1.3.2.5c.1.1.3.2.4.3s.4.1.6.1h.5c.1 0 .3-.1.4-.1.1 0 .2-.1.3-.1h.3v.6s-.1 0-.2.1c-.1 0-.2.1-.3.1-.1 0-.3.1-.5.1h-.6c-.3 0-.7 0-.9-.1-.3-.1-.5-.2-.7-.4-.2-.2-.3-.4-.4-.7-.1-.3-.1-.6-.1-1s0-.7.1-1 .2-.5.4-.7c.2-.2.4-.4.6-.5.2-.1.5-.2.8-.2.3 0 .6.1.8.2.2.1.4.2.6.4s.3.4.3.6.1.5.1.8zm-.8-.2c0-.4-.1-.7-.3-1-.2-.2-.5-.3-.8-.3-.2 0-.4 0-.5.1-.1.1-.3.2-.4.3-.1.1-.2.3-.2.4-.1.2-.1.3-.1.5h2.3z"/></g></svg>